0
SECTION
2
HEADER
9
$INSUNITS
70
4
0
ENDSEC
0
SECTION
2
TABLES
0
TABLE
2
LAYER
0
ENDTAB
0
ENDSEC
0
SECTION
2
ENTITIES
0
LINE
8
background
10
0
20
0
11
450
21
0
0
LINE
8
background
10
450
20
0
11
450
21
450
0
LINE
8
background
10
450
20
450
11
0
21
450
0
LINE
8
background
10
0
20
450
11
0
21
0
0
ARC
8
minutes
10
25
20
25
40
1
50
180
51
270
0
ARC
8
minutes
10
25
20
25
40
1
50
270
51
0
0
ARC
8
minutes
10
25
20
25
40
1
50
0
51
90
0
ARC
8
minutes
10
25
20
25
40
1
50
90
51
180
0
ARC
8
minutes
10
425
20
25
40
1
50
180
51
270
0
ARC
8
minutes
10
425
20
25
40
1
50
270
51
0
0
ARC
8
minutes
10
425
20
25
40
1
50
0
51
90
0
ARC
8
minutes
10
425
20
25
40
1
50
90
51
180
0
ARC
8
minutes
10
425
20
425
40
1
50
180
51
270
0
ARC
8
minutes
10
425
20
425
40
1
50
270
51
0
0
ARC
8
minutes
10
425
20
425
40
1
50
0
51
90
0
ARC
8
minutes
10
425
20
425
40
1
50
90
51
180
0
ARC
8
minutes
10
25
20
425
40
1
50
180
51
270
0
ARC
8
minutes
10
25
20
425
40
1
50
270
51
0
0
ARC
8
minutes
10
25
20
425
40
1
50
0
51
90
0
ARC
8
minutes
10
25
20
425
40
1
50
90
51
180
0
LINE
8
text
10
88.141
20
360.452
11
88.141
21
359.024
0
LINE
8
text
10
88.141
20
359.024
11
78.859
21
359.024
0
LINE
8
text
10
78.859
20
359.024
11
78.859
21
373.976
0
LINE
8
text
10
78.859
20
373.976
11
88.141
21
373.976
0
LINE
8
text
10
88.141
20
373.976
11
88.141
21
372.548
0
LINE
8
text
10
88.141
20
372.548
11
80.455
21
372.548
0
LINE
8
text
10
80.455
20
372.548
11
80.455
21
367.277
0
LINE
8
text
10
80.455
20
367.277
11
87.007
21
367.277
0
LINE
8
text
10
87.007
20
367.277
11
87.007
21
365.849
0
LINE
8
text
10
87.007
20
365.849
11
80.455
21
365.849
0
LINE
8
text
10
80.455
20
365.849
11
80.455
21
360.452
0
LINE
8
text
10
80.455
20
360.452
11
88.141
21
360.452
0
LINE
8
text
10
106.6653625
20
360.8720046
11
107.7363625
21
361.9430046
0
LINE
8
text
10
112.6713625
20
365.7020046
11
110.9283625
21
365.9540046
0
LINE
8
text
10
116.2833625
20
372.4640046
11
115.2543625
21
371.4350046
0
LINE
8
text
10
111.2223625
20
367.4240046
11
112.9653625
21
367.1510046
0
ARC
8
text
10
112.5739472
20
363.0910301
40
4.3606904
50
341.3886729
51
0.643497
0
ARC
8
text
10
113.2560968
20
362.907131
40
3.6557806
50
308.409713
51
340.7080933
0
ARC
8
text
10
112.4922844
20
363.8392949
40
4.8607937
50
283.9076611
51
308.638141
0
ARC
8
text
10
111.9029319
20
366.0497816
40
7.1482504
50
271.9904357
51
284.2344278
0
ARC
8
text
10
111.7714947
20
368.096913
40
9.1989091
50
269.9804912
51
272.3657429
0
ARC
8
text
10
111.7310587
20
369.111781
40
10.2138445
50
262.991551
51
270.2092606
0
ARC
8
text
10
111.3383423
20
366.0021366
40
7.0795247
50
252.9702823
51
263.0753696
0
ARC
8
text
10
110.9331568
20
364.5862221
40
5.6070944
50
248.7601959
51
252.6917647
0
ARC
8
text
10
111.1098402
20
364.9428901
40
6.0036468
50
232.2907278
51
248.4216782
0
ARC
8
text
10
112.1248893
20
366.3053958
40
7.7024784
50
224.8625291
51
232.5165143
0
ARC
8
text
10
112.4855944
20
366.6511186
40
6.6874166
50
224.750895
51
233.4585116
0
ARC
8
text
10
111.3139773
20
365.0560051
40
4.7082822
50
233.3559193
51
246.0844601
0
ARC
8
text
10
110.9770236
20
364.3539669
40
3.9299905
50
246.4259823
51
249.0815191
0
ARC
8
text
10
111.3610142
20
365.4418008
40
5.0833111
50
249.4164819
51
260.5991799
0
ARC
8
text
10
111.7274524
20
367.5941459
40
7.2666107
50
260.5207057
51
268.5543753
0
ARC
8
text
10
111.8084198
20
369.414417
40
9.0884125
50
268.3336029
51
270.0122474
0
ARC
8
text
10
111.844668
20
366.4826865
40
6.1567774
50
269.6807469
51
279.1357753
0
ARC
8
text
10
112.1962244
20
364.3759099
40
4.0209271
50
278.9563139
51
293.8378836
0
ARC
8
text
10
112.5906366
20
363.4436829
40
3.0088665
50
294.1424442
51
307.3092805
0
ARC
8
text
10
112.9930618
20
362.9301875
40
2.3565448
50
307.0943309
51
356.263256
0
ARC
8
text
10
111.9483237
20
363.0936752
40
3.4110416
50
354.6664448
51
0.0727224
0
ARC
8
text
10
112.2300239
20
363.1254342
40
3.1294588
50
359.497798
51
14.0026424
0
ARC
8
text
10
113.1583312
20
363.3665514
40
2.1704142
50
13.7562661
51
47.5100002
0
ARC
8
text
10
113.1283147
20
363.1884438
40
2.3240993
50
49.9309173
51
65.1415108
0
ARC
8
text
10
112.4261828
20
361.7166714
40
3.9547141
50
64.8752638
51
74.0925123
0
ARC
8
text
10
111.7407194
20
359.3580554
40
6.4108958
50
73.9785361
51
80.3632038
0
ARC
8
text
10
111.3805499
20
357.4344297
40
8.3677351
50
80.1367769
51
81.1260788
0
ARC
8
text
10
112.0231083
20
373.1880195
40
7.3163816
50
252.0905266
51
261.3945495
0
ARC
8
text
10
111.2771686
20
370.9196867
40
4.9285923
50
238.0591449
51
252.232937
0
ARC
8
text
10
110.7319682
20
370.0012743
40
3.8608676
50
228.9872436
51
237.7144662
0
ARC
8
text
10
110.4511872
20
369.6134635
40
3.384252
50
187.0975824
51
228.2655818
0
ARC
8
text
10
111.9062832
20
369.887579
40
4.8629421
50
179.8300356
51
188.1842408
0
ARC
8
text
10
111.6133833
20
369.9488487
40
4.5702609
50
162.7627596
51
180.5872779
0
ARC
8
text
10
110.7502857
20
370.1872756
40
3.6753827
50
131.0858846
51
162.3255988
0
ARC
8
text
10
111.2003573
20
369.6716457
40
4.3598084
50
103.5855709
51
131.090664
0
ARC
8
text
10
111.7351784
20
367.6358107
40
6.4644433
50
91.1302515
51
103.9546798
0
ARC
8
text
10
111.8301792
20
365.871139
40
8.2308655
50
89.9917629
51
91.5491292
0
ARC
8
text
10
111.8631501
20
365.5223337
40
8.5797298
50
82.5829556
51
90.2122789
0
ARC
8
text
10
112.1972452
20
368.0191406
40
6.0606924
50
71.8919403
51
82.6679005
0
ARC
8
text
10
112.5016471
20
369.0341891
40
5.0013744
50
69.3262609
51
71.5922282
0
ARC
8
text
10
112.1189125
20
368.1091027
40
6.0020962
50
56.0311955
51
69.0256516
0
ARC
8
text
10
111.087884
20
366.5400911
40
7.879451
50
48.7481094
51
56.1882364
0
ARC
8
text
10
112.0415537
20
368.0562709
40
4.6624009
50
46.4419674
51
84.6162075
0
ARC
8
text
10
111.7786213
20
366.413815
40
6.323198
50
83.6405745
51
90.092957
0
ARC
8
text
10
111.7356831
20
368.0036352
40
4.7334822
50
89.604433
51
101.0290674
0
ARC
8
text
10
111.4126217
20
369.5938935
40
3.1108184
50
100.7920786
51
120.4332998
0
ARC
8
text
10
111.1667372
20
370.0576641
40
2.5864987
50
120.9407984
51
131.9603443
0
ARC
8
text
10
111.1053251
20
370.1255903
40
2.4949272
50
131.954603
51
174.2976238
0
ARC
8
text
10
112.1222721
20
369.951182
40
3.5249169
50
173.1190849
51
180.1166655
0
ARC
8
text
10
111.6581917
20
369.9189381
40
3.0609318
50
179.53079
51
192.7893772
0
ARC
8
text
10
110.6336914
20
369.6703685
40
2.0068843
50
192.3436713
51
222.2489969
0
ARC
8
text
10
110.5582347
20
369.6239868
40
1.9199141
50
222.7384397
51
227.8311553
0
ARC
8
text
10
110.9452723
20
370.2570913
40
2.6525772
50
230.8166321
51
244.6590761
0
ARC
8
text
10
111.7337663
20
371.8830253
40
4.4595685
50
244.4442943
51
253.2004465
0
ARC
8
text
10
112.5207099
20
374.4399194
40
7.134799
50
253.0851798
51
259.0839443
0
ARC
8
text
10
112.9014542
20
376.2401336
40
8.9746019
50
258.8736011
51
259.2167746
0
ARC
8
text
10
110.0738397
20
350.969716
40
16.4376094
50
77.6966274
51
79.8684416
0
ARC
8
text
10
111.3274463
20
356.6983787
40
10.5733892
50
74.9133201
51
77.7188791
0
ARC
8
text
10
112.4343668
20
360.7764829
40
6.3477393
50
70.8598644
51
74.9793856
0
ARC
8
text
10
113.0517801
20
362.600729
40
4.4219261
50
69.4586152
51
70.6674363
0
ARC
8
text
10
113.4400401
20
363.6602802
40
3.2935183
50
47.28127
51
69.3158707
0
ARC
8
text
10
113.4085984
20
363.4027713
40
3.507316
50
5.3828035
51
49.758493
0
ARC
8
text
10
111.9245108
20
363.1497606
40
5.0098611
50
359.888425
51
6.6715135
0
LINE
8
text
10
140.3205
20
368.201
11
145.6965
21
359.024
0
LINE
8
text
10
145.6965
20
359.024
11
143.8065
21
359.024
0
LINE
8
text
10
143.8065
20
359.024
11
139.2495
21
366.983
0
LINE
8
text
10
139.2495
20
366.983
11
136.0995
21
363.203
0
LINE
8
text
10
136.0995
20
363.203
11
136.0995
21
359.024
0
LINE
8
text
10
136.0995
20
359.024
11
134.5035
21
359.024
0
LINE
8
text
10
134.5035
20
359.024
11
134.5035
21
373.976
0
LINE
8
text
10
134.5035
20
373.976
11
136.0995
21
373.976
0
LINE
8
text
10
136.0995
20
373.976
11
136.0995
21
365.387
0
LINE
8
text
10
136.0995
20
365.387
11
143.0715
21
373.976
0
LINE
8
text
10
143.0715
20
373.976
11
145.0245
21
373.976
0
LINE
8
text
10
145.0245
20
373.976
11
140.3205
21
368.201
0
LINE
8
text
10
169.198
20
373.976
11
169.198
21
359.024
0
LINE
8
text
10
169.198
20
359.024
11
167.602
21
359.024
0
LINE
8
text
10
167.602
20
359.024
11
167.602
21
373.976
0
LINE
8
text
10
167.602
20
373.976
11
169.198
21
373.976
0
LINE
8
text
10
191.5653625
20
360.8720046
11
192.6363625
21
361.9430046
0
LINE
8
text
10
197.5713625
20
365.7020046
11
195.8283625
21
365.9540046
0
LINE
8
text
10
201.1833625
20
372.4640046
11
200.1543625
21
371.4350046
0
LINE
8
text
10
196.1223625
20
367.4240046
11
197.8653625
21
367.1510046
0
ARC
8
text
10
197.4739472
20
363.0910301
40
4.3606904
50
341.3886729
51
0.643497
0
ARC
8
text
10
198.1560968
20
362.907131
40
3.6557806
50
308.409713
51
340.7080933
0
ARC
8
text
10
197.3922844
20
363.8392949
40
4.8607937
50
283.9076611
51
308.638141
0
ARC
8
text
10
196.8029319
20
366.0497816
40
7.1482504
50
271.9904357
51
284.2344278
0
ARC
8
text
10
196.6714947
20
368.096913
40
9.1989091
50
269.9804912
51
272.3657429
0
ARC
8
text
10
196.6310587
20
369.111781
40
10.2138445
50
262.991551
51
270.2092606
0
ARC
8
text
10
196.2383423
20
366.0021366
40
7.0795247
50
252.9702823
51
263.0753696
0
ARC
8
text
10
195.8331568
20
364.5862221
40
5.6070944
50
248.7601959
51
252.6917647
0
ARC
8
text
10
196.0098402
20
364.9428901
40
6.0036468
50
232.2907278
51
248.4216782
0
ARC
8
text
10
197.0248893
20
366.3053958
40
7.7024784
50
224.8625291
51
232.5165143
0
ARC
8
text
10
197.3855944
20
366.6511186
40
6.6874166
50
224.750895
51
233.4585116
0
ARC
8
text
10
196.2139773
20
365.0560051
40
4.7082822
50
233.3559193
51
246.0844601
0
ARC
8
text
10
195.8770236
20
364.3539669
40
3.9299905
50
246.4259823
51
249.0815191
0
ARC
8
text
10
196.2610142
20
365.4418008
40
5.0833111
50
249.4164819
51
260.5991799
0
ARC
8
text
10
196.6274524
20
367.5941459
40
7.2666107
50
260.5207057
51
268.5543753
0
ARC
8
text
10
196.7084198
20
369.414417
40
9.0884125
50
268.3336029
51
270.0122474
0
ARC
8
text
10
196.744668
20
366.4826865
40
6.1567774
50
269.6807469
51
279.1357753
0
ARC
8
text
10
197.0962244
20
364.3759099
40
4.0209271
50
278.9563139
51
293.8378836
0
ARC
8
text
10
197.4906366
20
363.4436829
40
3.0088665
50
294.1424442
51
307.3092805
0
ARC
8
text
10
197.8930618
20
362.9301875
40
2.3565448
50
307.0943309
51
356.263256
0
ARC
8
text
10
196.8483237
20
363.0936752
40
3.4110416
50
354.6664448
51
0.0727224
0
ARC
8
text
10
197.1300239
20
363.1254342
40
3.1294588
50
359.497798
51
14.0026424
0
ARC
8
text
10
198.0583312
20
363.3665514
40
2.1704142
50
13.7562661
51
47.5100002
0
ARC
8
text
10
198.0283147
20
363.1884438
40
2.3240993
50
49.9309173
51
65.1415108
0
ARC
8
text
10
197.3261828
20
361.7166714
40
3.9547141
50
64.8752638
51
74.0925123
0
ARC
8
text
10
196.6407194
20
359.3580554
40
6.4108958
50
73.9785361
51
80.3632038
0
ARC
8
text
10
196.2805499
20
357.4344297
40
8.3677351
50
80.1367769
51
81.1260788
0
ARC
8
text
10
196.9231083
20
373.1880195
40
7.3163816
50
252.0905266
51
261.3945495
0
ARC
8
text
10
196.1771686
20
370.9196867
40
4.9285923
50
238.0591449
51
252.232937
0
ARC
8
text
10
195.6319682
20
370.0012743
40
3.8608676
50
228.9872436
51
237.7144662
0
ARC
8
text
10
195.3511872
20
369.6134635
40
3.384252
50
187.0975824
51
228.2655818
0
ARC
8
text
10
196.8062832
20
369.887579
40
4.8629421
50
179.8300356
51
188.1842408
0
ARC
8
text
10
196.5133833
20
369.9488487
40
4.5702609
50
162.7627596
51
180.5872779
0
ARC
8
text
10
195.6502857
20
370.1872756
40
3.6753827
50
131.0858846
51
162.3255988
0
ARC
8
text
10
196.1003573
20
369.6716457
40
4.3598084
50
103.5855709
51
131.090664
0
ARC
8
text
10
196.6351784
20
367.6358107
40
6.4644433
50
91.1302515
51
103.9546798
0
ARC
8
text
10
196.7301792
20
365.871139
40
8.2308655
50
89.9917629
51
91.5491292
0
ARC
8
text
10
196.7631501
20
365.5223337
40
8.5797298
50
82.5829556
51
90.2122789
0
ARC
8
text
10
197.0972452
20
368.0191406
40
6.0606924
50
71.8919403
51
82.6679005
0
ARC
8
text
10
197.4016471
20
369.0341891
40
5.0013744
50
69.3262609
51
71.5922282
0
ARC
8
text
10
197.0189125
20
368.1091027
40
6.0020962
50
56.0311955
51
69.0256516
0
ARC
8
text
10
195.987884
20
366.5400911
40
7.879451
50
48.7481094
51
56.1882364
0
ARC
8
text
10
196.9415537
20
368.0562709
40
4.6624009
50
46.4419674
51
84.6162075
0
ARC
8
text
10
196.6786213
20
366.413815
40
6.323198
50
83.6405745
51
90.092957
0
ARC
8
text
10
196.6356831
20
368.0036352
40
4.7334822
50
89.604433
51
101.0290674
0
ARC
8
text
10
196.3126217
20
369.5938935
40
3.1108184
50
100.7920786
51
120.4332998
0
ARC
8
text
10
196.0667372
20
370.0576641
40
2.5864987
50
120.9407984
51
131.9603443
0
ARC
8
text
10
196.0053251
20
370.1255903
40
2.4949272
50
131.954603
51
174.2976238
0
ARC
8
text
10
197.0222721
20
369.951182
40
3.5249169
50
173.1190849
51
180.1166655
0
ARC
8
text
10
196.5581917
20
369.9189381
40
3.0609318
50
179.53079
51
192.7893772
0
ARC
8
text
10
195.5336914
20
369.6703685
40
2.0068843
50
192.3436713
51
222.2489969
0
ARC
8
text
10
195.4582347
20
369.6239868
40
1.9199141
50
222.7384397
51
227.8311553
0
ARC
8
text
10
195.8452723
20
370.2570913
40
2.6525772
50
230.8166321
51
244.6590761
0
ARC
8
text
10
196.6337663
20
371.8830253
40
4.4595685
50
244.4442943
51
253.2004465
0
ARC
8
text
10
197.4207099
20
374.4399194
40
7.134799
50
253.0851798
51
259.0839443
0
ARC
8
text
10
197.8014542
20
376.2401336
40
8.9746019
50
258.8736011
51
259.2167746
0
ARC
8
text
10
194.9738397
20
350.969716
40
16.4376094
50
77.6966274
51
79.8684416
0
ARC
8
text
10
196.2274463
20
356.6983787
40
10.5733892
50
74.9133201
51
77.7188791
0
ARC
8
text
10
197.3343668
20
360.7764829
40
6.3477393
50
70.8598644
51
74.9793856
0
ARC
8
text
10
197.9517801
20
362.600729
40
4.4219261
50
69.4586152
51
70.6674363
0
ARC
8
text
10
198.3400401
20
363.6602802
40
3.2935183
50
47.28127
51
69.3158707
0
ARC
8
text
10
198.3085984
20
363.4027713
40
3.507316
50
5.3828035
51
49.758493
0
ARC
8
text
10
196.8245108
20
363.1497606
40
5.0098611
50
359.888425
51
6.6715135
0
LINE
8
text
10
230.124
20
373.976
11
230.124
21
372.548
0
LINE
8
text
10
230.124
20
372.548
11
225.798
21
372.548
0
LINE
8
text
10
225.798
20
372.548
11
225.798
21
359.024
0
LINE
8
text
10
225.798
20
359.024
11
224.202
21
359.024
0
LINE
8
text
10
224.202
20
359.024
11
224.202
21
372.548
0
LINE
8
text
10
224.202
20
372.548
11
219.876
21
372.548
0
LINE
8
text
10
219.876
20
372.548
11
219.876
21
373.976
0
LINE
8
text
10
219.876
20
373.976
11
230.124
21
373.976
0
LINE
8
text
10
253.9825
20
373.976
11
259.4635
21
359.024
0
LINE
8
text
10
259.4635
20
359.024
11
257.7625
21
359.024
0
LINE
8
text
10
257.7625
20
359.024
11
256.5655
21
362.405
0
LINE
8
text
10
256.5655
20
362.405
11
250.0345
21
362.405
0
LINE
8
text
10
250.0345
20
362.405
11
248.8375
21
359.024
0
LINE
8
text
10
248.8375
20
359.024
11
247.1365
21
359.024
0
LINE
8
text
10
247.1365
20
359.024
11
252.6385
21
373.976
0
LINE
8
text
10
252.6385
20
373.976
11
253.9825
21
373.976
0
LINE
8
text
10
250.5175
20
363.791
11
256.1035
21
363.791
0
LINE
8
text
10
256.1035
20
363.791
11
253.3315
21
371.687
0
LINE
8
text
10
253.3315
20
371.687
11
250.5175
21
363.791
0
LINE
8
text
10
286.241
20
373.976
11
286.241
21
372.548
0
LINE
8
text
10
286.241
20
372.548
11
278.555
21
372.548
0
LINE
8
text
10
278.555
20
372.548
11
278.555
21
367.046
0
LINE
8
text
10
278.555
20
367.046
11
285.107
21
367.046
0
LINE
8
text
10
285.107
20
367.046
11
285.107
21
365.618
0
LINE
8
text
10
285.107
20
365.618
11
278.555
21
365.618
0
LINE
8
text
10
278.555
20
365.618
11
278.555
21
359.024
0
LINE
8
text
10
278.555
20
359.024
11
276.959
21
359.024
0
LINE
8
text
10
276.959
20
359.024
11
276.959
21
373.976
0
LINE
8
text
10
276.959
20
373.976
11
286.241
21
373.976
0
LINE
8
text
10
313.5223522
20
374.0391333
11
315.1183522
21
374.0391333
0
LINE
8
text
10
315.1183522
20
374.0391333
11
315.1183522
21
364.0221333
0
LINE
8
text
10
304.6813522
20
364.0221333
11
304.6813522
21
374.0391333
0
LINE
8
text
10
304.6813522
20
374.0391333
11
306.2773522
21
374.0391333
0
LINE
8
text
10
306.2773522
20
374.0391333
11
306.2773522
21
364.1481333
0
LINE
8
text
10
313.5223522
20
364.1481333
11
313.5223522
21
374.0391333
0
LINE
8
text
10
312.8713522
20
377.5251333
11
312.8713522
21
375.6561333
0
LINE
8
text
10
312.8713522
20
375.6561333
11
311.3593522
21
375.6561333
0
LINE
8
text
10
311.3593522
20
375.6561333
11
311.3593522
21
377.5251333
0
LINE
8
text
10
311.3593522
20
377.5251333
11
312.8713522
21
377.5251333
0
LINE
8
text
10
308.4193522
20
377.5251333
11
308.4193522
21
375.6561333
0
LINE
8
text
10
308.4193522
20
375.6561333
11
306.9073522
21
375.6561333
0
LINE
8
text
10
306.9073522
20
375.6561333
11
306.9073522
21
377.5251333
0
LINE
8
text
10
306.9073522
20
377.5251333
11
308.4193522
21
377.5251333
0
ARC
8
text
10
309.6628414
20
363.965251
40
5.4558074
50
341.5260673
51
0.5973772
0
ARC
8
text
10
310.4616796
20
363.7458135
40
4.62882
50
313.3279489
51
340.9690339
0
ARC
8
text
10
310.1432903
20
364.0295433
40
5.053821
50
274.1798914
51
313.7465269
0
ARC
8
text
10
309.8965322
20
365.7232599
40
6.7621305
50
269.939164
51
275.2191655
0
ARC
8
text
10
309.83304
20
364.9061406
40
5.945274
50
252.9275836
51
270.5427003
0
ARC
8
text
10
309.5493651
20
363.8714842
40
4.8730379
50
225.7885042
51
252.5445151
0
ARC
8
text
10
309.4366403
20
363.8035377
40
4.7458495
50
182.5175038
51
226.1919584
0
ARC
8
text
10
311.0823435
20
364.0185019
40
6.4009922
50
179.9674944
51
183.792868
0
ARC
8
text
10
311.0904647
20
364.1090505
40
4.8132711
50
179.5347637
51
193.7269681
0
ARC
8
text
10
309.7456329
20
363.7700149
40
3.4264146
50
193.5559133
51
223.3455912
0
ARC
8
text
10
309.5969024
20
363.6530514
40
3.2380153
50
223.6469187
51
261.6343885
0
ARC
8
text
10
309.8717854
20
365.0267942
40
4.6376941
50
260.7436849
51
270.2170282
0
ARC
8
text
10
309.9281958
20
364.6239678
40
4.2350126
50
269.474476
51
285.659462
0
ARC
8
text
10
310.1848272
20
363.6713258
40
3.2484756
50
285.8363762
51
316.0830212
0
ARC
8
text
10
310.025228
20
363.8195545
40
3.4662581
50
316.1478917
51
350.4500564
0
ARC
8
text
10
308.5720295
20
364.1251037
40
4.9503763
50
349.7530689
51
0.2665469
0
LINE
8
text
10
343.723
20
373.976
11
343.723
21
359.024
0
LINE
8
text
10
343.723
20
359.024
11
342.211
21
359.024
0
LINE
8
text
10
342.211
20
359.024
11
334.273
21
371.015
0
LINE
8
text
10
334.273
20
371.015
11
334.273
21
359.024
0
LINE
8
text
10
334.273
20
359.024
11
332.677
21
359.024
0
LINE
8
text
10
332.677
20
359.024
11
332.677
21
373.976
0
LINE
8
text
10
332.677
20
373.976
11
334.189
21
373.976
0
LINE
8
text
10
334.189
20
373.976
11
342.127
21
362.027
0
LINE
8
text
10
342.127
20
362.027
11
342.127
21
373.976
0
LINE
8
text
10
342.127
20
373.976
11
343.723
21
373.976
0
LINE
8
text
10
371.141
20
373.976
11
371.141
21
372.548
0
LINE
8
text
10
371.141
20
372.548
11
363.455
21
372.548
0
LINE
8
text
10
363.455
20
372.548
11
363.455
21
367.046
0
LINE
8
text
10
363.455
20
367.046
11
370.007
21
367.046
0
LINE
8
text
10
370.007
20
367.046
11
370.007
21
365.618
0
LINE
8
text
10
370.007
20
365.618
11
363.455
21
365.618
0
LINE
8
text
10
363.455
20
365.618
11
363.455
21
359.024
0
LINE
8
text
10
363.455
20
359.024
11
361.859
21
359.024
0
LINE
8
text
10
361.859
20
359.024
11
361.859
21
373.976
0
LINE
8
text
10
361.859
20
373.976
11
371.141
21
373.976
0
LINE
8
text
10
88.141
20
329.0075556
11
88.141
21
327.5795556
0
LINE
8
text
10
88.141
20
327.5795556
11
78.859
21
327.5795556
0
LINE
8
text
10
78.859
20
327.5795556
11
78.859
21
329.0915556
0
LINE
8
text
10
78.859
20
329.0915556
11
86.335
21
341.1035556
0
LINE
8
text
10
86.335
20
341.1035556
11
79.153
21
341.1035556
0
LINE
8
text
10
79.153
20
341.1035556
11
79.153
21
342.5315556
0
LINE
8
text
10
79.153
20
342.5315556
11
88.141
21
342.5315556
0
LINE
8
text
10
88.141
20
342.5315556
11
88.141
21
341.1875556
0
LINE
8
text
10
88.141
20
341.1875556
11
80.602
21
329.0075556
0
LINE
8
text
10
80.602
20
329.0075556
11
88.141
21
329.0075556
0
LINE
8
text
10
116.441
20
329.0075556
11
116.441
21
327.5795556
0
LINE
8
text
10
116.441
20
327.5795556
11
107.159
21
327.5795556
0
LINE
8
text
10
107.159
20
327.5795556
11
107.159
21
342.5315556
0
LINE
8
text
10
107.159
20
342.5315556
11
116.441
21
342.5315556
0
LINE
8
text
10
116.441
20
342.5315556
11
116.441
21
341.1035556
0
LINE
8
text
10
116.441
20
341.1035556
11
108.755
21
341.1035556
0
LINE
8
text
10
108.755
20
341.1035556
11
108.755
21
335.8325556
0
LINE
8
text
10
108.755
20
335.8325556
11
115.307
21
335.8325556
0
LINE
8
text
10
115.307
20
335.8325556
11
115.307
21
334.4045556
0
LINE
8
text
10
115.307
20
334.4045556
11
108.755
21
334.4045556
0
LINE
8
text
10
108.755
20
334.4045556
11
108.755
21
329.0075556
0
LINE
8
text
10
108.755
20
329.0075556
11
116.441
21
329.0075556
0
LINE
8
text
10
145.245
20
342.5315556
11
145.245
21
327.5795556
0
LINE
8
text
10
145.245
20
327.5795556
11
143.649
21
327.5795556
0
LINE
8
text
10
143.649
20
327.5795556
11
143.649
21
334.4045556
0
LINE
8
text
10
143.649
20
334.4045556
11
136.551
21
334.4045556
0
LINE
8
text
10
136.551
20
334.4045556
11
136.551
21
327.5795556
0
LINE
8
text
10
136.551
20
327.5795556
11
134.955
21
327.5795556
0
LINE
8
text
10
134.955
20
327.5795556
11
134.955
21
342.5315556
0
LINE
8
text
10
134.955
20
342.5315556
11
136.551
21
342.5315556
0
LINE
8
text
10
136.551
20
342.5315556
11
136.551
21
335.8325556
0
LINE
8
text
10
136.551
20
335.8325556
11
143.649
21
335.8325556
0
LINE
8
text
10
143.649
20
335.8325556
11
143.649
21
342.5315556
0
LINE
8
text
10
143.649
20
342.5315556
11
145.245
21
342.5315556
0
LINE
8
text
10
173.923
20
342.5315556
11
173.923
21
327.5795556
0
LINE
8
text
10
173.923
20
327.5795556
11
172.411
21
327.5795556
0
LINE
8
text
10
172.411
20
327.5795556
11
164.473
21
339.5705556
0
LINE
8
text
10
164.473
20
339.5705556
11
164.473
21
327.5795556
0
LINE
8
text
10
164.473
20
327.5795556
11
162.877
21
327.5795556
0
LINE
8
text
10
162.877
20
327.5795556
11
162.877
21
342.5315556
0
LINE
8
text
10
162.877
20
342.5315556
11
164.389
21
342.5315556
0
LINE
8
text
10
164.389
20
342.5315556
11
172.327
21
330.5825556
0
LINE
8
text
10
172.327
20
330.5825556
11
172.327
21
342.5315556
0
LINE
8
text
10
172.327
20
342.5315556
11
173.923
21
342.5315556
0
LINE
8
text
10
201.341
20
329.0075556
11
201.341
21
327.5795556
0
LINE
8
text
10
201.341
20
327.5795556
11
192.059
21
327.5795556
0
LINE
8
text
10
192.059
20
327.5795556
11
192.059
21
329.0915556
0
LINE
8
text
10
192.059
20
329.0915556
11
199.535
21
341.1035556
0
LINE
8
text
10
199.535
20
341.1035556
11
192.353
21
341.1035556
0
LINE
8
text
10
192.353
20
341.1035556
11
192.353
21
342.5315556
0
LINE
8
text
10
192.353
20
342.5315556
11
201.341
21
342.5315556
0
LINE
8
text
10
201.341
20
342.5315556
11
201.341
21
341.1875556
0
LINE
8
text
10
201.341
20
341.1875556
11
193.802
21
329.0075556
0
LINE
8
text
10
193.802
20
329.0075556
11
201.341
21
329.0075556
0
LINE
8
text
10
231.93
20
342.5315556
11
233.631
21
342.5315556
0
LINE
8
text
10
233.631
20
342.5315556
11
229.809
21
327.5795556
0
LINE
8
text
10
229.809
20
327.5795556
11
228.318
21
327.5795556
0
LINE
8
text
10
228.318
20
327.5795556
11
225
21
339.5495556
0
LINE
8
text
10
225
20
339.5495556
11
221.682
21
327.5795556
0
LINE
8
text
10
221.682
20
327.5795556
11
220.191
21
327.5795556
0
LINE
8
text
10
220.191
20
327.5795556
11
216.369
21
342.5315556
0
LINE
8
text
10
216.369
20
342.5315556
11
218.07
21
342.5315556
0
LINE
8
text
10
218.07
20
342.5315556
11
220.989
21
330.4775556
0
LINE
8
text
10
220.989
20
330.4775556
11
224.286
21
342.5315556
0
LINE
8
text
10
224.286
20
342.5315556
11
225.714
21
342.5315556
0
LINE
8
text
10
225.714
20
342.5315556
11
229.011
21
330.4775556
0
LINE
8
text
10
229.011
20
330.4775556
11
231.93
21
342.5315556
0
LINE
8
text
10
253.9825
20
342.5315556
11
259.4635
21
327.5795556
0
LINE
8
text
10
259.4635
20
327.5795556
11
257.7625
21
327.5795556
0
LINE
8
text
10
257.7625
20
327.5795556
11
256.5655
21
330.9605556
0
LINE
8
text
10
256.5655
20
330.9605556
11
250.0345
21
330.9605556
0
LINE
8
text
10
250.0345
20
330.9605556
11
248.8375
21
327.5795556
0
LINE
8
text
10
248.8375
20
327.5795556
11
247.1365
21
327.5795556
0
LINE
8
text
10
247.1365
20
327.5795556
11
252.6385
21
342.5315556
0
LINE
8
text
10
252.6385
20
342.5315556
11
253.9825
21
342.5315556
0
LINE
8
text
10
250.5175
20
332.3465556
11
256.1035
21
332.3465556
0
LINE
8
text
10
256.1035
20
332.3465556
11
253.3315
21
340.2425556
0
LINE
8
text
10
253.3315
20
340.2425556
11
250.5175
21
332.3465556
0
LINE
8
text
10
287.123
20
342.5315556
11
287.123
21
327.5795556
0
LINE
8
text
10
287.123
20
327.5795556
11
285.611
21
327.5795556
0
LINE
8
text
10
285.611
20
327.5795556
11
277.673
21
339.5705556
0
LINE
8
text
10
277.673
20
339.5705556
11
277.673
21
327.5795556
0
LINE
8
text
10
277.673
20
327.5795556
11
276.077
21
327.5795556
0
LINE
8
text
10
276.077
20
327.5795556
11
276.077
21
342.5315556
0
LINE
8
text
10
276.077
20
342.5315556
11
277.589
21
342.5315556
0
LINE
8
text
10
277.589
20
342.5315556
11
285.527
21
330.5825556
0
LINE
8
text
10
285.527
20
330.5825556
11
285.527
21
342.5315556
0
LINE
8
text
10
285.527
20
342.5315556
11
287.123
21
342.5315556
0
LINE
8
text
10
314.541
20
329.0075556
11
314.541
21
327.5795556
0
LINE
8
text
10
314.541
20
327.5795556
11
305.259
21
327.5795556
0
LINE
8
text
10
305.259
20
327.5795556
11
305.259
21
329.0915556
0
LINE
8
text
10
305.259
20
329.0915556
11
312.735
21
341.1035556
0
LINE
8
text
10
312.735
20
341.1035556
11
305.553
21
341.1035556
0
LINE
8
text
10
305.553
20
341.1035556
11
305.553
21
342.5315556
0
LINE
8
text
10
305.553
20
342.5315556
11
314.541
21
342.5315556
0
LINE
8
text
10
314.541
20
342.5315556
11
314.541
21
341.1875556
0
LINE
8
text
10
314.541
20
341.1875556
11
307.002
21
329.0075556
0
LINE
8
text
10
307.002
20
329.0075556
11
314.541
21
329.0075556
0
LINE
8
text
10
338.998
20
342.5315556
11
338.998
21
327.5795556
0
LINE
8
text
10
338.998
20
327.5795556
11
337.402
21
327.5795556
0
LINE
8
text
10
337.402
20
327.5795556
11
337.402
21
342.5315556
0
LINE
8
text
10
337.402
20
342.5315556
11
338.998
21
342.5315556
0
LINE
8
text
10
366.478992
20
335.3915786
11
371.749992
21
335.3915786
0
LINE
8
text
10
371.749992
20
335.3915786
11
371.749992
21
333.0185786
0
LINE
8
text
10
371.707992
20
338.1845786
11
370.111992
21
338.1845786
0
LINE
8
text
10
370.153992
20
332.8715786
11
370.153992
21
334.0265786
0
LINE
8
text
10
370.153992
20
334.0265786
11
366.478992
21
334.0265786
0
LINE
8
text
10
366.478992
20
334.0265786
11
366.478992
21
335.3915786
0
ARC
8
text
10
361.8643983
20
332.9908068
40
9.8856327
50
354.9573161
51
0.1609615
0
ARC
8
text
10
365.122001
20
332.6966751
40
6.6147884
50
348.053418
51
355.0149771
0
ARC
8
text
10
367.0446759
20
332.2990349
40
4.651454
50
341.9212616
51
347.9429852
0
ARC
8
text
10
367.3001219
20
332.2531464
40
4.3945234
50
326.9185434
51
341.4564796
0
ARC
8
text
10
366.0767083
20
333.0298295
40
5.8435784
50
318.7328861
51
327.0852031
0
ARC
8
text
10
366.6344427
20
332.5949872
40
5.1377158
50
270.9775935
51
318.2754383
0
ARC
8
text
10
366.4800323
20
334.0534856
40
6.5999071
50
269.9909687
51
272.1019278
0
ARC
8
text
10
366.4219894
20
333.185722
40
5.7324268
50
251.9649173
51
270.5697522
0
ARC
8
text
10
366.1863608
20
332.3261458
40
4.8423165
50
224.6418892
51
251.4670935
0
ARC
8
text
10
366.4212772
20
332.6504834
40
5.2377781
50
212.9679651
51
225.3606048
0
ARC
8
text
10
365.2372824
20
331.8911144
40
3.8312171
50
192.1220506
51
213.0756857
0
ARC
8
text
10
369.0154272
20
332.6023732
40
7.6751048
50
186.242809
51
191.39051
0
ARC
8
text
10
377.579852
20
333.5871809
40
16.2959024
50
183.491623
51
186.4103593
0
ARC
8
text
10
391.3087182
20
334.4444023
40
30.0514973
50
181.4276507
51
183.5288138
0
ARC
8
text
10
411.9178486
20
334.9885935
40
50.6677979
50
180.0279007
51
181.4622009
0
ARC
8
text
10
425.7611631
20
335.0553572
40
64.5111712
50
179.9998034
51
180.0812099
0
ARC
8
text
10
413.3019003
20
335.1045036
40
52.0519313
50
178.6191086
51
180.0538539
0
ARC
8
text
10
392.8183577
20
335.6074571
40
31.5622183
50
176.7579991
51
178.6357721
0
ARC
8
text
10
378.5605962
20
336.4371708
40
17.2803661
50
173.7915118
51
176.8311453
0
ARC
8
text
10
369.2831045
20
337.4668431
40
7.9459576
50
168.8342168
51
173.9379159
0
ARC
8
text
10
366.3199881
20
338.0150771
40
4.9328965
50
168.1911763
51
168.4166923
0
ARC
8
text
10
365.2766906
20
338.2063948
40
3.8726158
50
145.3016012
51
167.8029672
0
ARC
8
text
10
366.4970546
20
337.3939314
40
5.3385172
50
134.7147686
51
145.5884329
0
ARC
8
text
10
366.2574472
20
337.6835478
40
4.9642411
50
92.6660722
51
135.1013986
0
ARC
8
text
10
366.4751214
20
336.0149631
40
6.6426166
50
89.9666144
51
93.8722147
0
ARC
8
text
10
366.5310906
20
336.9417328
40
5.7160832
50
72.760891
51
90.5222229
0
ARC
8
text
10
366.7765971
20
337.842075
40
4.7835388
50
48.1998245
51
72.3734345
0
ARC
8
text
10
366.4196442
20
337.414367
40
5.3403392
50
10.2871073
51
48.403492
0
ARC
8
text
10
365.1162434
20
337.0631491
40
6.6864606
50
9.6550758
51
11.2538121
0
ARC
8
text
10
365.4610707
20
337.2085034
40
4.7522407
50
11.8524834
51
25.5007334
0
ARC
8
text
10
366.584087
20
337.7492211
40
3.5058405
50
25.4262596
51
49.9168729
0
ARC
8
text
10
366.6658735
20
337.8083323
40
3.40804
50
50.3290073
51
83.8335276
0
ARC
8
text
10
366.4873659
20
336.7103736
40
4.5192128
50
83.0787095
51
90.1061669
0
ARC
8
text
10
366.4389248
20
337.3720865
40
3.8577001
50
89.4048983
51
108.5856
0
ARC
8
text
10
366.2908135
20
337.9152935
40
3.2957787
50
109.1548581
51
136.6048632
0
ARC
8
text
10
366.0794775
20
337.9808501
40
3.098712
50
134.8007057
51
170.3632402
0
ARC
8
text
10
370.3876896
20
337.2193713
40
7.4736611
50
170.1368278
51
174.6654615
0
ARC
8
text
10
379.1859186
20
336.3529362
40
16.3143978
50
174.508462
51
177.0289557
0
ARC
8
text
10
393.2717876
20
335.6022155
40
30.4202505
50
176.991996
51
178.7644672
0
ARC
8
text
10
414.6719573
20
335.1166663
40
51.8259201
50
178.7379381
51
179.9777107
0
ARC
8
text
10
429.5987298
20
335.0556171
40
66.7527379
50
179.9302946
51
180.0000331
0
ARC
8
text
10
416.3381089
20
335.012247
40
53.4921345
50
179.9535873
51
181.1711154
0
ARC
8
text
10
394.9819714
20
334.5673072
40
32.1313652
50
181.1562051
51
182.7597375
0
ARC
8
text
10
380.2975536
20
333.840979
40
17.4290168
50
182.6990453
51
185.2694197
0
ARC
8
text
10
370.8367315
20
332.950631
40
7.9264285
50
185.1413926
51
189.4824617
0
ARC
8
text
10
367.716231
20
332.4598887
40
4.7678134
50
189.8436065
51
190.2488824
0
ARC
8
text
10
366.0794775
20
332.130307
40
3.098712
50
189.6367598
51
225.1992943
0
ARC
8
text
10
366.3363272
20
332.2584664
40
3.3718901
50
223.6367687
51
268.250258
0
ARC
8
text
10
366.4772984
20
333.4130317
40
4.5314534
50
266.9142706
51
270.0214133
0
ARC
8
text
10
366.5239209
20
332.8832569
40
4.0019305
50
269.3567373
51
288.627461
0
ARC
8
text
10
366.692935
20
332.2580812
40
3.355752
50
289.302395
51
321.3580964
0
ARC
8
text
10
366.3897456
20
332.4673722
40
3.723344
50
321.7559976
51
348.3046293
0
ARC
8
text
10
364.7703085
20
332.8351516
40
5.3838066
50
347.9654497
51
0.3876672
0
LINE
8
text
10
83.4369992
20
296.1349938
11
78.3129992
21
296.1349938
0
LINE
8
text
10
78.3129992
20
296.1349938
11
78.3129992
21
311.0869938
0
LINE
8
text
10
78.3129992
20
311.0869938
11
83.4369992
21
311.0869938
0
LINE
8
text
10
83.1639992
20
309.6589938
11
79.9089992
21
309.6589938
0
LINE
8
text
10
79.9089992
20
309.6589938
11
79.9089992
21
297.5629938
0
LINE
8
text
10
79.9089992
20
297.5629938
11
83.1639992
21
297.5629938
0
ARC
8
text
10
-18.9462438
20
303.5929242
40
107.6332445
50
359.7168727
51
0.0096189
0
ARC
8
text
10
15.5700769
20
303.4258009
40
73.1165196
50
359.4301081
51
359.7141765
0
ARC
8
text
10
43.0435736
20
303.1385277
40
45.6415267
50
358.8821729
51
359.4476812
0
ARC
8
text
10
65.372952
20
302.6947398
40
23.3077416
50
358.0182979
51
358.9020603
0
ARC
8
text
10
73.352861
20
302.4350904
40
15.3236352
50
357.8791152
51
357.9567765
0
ARC
8
text
10
78.2907131
20
302.2706553
40
10.3830967
50
355.6315829
51
357.7774847
0
ARC
8
text
10
71.5024622
20
302.7833811
40
17.1906819
50
354.0172342
51
355.6509832
0
ARC
8
text
10
61.8900095
20
303.7824437
40
26.8549114
50
352.8240234
51
354.0348964
0
ARC
8
text
10
55.5363408
20
304.5591433
40
33.2558441
50
352.7937708
51
352.8637649
0
ARC
8
text
10
81.5385613
20
301.251261
40
7.0440973
50
347.2117752
51
352.956501
0
ARC
8
text
10
83.6466928
20
300.7667901
40
4.8810252
50
339.404064
51
347.2801251
0
ARC
8
text
10
84.6808229
20
300.3936359
40
3.7817533
50
335.8097267
51
339.1847201
0
ARC
8
text
10
84.4810446
20
300.4847062
40
4.0013069
50
316.0960468
51
335.7923926
0
ARC
8
text
10
83.8462844
20
300.9554661
40
4.7861685
50
277.5106289
51
317.3051158
0
ARC
8
text
10
83.4588142
20
302.9783561
40
6.8433971
50
269.8173556
51
278.5131409
0
ARC
8
text
10
83.4952284
20
304.7963213
40
6.2909419
50
74.7419409
51
90.5303388
0
ARC
8
text
10
83.9152581
20
306.3589987
40
4.6728142
50
42.4349658
51
74.6681126
0
ARC
8
text
10
84.5112892
20
306.7725411
40
3.955067
50
23.7826466
51
43.8397536
0
ARC
8
text
10
83.8988503
20
306.5177318
40
4.6182759
50
14.5569398
51
23.6113686
0
ARC
8
text
10
82.1001497
20
306.0420709
40
6.4787941
50
8.1094005
51
14.6303623
0
ARC
8
text
10
80.7831335
20
305.8310159
40
7.8124473
50
7.4574596
51
8.2792646
0
ARC
8
text
10
65.6790939
20
303.8336848
40
23.0479718
50
5.9816142
51
7.5073842
0
ARC
8
text
10
72.9449019
20
304.595229
40
15.7423634
50
4.2855565
51
5.9807664
0
ARC
8
text
10
78.1121355
20
304.9789468
40
10.5609035
50
2.0921622
51
4.3044839
0
ARC
8
text
10
64.13195
20
304.5225526
40
24.5484916
50
1.1855381
51
1.9654624
0
ARC
8
text
10
43.9892383
20
304.1000574
40
44.6956334
50
0.6043946
51
1.1927817
0
ARC
8
text
10
15.9602719
20
303.787009
40
72.7263446
50
0.2637824
51
0.6180776
0
ARC
8
text
10
-17.9364967
20
303.6256303
40
106.623497
50
359.9921348
51
0.2666418
0
ARC
8
text
10
69.3074774
20
302.5971396
40
17.7709996
50
356.6994331
51
357.9745641
0
ARC
8
text
10
56.0717877
20
303.0703513
40
31.0151453
50
357.9650966
51
358.9546078
0
ARC
8
text
10
38.0426479
20
303.4174244
40
49.0476198
50
358.9334847
51
359.5407498
0
ARC
8
text
10
16.5734717
20
303.5949469
40
70.5175294
50
359.5363346
51
0.0130381
0
ARC
8
text
10
17.3854041
20
303.6292208
40
69.7055975
50
359.9850179
51
0.4974699
0
ARC
8
text
10
41.1589444
20
303.8452693
40
45.9310785
50
0.4854579
51
1.2469491
0
ARC
8
text
10
59.9646437
20
304.2638439
40
27.1207252
50
1.2274443
51
2.3547903
0
ARC
8
text
10
70.7626316
20
304.6998628
40
16.3139427
50
2.3829192
51
3.3317838
0
ARC
8
text
10
79.9449395
20
305.2086672
40
7.1176311
50
3.5387575
51
9.6251318
0
ARC
8
text
10
77.2788745
20
304.7626493
40
9.820742
50
9.5899508
51
14.3467289
0
ARC
8
text
10
75.622722
20
304.3639804
40
11.5240567
50
14.2267047
51
14.364569
0
ARC
8
text
10
82.9262575
20
306.2543132
40
3.9799257
50
14.0868026
51
23.096896
0
ARC
8
text
10
84.0905579
20
306.7578139
40
2.711443
50
22.9616323
51
36.6078486
0
ARC
8
text
10
84.5449457
20
307.0787583
40
2.1553406
50
36.9623026
51
43.6687026
0
ARC
8
text
10
83.7981709
20
306.4489359
40
3.1309764
50
42.5695576
51
74.4044986
0
ARC
8
text
10
83.2961087
20
304.8088896
40
4.8458065
50
73.9000746
51
87.3963409
0
ARC
8
text
10
83.1679524
20
303.1335244
40
6.5254704
50
86.9404835
51
90.0347102
0
ARC
8
text
10
83.2049385
20
303.1316068
40
5.5687635
50
269.578781
51
281.2388586
0
ARC
8
text
10
83.6114326
20
301.1779657
40
3.5734065
50
280.9512902
51
301.7307074
0
ARC
8
text
10
83.9139449
20
300.6337549
40
2.9515815
50
302.2921045
51
317.9015086
0
ARC
8
text
10
84.3665149
20
300.2908157
40
2.3863707
50
316.7262183
51
333.1120411
0
ARC
8
text
10
83.3949291
20
300.7951216
40
3.4810074
50
332.9410322
51
343.1019482
0
ARC
8
text
10
82.4163744
20
301.115634
40
4.5105294
50
342.8194697
51
345.6666502
0
ARC
8
text
10
77.1816959
20
302.4800449
40
9.9200737
50
345.5163272
51
350.2412862
0
ARC
8
text
10
79.8704352
20
302.0220285
40
7.1926076
50
350.2066298
51
356.2447023
0
ARC
8
text
10
80.9988533
20
301.92993
40
6.0606071
50
356.4148192
51
356.6331114
0
LINE
8
text
10
113.48
20
302.9180163
11
117.029
21
296.1350163
0
LINE
8
text
10
117.029
20
296.1350163
11
115.16
21
296.1350163
0
LINE
8
text
10
115.16
20
296.1350163
11
111.758
21
302.7710163
0
LINE
8
text
10
111.758
20
302.7710163
11
108.167
21
302.7710163
0
LINE
8
text
10
108.167
20
302.7710163
11
108.167
21
296.1350163
0
LINE
8
text
10
108.167
20
296.1350163
11
106.571
21
296.1350163
0
LINE
8
text
10
106.571
20
296.1350163
11
106.571
21
311.0870163
0
LINE
8
text
10
106.571
20
311.0870163
11
112.304
21
311.0870163
0
LINE
8
text
10
112.157
20
309.6590163
11
108.167
21
309.6590163
0
LINE
8
text
10
108.167
20
309.6590163
11
108.167
21
304.1780163
0
LINE
8
text
10
108.167
20
304.1780163
11
112.157
21
304.1780163
0
ARC
8
text
10
112.3505085
20
305.3851348
40
5.7020711
50
76.0084761
51
90.4673334
0
ARC
8
text
10
112.7338202
20
306.8989089
40
4.1405362
50
47.9605042
51
76.0906949
0
ARC
8
text
10
113.0458009
20
307.2653951
40
3.6594629
50
8.236572
51
47.7458178
0
ARC
8
text
10
111.465439
20
306.948788
40
5.2695979
50
359.7850231
51
9.1818775
0
ARC
8
text
10
111.9875606
20
306.8905537
40
4.7475952
50
345.3552818
51
0.4641862
0
ARC
8
text
10
113.0743453
20
306.6122082
40
3.6257492
50
320.0287648
51
345.2689496
0
ARC
8
text
10
112.8253506
20
306.8420247
40
3.9642382
50
286.8513273
51
319.7950728
0
ARC
8
text
10
112.4286225
20
307.9235057
40
5.114716
50
281.8622429
51
287.5927391
0
ARC
8
text
10
112.8732907
20
306.5406346
40
2.2230151
50
311.3176916
51
346.6168934
0
ARC
8
text
10
111.6808266
20
306.8619617
40
3.4576651
50
346.0105267
51
359.521086
0
ARC
8
text
10
110.7041605
20
306.9077513
40
4.4348395
50
359.0349906
51
0.0034227
0
ARC
8
text
10
111.5715974
20
306.9372527
40
3.5675224
50
359.530446
51
12.6917223
0
ARC
8
text
10
112.7762271
20
307.2262794
40
2.3288899
50
12.2660707
51
40.9152432
0
ARC
8
text
10
112.8866877
20
307.2942425
40
2.2010053
50
41.4615778
51
49.0061094
0
ARC
8
text
10
112.542193
20
306.8668634
40
2.7496387
50
49.4298238
51
76.6636932
0
ARC
8
text
10
112.2149101
20
305.6020412
40
4.0559334
50
76.2864438
51
88.8752683
0
ARC
8
text
10
112.157699
20
304.5235401
40
5.1354764
50
88.4732816
51
90.007799
0
ARC
8
text
10
112.1872947
20
308.5466115
40
4.3687003
50
269.6026801
51
281.6245522
0
ARC
8
text
10
112.4840527
20
307.166673
40
2.9572967
50
281.3801085
51
303.1392164
0
ARC
8
text
10
112.6549663
20
306.8637139
40
2.6102783
50
303.6332444
51
310.2347654
0
LINE
8
text
10
144.741
20
297.5631111
11
144.741
21
296.1351111
0
LINE
8
text
10
144.741
20
296.1351111
11
135.459
21
296.1351111
0
LINE
8
text
10
135.459
20
296.1351111
11
135.459
21
311.0871111
0
LINE
8
text
10
135.459
20
311.0871111
11
144.741
21
311.0871111
0
LINE
8
text
10
144.741
20
311.0871111
11
144.741
21
309.6591111
0
LINE
8
text
10
144.741
20
309.6591111
11
137.055
21
309.6591111
0
LINE
8
text
10
137.055
20
309.6591111
11
137.055
21
304.3881111
0
LINE
8
text
10
137.055
20
304.3881111
11
143.607
21
304.3881111
0
LINE
8
text
10
143.607
20
304.3881111
11
143.607
21
302.9601111
0
LINE
8
text
10
143.607
20
302.9601111
11
137.055
21
302.9601111
0
LINE
8
text
10
137.055
20
302.9601111
11
137.055
21
297.5631111
0
LINE
8
text
10
137.055
20
297.5631111
11
144.741
21
297.5631111
0
LINE
8
text
10
169.198
20
311.0871111
11
169.198
21
296.1351111
0
LINE
8
text
10
169.198
20
296.1351111
11
167.602
21
296.1351111
0
LINE
8
text
10
167.602
20
296.1351111
11
167.602
21
311.0871111
0
LINE
8
text
10
167.602
20
311.0871111
11
169.198
21
311.0871111
0
LINE
8
text
10
200.585
20
311.0871111
11
202.265
21
311.0871111
0
LINE
8
text
10
202.265
20
311.0871111
11
197.351
21
296.1351111
0
LINE
8
text
10
197.351
20
296.1351111
11
196.049
21
296.1351111
0
LINE
8
text
10
196.049
20
296.1351111
11
191.135
21
311.0871111
0
LINE
8
text
10
191.135
20
311.0871111
11
192.815
21
311.0871111
0
LINE
8
text
10
192.815
20
311.0871111
11
196.7
21
298.9911111
0
LINE
8
text
10
196.7
20
298.9911111
11
200.585
21
311.0871111
0
LINE
8
text
10
225.798
20
311.0871111
11
225.798
21
296.1351111
0
LINE
8
text
10
225.798
20
296.1351111
11
224.202
21
296.1351111
0
LINE
8
text
10
224.202
20
296.1351111
11
224.202
21
311.0871111
0
LINE
8
text
10
224.202
20
311.0871111
11
225.798
21
311.0871111
0
LINE
8
text
10
257.941
20
297.5631111
11
257.941
21
296.1351111
0
LINE
8
text
10
257.941
20
296.1351111
11
248.659
21
296.1351111
0
LINE
8
text
10
248.659
20
296.1351111
11
248.659
21
311.0871111
0
LINE
8
text
10
248.659
20
311.0871111
11
257.941
21
311.0871111
0
LINE
8
text
10
257.941
20
311.0871111
11
257.941
21
309.6591111
0
LINE
8
text
10
257.941
20
309.6591111
11
250.255
21
309.6591111
0
LINE
8
text
10
250.255
20
309.6591111
11
250.255
21
304.3881111
0
LINE
8
text
10
250.255
20
304.3881111
11
256.807
21
304.3881111
0
LINE
8
text
10
256.807
20
304.3881111
11
256.807
21
302.9601111
0
LINE
8
text
10
256.807
20
302.9601111
11
250.255
21
302.9601111
0
LINE
8
text
10
250.255
20
302.9601111
11
250.255
21
297.5631111
0
LINE
8
text
10
250.255
20
297.5631111
11
257.941
21
297.5631111
0
LINE
8
text
10
283.28
20
302.9180163
11
286.829
21
296.1350163
0
LINE
8
text
10
286.829
20
296.1350163
11
284.96
21
296.1350163
0
LINE
8
text
10
284.96
20
296.1350163
11
281.558
21
302.7710163
0
LINE
8
text
10
281.558
20
302.7710163
11
277.967
21
302.7710163
0
LINE
8
text
10
277.967
20
302.7710163
11
277.967
21
296.1350163
0
LINE
8
text
10
277.967
20
296.1350163
11
276.371
21
296.1350163
0
LINE
8
text
10
276.371
20
296.1350163
11
276.371
21
311.0870163
0
LINE
8
text
10
276.371
20
311.0870163
11
282.104
21
311.0870163
0
LINE
8
text
10
281.957
20
309.6590163
11
277.967
21
309.6590163
0
LINE
8
text
10
277.967
20
309.6590163
11
277.967
21
304.1780163
0
LINE
8
text
10
277.967
20
304.1780163
11
281.957
21
304.1780163
0
ARC
8
text
10
282.1505085
20
305.3851348
40
5.7020711
50
76.0084761
51
90.4673334
0
ARC
8
text
10
282.5338202
20
306.8989089
40
4.1405362
50
47.9605042
51
76.0906949
0
ARC
8
text
10
282.8458009
20
307.2653951
40
3.6594629
50
8.236572
51
47.7458178
0
ARC
8
text
10
281.265439
20
306.948788
40
5.2695979
50
359.7850231
51
9.1818775
0
ARC
8
text
10
281.7875606
20
306.8905537
40
4.7475952
50
345.3552818
51
0.4641862
0
ARC
8
text
10
282.8743453
20
306.6122082
40
3.6257492
50
320.0287648
51
345.2689496
0
ARC
8
text
10
282.6253506
20
306.8420247
40
3.9642382
50
286.8513273
51
319.7950728
0
ARC
8
text
10
282.2286225
20
307.9235057
40
5.114716
50
281.8622429
51
287.5927391
0
ARC
8
text
10
282.6732907
20
306.5406346
40
2.2230151
50
311.3176916
51
346.6168934
0
ARC
8
text
10
281.4808266
20
306.8619617
40
3.4576651
50
346.0105267
51
359.521086
0
ARC
8
text
10
280.5041605
20
306.9077513
40
4.4348395
50
359.0349906
51
0.0034227
0
ARC
8
text
10
281.3715974
20
306.9372527
40
3.5675224
50
359.530446
51
12.6917223
0
ARC
8
text
10
282.5762271
20
307.2262794
40
2.3288899
50
12.2660707
51
40.9152432
0
ARC
8
text
10
282.6866877
20
307.2942425
40
2.2010053
50
41.4615778
51
49.0061094
0
ARC
8
text
10
282.342193
20
306.8668634
40
2.7496387
50
49.4298238
51
76.6636932
0
ARC
8
text
10
282.0149101
20
305.6020412
40
4.0559334
50
76.2864438
51
88.8752683
0
ARC
8
text
10
281.957699
20
304.5235401
40
5.1354764
50
88.4732816
51
90.007799
0
ARC
8
text
10
281.9872947
20
308.5466115
40
4.3687003
50
269.6026801
51
281.6245522
0
ARC
8
text
10
282.2840527
20
307.166673
40
2.9572967
50
281.3801085
51
303.1392164
0
ARC
8
text
10
282.4549663
20
306.8637139
40
2.6102783
50
303.6332444
51
310.2347654
0
LINE
8
text
10
315.024
20
311.0871111
11
315.024
21
309.6591111
0
LINE
8
text
10
315.024
20
309.6591111
11
310.698
21
309.6591111
0
LINE
8
text
10
310.698
20
309.6591111
11
310.698
21
296.1351111
0
LINE
8
text
10
310.698
20
296.1351111
11
309.102
21
296.1351111
0
LINE
8
text
10
309.102
20
296.1351111
11
309.102
21
309.6591111
0
LINE
8
text
10
309.102
20
309.6591111
11
304.776
21
309.6591111
0
LINE
8
text
10
304.776
20
309.6591111
11
304.776
21
311.0871111
0
LINE
8
text
10
304.776
20
311.0871111
11
315.024
21
311.0871111
0
LINE
8
text
10
342.841
20
297.5631111
11
342.841
21
296.1351111
0
LINE
8
text
10
342.841
20
296.1351111
11
333.559
21
296.1351111
0
LINE
8
text
10
333.559
20
296.1351111
11
333.559
21
311.0871111
0
LINE
8
text
10
333.559
20
311.0871111
11
342.841
21
311.0871111
0
LINE
8
text
10
342.841
20
311.0871111
11
342.841
21
309.6591111
0
LINE
8
text
10
342.841
20
309.6591111
11
335.155
21
309.6591111
0
LINE
8
text
10
335.155
20
309.6591111
11
335.155
21
304.3881111
0
LINE
8
text
10
335.155
20
304.3881111
11
341.707
21
304.3881111
0
LINE
8
text
10
341.707
20
304.3881111
11
341.707
21
302.9601111
0
LINE
8
text
10
341.707
20
302.9601111
11
335.155
21
302.9601111
0
LINE
8
text
10
335.155
20
302.9601111
11
335.155
21
297.5631111
0
LINE
8
text
10
335.155
20
297.5631111
11
342.841
21
297.5631111
0
LINE
8
text
10
371.12
20
297.5631111
11
371.12
21
296.1351111
0
LINE
8
text
10
371.12
20
296.1351111
11
361.88
21
296.1351111
0
LINE
8
text
10
361.88
20
296.1351111
11
361.88
21
311.0871111
0
LINE
8
text
10
361.88
20
311.0871111
11
363.476
21
311.0871111
0
LINE
8
text
10
363.476
20
311.0871111
11
363.476
21
297.5631111
0
LINE
8
text
10
363.476
20
297.5631111
11
371.12
21
297.5631111
0
LINE
8
text
10
87.385
20
279.6426667
11
89.065
21
279.6426667
0
LINE
8
text
10
89.065
20
279.6426667
11
84.151
21
264.6906667
0
LINE
8
text
10
84.151
20
264.6906667
11
82.849
21
264.6906667
0
LINE
8
text
10
82.849
20
264.6906667
11
77.935
21
279.6426667
0
LINE
8
text
10
77.935
20
279.6426667
11
79.615
21
279.6426667
0
LINE
8
text
10
79.615
20
279.6426667
11
83.5
21
267.5466667
0
LINE
8
text
10
83.5
20
267.5466667
11
87.385
21
279.6426667
0
ARC
8
text
10
109.2296471
20
274.5520647
40
7.7074142
50
6.5174975
51
11.6971682
0
ARC
8
text
10
100.6909857
20
273.5407124
40
16.3057263
50
3.4034155
51
6.6426659
0
ARC
8
text
10
87.2201447
20
272.7028342
40
29.8025726
50
1.4064769
51
3.4739565
0
ARC
8
text
10
68.1676736
20
272.2123541
40
48.8613478
50
359.9464152
51
1.4330789
0
ARC
8
text
10
68.3470268
20
272.1195418
40
48.681996
50
358.5414559
51
0.0554522
0
ARC
8
text
10
87.8541072
20
271.6052562
40
29.1681508
50
356.3786214
51
358.5760134
0
ARC
8
text
10
101.1007043
20
270.7537131
40
15.8942236
50
353.2811431
51
356.4260221
0
ARC
8
text
10
109.2777865
20
269.7727336
40
7.658548
50
348.2922071
51
353.4123896
0
ARC
8
text
10
112.8619068
20
269.0833402
40
4.0094428
50
324.3676129
51
347.545656
0
ARC
8
text
10
111.718336
20
269.8635313
40
5.393526
50
314.7730745
51
324.7086919
0
ARC
8
text
10
111.9972732
20
269.5361822
40
4.9647914
50
271.720684
51
315.1485346
0
ARC
8
text
10
111.8022651
20
271.1667591
40
6.6021021
50
269.9803437
51
272.9874776
0
ARC
8
text
10
111.7429975
20
270.2968008
40
5.7324268
50
251.9649173
51
270.5697522
0
ARC
8
text
10
111.507369
20
269.4372246
40
4.8423165
50
224.6418892
51
251.4670935
0
ARC
8
text
10
111.7422854
20
269.7615622
40
5.2377781
50
212.9679651
51
225.3606048
0
ARC
8
text
10
110.5582905
20
269.0021932
40
3.8312171
50
192.1220506
51
213.0756857
0
ARC
8
text
10
114.3364353
20
269.713452
40
7.6751048
50
186.242809
51
191.39051
0
ARC
8
text
10
122.9008601
20
270.6982597
40
16.2959024
50
183.491623
51
186.4103593
0
ARC
8
text
10
136.6297263
20
271.5554812
40
30.0514973
50
181.4276507
51
183.5288138
0
ARC
8
text
10
157.2388568
20
272.0996723
40
50.6677979
50
180.0279007
51
181.4622009
0
ARC
8
text
10
171.0821712
20
272.166436
40
64.5111712
50
179.9998034
51
180.0812099
0
ARC
8
text
10
158.6229084
20
272.2155824
40
52.0519313
50
178.6191086
51
180.0538539
0
ARC
8
text
10
138.1393658
20
272.718536
40
31.5622183
50
176.7579991
51
178.6357721
0
ARC
8
text
10
123.8816043
20
273.5482496
40
17.2803661
50
173.7915118
51
176.8311453
0
ARC
8
text
10
114.6041126
20
274.5779219
40
7.9459576
50
168.8342168
51
173.9379159
0
ARC
8
text
10
111.6409962
20
275.1261559
40
4.9328965
50
168.1911763
51
168.4166923
0
ARC
8
text
10
110.5976987
20
275.3174737
40
3.8726158
50
145.3016012
51
167.8029672
0
ARC
8
text
10
111.8180628
20
274.5050103
40
5.3385172
50
134.7147686
51
145.5884329
0
ARC
8
text
10
111.5784553
20
274.7946266
40
4.9642411
50
92.6660722
51
135.1013986
0
ARC
8
text
10
111.7961295
20
273.126042
40
6.6426166
50
89.9666144
51
93.8722147
0
ARC
8
text
10
111.8582798
20
274.1448504
40
5.624109
50
71.1396311
51
90.5937372
0
ARC
8
text
10
112.0620532
20
274.889672
40
4.8536417
50
44.6163478
51
70.5736972
0
ARC
8
text
10
111.8715762
20
274.6047857
40
5.1897788
50
32.1647374
51
45.3782127
0
ARC
8
text
10
112.9384937
20
275.2767238
40
3.9289011
50
12.3143035
51
32.1526276
0
ARC
8
text
10
107.4525329
20
270.0008968
40
7.9163463
50
350.707865
51
354.9788623
0
ARC
8
text
10
98.0919242
20
270.8685255
40
17.3170298
50
354.8298799
51
357.2036808
0
ARC
8
text
10
83.1145659
20
271.619835
40
32.3132132
50
357.1686873
51
358.8371859
0
ARC
8
text
10
60.3689442
20
272.1055628
40
55.0640133
50
358.812173
51
359.9790285
0
ARC
8
text
10
44.6506559
20
272.1664553
40
70.7823443
50
359.9343953
51
0.0001636
0
ARC
8
text
10
61.9408832
20
272.2099889
40
53.4921345
50
359.9535873
51
1.1711154
0
ARC
8
text
10
83.2970207
20
272.6549287
40
32.1313652
50
1.1562051
51
2.7597375
0
ARC
8
text
10
97.9814385
20
273.381257
40
17.4290168
50
2.6990453
51
5.2694197
0
ARC
8
text
10
107.4422606
20
274.2716049
40
7.9264285
50
5.1413926
51
9.4824617
0
ARC
8
text
10
110.562761
20
274.7623473
40
4.7678134
50
9.8436065
51
10.2488824
0
ARC
8
text
10
112.1995146
20
275.091929
40
3.098712
50
9.6367598
51
45.1992943
0
ARC
8
text
10
111.8820381
20
274.8368791
40
3.5036894
50
44.4543925
51
90.5600932
0
ARC
8
text
10
111.800077
20
273.8979723
40
4.4426849
50
89.3846704
51
90.0009919
0
ARC
8
text
10
111.7563378
20
274.6539327
40
3.6869832
50
89.3214713
51
113.138769
0
ARC
8
text
10
111.7409527
20
274.804429
40
3.5428334
50
113.8664044
51
135.431401
0
ARC
8
text
10
111.4004856
20
275.091929
40
3.098712
50
134.8007057
51
170.3632402
0
ARC
8
text
10
115.7086977
20
274.3304501
40
7.4736611
50
170.1368278
51
174.6654615
0
ARC
8
text
10
124.5069267
20
273.464015
40
16.3143978
50
174.508462
51
177.0289557
0
ARC
8
text
10
138.5927957
20
272.7132944
40
30.4202505
50
176.991996
51
178.7644672
0
ARC
8
text
10
159.9929654
20
272.2277451
40
51.8259201
50
178.7379381
51
179.9777107
0
ARC
8
text
10
174.9197379
20
272.166696
40
66.7527379
50
179.9302946
51
180.0000331
0
ARC
8
text
10
161.659117
20
272.1233259
40
53.4921345
50
179.9535873
51
181.1711154
0
ARC
8
text
10
140.3029795
20
271.678386
40
32.1313652
50
181.1562051
51
182.7597375
0
ARC
8
text
10
125.6185617
20
270.9520578
40
17.4290168
50
182.6990453
51
185.2694197
0
ARC
8
text
10
116.1577396
20
270.0617099
40
7.9264285
50
185.1413926
51
189.4824617
0
ARC
8
text
10
113.0372391
20
269.5709675
40
4.7678134
50
189.8436065
51
190.2488824
0
ARC
8
text
10
111.4004856
20
269.2413858
40
3.098712
50
189.6367598
51
225.1992943
0
ARC
8
text
10
111.7179621
20
269.4964357
40
3.5036894
50
224.4543925
51
270.5600932
0
ARC
8
text
10
111.7999232
20
270.4353424
40
4.4426849
50
269.3846704
51
270.0009919
0
ARC
8
text
10
111.8436624
20
269.6793821
40
3.6869832
50
269.3214713
51
293.138769
0
ARC
8
text
10
111.8590475
20
269.5288858
40
3.5428334
50
293.8664044
51
315.431401
0
ARC
8
text
10
112.1542872
20
269.2842567
40
3.1610012
50
314.8348365
51
349.7662178
0
LINE
8
text
10
141.78
20
271.4735718
11
145.329
21
264.6905718
0
LINE
8
text
10
145.329
20
264.6905718
11
143.46
21
264.6905718
0
LINE
8
text
10
143.46
20
264.6905718
11
140.058
21
271.3265718
0
LINE
8
text
10
140.058
20
271.3265718
11
136.467
21
271.3265718
0
LINE
8
text
10
136.467
20
271.3265718
11
136.467
21
264.6905718
0
LINE
8
text
10
136.467
20
264.6905718
11
134.871
21
264.6905718
0
LINE
8
text
10
134.871
20
264.6905718
11
134.871
21
279.6425718
0
LINE
8
text
10
134.871
20
279.6425718
11
140.604
21
279.6425718
0
LINE
8
text
10
140.457
20
278.2145718
11
136.467
21
278.2145718
0
LINE
8
text
10
136.467
20
278.2145718
11
136.467
21
272.7335718
0
LINE
8
text
10
136.467
20
272.7335718
11
140.457
21
272.7335718
0
ARC
8
text
10
140.6505085
20
273.9406904
40
5.7020711
50
76.0084761
51
90.4673334
0
ARC
8
text
10
141.0338202
20
275.4544645
40
4.1405362
50
47.9605042
51
76.0906949
0
ARC
8
text
10
141.3458009
20
275.8209507
40
3.6594629
50
8.236572
51
47.7458178
0
ARC
8
text
10
139.765439
20
275.5043436
40
5.2695979
50
359.7850231
51
9.1818775
0
ARC
8
text
10
140.2875606
20
275.4461092
40
4.7475952
50
345.3552818
51
0.4641862
0
ARC
8
text
10
141.3743453
20
275.1677637
40
3.6257492
50
320.0287648
51
345.2689496
0
ARC
8
text
10
141.1253506
20
275.3975802
40
3.9642382
50
286.8513273
51
319.7950728
0
ARC
8
text
10
140.7286225
20
276.4790613
40
5.114716
50
281.8622429
51
287.5927391
0
ARC
8
text
10
141.1732907
20
275.0961902
40
2.2230151
50
311.3176916
51
346.6168934
0
ARC
8
text
10
139.9808266
20
275.4175172
40
3.4576651
50
346.0105267
51
359.521086
0
ARC
8
text
10
139.0041605
20
275.4633069
40
4.4348395
50
359.0349906
51
0.0034227
0
ARC
8
text
10
139.8715974
20
275.4928083
40
3.5675224
50
359.530446
51
12.6917223
0
ARC
8
text
10
141.0762271
20
275.781835
40
2.3288899
50
12.2660707
51
40.9152432
0
ARC
8
text
10
141.1866877
20
275.8497981
40
2.2010053
50
41.4615778
51
49.0061094
0
ARC
8
text
10
140.842193
20
275.4224189
40
2.7496387
50
49.4298238
51
76.6636932
0
ARC
8
text
10
140.5149101
20
274.1575968
40
4.0559334
50
76.2864438
51
88.8752683
0
ARC
8
text
10
140.457699
20
273.0790956
40
5.1354764
50
88.4732816
51
90.007799
0
ARC
8
text
10
140.4872947
20
277.1021671
40
4.3687003
50
269.6026801
51
281.6245522
0
ARC
8
text
10
140.7840527
20
275.7222286
40
2.9572967
50
281.3801085
51
303.1392164
0
ARC
8
text
10
140.9549663
20
275.4192694
40
2.6102783
50
303.6332444
51
310.2347654
0
LINE
8
text
10
173.041
20
279.6426667
11
173.041
21
278.2146667
0
LINE
8
text
10
173.041
20
278.2146667
11
165.355
21
278.2146667
0
LINE
8
text
10
165.355
20
278.2146667
11
165.355
21
272.7126667
0
LINE
8
text
10
165.355
20
272.7126667
11
171.907
21
272.7126667
0
LINE
8
text
10
171.907
20
272.7126667
11
171.907
21
271.2846667
0
LINE
8
text
10
171.907
20
271.2846667
11
165.355
21
271.2846667
0
LINE
8
text
10
165.355
20
271.2846667
11
165.355
21
264.6906667
0
LINE
8
text
10
165.355
20
264.6906667
11
163.759
21
264.6906667
0
LINE
8
text
10
163.759
20
264.6906667
11
163.759
21
279.6426667
0
LINE
8
text
10
163.759
20
279.6426667
11
173.041
21
279.6426667
0
LINE
8
text
10
200.3223522
20
279.7058
11
201.9183522
21
279.7058
0
LINE
8
text
10
201.9183522
20
279.7058
11
201.9183522
21
269.6888
0
LINE
8
text
10
191.4813522
20
269.6888
11
191.4813522
21
279.7058
0
LINE
8
text
10
191.4813522
20
279.7058
11
193.0773522
21
279.7058
0
LINE
8
text
10
193.0773522
20
279.7058
11
193.0773522
21
269.8148
0
LINE
8
text
10
200.3223522
20
269.8148
11
200.3223522
21
279.7058
0
ARC
8
text
10
196.4628414
20
269.6319177
40
5.4558074
50
341.5260673
51
0.5973772
0
ARC
8
text
10
197.2616796
20
269.4124802
40
4.62882
50
313.3279489
51
340.9690339
0
ARC
8
text
10
196.9432903
20
269.69621
40
5.053821
50
274.1798914
51
313.7465269
0
ARC
8
text
10
196.6965322
20
271.3899265
40
6.7621305
50
269.939164
51
275.2191655
0
ARC
8
text
10
196.63304
20
270.5728073
40
5.945274
50
252.9275836
51
270.5427003
0
ARC
8
text
10
196.3493651
20
269.5381508
40
4.8730379
50
225.7885042
51
252.5445151
0
ARC
8
text
10
196.2366403
20
269.4702044
40
4.7458495
50
182.5175038
51
226.1919584
0
ARC
8
text
10
197.8823435
20
269.6851685
40
6.4009922
50
179.9674944
51
183.792868
0
ARC
8
text
10
197.8904647
20
269.7757171
40
4.8132711
50
179.5347637
51
193.7269681
0
ARC
8
text
10
196.5456329
20
269.4366816
40
3.4264146
50
193.5559133
51
223.3455912
0
ARC
8
text
10
196.3969024
20
269.3197181
40
3.2380153
50
223.6469187
51
261.6343885
0
ARC
8
text
10
196.6717854
20
270.6934608
40
4.6376941
50
260.7436849
51
270.2170282
0
ARC
8
text
10
196.7281958
20
270.2906344
40
4.2350126
50
269.474476
51
285.659462
0
ARC
8
text
10
196.9848272
20
269.3379924
40
3.2484756
50
285.8363762
51
316.0830212
0
ARC
8
text
10
196.825228
20
269.4862212
40
3.4662581
50
316.1478917
51
350.4500564
0
ARC
8
text
10
195.3720295
20
269.7917703
40
4.9503763
50
349.7530689
51
0.2665469
0
LINE
8
text
10
230.523
20
279.6426667
11
230.523
21
264.6906667
0
LINE
8
text
10
230.523
20
264.6906667
11
229.011
21
264.6906667
0
LINE
8
text
10
229.011
20
264.6906667
11
221.073
21
276.6816667
0
LINE
8
text
10
221.073
20
276.6816667
11
221.073
21
264.6906667
0
LINE
8
text
10
221.073
20
264.6906667
11
219.477
21
264.6906667
0
LINE
8
text
10
219.477
20
264.6906667
11
219.477
21
279.6426667
0
LINE
8
text
10
219.477
20
279.6426667
11
220.989
21
279.6426667
0
LINE
8
text
10
220.989
20
279.6426667
11
228.927
21
267.6936667
0
LINE
8
text
10
228.927
20
267.6936667
11
228.927
21
279.6426667
0
LINE
8
text
10
228.927
20
279.6426667
11
230.523
21
279.6426667
0
LINE
8
text
10
253.5205
20
273.8676667
11
258.8965
21
264.6906667
0
LINE
8
text
10
258.8965
20
264.6906667
11
257.0065
21
264.6906667
0
LINE
8
text
10
257.0065
20
264.6906667
11
252.4495
21
272.6496667
0
LINE
8
text
10
252.4495
20
272.6496667
11
249.2995
21
268.8696667
0
LINE
8
text
10
249.2995
20
268.8696667
11
249.2995
21
264.6906667
0
LINE
8
text
10
249.2995
20
264.6906667
11
247.7035
21
264.6906667
0
LINE
8
text
10
247.7035
20
264.6906667
11
247.7035
21
279.6426667
0
LINE
8
text
10
247.7035
20
279.6426667
11
249.2995
21
279.6426667
0
LINE
8
text
10
249.2995
20
279.6426667
11
249.2995
21
271.0536667
0
LINE
8
text
10
249.2995
20
271.0536667
11
256.2715
21
279.6426667
0
LINE
8
text
10
256.2715
20
279.6426667
11
258.2245
21
279.6426667
0
LINE
8
text
10
258.2245
20
279.6426667
11
253.5205
21
273.8676667
0
LINE
8
text
10
287.123
20
279.6426667
11
287.123
21
264.6906667
0
LINE
8
text
10
287.123
20
264.6906667
11
285.611
21
264.6906667
0
LINE
8
text
10
285.611
20
264.6906667
11
277.673
21
276.6816667
0
LINE
8
text
10
277.673
20
276.6816667
11
277.673
21
264.6906667
0
LINE
8
text
10
277.673
20
264.6906667
11
276.077
21
264.6906667
0
LINE
8
text
10
276.077
20
264.6906667
11
276.077
21
279.6426667
0
LINE
8
text
10
276.077
20
279.6426667
11
277.589
21
279.6426667
0
LINE
8
text
10
277.589
20
279.6426667
11
285.527
21
267.6936667
0
LINE
8
text
10
285.527
20
267.6936667
11
285.527
21
279.6426667
0
LINE
8
text
10
285.527
20
279.6426667
11
287.123
21
279.6426667
0
LINE
8
text
10
310.5825
20
279.6426667
11
316.0635
21
264.6906667
0
LINE
8
text
10
316.0635
20
264.6906667
11
314.3625
21
264.6906667
0
LINE
8
text
10
314.3625
20
264.6906667
11
313.1655
21
268.0716667
0
LINE
8
text
10
313.1655
20
268.0716667
11
306.6345
21
268.0716667
0
LINE
8
text
10
306.6345
20
268.0716667
11
305.4375
21
264.6906667
0
LINE
8
text
10
305.4375
20
264.6906667
11
303.7365
21
264.6906667
0
LINE
8
text
10
303.7365
20
264.6906667
11
309.2385
21
279.6426667
0
LINE
8
text
10
309.2385
20
279.6426667
11
310.5825
21
279.6426667
0
LINE
8
text
10
307.1175
20
269.4576667
11
312.7035
21
269.4576667
0
LINE
8
text
10
312.7035
20
269.4576667
11
309.9315
21
277.3536667
0
LINE
8
text
10
309.9315
20
277.3536667
11
307.1175
21
269.4576667
0
LINE
8
text
10
341.8120115
20
269.0166976
11
343.4080115
21
269.0166976
0
LINE
8
text
10
343.4080115
20
275.3166976
11
341.7700115
21
275.3166976
0
ARC
8
text
10
336.870953
20
270.2068901
40
6.6445234
50
335.3539976
51
349.6812709
0
ARC
8
text
10
338.3957559
20
269.5071977
40
4.9668485
50
310.6829854
51
335.3550642
0
ARC
8
text
10
338.4811894
20
269.4506364
40
4.8683447
50
275.6746006
51
310.3544408
0
ARC
8
text
10
338.2315624
20
271.0297512
40
6.4650621
50
269.9064936
51
276.4922972
0
ARC
8
text
10
338.1640089
20
270.296841
40
5.7324268
50
251.9649173
51
270.5697522
0
ARC
8
text
10
337.9283803
20
269.4372649
40
4.8423165
50
224.6418892
51
251.4670935
0
ARC
8
text
10
338.1632967
20
269.7616024
40
5.2377781
50
212.9679651
51
225.3606048
0
ARC
8
text
10
336.9793019
20
269.0022335
40
3.8312171
50
192.1220506
51
213.0756857
0
ARC
8
text
10
340.7574467
20
269.7134923
40
7.6751048
50
186.242809
51
191.39051
0
ARC
8
text
10
349.3218715
20
270.6982999
40
16.2959024
50
183.491623
51
186.4103593
0
ARC
8
text
10
363.0507377
20
271.5555214
40
30.0514973
50
181.4276507
51
183.5288138
0
ARC
8
text
10
383.6598681
20
272.0997126
40
50.6677979
50
180.0279007
51
181.4622009
0
ARC
8
text
10
397.5031826
20
272.1664763
40
64.5111712
50
179.9998034
51
180.0812099
0
ARC
8
text
10
385.0439198
20
272.2156227
40
52.0519313
50
178.6191086
51
180.0538539
0
ARC
8
text
10
364.5603772
20
272.7185762
40
31.5622183
50
176.7579991
51
178.6357721
0
ARC
8
text
10
350.3026157
20
273.5482898
40
17.2803661
50
173.7915118
51
176.8311453
0
ARC
8
text
10
341.025124
20
274.5779622
40
7.9459576
50
168.8342168
51
173.9379159
0
ARC
8
text
10
338.0620076
20
275.1261962
40
4.9328965
50
168.1911763
51
168.4166923
0
ARC
8
text
10
337.0187101
20
275.3175139
40
3.8726158
50
145.3016012
51
167.8029672
0
ARC
8
text
10
338.2390741
20
274.5050505
40
5.3385172
50
134.7147686
51
145.5884329
0
ARC
8
text
10
337.9994667
20
274.7946668
40
4.9642411
50
92.6660722
51
135.1013986
0
ARC
8
text
10
338.2171409
20
273.1260822
40
6.6426166
50
89.9666144
51
93.8722147
0
ARC
8
text
10
338.2718014
20
273.9454894
40
5.8234297
50
73.722625
51
90.4997203
0
ARC
8
text
10
338.5567501
20
275.006334
40
4.7253004
50
49.3735227
51
73.4338612
0
ARC
8
text
10
338.315148
20
274.7565764
40
5.0722147
50
20.0602263
51
49.1391815
0
ARC
8
text
10
336.542955
20
274.0413491
40
6.9825149
50
10.5240878
51
20.585068
0
ARC
8
text
10
337.2954743
20
274.4174722
40
4.5639993
50
11.3630873
51
26.1793535
0
ARC
8
text
10
338.2302763
20
274.8701392
40
3.5253884
50
26.2799073
51
49.0350419
0
ARC
8
text
10
338.3930692
20
275.0355985
40
3.2937535
50
49.2864391
51
84.5739886
0
ARC
8
text
10
338.2276257
20
273.9722554
40
4.3684473
50
83.7325503
51
90.0867506
0
ARC
8
text
10
338.1773492
20
274.6539729
40
3.6869832
50
89.3214713
51
113.138769
0
ARC
8
text
10
338.1619641
20
274.8044693
40
3.5428334
50
113.8664044
51
135.431401
0
ARC
8
text
10
337.821497
20
275.0919692
40
3.098712
50
134.8007057
51
170.3632402
0
ARC
8
text
10
342.1297091
20
274.3304904
40
7.4736611
50
170.1368278
51
174.6654615
0
ARC
8
text
10
350.9279381
20
273.4640553
40
16.3143978
50
174.508462
51
177.0289557
0
ARC
8
text
10
365.013807
20
272.7133346
40
30.4202505
50
176.991996
51
178.7644672
0
ARC
8
text
10
386.4139768
20
272.2277854
40
51.8259201
50
178.7379381
51
179.9777107
0
ARC
8
text
10
401.3407493
20
272.1667362
40
66.7527379
50
179.9302946
51
180.0000331
0
ARC
8
text
10
388.0801284
20
272.1233661
40
53.4921345
50
179.9535873
51
181.1711154
0
ARC
8
text
10
366.7239909
20
271.6784263
40
32.1313652
50
181.1562051
51
182.7597375
0
ARC
8
text
10
352.0395731
20
270.952098
40
17.4290168
50
182.6990453
51
185.2694197
0
ARC
8
text
10
342.5787509
20
270.0617501
40
7.9264285
50
185.1413926
51
189.4824617
0
ARC
8
text
10
339.4582505
20
269.5710077
40
4.7678134
50
189.8436065
51
190.2488824
0
ARC
8
text
10
337.821497
20
269.2414261
40
3.098712
50
189.6367598
51
225.1992943
0
ARC
8
text
10
338.1389735
20
269.496476
40
3.5036894
50
224.4543925
51
270.5600932
0
ARC
8
text
10
338.2209346
20
270.4353827
40
4.4426849
50
269.3846704
51
270.0009919
0
ARC
8
text
10
338.2564935
20
269.9266209
40
3.9340833
50
269.4832353
51
287.2556141
0
ARC
8
text
10
338.4233072
20
269.3162302
40
3.3017547
50
287.6331809
51
310.3833981
0
ARC
8
text
10
338.2193738
20
269.5440492
40
3.6074269
50
310.5062944
51
340.680835
0
ARC
8
text
10
337.1110135
20
269.9862708
40
4.7999432
50
340.0763301
51
348.3462493
0
LINE
8
text
10
371.645
20
279.6426667
11
371.645
21
264.6906667
0
LINE
8
text
10
371.645
20
264.6906667
11
370.049
21
264.6906667
0
LINE
8
text
10
370.049
20
264.6906667
11
370.049
21
271.5156667
0
LINE
8
text
10
370.049
20
271.5156667
11
362.951
21
271.5156667
0
LINE
8
text
10
362.951
20
271.5156667
11
362.951
21
264.6906667
0
LINE
8
text
10
362.951
20
264.6906667
11
361.355
21
264.6906667
0
LINE
8
text
10
361.355
20
264.6906667
11
361.355
21
279.6426667
0
LINE
8
text
10
361.355
20
279.6426667
11
362.951
21
279.6426667
0
LINE
8
text
10
362.951
20
279.6426667
11
362.951
21
272.9436667
0
LINE
8
text
10
362.951
20
272.9436667
11
370.049
21
272.9436667
0
LINE
8
text
10
370.049
20
272.9436667
11
370.049
21
279.6426667
0
LINE
8
text
10
370.049
20
279.6426667
11
371.645
21
279.6426667
0
LINE
8
text
10
88.645
20
248.1982222
11
88.645
21
233.2462222
0
LINE
8
text
10
88.645
20
233.2462222
11
87.049
21
233.2462222
0
LINE
8
text
10
87.049
20
233.2462222
11
87.049
21
240.0712222
0
LINE
8
text
10
87.049
20
240.0712222
11
79.951
21
240.0712222
0
LINE
8
text
10
79.951
20
240.0712222
11
79.951
21
233.2462222
0
LINE
8
text
10
79.951
20
233.2462222
11
78.355
21
233.2462222
0
LINE
8
text
10
78.355
20
233.2462222
11
78.355
21
248.1982222
0
LINE
8
text
10
78.355
20
248.1982222
11
79.951
21
248.1982222
0
LINE
8
text
10
79.951
20
248.1982222
11
79.951
21
241.4992222
0
LINE
8
text
10
79.951
20
241.4992222
11
87.049
21
241.4992222
0
LINE
8
text
10
87.049
20
241.4992222
11
87.049
21
248.1982222
0
LINE
8
text
10
87.049
20
248.1982222
11
88.645
21
248.1982222
0
LINE
8
text
10
112.4825
20
248.1982222
11
117.9635
21
233.2462222
0
LINE
8
text
10
117.9635
20
233.2462222
11
116.2625
21
233.2462222
0
LINE
8
text
10
116.2625
20
233.2462222
11
115.0655
21
236.6272222
0
LINE
8
text
10
115.0655
20
236.6272222
11
108.5345
21
236.6272222
0
LINE
8
text
10
108.5345
20
236.6272222
11
107.3375
21
233.2462222
0
LINE
8
text
10
107.3375
20
233.2462222
11
105.6365
21
233.2462222
0
LINE
8
text
10
105.6365
20
233.2462222
11
111.1385
21
248.1982222
0
LINE
8
text
10
111.1385
20
248.1982222
11
112.4825
21
248.1982222
0
LINE
8
text
10
109.0175
20
238.0132222
11
114.6035
21
238.0132222
0
LINE
8
text
10
114.6035
20
238.0132222
11
111.8315
21
245.9092222
0
LINE
8
text
10
111.8315
20
245.9092222
11
109.0175
21
238.0132222
0
LINE
8
text
10
144.72
20
234.6742222
11
144.72
21
233.2462222
0
LINE
8
text
10
144.72
20
233.2462222
11
135.48
21
233.2462222
0
LINE
8
text
10
135.48
20
233.2462222
11
135.48
21
248.1982222
0
LINE
8
text
10
135.48
20
248.1982222
11
137.076
21
248.1982222
0
LINE
8
text
10
137.076
20
248.1982222
11
137.076
21
234.6742222
0
LINE
8
text
10
137.076
20
234.6742222
11
144.72
21
234.6742222
0
LINE
8
text
10
169.082406
20
233.2462199
11
163.265406
21
233.2462199
0
LINE
8
text
10
163.265406
20
233.2462199
11
163.265406
21
248.1982199
0
LINE
8
text
10
163.265406
20
248.1982199
11
168.893406
21
248.1982199
0
LINE
8
text
10
168.935406
20
240.1552199
11
164.861406
21
240.1552199
0
LINE
8
text
10
164.861406
20
240.1552199
11
164.861406
21
234.6742199
0
LINE
8
text
10
164.861406
20
234.6742199
11
168.935406
21
234.6742199
0
LINE
8
text
10
168.767406
20
246.7702199
11
164.861406
21
246.7702199
0
LINE
8
text
10
164.861406
20
246.7702199
11
164.861406
21
241.5832199
0
LINE
8
text
10
164.861406
20
241.5832199
11
168.767406
21
241.5832199
0
ARC
8
text
10
168.4018396
20
237.3392868
40
5.1327544
50
346.3907683
51
0.4904209
0
ARC
8
text
10
169.9986215
20
236.9295132
40
3.484459
50
311.6959642
51
346.7615291
0
ARC
8
text
10
169.5772274
20
237.4564121
40
4.1583427
50
282.0006468
51
311.202236
0
ARC
8
text
10
169.1270092
20
239.3667898
40
6.1207324
50
269.5824684
51
282.4047409
0
ARC
8
text
10
168.9379531
20
242.2602036
40
5.9381834
50
77.0609945
51
90.4298262
0
ARC
8
text
10
169.3549794
20
243.989831
40
4.1591392
50
48.9673951
51
77.3248085
0
ARC
8
text
10
169.7655907
20
244.484253
40
3.5166486
50
6.3615297
51
48.7255555
0
ARC
8
text
10
168.298284
20
244.2204836
40
5.0051369
50
359.8596128
51
7.5013677
0
ARC
8
text
10
169.6031245
20
244.1771086
40
3.7004123
50
341.6822462
51
0.4817204
0
ARC
8
text
10
170.0031631
20
244.0678592
40
3.2863825
50
324.9755684
51
341.2984582
0
ARC
8
text
10
169.9070928
20
244.0979414
40
3.3824577
50
290.6221467
51
325.4922632
0
ARC
8
text
10
169.9178842
20
237.4972799
40
3.6321405
50
35.5532112
51
71.0331545
0
ARC
8
text
10
170.0017737
20
237.5760698
40
3.5181102
50
7.2495241
51
35.3036567
0
ARC
8
text
10
168.9201264
20
237.3940374
40
4.6142922
50
359.8656786
51
7.796917
0
ARC
8
text
10
169.4939555
20
237.2122159
40
2.4261717
50
312.7359593
51
352.159102
0
ARC
8
text
10
168.4637188
20
237.4133235
40
3.4747076
50
351.1914648
51
0.1961646
0
ARC
8
text
10
168.7709179
20
237.4548414
40
3.1676266
50
359.4642012
51
15.4069009
0
ARC
8
text
10
169.5452514
20
237.6638154
40
2.365605
50
15.5099504
51
47.9427468
0
ARC
8
text
10
169.3191236
20
237.3978858
40
2.7145475
50
48.158978
51
76.6004139
0
ARC
8
text
10
168.9880331
20
236.1217021
40
4.0328037
50
76.2262807
51
89.288032
0
ARC
8
text
10
168.9358028
20
235.048626
40
5.106594
50
88.8516572
51
90.0044522
0
ARC
8
text
10
168.9664129
20
238.7922582
40
4.118155
50
269.5685983
51
282.5088429
0
ARC
8
text
10
169.2755982
20
237.4864428
40
2.7764348
50
282.1163523
51
310.8253239
0
ARC
8
text
10
169.3544759
20
237.364907
40
2.6329755
50
311.2554829
51
312.7104307
0
ARC
8
text
10
168.6214015
20
244.2157708
40
3.0861366
50
359.469929
51
14.2321792
0
ARC
8
text
10
169.567409
20
244.4665704
40
2.1075312
50
13.9460635
51
51.1857
0
ARC
8
text
10
169.0889989
20
243.8475698
40
2.8897518
50
51.4874767
51
78.1029237
0
ARC
8
text
10
168.7968233
20
242.5766468
40
4.1936762
50
77.77648
51
90.4019145
0
ARC
8
text
10
168.7973761
20
245.7687064
40
4.1855938
50
269.5897419
51
282.3621235
0
ARC
8
text
10
169.0904457
20
244.503378
40
2.8869011
50
282.0568609
51
308.5208514
0
ARC
8
text
10
169.5430341
20
243.9020262
40
2.1346404
50
309.0690796
51
349.3362988
0
ARC
8
text
10
168.4211419
20
244.165611
40
3.2863351
50
348.4395459
51
0.376744
0
LINE
8
text
10
197.3825
20
248.1982222
11
202.8635
21
233.2462222
0
LINE
8
text
10
202.8635
20
233.2462222
11
201.1625
21
233.2462222
0
LINE
8
text
10
201.1625
20
233.2462222
11
199.9655
21
236.6272222
0
LINE
8
text
10
199.9655
20
236.6272222
11
193.4345
21
236.6272222
0
LINE
8
text
10
193.4345
20
236.6272222
11
192.2375
21
233.2462222
0
LINE
8
text
10
192.2375
20
233.2462222
11
190.5365
21
233.2462222
0
LINE
8
text
10
190.5365
20
233.2462222
11
196.0385
21
248.1982222
0
LINE
8
text
10
196.0385
20
248.1982222
11
197.3825
21
248.1982222
0
LINE
8
text
10
193.9175
20
238.0132222
11
199.5035
21
238.0132222
0
LINE
8
text
10
199.5035
20
238.0132222
11
196.7315
21
245.9092222
0
LINE
8
text
10
196.7315
20
245.9092222
11
193.9175
21
238.0132222
0
LINE
8
text
10
229.641
20
234.6742222
11
229.641
21
233.2462222
0
LINE
8
text
10
229.641
20
233.2462222
11
220.359
21
233.2462222
0
LINE
8
text
10
220.359
20
233.2462222
11
220.359
21
248.1982222
0
LINE
8
text
10
220.359
20
248.1982222
11
229.641
21
248.1982222
0
LINE
8
text
10
229.641
20
248.1982222
11
229.641
21
246.7702222
0
LINE
8
text
10
229.641
20
246.7702222
11
221.955
21
246.7702222
0
LINE
8
text
10
221.955
20
246.7702222
11
221.955
21
241.4992222
0
LINE
8
text
10
221.955
20
241.4992222
11
228.507
21
241.4992222
0
LINE
8
text
10
228.507
20
241.4992222
11
228.507
21
240.0712222
0
LINE
8
text
10
228.507
20
240.0712222
11
221.955
21
240.0712222
0
LINE
8
text
10
221.955
20
240.0712222
11
221.955
21
234.6742222
0
LINE
8
text
10
221.955
20
234.6742222
11
229.641
21
234.6742222
0
LINE
8
text
10
257.92
20
234.6742222
11
257.92
21
233.2462222
0
LINE
8
text
10
257.92
20
233.2462222
11
248.68
21
233.2462222
0
LINE
8
text
10
248.68
20
233.2462222
11
248.68
21
248.1982222
0
LINE
8
text
10
248.68
20
248.1982222
11
250.276
21
248.1982222
0
LINE
8
text
10
250.276
20
248.1982222
11
250.276
21
234.6742222
0
LINE
8
text
10
250.276
20
234.6742222
11
257.92
21
234.6742222
0
LINE
8
text
10
286.241
20
248.1982222
11
286.241
21
246.7702222
0
LINE
8
text
10
286.241
20
246.7702222
11
278.555
21
246.7702222
0
LINE
8
text
10
278.555
20
246.7702222
11
278.555
21
241.2682222
0
LINE
8
text
10
278.555
20
241.2682222
11
285.107
21
241.2682222
0
LINE
8
text
10
285.107
20
241.2682222
11
285.107
21
239.8402222
0
LINE
8
text
10
285.107
20
239.8402222
11
278.555
21
239.8402222
0
LINE
8
text
10
278.555
20
239.8402222
11
278.555
21
233.2462222
0
LINE
8
text
10
278.555
20
233.2462222
11
276.959
21
233.2462222
0
LINE
8
text
10
276.959
20
233.2462222
11
276.959
21
248.1982222
0
LINE
8
text
10
276.959
20
248.1982222
11
286.241
21
248.1982222
0
LINE
8
text
10
313.5223522
20
248.2613556
11
315.1183522
21
248.2613556
0
LINE
8
text
10
315.1183522
20
248.2613556
11
315.1183522
21
238.2443556
0
LINE
8
text
10
304.6813522
20
238.2443556
11
304.6813522
21
248.2613556
0
LINE
8
text
10
304.6813522
20
248.2613556
11
306.2773522
21
248.2613556
0
LINE
8
text
10
306.2773522
20
248.2613556
11
306.2773522
21
238.3703556
0
LINE
8
text
10
313.5223522
20
238.3703556
11
313.5223522
21
248.2613556
0
LINE
8
text
10
312.8713522
20
251.7473556
11
312.8713522
21
249.8783556
0
LINE
8
text
10
312.8713522
20
249.8783556
11
311.3593522
21
249.8783556
0
LINE
8
text
10
311.3593522
20
249.8783556
11
311.3593522
21
251.7473556
0
LINE
8
text
10
311.3593522
20
251.7473556
11
312.8713522
21
251.7473556
0
LINE
8
text
10
308.4193522
20
251.7473556
11
308.4193522
21
249.8783556
0
LINE
8
text
10
308.4193522
20
249.8783556
11
306.9073522
21
249.8783556
0
LINE
8
text
10
306.9073522
20
249.8783556
11
306.9073522
21
251.7473556
0
LINE
8
text
10
306.9073522
20
251.7473556
11
308.4193522
21
251.7473556
0
ARC
8
text
10
309.6628414
20
238.1874733
40
5.4558074
50
341.5260673
51
0.5973772
0
ARC
8
text
10
310.4616796
20
237.9680358
40
4.62882
50
313.3279489
51
340.9690339
0
ARC
8
text
10
310.1432903
20
238.2517656
40
5.053821
50
274.1798914
51
313.7465269
0
ARC
8
text
10
309.8965322
20
239.9454821
40
6.7621305
50
269.939164
51
275.2191655
0
ARC
8
text
10
309.83304
20
239.1283629
40
5.945274
50
252.9275836
51
270.5427003
0
ARC
8
text
10
309.5493651
20
238.0937064
40
4.8730379
50
225.7885042
51
252.5445151
0
ARC
8
text
10
309.4366403
20
238.0257599
40
4.7458495
50
182.5175038
51
226.1919584
0
ARC
8
text
10
311.0823435
20
238.2407241
40
6.4009922
50
179.9674944
51
183.792868
0
ARC
8
text
10
311.0904647
20
238.3312727
40
4.8132711
50
179.5347637
51
193.7269681
0
ARC
8
text
10
309.7456329
20
237.9922371
40
3.4264146
50
193.5559133
51
223.3455912
0
ARC
8
text
10
309.5969024
20
237.8752736
40
3.2380153
50
223.6469187
51
261.6343885
0
ARC
8
text
10
309.8717854
20
239.2490164
40
4.6376941
50
260.7436849
51
270.2170282
0
ARC
8
text
10
309.9281958
20
238.84619
40
4.2350126
50
269.474476
51
285.659462
0
ARC
8
text
10
310.1848272
20
237.893548
40
3.2484756
50
285.8363762
51
316.0830212
0
ARC
8
text
10
310.025228
20
238.0417767
40
3.4662581
50
316.1478917
51
350.4500564
0
ARC
8
text
10
308.5720295
20
238.3473259
40
4.9503763
50
349.7530689
51
0.2665469
0
LINE
8
text
10
343.723
20
248.1982222
11
343.723
21
233.2462222
0
LINE
8
text
10
343.723
20
233.2462222
11
342.211
21
233.2462222
0
LINE
8
text
10
342.211
20
233.2462222
11
334.273
21
245.2372222
0
LINE
8
text
10
334.273
20
245.2372222
11
334.273
21
233.2462222
0
LINE
8
text
10
334.273
20
233.2462222
11
332.677
21
233.2462222
0
LINE
8
text
10
332.677
20
233.2462222
11
332.677
21
248.1982222
0
LINE
8
text
10
332.677
20
248.1982222
11
334.189
21
248.1982222
0
LINE
8
text
10
334.189
20
248.1982222
11
342.127
21
236.2492222
0
LINE
8
text
10
342.127
20
236.2492222
11
342.127
21
248.1982222
0
LINE
8
text
10
342.127
20
248.1982222
11
343.723
21
248.1982222
0
LINE
8
text
10
371.141
20
248.1982222
11
371.141
21
246.7702222
0
LINE
8
text
10
371.141
20
246.7702222
11
363.455
21
246.7702222
0
LINE
8
text
10
363.455
20
246.7702222
11
363.455
21
241.2682222
0
LINE
8
text
10
363.455
20
241.2682222
11
370.007
21
241.2682222
0
LINE
8
text
10
370.007
20
241.2682222
11
370.007
21
239.8402222
0
LINE
8
text
10
370.007
20
239.8402222
11
363.455
21
239.8402222
0
LINE
8
text
10
363.455
20
239.8402222
11
363.455
21
233.2462222
0
LINE
8
text
10
363.455
20
233.2462222
11
361.859
21
233.2462222
0
LINE
8
text
10
361.859
20
233.2462222
11
361.859
21
248.1982222
0
LINE
8
text
10
361.859
20
248.1982222
11
371.141
21
248.1982222
0
LINE
8
text
10
88.141
20
203.2297778
11
88.141
21
201.8017778
0
LINE
8
text
10
88.141
20
201.8017778
11
78.859
21
201.8017778
0
LINE
8
text
10
78.859
20
201.8017778
11
78.859
21
216.7537778
0
LINE
8
text
10
78.859
20
216.7537778
11
88.141
21
216.7537778
0
LINE
8
text
10
88.141
20
216.7537778
11
88.141
21
215.3257778
0
LINE
8
text
10
88.141
20
215.3257778
11
80.455
21
215.3257778
0
LINE
8
text
10
80.455
20
215.3257778
11
80.455
21
210.0547778
0
LINE
8
text
10
80.455
20
210.0547778
11
87.007
21
210.0547778
0
LINE
8
text
10
87.007
20
210.0547778
11
87.007
21
208.6267778
0
LINE
8
text
10
87.007
20
208.6267778
11
80.455
21
208.6267778
0
LINE
8
text
10
80.455
20
208.6267778
11
80.455
21
203.2297778
0
LINE
8
text
10
80.455
20
203.2297778
11
88.141
21
203.2297778
0
LINE
8
text
10
112.598
20
216.7537778
11
112.598
21
201.8017778
0
LINE
8
text
10
112.598
20
201.8017778
11
111.002
21
201.8017778
0
LINE
8
text
10
111.002
20
201.8017778
11
111.002
21
216.7537778
0
LINE
8
text
10
111.002
20
216.7537778
11
112.598
21
216.7537778
0
LINE
8
text
10
145.623
20
216.7537778
11
145.623
21
201.8017778
0
LINE
8
text
10
145.623
20
201.8017778
11
144.111
21
201.8017778
0
LINE
8
text
10
144.111
20
201.8017778
11
136.173
21
213.7927778
0
LINE
8
text
10
136.173
20
213.7927778
11
136.173
21
201.8017778
0
LINE
8
text
10
136.173
20
201.8017778
11
134.577
21
201.8017778
0
LINE
8
text
10
134.577
20
201.8017778
11
134.577
21
216.7537778
0
LINE
8
text
10
134.577
20
216.7537778
11
136.089
21
216.7537778
0
LINE
8
text
10
136.089
20
216.7537778
11
144.027
21
204.8047778
0
LINE
8
text
10
144.027
20
204.8047778
11
144.027
21
216.7537778
0
LINE
8
text
10
144.027
20
216.7537778
11
145.623
21
216.7537778
0
LINE
8
text
10
163.2653625
20
203.6497824
11
164.3363625
21
204.7207824
0
LINE
8
text
10
169.2713625
20
208.4797824
11
167.5283625
21
208.7317824
0
LINE
8
text
10
172.8833625
20
215.2417824
11
171.8543625
21
214.2127824
0
LINE
8
text
10
167.8223625
20
210.2017824
11
169.5653625
21
209.9287824
0
ARC
8
text
10
169.1739472
20
205.8688079
40
4.3606904
50
341.3886729
51
0.643497
0
ARC
8
text
10
169.8560968
20
205.6849088
40
3.6557806
50
308.409713
51
340.7080933
0
ARC
8
text
10
169.0922844
20
206.6170726
40
4.8607937
50
283.9076611
51
308.638141
0
ARC
8
text
10
168.5029319
20
208.8275593
40
7.1482504
50
271.9904357
51
284.2344278
0
ARC
8
text
10
168.3714947
20
210.8746908
40
9.1989091
50
269.9804912
51
272.3657429
0
ARC
8
text
10
168.3310587
20
211.8895587
40
10.2138445
50
262.991551
51
270.2092606
0
ARC
8
text
10
167.9383423
20
208.7799143
40
7.0795247
50
252.9702823
51
263.0753696
0
ARC
8
text
10
167.5331568
20
207.3639999
40
5.6070944
50
248.7601959
51
252.6917647
0
ARC
8
text
10
167.7098402
20
207.7206678
40
6.0036468
50
232.2907278
51
248.4216782
0
ARC
8
text
10
168.7248893
20
209.0831736
40
7.7024784
50
224.8625291
51
232.5165143
0
ARC
8
text
10
169.0855944
20
209.4288963
40
6.6874166
50
224.750895
51
233.4585116
0
ARC
8
text
10
167.9139773
20
207.8337828
40
4.7082822
50
233.3559193
51
246.0844601
0
ARC
8
text
10
167.5770236
20
207.1317447
40
3.9299905
50
246.4259823
51
249.0815191
0
ARC
8
text
10
167.9610142
20
208.2195785
40
5.0833111
50
249.4164819
51
260.5991799
0
ARC
8
text
10
168.3274524
20
210.3719237
40
7.2666107
50
260.5207057
51
268.5543753
0
ARC
8
text
10
168.4084198
20
212.1921948
40
9.0884125
50
268.3336029
51
270.0122474
0
ARC
8
text
10
168.444668
20
209.2604643
40
6.1567774
50
269.6807469
51
279.1357753
0
ARC
8
text
10
168.7962244
20
207.1536877
40
4.0209271
50
278.9563139
51
293.8378836
0
ARC
8
text
10
169.1906366
20
206.2214607
40
3.0088665
50
294.1424442
51
307.3092805
0
ARC
8
text
10
169.5930618
20
205.7079653
40
2.3565448
50
307.0943309
51
356.263256
0
ARC
8
text
10
168.5483237
20
205.8714529
40
3.4110416
50
354.6664448
51
0.0727224
0
ARC
8
text
10
168.8300239
20
205.903212
40
3.1294588
50
359.497798
51
14.0026424
0
ARC
8
text
10
169.7583312
20
206.1443292
40
2.1704142
50
13.7562661
51
47.5100002
0
ARC
8
text
10
169.7283147
20
205.9662215
40
2.3240993
50
49.9309173
51
65.1415108
0
ARC
8
text
10
169.0261828
20
204.4944492
40
3.9547141
50
64.8752638
51
74.0925123
0
ARC
8
text
10
168.3407194
20
202.1358332
40
6.4108958
50
73.9785361
51
80.3632038
0
ARC
8
text
10
167.9805499
20
200.2122075
40
8.3677351
50
80.1367769
51
81.1260788
0
ARC
8
text
10
168.6231083
20
215.9657973
40
7.3163816
50
252.0905266
51
261.3945495
0
ARC
8
text
10
167.8771686
20
213.6974645
40
4.9285923
50
238.0591449
51
252.232937
0
ARC
8
text
10
167.3319682
20
212.7790521
40
3.8608676
50
228.9872436
51
237.7144662
0
ARC
8
text
10
167.0511872
20
212.3912413
40
3.384252
50
187.0975824
51
228.2655818
0
ARC
8
text
10
168.5062832
20
212.6653568
40
4.8629421
50
179.8300356
51
188.1842408
0
ARC
8
text
10
168.2133833
20
212.7266264
40
4.5702609
50
162.7627596
51
180.5872779
0
ARC
8
text
10
167.3502857
20
212.9650534
40
3.6753827
50
131.0858846
51
162.3255988
0
ARC
8
text
10
167.8003573
20
212.4494235
40
4.3598084
50
103.5855709
51
131.090664
0
ARC
8
text
10
168.3351784
20
210.4135885
40
6.4644433
50
91.1302515
51
103.9546798
0
ARC
8
text
10
168.4301792
20
208.6489168
40
8.2308655
50
89.9917629
51
91.5491292
0
ARC
8
text
10
168.4631501
20
208.3001115
40
8.5797298
50
82.5829556
51
90.2122789
0
ARC
8
text
10
168.7972452
20
210.7969184
40
6.0606924
50
71.8919403
51
82.6679005
0
ARC
8
text
10
169.1016471
20
211.8119669
40
5.0013744
50
69.3262609
51
71.5922282
0
ARC
8
text
10
168.7189125
20
210.8868805
40
6.0020962
50
56.0311955
51
69.0256516
0
ARC
8
text
10
167.687884
20
209.3178689
40
7.879451
50
48.7481094
51
56.1882364
0
ARC
8
text
10
168.6415537
20
210.8340486
40
4.6624009
50
46.4419674
51
84.6162075
0
ARC
8
text
10
168.3786213
20
209.1915928
40
6.323198
50
83.6405745
51
90.092957
0
ARC
8
text
10
168.3356831
20
210.781413
40
4.7334822
50
89.604433
51
101.0290674
0
ARC
8
text
10
168.0126217
20
212.3716712
40
3.1108184
50
100.7920786
51
120.4332998
0
ARC
8
text
10
167.7667372
20
212.8354418
40
2.5864987
50
120.9407984
51
131.9603443
0
ARC
8
text
10
167.7053251
20
212.903368
40
2.4949272
50
131.954603
51
174.2976238
0
ARC
8
text
10
168.7222721
20
212.7289598
40
3.5249169
50
173.1190849
51
180.1166655
0
ARC
8
text
10
168.2581917
20
212.6967159
40
3.0609318
50
179.53079
51
192.7893772
0
ARC
8
text
10
167.2336914
20
212.4481463
40
2.0068843
50
192.3436713
51
222.2489969
0
ARC
8
text
10
167.1582347
20
212.4017646
40
1.9199141
50
222.7384397
51
227.8311553
0
ARC
8
text
10
167.5452723
20
213.0348691
40
2.6525772
50
230.8166321
51
244.6590761
0
ARC
8
text
10
168.3337663
20
214.6608031
40
4.4595685
50
244.4442943
51
253.2004465
0
ARC
8
text
10
169.1207099
20
217.2176972
40
7.134799
50
253.0851798
51
259.0839443
0
ARC
8
text
10
169.5014542
20
219.0179114
40
8.9746019
50
258.8736011
51
259.2167746
0
ARC
8
text
10
166.6738397
20
193.7474938
40
16.4376094
50
77.6966274
51
79.8684416
0
ARC
8
text
10
167.9274463
20
199.4761564
40
10.5733892
50
74.9133201
51
77.7188791
0
ARC
8
text
10
169.0343668
20
203.5542607
40
6.3477393
50
70.8598644
51
74.9793856
0
ARC
8
text
10
169.6517801
20
205.3785068
40
4.4219261
50
69.4586152
51
70.6674363
0
ARC
8
text
10
170.0400401
20
206.438058
40
3.2935183
50
47.28127
51
69.3158707
0
ARC
8
text
10
170.0085984
20
206.1805491
40
3.507316
50
5.3828035
51
49.758493
0
ARC
8
text
10
168.5245108
20
205.9275383
40
5.0098611
50
359.888425
51
6.6715135
0
LINE
8
text
10
197.5505
20
209.4667778
11
202.1705
21
201.8017778
0
LINE
8
text
10
202.1705
20
201.8017778
11
200.3225
21
201.8017778
0
LINE
8
text
10
200.3225
20
201.8017778
11
196.6895
21
208.0807778
0
LINE
8
text
10
196.6895
20
208.0807778
11
193.0355
21
201.8017778
0
LINE
8
text
10
193.0355
20
201.8017778
11
191.2295
21
201.8017778
0
LINE
8
text
10
191.2295
20
201.8017778
11
195.8075
21
209.4667778
0
LINE
8
text
10
195.8075
20
209.4667778
11
191.5235
21
216.7537778
0
LINE
8
text
10
191.5235
20
216.7537778
11
193.3715
21
216.7537778
0
LINE
8
text
10
193.3715
20
216.7537778
11
196.6895
21
210.8527778
0
LINE
8
text
10
196.6895
20
210.8527778
11
200.0075
21
216.7537778
0
LINE
8
text
10
200.0075
20
216.7537778
11
201.8555
21
216.7537778
0
LINE
8
text
10
201.8555
20
216.7537778
11
197.5505
21
209.4667778
0
LINE
8
text
10
225.6825
20
216.7537778
11
231.1635
21
201.8017778
0
LINE
8
text
10
231.1635
20
201.8017778
11
229.4625
21
201.8017778
0
LINE
8
text
10
229.4625
20
201.8017778
11
228.2655
21
205.1827778
0
LINE
8
text
10
228.2655
20
205.1827778
11
221.7345
21
205.1827778
0
LINE
8
text
10
221.7345
20
205.1827778
11
220.5375
21
201.8017778
0
LINE
8
text
10
220.5375
20
201.8017778
11
218.8365
21
201.8017778
0
LINE
8
text
10
218.8365
20
201.8017778
11
224.3385
21
216.7537778
0
LINE
8
text
10
224.3385
20
216.7537778
11
225.6825
21
216.7537778
0
LINE
8
text
10
222.2175
20
206.5687778
11
227.8035
21
206.5687778
0
LINE
8
text
10
227.8035
20
206.5687778
11
225.0315
21
214.4647778
0
LINE
8
text
10
225.0315
20
214.4647778
11
222.2175
21
206.5687778
0
LINE
8
text
10
259.705
20
216.7537778
11
259.705
21
201.8017778
0
LINE
8
text
10
259.705
20
201.8017778
11
258.109
21
201.8017778
0
LINE
8
text
10
258.109
20
201.8017778
11
258.109
21
213.1627778
0
LINE
8
text
10
258.109
20
213.1627778
11
254.014
21
204.1537778
0
LINE
8
text
10
254.014
20
204.1537778
11
252.649
21
204.1537778
0
LINE
8
text
10
252.649
20
204.1537778
11
248.491
21
213.1627778
0
LINE
8
text
10
248.491
20
213.1627778
11
248.491
21
201.8017778
0
LINE
8
text
10
248.491
20
201.8017778
11
246.895
21
201.8017778
0
LINE
8
text
10
246.895
20
201.8017778
11
246.895
21
216.7537778
0
LINE
8
text
10
246.895
20
216.7537778
11
248.491
21
216.7537778
0
LINE
8
text
10
248.491
20
216.7537778
11
253.363
21
206.1487778
0
LINE
8
text
10
253.363
20
206.1487778
11
258.109
21
216.7537778
0
LINE
8
text
10
258.109
20
216.7537778
11
259.705
21
216.7537778
0
LINE
8
text
10
286.241
20
203.2297778
11
286.241
21
201.8017778
0
LINE
8
text
10
286.241
20
201.8017778
11
276.959
21
201.8017778
0
LINE
8
text
10
276.959
20
201.8017778
11
276.959
21
203.3137778
0
LINE
8
text
10
276.959
20
203.3137778
11
284.435
21
215.3257778
0
LINE
8
text
10
284.435
20
215.3257778
11
277.253
21
215.3257778
0
LINE
8
text
10
277.253
20
215.3257778
11
277.253
21
216.7537778
0
LINE
8
text
10
277.253
20
216.7537778
11
286.241
21
216.7537778
0
LINE
8
text
10
286.241
20
216.7537778
11
286.241
21
215.4097778
0
LINE
8
text
10
286.241
20
215.4097778
11
278.702
21
203.2297778
0
LINE
8
text
10
278.702
20
203.2297778
11
286.241
21
203.2297778
0
LINE
8
text
10
316.83
20
216.7537778
11
318.531
21
216.7537778
0
LINE
8
text
10
318.531
20
216.7537778
11
314.709
21
201.8017778
0
LINE
8
text
10
314.709
20
201.8017778
11
313.218
21
201.8017778
0
LINE
8
text
10
313.218
20
201.8017778
11
309.9
21
213.7717778
0
LINE
8
text
10
309.9
20
213.7717778
11
306.582
21
201.8017778
0
LINE
8
text
10
306.582
20
201.8017778
11
305.091
21
201.8017778
0
LINE
8
text
10
305.091
20
201.8017778
11
301.269
21
216.7537778
0
LINE
8
text
10
301.269
20
216.7537778
11
302.97
21
216.7537778
0
LINE
8
text
10
302.97
20
216.7537778
11
305.889
21
204.6997778
0
LINE
8
text
10
305.889
20
204.6997778
11
309.186
21
216.7537778
0
LINE
8
text
10
309.186
20
216.7537778
11
310.614
21
216.7537778
0
LINE
8
text
10
310.614
20
216.7537778
11
313.911
21
204.6997778
0
LINE
8
text
10
313.911
20
204.6997778
11
316.83
21
216.7537778
0
LINE
8
text
10
342.841
20
203.2297778
11
342.841
21
201.8017778
0
LINE
8
text
10
342.841
20
201.8017778
11
333.559
21
201.8017778
0
LINE
8
text
10
333.559
20
201.8017778
11
333.559
21
216.7537778
0
LINE
8
text
10
333.559
20
216.7537778
11
342.841
21
216.7537778
0
LINE
8
text
10
342.841
20
216.7537778
11
342.841
21
215.3257778
0
LINE
8
text
10
342.841
20
215.3257778
11
335.155
21
215.3257778
0
LINE
8
text
10
335.155
20
215.3257778
11
335.155
21
210.0547778
0
LINE
8
text
10
335.155
20
210.0547778
11
341.707
21
210.0547778
0
LINE
8
text
10
341.707
20
210.0547778
11
341.707
21
208.6267778
0
LINE
8
text
10
341.707
20
208.6267778
11
335.155
21
208.6267778
0
LINE
8
text
10
335.155
20
208.6267778
11
335.155
21
203.2297778
0
LINE
8
text
10
335.155
20
203.2297778
11
342.841
21
203.2297778
0
LINE
8
text
10
367.298
20
216.7537778
11
367.298
21
201.8017778
0
LINE
8
text
10
367.298
20
201.8017778
11
365.702
21
201.8017778
0
LINE
8
text
10
365.702
20
201.8017778
11
365.702
21
216.7537778
0
LINE
8
text
10
365.702
20
216.7537778
11
367.298
21
216.7537778
0
LINE
8
text
10
83.4369992
20
170.357216
11
78.3129992
21
170.357216
0
LINE
8
text
10
78.3129992
20
170.357216
11
78.3129992
21
185.309216
0
LINE
8
text
10
78.3129992
20
185.309216
11
83.4369992
21
185.309216
0
LINE
8
text
10
83.1639992
20
183.881216
11
79.9089992
21
183.881216
0
LINE
8
text
10
79.9089992
20
183.881216
11
79.9089992
21
171.785216
0
LINE
8
text
10
79.9089992
20
171.785216
11
83.1639992
21
171.785216
0
ARC
8
text
10
-18.9462438
20
177.8151464
40
107.6332445
50
359.7168727
51
0.0096189
0
ARC
8
text
10
15.5700769
20
177.6480231
40
73.1165196
50
359.4301081
51
359.7141765
0
ARC
8
text
10
43.0435736
20
177.3607499
40
45.6415267
50
358.8821729
51
359.4476812
0
ARC
8
text
10
65.372952
20
176.916962
40
23.3077416
50
358.0182979
51
358.9020603
0
ARC
8
text
10
73.352861
20
176.6573126
40
15.3236352
50
357.8791152
51
357.9567765
0
ARC
8
text
10
78.2907131
20
176.4928775
40
10.3830967
50
355.6315829
51
357.7774847
0
ARC
8
text
10
71.5024622
20
177.0056034
40
17.1906819
50
354.0172342
51
355.6509832
0
ARC
8
text
10
61.8900095
20
178.0046659
40
26.8549114
50
352.8240234
51
354.0348964
0
ARC
8
text
10
55.5363408
20
178.7813655
40
33.2558441
50
352.7937708
51
352.8637649
0
ARC
8
text
10
81.5385613
20
175.4734833
40
7.0440973
50
347.2117752
51
352.956501
0
ARC
8
text
10
83.6466928
20
174.9890123
40
4.8810252
50
339.404064
51
347.2801251
0
ARC
8
text
10
84.6808229
20
174.6158581
40
3.7817533
50
335.8097267
51
339.1847201
0
ARC
8
text
10
84.4810446
20
174.7069284
40
4.0013069
50
316.0960468
51
335.7923926
0
ARC
8
text
10
83.8462844
20
175.1776883
40
4.7861685
50
277.5106289
51
317.3051158
0
ARC
8
text
10
83.4588142
20
177.2005783
40
6.8433971
50
269.8173556
51
278.5131409
0
ARC
8
text
10
83.4952284
20
179.0185435
40
6.2909419
50
74.7419409
51
90.5303388
0
ARC
8
text
10
83.9152581
20
180.5812209
40
4.6728142
50
42.4349658
51
74.6681126
0
ARC
8
text
10
84.5112892
20
180.9947634
40
3.955067
50
23.7826466
51
43.8397536
0
ARC
8
text
10
83.8988503
20
180.739954
40
4.6182759
50
14.5569398
51
23.6113686
0
ARC
8
text
10
82.1001497
20
180.2642931
40
6.4787941
50
8.1094005
51
14.6303623
0
ARC
8
text
10
80.7831335
20
180.0532381
40
7.8124473
50
7.4574596
51
8.2792646
0
ARC
8
text
10
65.6790939
20
178.055907
40
23.0479718
50
5.9816142
51
7.5073842
0
ARC
8
text
10
72.9449019
20
178.8174512
40
15.7423634
50
4.2855565
51
5.9807664
0
ARC
8
text
10
78.1121355
20
179.201169
40
10.5609035
50
2.0921622
51
4.3044839
0
ARC
8
text
10
64.13195
20
178.7447748
40
24.5484916
50
1.1855381
51
1.9654624
0
ARC
8
text
10
43.9892383
20
178.3222796
40
44.6956334
50
0.6043946
51
1.1927817
0
ARC
8
text
10
15.9602719
20
178.0092312
40
72.7263446
50
0.2637824
51
0.6180776
0
ARC
8
text
10
-17.9364967
20
177.8478526
40
106.623497
50
359.9921348
51
0.2666418
0
ARC
8
text
10
69.3074774
20
176.8193618
40
17.7709996
50
356.6994331
51
357.9745641
0
ARC
8
text
10
56.0717877
20
177.2925735
40
31.0151453
50
357.9650966
51
358.9546078
0
ARC
8
text
10
38.0426479
20
177.6396466
40
49.0476198
50
358.9334847
51
359.5407498
0
ARC
8
text
10
16.5734717
20
177.8171691
40
70.5175294
50
359.5363346
51
0.0130381
0
ARC
8
text
10
17.3854041
20
177.8514431
40
69.7055975
50
359.9850179
51
0.4974699
0
ARC
8
text
10
41.1589444
20
178.0674915
40
45.9310785
50
0.4854579
51
1.2469491
0
ARC
8
text
10
59.9646437
20
178.4860662
40
27.1207252
50
1.2274443
51
2.3547903
0
ARC
8
text
10
70.7626316
20
178.922085
40
16.3139427
50
2.3829192
51
3.3317838
0
ARC
8
text
10
79.9449395
20
179.4308894
40
7.1176311
50
3.5387575
51
9.6251318
0
ARC
8
text
10
77.2788745
20
178.9848715
40
9.820742
50
9.5899508
51
14.3467289
0
ARC
8
text
10
75.622722
20
178.5862026
40
11.5240567
50
14.2267047
51
14.364569
0
ARC
8
text
10
82.9262575
20
180.4765355
40
3.9799257
50
14.0868026
51
23.096896
0
ARC
8
text
10
84.0905579
20
180.9800361
40
2.711443
50
22.9616323
51
36.6078486
0
ARC
8
text
10
84.5449457
20
181.3009805
40
2.1553406
50
36.9623026
51
43.6687026
0
ARC
8
text
10
83.7981709
20
180.6711581
40
3.1309764
50
42.5695576
51
74.4044986
0
ARC
8
text
10
83.2961087
20
179.0311118
40
4.8458065
50
73.9000746
51
87.3963409
0
ARC
8
text
10
83.1679524
20
177.3557467
40
6.5254704
50
86.9404835
51
90.0347102
0
ARC
8
text
10
83.2049385
20
177.353829
40
5.5687635
50
269.578781
51
281.2388586
0
ARC
8
text
10
83.6114326
20
175.4001879
40
3.5734065
50
280.9512902
51
301.7307074
0
ARC
8
text
10
83.9139449
20
174.8559772
40
2.9515815
50
302.2921045
51
317.9015086
0
ARC
8
text
10
84.3665149
20
174.5130379
40
2.3863707
50
316.7262183
51
333.1120411
0
ARC
8
text
10
83.3949291
20
175.0173438
40
3.4810074
50
332.9410322
51
343.1019482
0
ARC
8
text
10
82.4163744
20
175.3378562
40
4.5105294
50
342.8194697
51
345.6666502
0
ARC
8
text
10
77.1816959
20
176.7022672
40
9.9200737
50
345.5163272
51
350.2412862
0
ARC
8
text
10
79.8704352
20
176.2442507
40
7.1926076
50
350.2066298
51
356.2447023
0
ARC
8
text
10
80.9988533
20
176.1521523
40
6.0606071
50
356.4148192
51
356.6331114
0
LINE
8
text
10
113.48
20
177.1402385
11
117.029
21
170.3572385
0
LINE
8
text
10
117.029
20
170.3572385
11
115.16
21
170.3572385
0
LINE
8
text
10
115.16
20
170.3572385
11
111.758
21
176.9932385
0
LINE
8
text
10
111.758
20
176.9932385
11
108.167
21
176.9932385
0
LINE
8
text
10
108.167
20
176.9932385
11
108.167
21
170.3572385
0
LINE
8
text
10
108.167
20
170.3572385
11
106.571
21
170.3572385
0
LINE
8
text
10
106.571
20
170.3572385
11
106.571
21
185.3092385
0
LINE
8
text
10
106.571
20
185.3092385
11
112.304
21
185.3092385
0
LINE
8
text
10
112.157
20
183.8812385
11
108.167
21
183.8812385
0
LINE
8
text
10
108.167
20
183.8812385
11
108.167
21
178.4002385
0
LINE
8
text
10
108.167
20
178.4002385
11
112.157
21
178.4002385
0
ARC
8
text
10
112.3505085
20
179.607357
40
5.7020711
50
76.0084761
51
90.4673334
0
ARC
8
text
10
112.7338202
20
181.1211311
40
4.1405362
50
47.9605042
51
76.0906949
0
ARC
8
text
10
113.0458009
20
181.4876173
40
3.6594629
50
8.236572
51
47.7458178
0
ARC
8
text
10
111.465439
20
181.1710103
40
5.2695979
50
359.7850231
51
9.1818775
0
ARC
8
text
10
111.9875606
20
181.1127759
40
4.7475952
50
345.3552818
51
0.4641862
0
ARC
8
text
10
113.0743453
20
180.8344304
40
3.6257492
50
320.0287648
51
345.2689496
0
ARC
8
text
10
112.8253506
20
181.0642469
40
3.9642382
50
286.8513273
51
319.7950728
0
ARC
8
text
10
112.4286225
20
182.1457279
40
5.114716
50
281.8622429
51
287.5927391
0
ARC
8
text
10
112.8732907
20
180.7628569
40
2.2230151
50
311.3176916
51
346.6168934
0
ARC
8
text
10
111.6808266
20
181.0841839
40
3.4576651
50
346.0105267
51
359.521086
0
ARC
8
text
10
110.7041605
20
181.1299736
40
4.4348395
50
359.0349906
51
0.0034227
0
ARC
8
text
10
111.5715974
20
181.159475
40
3.5675224
50
359.530446
51
12.6917223
0
ARC
8
text
10
112.7762271
20
181.4485016
40
2.3288899
50
12.2660707
51
40.9152432
0
ARC
8
text
10
112.8866877
20
181.5164648
40
2.2010053
50
41.4615778
51
49.0061094
0
ARC
8
text
10
112.542193
20
181.0890856
40
2.7496387
50
49.4298238
51
76.6636932
0
ARC
8
text
10
112.2149101
20
179.8242635
40
4.0559334
50
76.2864438
51
88.8752683
0
ARC
8
text
10
112.157699
20
178.7457623
40
5.1354764
50
88.4732816
51
90.007799
0
ARC
8
text
10
112.1872947
20
182.7688337
40
4.3687003
50
269.6026801
51
281.6245522
0
ARC
8
text
10
112.4840527
20
181.3888952
40
2.9572967
50
281.3801085
51
303.1392164
0
ARC
8
text
10
112.6549663
20
181.0859361
40
2.6102783
50
303.6332444
51
310.2347654
0
LINE
8
text
10
144.741
20
171.7853333
11
144.741
21
170.3573333
0
LINE
8
text
10
144.741
20
170.3573333
11
135.459
21
170.3573333
0
LINE
8
text
10
135.459
20
170.3573333
11
135.459
21
185.3093333
0
LINE
8
text
10
135.459
20
185.3093333
11
144.741
21
185.3093333
0
LINE
8
text
10
144.741
20
185.3093333
11
144.741
21
183.8813333
0
LINE
8
text
10
144.741
20
183.8813333
11
137.055
21
183.8813333
0
LINE
8
text
10
137.055
20
183.8813333
11
137.055
21
178.6103333
0
LINE
8
text
10
137.055
20
178.6103333
11
143.607
21
178.6103333
0
LINE
8
text
10
143.607
20
178.6103333
11
143.607
21
177.1823333
0
LINE
8
text
10
143.607
20
177.1823333
11
137.055
21
177.1823333
0
LINE
8
text
10
137.055
20
177.1823333
11
137.055
21
171.7853333
0
LINE
8
text
10
137.055
20
171.7853333
11
144.741
21
171.7853333
0
LINE
8
text
10
169.198
20
185.3093333
11
169.198
21
170.3573333
0
LINE
8
text
10
169.198
20
170.3573333
11
167.602
21
170.3573333
0
LINE
8
text
10
167.602
20
170.3573333
11
167.602
21
185.3093333
0
LINE
8
text
10
167.602
20
185.3093333
11
169.198
21
185.3093333
0
LINE
8
text
10
197.1723884
20
176.5102323
11
193.2033884
21
176.5102323
0
LINE
8
text
10
193.2033884
20
176.5102323
11
193.2033884
21
170.3572323
0
LINE
8
text
10
193.2033884
20
170.3572323
11
191.6073884
21
170.3572323
0
LINE
8
text
10
191.6073884
20
170.3572323
11
191.6073884
21
185.3092323
0
LINE
8
text
10
191.6073884
20
185.3092323
11
197.1723884
21
185.3092323
0
LINE
8
text
10
197.0463884
20
183.8812323
11
193.2033884
21
183.8812323
0
LINE
8
text
10
193.2033884
20
183.8812323
11
193.2033884
21
177.9382323
0
LINE
8
text
10
193.2033884
20
177.9382323
11
197.0463884
21
177.9382323
0
ARC
8
text
10
196.7891516
20
180.8729687
40
5.00346
50
343.8566776
51
0.5412345
0
ARC
8
text
10
197.8477991
20
180.585244
40
3.9065979
50
312.7757271
51
343.5931519
0
ARC
8
text
10
197.4949265
20
180.9529372
40
4.4161474
50
277.6954356
51
312.8964263
0
ARC
8
text
10
197.1904789
20
182.5899506
40
6.0797451
50
269.8295137
51
278.4729216
0
ARC
8
text
10
197.2204731
20
179.5871145
40
5.7223198
50
75.4129791
51
90.4814624
0
ARC
8
text
10
197.5859865
20
180.9969655
40
4.2658592
50
46.7037376
51
75.3949862
0
ARC
8
text
10
197.7546713
20
181.1741771
40
4.0212024
50
4.9105551
51
46.7214789
0
ARC
8
text
10
196.2199771
20
180.9287816
40
5.5724178
50
359.9120958
51
6.0737822
0
ARC
8
text
10
197.7195649
20
180.5092505
40
2.4285165
50
312.3766507
51
346.1670917
0
ARC
8
text
10
196.455313
20
180.8591361
40
3.7399436
50
345.5930978
51
358.8728277
0
ARC
8
text
10
195.3621946
20
180.919483
40
4.8341938
50
358.4125807
51
0.0088809
0
ARC
8
text
10
196.2620402
20
180.9520372
40
3.9344767
50
359.5368364
51
12.3942998
0
ARC
8
text
10
197.6014053
20
181.2625647
40
2.559725
50
12.0403818
51
37.5914001
0
ARC
8
text
10
197.8039292
20
181.3879277
40
2.3229004
50
38.188557
51
48.4090755
0
ARC
8
text
10
197.4551017
20
180.9644062
40
2.8712791
50
48.8131157
51
76.5095104
0
ARC
8
text
10
197.1082431
20
179.6384834
40
4.2416266
50
76.1316661
51
88.8684179
0
ARC
8
text
10
197.0471443
20
178.4983157
40
5.3829167
50
88.4578723
51
90.0080455
0
ARC
8
text
10
197.078657
20
182.3229066
40
4.384793
50
269.5783443
51
282.2888403
0
ARC
8
text
10
197.3977087
20
180.9403457
40
2.9660551
50
281.9512348
51
308.2221709
0
ARC
8
text
10
197.5110789
20
180.7598076
40
2.7541706
50
308.6930693
51
312.0674919
0
LINE
8
text
10
231.405
20
185.3093333
11
231.405
21
170.3573333
0
LINE
8
text
10
231.405
20
170.3573333
11
229.809
21
170.3573333
0
LINE
8
text
10
229.809
20
170.3573333
11
229.809
21
181.7183333
0
LINE
8
text
10
229.809
20
181.7183333
11
225.714
21
172.7093333
0
LINE
8
text
10
225.714
20
172.7093333
11
224.349
21
172.7093333
0
LINE
8
text
10
224.349
20
172.7093333
11
220.191
21
181.7183333
0
LINE
8
text
10
220.191
20
181.7183333
11
220.191
21
170.3573333
0
LINE
8
text
10
220.191
20
170.3573333
11
218.595
21
170.3573333
0
LINE
8
text
10
218.595
20
170.3573333
11
218.595
21
185.3093333
0
LINE
8
text
10
218.595
20
185.3093333
11
220.191
21
185.3093333
0
LINE
8
text
10
220.191
20
185.3093333
11
225.063
21
174.7043333
0
LINE
8
text
10
225.063
20
174.7043333
11
229.809
21
185.3093333
0
LINE
8
text
10
229.809
20
185.3093333
11
231.405
21
185.3093333
0
LINE
8
text
10
255.746392
20
185.3724649
11
257.342392
21
185.3724649
0
LINE
8
text
10
257.342392
20
185.3724649
11
257.342392
21
174.9564649
0
LINE
8
text
10
249.257392
20
171.6384649
11
250.328392
21
172.7094649
0
LINE
8
text
10
255.746392
20
175.1664649
11
255.746392
21
185.3724649
0
ARC
8
text
10
251.6035587
20
174.9066766
40
5.7390493
50
345.6899338
51
0.4970677
0
ARC
8
text
10
253.1768182
20
174.4972224
40
4.1134077
50
314.3234972
51
345.7998112
0
ARC
8
text
10
253.0081482
20
174.6907881
40
4.3697612
50
277.3497796
51
314.1323453
0
ARC
8
text
10
252.6977147
20
176.374048
40
6.0796079
50
269.8367464
51
278.2220247
0
ARC
8
text
10
252.6277728
20
175.5553094
40
5.2611077
50
251.9994222
51
270.573056
0
ARC
8
text
10
252.4055266
20
174.7485171
40
4.4252881
50
224.6513482
51
251.5080354
0
ARC
8
text
10
252.5761605
20
174.7817775
40
3.057277
50
222.6742661
51
269.4652035
0
ARC
8
text
10
252.679855
20
175.7544979
40
4.0320331
50
268.1206474
51
270.0076311
0
ARC
8
text
10
252.7136278
20
175.5930319
40
3.8707097
50
269.5080242
51
283.4145182
0
ARC
8
text
10
253.0337647
20
174.3381724
40
2.5758963
50
282.9633741
51
318.0120771
0
ARC
8
text
10
252.7673645
20
174.5262848
40
2.9000042
50
318.7706466
51
343.4268535
0
ARC
8
text
10
251.2980599
20
174.9900947
40
4.4406382
50
343.0986312
51
355.8241981
0
ARC
8
text
10
249.5541385
20
175.1576361
40
6.1922598
50
355.4530694
51
0.081691
0
LINE
8
text
10
285.485
20
185.3093333
11
287.165
21
185.3093333
0
LINE
8
text
10
287.165
20
185.3093333
11
282.251
21
170.3573333
0
LINE
8
text
10
282.251
20
170.3573333
11
280.949
21
170.3573333
0
LINE
8
text
10
280.949
20
170.3573333
11
276.035
21
185.3093333
0
LINE
8
text
10
276.035
20
185.3093333
11
277.715
21
185.3093333
0
LINE
8
text
10
277.715
20
185.3093333
11
281.6
21
173.2133333
0
LINE
8
text
10
281.6
20
173.2133333
11
285.485
21
185.3093333
0
LINE
8
text
10
310.698
20
185.3093333
11
310.698
21
170.3573333
0
LINE
8
text
10
310.698
20
170.3573333
11
309.102
21
170.3573333
0
LINE
8
text
10
309.102
20
170.3573333
11
309.102
21
185.3093333
0
LINE
8
text
10
309.102
20
185.3093333
11
310.698
21
185.3093333
0
LINE
8
text
10
342.841
20
171.7853333
11
342.841
21
170.3573333
0
LINE
8
text
10
342.841
20
170.3573333
11
333.559
21
170.3573333
0
LINE
8
text
10
333.559
20
170.3573333
11
333.559
21
185.3093333
0
LINE
8
text
10
333.559
20
185.3093333
11
342.841
21
185.3093333
0
LINE
8
text
10
342.841
20
185.3093333
11
342.841
21
183.8813333
0
LINE
8
text
10
342.841
20
183.8813333
11
335.155
21
183.8813333
0
LINE
8
text
10
335.155
20
183.8813333
11
335.155
21
178.6103333
0
LINE
8
text
10
335.155
20
178.6103333
11
341.707
21
178.6103333
0
LINE
8
text
10
341.707
20
178.6103333
11
341.707
21
177.1823333
0
LINE
8
text
10
341.707
20
177.1823333
11
335.155
21
177.1823333
0
LINE
8
text
10
335.155
20
177.1823333
11
335.155
21
171.7853333
0
LINE
8
text
10
335.155
20
171.7853333
11
342.841
21
171.7853333
0
LINE
8
text
10
368.18
20
177.1402385
11
371.729
21
170.3572385
0
LINE
8
text
10
371.729
20
170.3572385
11
369.86
21
170.3572385
0
LINE
8
text
10
369.86
20
170.3572385
11
366.458
21
176.9932385
0
LINE
8
text
10
366.458
20
176.9932385
11
362.867
21
176.9932385
0
LINE
8
text
10
362.867
20
176.9932385
11
362.867
21
170.3572385
0
LINE
8
text
10
362.867
20
170.3572385
11
361.271
21
170.3572385
0
LINE
8
text
10
361.271
20
170.3572385
11
361.271
21
185.3092385
0
LINE
8
text
10
361.271
20
185.3092385
11
367.004
21
185.3092385
0
LINE
8
text
10
366.857
20
183.8812385
11
362.867
21
183.8812385
0
LINE
8
text
10
362.867
20
183.8812385
11
362.867
21
178.4002385
0
LINE
8
text
10
362.867
20
178.4002385
11
366.857
21
178.4002385
0
ARC
8
text
10
367.0505085
20
179.607357
40
5.7020711
50
76.0084761
51
90.4673334
0
ARC
8
text
10
367.4338202
20
181.1211311
40
4.1405362
50
47.9605042
51
76.0906949
0
ARC
8
text
10
367.7458009
20
181.4876173
40
3.6594629
50
8.236572
51
47.7458178
0
ARC
8
text
10
366.165439
20
181.1710103
40
5.2695979
50
359.7850231
51
9.1818775
0
ARC
8
text
10
366.6875606
20
181.1127759
40
4.7475952
50
345.3552818
51
0.4641862
0
ARC
8
text
10
367.7743453
20
180.8344304
40
3.6257492
50
320.0287648
51
345.2689496
0
ARC
8
text
10
367.5253506
20
181.0642469
40
3.9642382
50
286.8513273
51
319.7950728
0
ARC
8
text
10
367.1286225
20
182.1457279
40
5.114716
50
281.8622429
51
287.5927391
0
ARC
8
text
10
367.5732907
20
180.7628569
40
2.2230151
50
311.3176916
51
346.6168934
0
ARC
8
text
10
366.3808266
20
181.0841839
40
3.4576651
50
346.0105267
51
359.521086
0
ARC
8
text
10
365.4041605
20
181.1299736
40
4.4348395
50
359.0349906
51
0.0034227
0
ARC
8
text
10
366.2715974
20
181.159475
40
3.5675224
50
359.530446
51
12.6917223
0
ARC
8
text
10
367.4762271
20
181.4485016
40
2.3288899
50
12.2660707
51
40.9152432
0
ARC
8
text
10
367.5866877
20
181.5164648
40
2.2010053
50
41.4615778
51
49.0061094
0
ARC
8
text
10
367.242193
20
181.0890856
40
2.7496387
50
49.4298238
51
76.6636932
0
ARC
8
text
10
366.9149101
20
179.8242635
40
4.0559334
50
76.2864438
51
88.8752683
0
ARC
8
text
10
366.857699
20
178.7457623
40
5.1354764
50
88.4732816
51
90.007799
0
ARC
8
text
10
366.8872947
20
182.7688337
40
4.3687003
50
269.6026801
51
281.6245522
0
ARC
8
text
10
367.1840527
20
181.3888952
40
2.9572967
50
281.3801085
51
303.1392164
0
ARC
8
text
10
367.3549663
20
181.0859361
40
2.6102783
50
303.6332444
51
310.2347654
0
LINE
8
text
10
78.3653625
20
140.7608935
11
79.4363625
21
141.8318935
0
LINE
8
text
10
84.3713625
20
145.5908935
11
82.6283625
21
145.8428935
0
LINE
8
text
10
87.9833625
20
152.3528935
11
86.9543625
21
151.3238935
0
LINE
8
text
10
82.9223625
20
147.3128935
11
84.6653625
21
147.0398935
0
ARC
8
text
10
84.2739472
20
142.979919
40
4.3606904
50
341.3886729
51
0.643497
0
ARC
8
text
10
84.9560968
20
142.7960199
40
3.6557806
50
308.409713
51
340.7080933
0
ARC
8
text
10
84.1922844
20
143.7281838
40
4.8607937
50
283.9076611
51
308.638141
0
ARC
8
text
10
83.6029319
20
145.9386704
40
7.1482504
50
271.9904357
51
284.2344278
0
ARC
8
text
10
83.4714947
20
147.9858019
40
9.1989091
50
269.9804912
51
272.3657429
0
ARC
8
text
10
83.4310587
20
149.0006698
40
10.2138445
50
262.991551
51
270.2092606
0
ARC
8
text
10
83.0383423
20
145.8910255
40
7.0795247
50
252.9702823
51
263.0753696
0
ARC
8
text
10
82.6331568
20
144.475111
40
5.6070944
50
248.7601959
51
252.6917647
0
ARC
8
text
10
82.8098402
20
144.831779
40
6.0036468
50
232.2907278
51
248.4216782
0
ARC
8
text
10
83.8248893
20
146.1942847
40
7.7024784
50
224.8625291
51
232.5165143
0
ARC
8
text
10
84.1855944
20
146.5400074
40
6.6874166
50
224.750895
51
233.4585116
0
ARC
8
text
10
83.0139773
20
144.9448939
40
4.7082822
50
233.3559193
51
246.0844601
0
ARC
8
text
10
82.6770236
20
144.2428558
40
3.9299905
50
246.4259823
51
249.0815191
0
ARC
8
text
10
83.0610142
20
145.3306897
40
5.0833111
50
249.4164819
51
260.5991799
0
ARC
8
text
10
83.4274524
20
147.4830348
40
7.2666107
50
260.5207057
51
268.5543753
0
ARC
8
text
10
83.5084198
20
149.3033059
40
9.0884125
50
268.3336029
51
270.0122474
0
ARC
8
text
10
83.544668
20
146.3715754
40
6.1567774
50
269.6807469
51
279.1357753
0
ARC
8
text
10
83.8962244
20
144.2647988
40
4.0209271
50
278.9563139
51
293.8378836
0
ARC
8
text
10
84.2906366
20
143.3325718
40
3.0088665
50
294.1424442
51
307.3092805
0
ARC
8
text
10
84.6930618
20
142.8190764
40
2.3565448
50
307.0943309
51
356.263256
0
ARC
8
text
10
83.6483237
20
142.9825641
40
3.4110416
50
354.6664448
51
0.0727224
0
ARC
8
text
10
83.9300239
20
143.0143231
40
3.1294588
50
359.497798
51
14.0026424
0
ARC
8
text
10
84.8583312
20
143.2554403
40
2.1704142
50
13.7562661
51
47.5100002
0
ARC
8
text
10
84.8283147
20
143.0773327
40
2.3240993
50
49.9309173
51
65.1415108
0
ARC
8
text
10
84.1261828
20
141.6055603
40
3.9547141
50
64.8752638
51
74.0925123
0
ARC
8
text
10
83.4407194
20
139.2469443
40
6.4108958
50
73.9785361
51
80.3632038
0
ARC
8
text
10
83.0805499
20
137.3233186
40
8.3677351
50
80.1367769
51
81.1260788
0
ARC
8
text
10
83.7231083
20
153.0769084
40
7.3163816
50
252.0905266
51
261.3945495
0
ARC
8
text
10
82.9771686
20
150.8085756
40
4.9285923
50
238.0591449
51
252.232937
0
ARC
8
text
10
82.4319682
20
149.8901632
40
3.8608676
50
228.9872436
51
237.7144662
0
ARC
8
text
10
82.1511872
20
149.5023524
40
3.384252
50
187.0975824
51
228.2655818
0
ARC
8
text
10
83.6062832
20
149.7764679
40
4.8629421
50
179.8300356
51
188.1842408
0
ARC
8
text
10
83.3133833
20
149.8377376
40
4.5702609
50
162.7627596
51
180.5872779
0
ARC
8
text
10
82.4502857
20
150.0761645
40
3.6753827
50
131.0858846
51
162.3255988
0
ARC
8
text
10
82.9003573
20
149.5605346
40
4.3598084
50
103.5855709
51
131.090664
0
ARC
8
text
10
83.4351784
20
147.5246996
40
6.4644433
50
91.1302515
51
103.9546798
0
ARC
8
text
10
83.5301792
20
145.7600279
40
8.2308655
50
89.9917629
51
91.5491292
0
ARC
8
text
10
83.5631501
20
145.4112226
40
8.5797298
50
82.5829556
51
90.2122789
0
ARC
8
text
10
83.8972452
20
147.9080295
40
6.0606924
50
71.8919403
51
82.6679005
0
ARC
8
text
10
84.2016471
20
148.923078
40
5.0013744
50
69.3262609
51
71.5922282
0
ARC
8
text
10
83.8189125
20
147.9979916
40
6.0020962
50
56.0311955
51
69.0256516
0
ARC
8
text
10
82.787884
20
146.42898
40
7.879451
50
48.7481094
51
56.1882364
0
ARC
8
text
10
83.7415537
20
147.9451598
40
4.6624009
50
46.4419674
51
84.6162075
0
ARC
8
text
10
83.4786213
20
146.3027039
40
6.323198
50
83.6405745
51
90.092957
0
ARC
8
text
10
83.4356831
20
147.8925241
40
4.7334822
50
89.604433
51
101.0290674
0
ARC
8
text
10
83.1126217
20
149.4827824
40
3.1108184
50
100.7920786
51
120.4332998
0
ARC
8
text
10
82.8667372
20
149.9465529
40
2.5864987
50
120.9407984
51
131.9603443
0
ARC
8
text
10
82.8053251
20
150.0144791
40
2.4949272
50
131.954603
51
174.2976238
0
ARC
8
text
10
83.8222721
20
149.8400709
40
3.5249169
50
173.1190849
51
180.1166655
0
ARC
8
text
10
83.3581917
20
149.807827
40
3.0609318
50
179.53079
51
192.7893772
0
ARC
8
text
10
82.3336914
20
149.5592574
40
2.0068843
50
192.3436713
51
222.2489969
0
ARC
8
text
10
82.2582347
20
149.5128757
40
1.9199141
50
222.7384397
51
227.8311553
0
ARC
8
text
10
82.6452723
20
150.1459802
40
2.6525772
50
230.8166321
51
244.6590761
0
ARC
8
text
10
83.4337663
20
151.7719142
40
4.4595685
50
244.4442943
51
253.2004465
0
ARC
8
text
10
84.2207099
20
154.3288083
40
7.134799
50
253.0851798
51
259.0839443
0
ARC
8
text
10
84.6014542
20
156.1290225
40
8.9746019
50
258.8736011
51
259.2167746
0
ARC
8
text
10
81.7738397
20
130.8586049
40
16.4376094
50
77.6966274
51
79.8684416
0
ARC
8
text
10
83.0274463
20
136.5872676
40
10.5733892
50
74.9133201
51
77.7188791
0
ARC
8
text
10
84.1343668
20
140.6653718
40
6.3477393
50
70.8598644
51
74.9793856
0
ARC
8
text
10
84.7517801
20
142.4896179
40
4.4219261
50
69.4586152
51
70.6674363
0
ARC
8
text
10
85.1400401
20
143.5491691
40
3.2935183
50
47.28127
51
69.3158707
0
ARC
8
text
10
85.1085984
20
143.2916602
40
3.507316
50
5.3828035
51
49.758493
0
ARC
8
text
10
83.6245108
20
143.0386495
40
5.0098611
50
359.888425
51
6.6715135
0
LINE
8
text
10
116.441
20
140.3408889
11
116.441
21
138.9128889
0
LINE
8
text
10
116.441
20
138.9128889
11
107.159
21
138.9128889
0
LINE
8
text
10
107.159
20
138.9128889
11
107.159
21
153.8648889
0
LINE
8
text
10
107.159
20
153.8648889
11
116.441
21
153.8648889
0
LINE
8
text
10
116.441
20
153.8648889
11
116.441
21
152.4368889
0
LINE
8
text
10
116.441
20
152.4368889
11
108.755
21
152.4368889
0
LINE
8
text
10
108.755
20
152.4368889
11
108.755
21
147.1658889
0
LINE
8
text
10
108.755
20
147.1658889
11
115.307
21
147.1658889
0
LINE
8
text
10
115.307
20
147.1658889
11
115.307
21
145.7378889
0
LINE
8
text
10
115.307
20
145.7378889
11
108.755
21
145.7378889
0
LINE
8
text
10
108.755
20
145.7378889
11
108.755
21
140.3408889
0
LINE
8
text
10
108.755
20
140.3408889
11
116.441
21
140.3408889
0
LINE
8
text
10
143.7120115
20
143.2389199
11
145.3080115
21
143.2389199
0
LINE
8
text
10
145.3080115
20
149.5389199
11
143.6700115
21
149.5389199
0
ARC
8
text
10
138.770953
20
144.4291123
40
6.6445234
50
335.3539976
51
349.6812709
0
ARC
8
text
10
140.2957559
20
143.7294199
40
4.9668485
50
310.6829854
51
335.3550642
0
ARC
8
text
10
140.3811894
20
143.6728586
40
4.8683447
50
275.6746006
51
310.3544408
0
ARC
8
text
10
140.1315624
20
145.2519734
40
6.4650621
50
269.9064936
51
276.4922972
0
ARC
8
text
10
140.0640089
20
144.5190633
40
5.7324268
50
251.9649173
51
270.5697522
0
ARC
8
text
10
139.8283803
20
143.6594871
40
4.8423165
50
224.6418892
51
251.4670935
0
ARC
8
text
10
140.0632967
20
143.9838247
40
5.2377781
50
212.9679651
51
225.3606048
0
ARC
8
text
10
138.8793019
20
143.2244557
40
3.8312171
50
192.1220506
51
213.0756857
0
ARC
8
text
10
142.6574467
20
143.9357145
40
7.6751048
50
186.242809
51
191.39051
0
ARC
8
text
10
151.2218715
20
144.9205222
40
16.2959024
50
183.491623
51
186.4103593
0
ARC
8
text
10
164.9507377
20
145.7777436
40
30.0514973
50
181.4276507
51
183.5288138
0
ARC
8
text
10
185.5598681
20
146.3219348
40
50.6677979
50
180.0279007
51
181.4622009
0
ARC
8
text
10
199.4031826
20
146.3886985
40
64.5111712
50
179.9998034
51
180.0812099
0
ARC
8
text
10
186.9439198
20
146.4378449
40
52.0519313
50
178.6191086
51
180.0538539
0
ARC
8
text
10
166.4603772
20
146.9407984
40
31.5622183
50
176.7579991
51
178.6357721
0
ARC
8
text
10
152.2026157
20
147.7705121
40
17.2803661
50
173.7915118
51
176.8311453
0
ARC
8
text
10
142.925124
20
148.8001844
40
7.9459576
50
168.8342168
51
173.9379159
0
ARC
8
text
10
139.9620076
20
149.3484184
40
4.9328965
50
168.1911763
51
168.4166923
0
ARC
8
text
10
138.9187101
20
149.5397361
40
3.8726158
50
145.3016012
51
167.8029672
0
ARC
8
text
10
140.1390741
20
148.7272727
40
5.3385172
50
134.7147686
51
145.5884329
0
ARC
8
text
10
139.8994667
20
149.0168891
40
4.9642411
50
92.6660722
51
135.1013986
0
ARC
8
text
10
140.1171409
20
147.3483044
40
6.6426166
50
89.9666144
51
93.8722147
0
ARC
8
text
10
140.1718014
20
148.1677116
40
5.8234297
50
73.722625
51
90.4997203
0
ARC
8
text
10
140.4567501
20
149.2285562
40
4.7253004
50
49.3735227
51
73.4338612
0
ARC
8
text
10
140.215148
20
148.9787986
40
5.0722147
50
20.0602263
51
49.1391815
0
ARC
8
text
10
138.442955
20
148.2635713
40
6.9825149
50
10.5240878
51
20.585068
0
ARC
8
text
10
139.1954743
20
148.6396944
40
4.5639993
50
11.3630873
51
26.1793535
0
ARC
8
text
10
140.1302763
20
149.0923614
40
3.5253884
50
26.2799073
51
49.0350419
0
ARC
8
text
10
140.2930692
20
149.2578207
40
3.2937535
50
49.2864391
51
84.5739886
0
ARC
8
text
10
140.1276257
20
148.1944776
40
4.3684473
50
83.7325503
51
90.0867506
0
ARC
8
text
10
140.0773492
20
148.8761952
40
3.6869832
50
89.3214713
51
113.138769
0
ARC
8
text
10
140.0619641
20
149.0266915
40
3.5428334
50
113.8664044
51
135.431401
0
ARC
8
text
10
139.721497
20
149.3141914
40
3.098712
50
134.8007057
51
170.3632402
0
ARC
8
text
10
144.0297091
20
148.5527126
40
7.4736611
50
170.1368278
51
174.6654615
0
ARC
8
text
10
152.8279381
20
147.6862775
40
16.3143978
50
174.508462
51
177.0289557
0
ARC
8
text
10
166.913807
20
146.9355568
40
30.4202505
50
176.991996
51
178.7644672
0
ARC
8
text
10
188.3139768
20
146.4500076
40
51.8259201
50
178.7379381
51
179.9777107
0
ARC
8
text
10
203.2407493
20
146.3889584
40
66.7527379
50
179.9302946
51
180.0000331
0
ARC
8
text
10
189.9801284
20
146.3455883
40
53.4921345
50
179.9535873
51
181.1711154
0
ARC
8
text
10
168.6239909
20
145.9006485
40
32.1313652
50
181.1562051
51
182.7597375
0
ARC
8
text
10
153.9395731
20
145.1743203
40
17.4290168
50
182.6990453
51
185.2694197
0
ARC
8
text
10
144.4787509
20
144.2839723
40
7.9264285
50
185.1413926
51
189.4824617
0
ARC
8
text
10
141.3582505
20
143.79323
40
4.7678134
50
189.8436065
51
190.2488824
0
ARC
8
text
10
139.721497
20
143.4636483
40
3.098712
50
189.6367598
51
225.1992943
0
ARC
8
text
10
140.0389735
20
143.7186982
40
3.5036894
50
224.4543925
51
270.5600932
0
ARC
8
text
10
140.1209346
20
144.6576049
40
4.4426849
50
269.3846704
51
270.0009919
0
ARC
8
text
10
140.1564935
20
144.1488431
40
3.9340833
50
269.4832353
51
287.2556141
0
ARC
8
text
10
140.3233072
20
143.5384525
40
3.3017547
50
287.6331809
51
310.3833981
0
ARC
8
text
10
140.1193738
20
143.7662714
40
3.6074269
50
310.5062944
51
340.680835
0
ARC
8
text
10
139.0110135
20
144.208493
40
4.7999432
50
340.0763301
51
348.3462493
0
LINE
8
text
10
173.545
20
153.8648889
11
173.545
21
138.9128889
0
LINE
8
text
10
173.545
20
138.9128889
11
171.949
21
138.9128889
0
LINE
8
text
10
171.949
20
138.9128889
11
171.949
21
145.7378889
0
LINE
8
text
10
171.949
20
145.7378889
11
164.851
21
145.7378889
0
LINE
8
text
10
164.851
20
145.7378889
11
164.851
21
138.9128889
0
LINE
8
text
10
164.851
20
138.9128889
11
163.255
21
138.9128889
0
LINE
8
text
10
163.255
20
138.9128889
11
163.255
21
153.8648889
0
LINE
8
text
10
163.255
20
153.8648889
11
164.851
21
153.8648889
0
LINE
8
text
10
164.851
20
153.8648889
11
164.851
21
147.1658889
0
LINE
8
text
10
164.851
20
147.1658889
11
171.949
21
147.1658889
0
LINE
8
text
10
171.949
20
147.1658889
11
171.949
21
153.8648889
0
LINE
8
text
10
171.949
20
153.8648889
11
173.545
21
153.8648889
0
LINE
8
text
10
191.5653625
20
140.7608935
11
192.6363625
21
141.8318935
0
LINE
8
text
10
197.5713625
20
145.5908935
11
195.8283625
21
145.8428935
0
LINE
8
text
10
201.1833625
20
152.3528935
11
200.1543625
21
151.3238935
0
LINE
8
text
10
196.1223625
20
147.3128935
11
197.8653625
21
147.0398935
0
ARC
8
text
10
197.4739472
20
142.979919
40
4.3606904
50
341.3886729
51
0.643497
0
ARC
8
text
10
198.1560968
20
142.7960199
40
3.6557806
50
308.409713
51
340.7080933
0
ARC
8
text
10
197.3922844
20
143.7281838
40
4.8607937
50
283.9076611
51
308.638141
0
ARC
8
text
10
196.8029319
20
145.9386704
40
7.1482504
50
271.9904357
51
284.2344278
0
ARC
8
text
10
196.6714947
20
147.9858019
40
9.1989091
50
269.9804912
51
272.3657429
0
ARC
8
text
10
196.6310587
20
149.0006698
40
10.2138445
50
262.991551
51
270.2092606
0
ARC
8
text
10
196.2383423
20
145.8910255
40
7.0795247
50
252.9702823
51
263.0753696
0
ARC
8
text
10
195.8331568
20
144.475111
40
5.6070944
50
248.7601959
51
252.6917647
0
ARC
8
text
10
196.0098402
20
144.831779
40
6.0036468
50
232.2907278
51
248.4216782
0
ARC
8
text
10
197.0248893
20
146.1942847
40
7.7024784
50
224.8625291
51
232.5165143
0
ARC
8
text
10
197.3855944
20
146.5400074
40
6.6874166
50
224.750895
51
233.4585116
0
ARC
8
text
10
196.2139773
20
144.9448939
40
4.7082822
50
233.3559193
51
246.0844601
0
ARC
8
text
10
195.8770236
20
144.2428558
40
3.9299905
50
246.4259823
51
249.0815191
0
ARC
8
text
10
196.2610142
20
145.3306897
40
5.0833111
50
249.4164819
51
260.5991799
0
ARC
8
text
10
196.6274524
20
147.4830348
40
7.2666107
50
260.5207057
51
268.5543753
0
ARC
8
text
10
196.7084198
20
149.3033059
40
9.0884125
50
268.3336029
51
270.0122474
0
ARC
8
text
10
196.744668
20
146.3715754
40
6.1567774
50
269.6807469
51
279.1357753
0
ARC
8
text
10
197.0962244
20
144.2647988
40
4.0209271
50
278.9563139
51
293.8378836
0
ARC
8
text
10
197.4906366
20
143.3325718
40
3.0088665
50
294.1424442
51
307.3092805
0
ARC
8
text
10
197.8930618
20
142.8190764
40
2.3565448
50
307.0943309
51
356.263256
0
ARC
8
text
10
196.8483237
20
142.9825641
40
3.4110416
50
354.6664448
51
0.0727224
0
ARC
8
text
10
197.1300239
20
143.0143231
40
3.1294588
50
359.497798
51
14.0026424
0
ARC
8
text
10
198.0583312
20
143.2554403
40
2.1704142
50
13.7562661
51
47.5100002
0
ARC
8
text
10
198.0283147
20
143.0773327
40
2.3240993
50
49.9309173
51
65.1415108
0
ARC
8
text
10
197.3261828
20
141.6055603
40
3.9547141
50
64.8752638
51
74.0925123
0
ARC
8
text
10
196.6407194
20
139.2469443
40
6.4108958
50
73.9785361
51
80.3632038
0
ARC
8
text
10
196.2805499
20
137.3233186
40
8.3677351
50
80.1367769
51
81.1260788
0
ARC
8
text
10
196.9231083
20
153.0769084
40
7.3163816
50
252.0905266
51
261.3945495
0
ARC
8
text
10
196.1771686
20
150.8085756
40
4.9285923
50
238.0591449
51
252.232937
0
ARC
8
text
10
195.6319682
20
149.8901632
40
3.8608676
50
228.9872436
51
237.7144662
0
ARC
8
text
10
195.3511872
20
149.5023524
40
3.384252
50
187.0975824
51
228.2655818
0
ARC
8
text
10
196.8062832
20
149.7764679
40
4.8629421
50
179.8300356
51
188.1842408
0
ARC
8
text
10
196.5133833
20
149.8377376
40
4.5702609
50
162.7627596
51
180.5872779
0
ARC
8
text
10
195.6502857
20
150.0761645
40
3.6753827
50
131.0858846
51
162.3255988
0
ARC
8
text
10
196.1003573
20
149.5605346
40
4.3598084
50
103.5855709
51
131.090664
0
ARC
8
text
10
196.6351784
20
147.5246996
40
6.4644433
50
91.1302515
51
103.9546798
0
ARC
8
text
10
196.7301792
20
145.7600279
40
8.2308655
50
89.9917629
51
91.5491292
0
ARC
8
text
10
196.7631501
20
145.4112226
40
8.5797298
50
82.5829556
51
90.2122789
0
ARC
8
text
10
197.0972452
20
147.9080295
40
6.0606924
50
71.8919403
51
82.6679005
0
ARC
8
text
10
197.4016471
20
148.923078
40
5.0013744
50
69.3262609
51
71.5922282
0
ARC
8
text
10
197.0189125
20
147.9979916
40
6.0020962
50
56.0311955
51
69.0256516
0
ARC
8
text
10
195.987884
20
146.42898
40
7.879451
50
48.7481094
51
56.1882364
0
ARC
8
text
10
196.9415537
20
147.9451598
40
4.6624009
50
46.4419674
51
84.6162075
0
ARC
8
text
10
196.6786213
20
146.3027039
40
6.323198
50
83.6405745
51
90.092957
0
ARC
8
text
10
196.6356831
20
147.8925241
40
4.7334822
50
89.604433
51
101.0290674
0
ARC
8
text
10
196.3126217
20
149.4827824
40
3.1108184
50
100.7920786
51
120.4332998
0
ARC
8
text
10
196.0667372
20
149.9465529
40
2.5864987
50
120.9407984
51
131.9603443
0
ARC
8
text
10
196.0053251
20
150.0144791
40
2.4949272
50
131.954603
51
174.2976238
0
ARC
8
text
10
197.0222721
20
149.8400709
40
3.5249169
50
173.1190849
51
180.1166655
0
ARC
8
text
10
196.5581917
20
149.807827
40
3.0609318
50
179.53079
51
192.7893772
0
ARC
8
text
10
195.5336914
20
149.5592574
40
2.0068843
50
192.3436713
51
222.2489969
0
ARC
8
text
10
195.4582347
20
149.5128757
40
1.9199141
50
222.7384397
51
227.8311553
0
ARC
8
text
10
195.8452723
20
150.1459802
40
2.6525772
50
230.8166321
51
244.6590761
0
ARC
8
text
10
196.6337663
20
151.7719142
40
4.4595685
50
244.4442943
51
253.2004465
0
ARC
8
text
10
197.4207099
20
154.3288083
40
7.134799
50
253.0851798
51
259.0839443
0
ARC
8
text
10
197.8014542
20
156.1290225
40
8.9746019
50
258.8736011
51
259.2167746
0
ARC
8
text
10
194.9738397
20
130.8586049
40
16.4376094
50
77.6966274
51
79.8684416
0
ARC
8
text
10
196.2274463
20
136.5872676
40
10.5733892
50
74.9133201
51
77.7188791
0
ARC
8
text
10
197.3343668
20
140.6653718
40
6.3477393
50
70.8598644
51
74.9793856
0
ARC
8
text
10
197.9517801
20
142.4896179
40
4.4219261
50
69.4586152
51
70.6674363
0
ARC
8
text
10
198.3400401
20
143.5491691
40
3.2935183
50
47.28127
51
69.3158707
0
ARC
8
text
10
198.3085984
20
143.2916602
40
3.507316
50
5.3828035
51
49.758493
0
ARC
8
text
10
196.8245108
20
143.0386495
40
5.0098611
50
359.888425
51
6.6715135
0
LINE
8
text
10
230.523
20
153.8648889
11
230.523
21
138.9128889
0
LINE
8
text
10
230.523
20
138.9128889
11
229.011
21
138.9128889
0
LINE
8
text
10
229.011
20
138.9128889
11
221.073
21
150.9038889
0
LINE
8
text
10
221.073
20
150.9038889
11
221.073
21
138.9128889
0
LINE
8
text
10
221.073
20
138.9128889
11
219.477
21
138.9128889
0
LINE
8
text
10
219.477
20
138.9128889
11
219.477
21
153.8648889
0
LINE
8
text
10
219.477
20
153.8648889
11
220.989
21
153.8648889
0
LINE
8
text
10
220.989
20
153.8648889
11
228.927
21
141.9158889
0
LINE
8
text
10
228.927
20
141.9158889
11
228.927
21
153.8648889
0
LINE
8
text
10
228.927
20
153.8648889
11
230.523
21
153.8648889
0
LINE
8
text
10
257.92
20
140.3408889
11
257.92
21
138.9128889
0
LINE
8
text
10
257.92
20
138.9128889
11
248.68
21
138.9128889
0
LINE
8
text
10
248.68
20
138.9128889
11
248.68
21
153.8648889
0
LINE
8
text
10
248.68
20
153.8648889
11
250.276
21
153.8648889
0
LINE
8
text
10
250.276
20
153.8648889
11
250.276
21
140.3408889
0
LINE
8
text
10
250.276
20
140.3408889
11
257.92
21
140.3408889
0
LINE
8
text
10
282.2825
20
153.8648889
11
287.7635
21
138.9128889
0
LINE
8
text
10
287.7635
20
138.9128889
11
286.0625
21
138.9128889
0
LINE
8
text
10
286.0625
20
138.9128889
11
284.8655
21
142.2938889
0
LINE
8
text
10
284.8655
20
142.2938889
11
278.3345
21
142.2938889
0
LINE
8
text
10
278.3345
20
142.2938889
11
277.1375
21
138.9128889
0
LINE
8
text
10
277.1375
20
138.9128889
11
275.4365
21
138.9128889
0
LINE
8
text
10
275.4365
20
138.9128889
11
280.9385
21
153.8648889
0
LINE
8
text
10
280.9385
20
153.8648889
11
282.2825
21
153.8648889
0
LINE
8
text
10
278.8175
20
143.6798889
11
284.4035
21
143.6798889
0
LINE
8
text
10
284.4035
20
143.6798889
11
281.6315
21
151.5758889
0
LINE
8
text
10
281.6315
20
151.5758889
11
278.8175
21
143.6798889
0
LINE
8
text
10
313.5120115
20
143.2389199
11
315.1080115
21
143.2389199
0
LINE
8
text
10
315.1080115
20
149.5389199
11
313.4700115
21
149.5389199
0
ARC
8
text
10
308.570953
20
144.4291123
40
6.6445234
50
335.3539976
51
349.6812709
0
ARC
8
text
10
310.0957559
20
143.7294199
40
4.9668485
50
310.6829854
51
335.3550642
0
ARC
8
text
10
310.1811894
20
143.6728586
40
4.8683447
50
275.6746006
51
310.3544408
0
ARC
8
text
10
309.9315624
20
145.2519734
40
6.4650621
50
269.9064936
51
276.4922972
0
ARC
8
text
10
309.8640089
20
144.5190633
40
5.7324268
50
251.9649173
51
270.5697522
0
ARC
8
text
10
309.6283803
20
143.6594871
40
4.8423165
50
224.6418892
51
251.4670935
0
ARC
8
text
10
309.8632967
20
143.9838247
40
5.2377781
50
212.9679651
51
225.3606048
0
ARC
8
text
10
308.6793019
20
143.2244557
40
3.8312171
50
192.1220506
51
213.0756857
0
ARC
8
text
10
312.4574467
20
143.9357145
40
7.6751048
50
186.242809
51
191.39051
0
ARC
8
text
10
321.0218715
20
144.9205222
40
16.2959024
50
183.491623
51
186.4103593
0
ARC
8
text
10
334.7507377
20
145.7777436
40
30.0514973
50
181.4276507
51
183.5288138
0
ARC
8
text
10
355.3598681
20
146.3219348
40
50.6677979
50
180.0279007
51
181.4622009
0
ARC
8
text
10
369.2031826
20
146.3886985
40
64.5111712
50
179.9998034
51
180.0812099
0
ARC
8
text
10
356.7439198
20
146.4378449
40
52.0519313
50
178.6191086
51
180.0538539
0
ARC
8
text
10
336.2603772
20
146.9407984
40
31.5622183
50
176.7579991
51
178.6357721
0
ARC
8
text
10
322.0026157
20
147.7705121
40
17.2803661
50
173.7915118
51
176.8311453
0
ARC
8
text
10
312.725124
20
148.8001844
40
7.9459576
50
168.8342168
51
173.9379159
0
ARC
8
text
10
309.7620076
20
149.3484184
40
4.9328965
50
168.1911763
51
168.4166923
0
ARC
8
text
10
308.7187101
20
149.5397361
40
3.8726158
50
145.3016012
51
167.8029672
0
ARC
8
text
10
309.9390741
20
148.7272727
40
5.3385172
50
134.7147686
51
145.5884329
0
ARC
8
text
10
309.6994667
20
149.0168891
40
4.9642411
50
92.6660722
51
135.1013986
0
ARC
8
text
10
309.9171409
20
147.3483044
40
6.6426166
50
89.9666144
51
93.8722147
0
ARC
8
text
10
309.9718014
20
148.1677116
40
5.8234297
50
73.722625
51
90.4997203
0
ARC
8
text
10
310.2567501
20
149.2285562
40
4.7253004
50
49.3735227
51
73.4338612
0
ARC
8
text
10
310.015148
20
148.9787986
40
5.0722147
50
20.0602263
51
49.1391815
0
ARC
8
text
10
308.242955
20
148.2635713
40
6.9825149
50
10.5240878
51
20.585068
0
ARC
8
text
10
308.9954743
20
148.6396944
40
4.5639993
50
11.3630873
51
26.1793535
0
ARC
8
text
10
309.9302763
20
149.0923614
40
3.5253884
50
26.2799073
51
49.0350419
0
ARC
8
text
10
310.0930692
20
149.2578207
40
3.2937535
50
49.2864391
51
84.5739886
0
ARC
8
text
10
309.9276257
20
148.1944776
40
4.3684473
50
83.7325503
51
90.0867506
0
ARC
8
text
10
309.8773492
20
148.8761952
40
3.6869832
50
89.3214713
51
113.138769
0
ARC
8
text
10
309.8619641
20
149.0266915
40
3.5428334
50
113.8664044
51
135.431401
0
ARC
8
text
10
309.521497
20
149.3141914
40
3.098712
50
134.8007057
51
170.3632402
0
ARC
8
text
10
313.8297091
20
148.5527126
40
7.4736611
50
170.1368278
51
174.6654615
0
ARC
8
text
10
322.6279381
20
147.6862775
40
16.3143978
50
174.508462
51
177.0289557
0
ARC
8
text
10
336.713807
20
146.9355568
40
30.4202505
50
176.991996
51
178.7644672
0
ARC
8
text
10
358.1139768
20
146.4500076
40
51.8259201
50
178.7379381
51
179.9777107
0
ARC
8
text
10
373.0407493
20
146.3889584
40
66.7527379
50
179.9302946
51
180.0000331
0
ARC
8
text
10
359.7801284
20
146.3455883
40
53.4921345
50
179.9535873
51
181.1711154
0
ARC
8
text
10
338.4239909
20
145.9006485
40
32.1313652
50
181.1562051
51
182.7597375
0
ARC
8
text
10
323.7395731
20
145.1743203
40
17.4290168
50
182.6990453
51
185.2694197
0
ARC
8
text
10
314.2787509
20
144.2839723
40
7.9264285
50
185.1413926
51
189.4824617
0
ARC
8
text
10
311.1582505
20
143.79323
40
4.7678134
50
189.8436065
51
190.2488824
0
ARC
8
text
10
309.521497
20
143.4636483
40
3.098712
50
189.6367598
51
225.1992943
0
ARC
8
text
10
309.8389735
20
143.7186982
40
3.5036894
50
224.4543925
51
270.5600932
0
ARC
8
text
10
309.9209346
20
144.6576049
40
4.4426849
50
269.3846704
51
270.0009919
0
ARC
8
text
10
309.9564935
20
144.1488431
40
3.9340833
50
269.4832353
51
287.2556141
0
ARC
8
text
10
310.1233072
20
143.5384525
40
3.3017547
50
287.6331809
51
310.3833981
0
ARC
8
text
10
309.9193738
20
143.7662714
40
3.6074269
50
310.5062944
51
340.680835
0
ARC
8
text
10
308.8110135
20
144.208493
40
4.7999432
50
340.0763301
51
348.3462493
0
LINE
8
text
10
343.345
20
153.8648889
11
343.345
21
138.9128889
0
LINE
8
text
10
343.345
20
138.9128889
11
341.749
21
138.9128889
0
LINE
8
text
10
341.749
20
138.9128889
11
341.749
21
145.7378889
0
LINE
8
text
10
341.749
20
145.7378889
11
334.651
21
145.7378889
0
LINE
8
text
10
334.651
20
145.7378889
11
334.651
21
138.9128889
0
LINE
8
text
10
334.651
20
138.9128889
11
333.055
21
138.9128889
0
LINE
8
text
10
333.055
20
138.9128889
11
333.055
21
153.8648889
0
LINE
8
text
10
333.055
20
153.8648889
11
334.651
21
153.8648889
0
LINE
8
text
10
334.651
20
153.8648889
11
334.651
21
147.1658889
0
LINE
8
text
10
334.651
20
147.1658889
11
341.749
21
147.1658889
0
LINE
8
text
10
341.749
20
147.1658889
11
341.749
21
153.8648889
0
LINE
8
text
10
341.749
20
153.8648889
11
343.345
21
153.8648889
0
LINE
8
text
10
371.624
20
153.8648889
11
371.624
21
152.4368889
0
LINE
8
text
10
371.624
20
152.4368889
11
367.298
21
152.4368889
0
LINE
8
text
10
367.298
20
152.4368889
11
367.298
21
138.9128889
0
LINE
8
text
10
367.298
20
138.9128889
11
365.702
21
138.9128889
0
LINE
8
text
10
365.702
20
138.9128889
11
365.702
21
152.4368889
0
LINE
8
text
10
365.702
20
152.4368889
11
361.376
21
152.4368889
0
LINE
8
text
10
361.376
20
152.4368889
11
361.376
21
153.8648889
0
LINE
8
text
10
361.376
20
153.8648889
11
371.624
21
153.8648889
0
LINE
8
text
10
78.3653625
20
109.3164491
11
79.4363625
21
110.3874491
0
LINE
8
text
10
84.3713625
20
114.1464491
11
82.6283625
21
114.3984491
0
LINE
8
text
10
87.9833625
20
120.9084491
11
86.9543625
21
119.8794491
0
LINE
8
text
10
82.9223625
20
115.8684491
11
84.6653625
21
115.5954491
0
ARC
8
text
10
84.2739472
20
111.5354746
40
4.3606904
50
341.3886729
51
0.643497
0
ARC
8
text
10
84.9560968
20
111.3515755
40
3.6557806
50
308.409713
51
340.7080933
0
ARC
8
text
10
84.1922844
20
112.2837393
40
4.8607937
50
283.9076611
51
308.638141
0
ARC
8
text
10
83.6029319
20
114.494226
40
7.1482504
50
271.9904357
51
284.2344278
0
ARC
8
text
10
83.4714947
20
116.5413574
40
9.1989091
50
269.9804912
51
272.3657429
0
ARC
8
text
10
83.4310587
20
117.5562254
40
10.2138445
50
262.991551
51
270.2092606
0
ARC
8
text
10
83.0383423
20
114.446581
40
7.0795247
50
252.9702823
51
263.0753696
0
ARC
8
text
10
82.6331568
20
113.0306665
40
5.6070944
50
248.7601959
51
252.6917647
0
ARC
8
text
10
82.8098402
20
113.3873345
40
6.0036468
50
232.2907278
51
248.4216782
0
ARC
8
text
10
83.8248893
20
114.7498402
40
7.7024784
50
224.8625291
51
232.5165143
0
ARC
8
text
10
84.1855944
20
115.095563
40
6.6874166
50
224.750895
51
233.4585116
0
ARC
8
text
10
83.0139773
20
113.5004495
40
4.7082822
50
233.3559193
51
246.0844601
0
ARC
8
text
10
82.6770236
20
112.7984113
40
3.9299905
50
246.4259823
51
249.0815191
0
ARC
8
text
10
83.0610142
20
113.8862452
40
5.0833111
50
249.4164819
51
260.5991799
0
ARC
8
text
10
83.4274524
20
116.0385904
40
7.2666107
50
260.5207057
51
268.5543753
0
ARC
8
text
10
83.5084198
20
117.8588614
40
9.0884125
50
268.3336029
51
270.0122474
0
ARC
8
text
10
83.544668
20
114.9271309
40
6.1567774
50
269.6807469
51
279.1357753
0
ARC
8
text
10
83.8962244
20
112.8203544
40
4.0209271
50
278.9563139
51
293.8378836
0
ARC
8
text
10
84.2906366
20
111.8881273
40
3.0088665
50
294.1424442
51
307.3092805
0
ARC
8
text
10
84.6930618
20
111.374632
40
2.3565448
50
307.0943309
51
356.263256
0
ARC
8
text
10
83.6483237
20
111.5381196
40
3.4110416
50
354.6664448
51
0.0727224
0
ARC
8
text
10
83.9300239
20
111.5698787
40
3.1294588
50
359.497798
51
14.0026424
0
ARC
8
text
10
84.8583312
20
111.8109959
40
2.1704142
50
13.7562661
51
47.5100002
0
ARC
8
text
10
84.8283147
20
111.6328882
40
2.3240993
50
49.9309173
51
65.1415108
0
ARC
8
text
10
84.1261828
20
110.1611158
40
3.9547141
50
64.8752638
51
74.0925123
0
ARC
8
text
10
83.4407194
20
107.8024998
40
6.4108958
50
73.9785361
51
80.3632038
0
ARC
8
text
10
83.0805499
20
105.8788741
40
8.3677351
50
80.1367769
51
81.1260788
0
ARC
8
text
10
83.7231083
20
121.6324639
40
7.3163816
50
252.0905266
51
261.3945495
0
ARC
8
text
10
82.9771686
20
119.3641311
40
4.9285923
50
238.0591449
51
252.232937
0
ARC
8
text
10
82.4319682
20
118.4457187
40
3.8608676
50
228.9872436
51
237.7144662
0
ARC
8
text
10
82.1511872
20
118.057908
40
3.384252
50
187.0975824
51
228.2655818
0
ARC
8
text
10
83.6062832
20
118.3320235
40
4.8629421
50
179.8300356
51
188.1842408
0
ARC
8
text
10
83.3133833
20
118.3932931
40
4.5702609
50
162.7627596
51
180.5872779
0
ARC
8
text
10
82.4502857
20
118.6317201
40
3.6753827
50
131.0858846
51
162.3255988
0
ARC
8
text
10
82.9003573
20
118.1160901
40
4.3598084
50
103.5855709
51
131.090664
0
ARC
8
text
10
83.4351784
20
116.0802552
40
6.4644433
50
91.1302515
51
103.9546798
0
ARC
8
text
10
83.5301792
20
114.3155835
40
8.2308655
50
89.9917629
51
91.5491292
0
ARC
8
text
10
83.5631501
20
113.9667781
40
8.5797298
50
82.5829556
51
90.2122789
0
ARC
8
text
10
83.8972452
20
116.4635851
40
6.0606924
50
71.8919403
51
82.6679005
0
ARC
8
text
10
84.2016471
20
117.4786336
40
5.0013744
50
69.3262609
51
71.5922282
0
ARC
8
text
10
83.8189125
20
116.5535471
40
6.0020962
50
56.0311955
51
69.0256516
0
ARC
8
text
10
82.787884
20
114.9845356
40
7.879451
50
48.7481094
51
56.1882364
0
ARC
8
text
10
83.7415537
20
116.5007153
40
4.6624009
50
46.4419674
51
84.6162075
0
ARC
8
text
10
83.4786213
20
114.8582595
40
6.323198
50
83.6405745
51
90.092957
0
ARC
8
text
10
83.4356831
20
116.4480797
40
4.7334822
50
89.604433
51
101.0290674
0
ARC
8
text
10
83.1126217
20
118.0383379
40
3.1108184
50
100.7920786
51
120.4332998
0
ARC
8
text
10
82.8667372
20
118.5021085
40
2.5864987
50
120.9407984
51
131.9603443
0
ARC
8
text
10
82.8053251
20
118.5700347
40
2.4949272
50
131.954603
51
174.2976238
0
ARC
8
text
10
83.8222721
20
118.3956265
40
3.5249169
50
173.1190849
51
180.1166655
0
ARC
8
text
10
83.3581917
20
118.3633826
40
3.0609318
50
179.53079
51
192.7893772
0
ARC
8
text
10
82.3336914
20
118.1148129
40
2.0068843
50
192.3436713
51
222.2489969
0
ARC
8
text
10
82.2582347
20
118.0684312
40
1.9199141
50
222.7384397
51
227.8311553
0
ARC
8
text
10
82.6452723
20
118.7015358
40
2.6525772
50
230.8166321
51
244.6590761
0
ARC
8
text
10
83.4337663
20
120.3274698
40
4.4595685
50
244.4442943
51
253.2004465
0
ARC
8
text
10
84.2207099
20
122.8843638
40
7.134799
50
253.0851798
51
259.0839443
0
ARC
8
text
10
84.6014542
20
124.684578
40
8.9746019
50
258.8736011
51
259.2167746
0
ARC
8
text
10
81.7738397
20
99.4141605
40
16.4376094
50
77.6966274
51
79.8684416
0
ARC
8
text
10
83.0274463
20
105.1428231
40
10.5733892
50
74.9133201
51
77.7188791
0
ARC
8
text
10
84.1343668
20
109.2209273
40
6.3477393
50
70.8598644
51
74.9793856
0
ARC
8
text
10
84.7517801
20
111.0451735
40
4.4219261
50
69.4586152
51
70.6674363
0
ARC
8
text
10
85.1400401
20
112.1047246
40
3.2935183
50
47.28127
51
69.3158707
0
ARC
8
text
10
85.1085984
20
111.8472157
40
3.507316
50
5.3828035
51
49.758493
0
ARC
8
text
10
83.6245108
20
111.594205
40
5.0098611
50
359.888425
51
6.6715135
0
LINE
8
text
10
112.598
20
122.4204444
11
112.598
21
107.4684444
0
LINE
8
text
10
112.598
20
107.4684444
11
111.002
21
107.4684444
0
LINE
8
text
10
111.002
20
107.4684444
11
111.002
21
122.4204444
0
LINE
8
text
10
111.002
20
122.4204444
11
112.598
21
122.4204444
0
LINE
8
text
10
144.741
20
108.8964444
11
144.741
21
107.4684444
0
LINE
8
text
10
144.741
20
107.4684444
11
135.459
21
107.4684444
0
LINE
8
text
10
135.459
20
107.4684444
11
135.459
21
122.4204444
0
LINE
8
text
10
135.459
20
122.4204444
11
144.741
21
122.4204444
0
LINE
8
text
10
144.741
20
122.4204444
11
144.741
21
120.9924444
0
LINE
8
text
10
144.741
20
120.9924444
11
137.055
21
120.9924444
0
LINE
8
text
10
137.055
20
120.9924444
11
137.055
21
115.7214444
0
LINE
8
text
10
137.055
20
115.7214444
11
143.607
21
115.7214444
0
LINE
8
text
10
143.607
20
115.7214444
11
143.607
21
114.2934444
0
LINE
8
text
10
143.607
20
114.2934444
11
137.055
21
114.2934444
0
LINE
8
text
10
137.055
20
114.2934444
11
137.055
21
108.8964444
0
LINE
8
text
10
137.055
20
108.8964444
11
144.741
21
108.8964444
0
LINE
8
text
10
169.082406
20
107.4684421
11
163.265406
21
107.4684421
0
LINE
8
text
10
163.265406
20
107.4684421
11
163.265406
21
122.4204421
0
LINE
8
text
10
163.265406
20
122.4204421
11
168.893406
21
122.4204421
0
LINE
8
text
10
168.935406
20
114.3774421
11
164.861406
21
114.3774421
0
LINE
8
text
10
164.861406
20
114.3774421
11
164.861406
21
108.8964421
0
LINE
8
text
10
164.861406
20
108.8964421
11
168.935406
21
108.8964421
0
LINE
8
text
10
168.767406
20
120.9924421
11
164.861406
21
120.9924421
0
LINE
8
text
10
164.861406
20
120.9924421
11
164.861406
21
115.8054421
0
LINE
8
text
10
164.861406
20
115.8054421
11
168.767406
21
115.8054421
0
ARC
8
text
10
168.4018396
20
111.561509
40
5.1327544
50
346.3907683
51
0.4904209
0
ARC
8
text
10
169.9986215
20
111.1517354
40
3.484459
50
311.6959642
51
346.7615291
0
ARC
8
text
10
169.5772274
20
111.6786343
40
4.1583427
50
282.0006468
51
311.202236
0
ARC
8
text
10
169.1270092
20
113.5890121
40
6.1207324
50
269.5824684
51
282.4047409
0
ARC
8
text
10
168.9379531
20
116.4824258
40
5.9381834
50
77.0609945
51
90.4298262
0
ARC
8
text
10
169.3549794
20
118.2120533
40
4.1591392
50
48.9673951
51
77.3248085
0
ARC
8
text
10
169.7655907
20
118.7064752
40
3.5166486
50
6.3615297
51
48.7255555
0
ARC
8
text
10
168.298284
20
118.4427058
40
5.0051369
50
359.8596128
51
7.5013677
0
ARC
8
text
10
169.6031245
20
118.3993309
40
3.7004123
50
341.6822462
51
0.4817204
0
ARC
8
text
10
170.0031631
20
118.2900814
40
3.2863825
50
324.9755684
51
341.2984582
0
ARC
8
text
10
169.9070928
20
118.3201636
40
3.3824577
50
290.6221467
51
325.4922632
0
ARC
8
text
10
169.9178842
20
111.7195021
40
3.6321405
50
35.5532112
51
71.0331545
0
ARC
8
text
10
170.0017737
20
111.798292
40
3.5181102
50
7.2495241
51
35.3036567
0
ARC
8
text
10
168.9201264
20
111.6162596
40
4.6142922
50
359.8656786
51
7.796917
0
ARC
8
text
10
169.4939555
20
111.4344381
40
2.4261717
50
312.7359593
51
352.159102
0
ARC
8
text
10
168.4637188
20
111.6355457
40
3.4747076
50
351.1914648
51
0.1961646
0
ARC
8
text
10
168.7709179
20
111.6770636
40
3.1676266
50
359.4642012
51
15.4069009
0
ARC
8
text
10
169.5452514
20
111.8860377
40
2.365605
50
15.5099504
51
47.9427468
0
ARC
8
text
10
169.3191236
20
111.6201081
40
2.7145475
50
48.158978
51
76.6004139
0
ARC
8
text
10
168.9880331
20
110.3439243
40
4.0328037
50
76.2262807
51
89.288032
0
ARC
8
text
10
168.9358028
20
109.2708482
40
5.106594
50
88.8516572
51
90.0044522
0
ARC
8
text
10
168.9664129
20
113.0144804
40
4.118155
50
269.5685983
51
282.5088429
0
ARC
8
text
10
169.2755982
20
111.708665
40
2.7764348
50
282.1163523
51
310.8253239
0
ARC
8
text
10
169.3544759
20
111.5871292
40
2.6329755
50
311.2554829
51
312.7104307
0
ARC
8
text
10
168.6214015
20
118.437993
40
3.0861366
50
359.469929
51
14.2321792
0
ARC
8
text
10
169.567409
20
118.6887926
40
2.1075312
50
13.9460635
51
51.1857
0
ARC
8
text
10
169.0889989
20
118.069792
40
2.8897518
50
51.4874767
51
78.1029237
0
ARC
8
text
10
168.7968233
20
116.798869
40
4.1936762
50
77.77648
51
90.4019145
0
ARC
8
text
10
168.7973761
20
119.9909286
40
4.1855938
50
269.5897419
51
282.3621235
0
ARC
8
text
10
169.0904457
20
118.7256002
40
2.8869011
50
282.0568609
51
308.5208514
0
ARC
8
text
10
169.5430341
20
118.1242484
40
2.1346404
50
309.0690796
51
349.3362988
0
ARC
8
text
10
168.4211419
20
118.3878332
40
3.2863351
50
348.4395459
51
0.376744
0
LINE
8
text
10
201.341
20
108.8964444
11
201.341
21
107.4684444
0
LINE
8
text
10
201.341
20
107.4684444
11
192.059
21
107.4684444
0
LINE
8
text
10
192.059
20
107.4684444
11
192.059
21
122.4204444
0
LINE
8
text
10
192.059
20
122.4204444
11
201.341
21
122.4204444
0
LINE
8
text
10
201.341
20
122.4204444
11
201.341
21
120.9924444
0
LINE
8
text
10
201.341
20
120.9924444
11
193.655
21
120.9924444
0
LINE
8
text
10
193.655
20
120.9924444
11
193.655
21
115.7214444
0
LINE
8
text
10
193.655
20
115.7214444
11
200.207
21
115.7214444
0
LINE
8
text
10
200.207
20
115.7214444
11
200.207
21
114.2934444
0
LINE
8
text
10
200.207
20
114.2934444
11
193.655
21
114.2934444
0
LINE
8
text
10
193.655
20
114.2934444
11
193.655
21
108.8964444
0
LINE
8
text
10
193.655
20
108.8964444
11
201.341
21
108.8964444
0
LINE
8
text
10
230.523
20
122.4204444
11
230.523
21
107.4684444
0
LINE
8
text
10
230.523
20
107.4684444
11
229.011
21
107.4684444
0
LINE
8
text
10
229.011
20
107.4684444
11
221.073
21
119.4594444
0
LINE
8
text
10
221.073
20
119.4594444
11
221.073
21
107.4684444
0
LINE
8
text
10
221.073
20
107.4684444
11
219.477
21
107.4684444
0
LINE
8
text
10
219.477
20
107.4684444
11
219.477
21
122.4204444
0
LINE
8
text
10
219.477
20
122.4204444
11
220.989
21
122.4204444
0
LINE
8
text
10
220.989
20
122.4204444
11
228.927
21
110.4714444
0
LINE
8
text
10
228.927
20
110.4714444
11
228.927
21
122.4204444
0
LINE
8
text
10
228.927
20
122.4204444
11
230.523
21
122.4204444
0
LINE
8
text
10
257.941
20
108.8964444
11
257.941
21
107.4684444
0
LINE
8
text
10
257.941
20
107.4684444
11
248.659
21
107.4684444
0
LINE
8
text
10
248.659
20
107.4684444
11
248.659
21
108.9804444
0
LINE
8
text
10
248.659
20
108.9804444
11
256.135
21
120.9924444
0
LINE
8
text
10
256.135
20
120.9924444
11
248.953
21
120.9924444
0
LINE
8
text
10
248.953
20
120.9924444
11
248.953
21
122.4204444
0
LINE
8
text
10
248.953
20
122.4204444
11
257.941
21
122.4204444
0
LINE
8
text
10
257.941
20
122.4204444
11
257.941
21
121.0764444
0
LINE
8
text
10
257.941
20
121.0764444
11
250.402
21
108.8964444
0
LINE
8
text
10
250.402
20
108.8964444
11
257.941
21
108.8964444
0
LINE
8
text
10
288.53
20
122.4204444
11
290.231
21
122.4204444
0
LINE
8
text
10
290.231
20
122.4204444
11
286.409
21
107.4684444
0
LINE
8
text
10
286.409
20
107.4684444
11
284.918
21
107.4684444
0
LINE
8
text
10
284.918
20
107.4684444
11
281.6
21
119.4384444
0
LINE
8
text
10
281.6
20
119.4384444
11
278.282
21
107.4684444
0
LINE
8
text
10
278.282
20
107.4684444
11
276.791
21
107.4684444
0
LINE
8
text
10
276.791
20
107.4684444
11
272.969
21
122.4204444
0
LINE
8
text
10
272.969
20
122.4204444
11
274.67
21
122.4204444
0
LINE
8
text
10
274.67
20
122.4204444
11
277.589
21
110.3664444
0
LINE
8
text
10
277.589
20
110.3664444
11
280.886
21
122.4204444
0
LINE
8
text
10
280.886
20
122.4204444
11
282.314
21
122.4204444
0
LINE
8
text
10
282.314
20
122.4204444
11
285.611
21
110.3664444
0
LINE
8
text
10
285.611
20
110.3664444
11
288.53
21
122.4204444
0
LINE
8
text
10
312.8820001
20
125.9064352
11
312.8820001
21
124.0374352
0
LINE
8
text
10
312.8820001
20
124.0374352
11
311.3700001
21
124.0374352
0
LINE
8
text
10
311.3700001
20
124.0374352
11
311.3700001
21
125.9064352
0
LINE
8
text
10
311.3700001
20
125.9064352
11
312.8820001
21
125.9064352
0
LINE
8
text
10
308.4300001
20
125.9064352
11
308.4300001
21
124.0374352
0
LINE
8
text
10
308.4300001
20
124.0374352
11
306.9180001
21
124.0374352
0
LINE
8
text
10
306.9180001
20
124.0374352
11
306.9180001
21
125.9064352
0
LINE
8
text
10
306.9180001
20
125.9064352
11
308.4300001
21
125.9064352
0
ARC
8
text
10
307.3296471
20
117.3298425
40
7.7074142
50
6.5174975
51
11.6971682
0
ARC
8
text
10
298.7909857
20
116.3184902
40
16.3057263
50
3.4034155
51
6.6426659
0
ARC
8
text
10
285.3201447
20
115.480612
40
29.8025726
50
1.4064769
51
3.4739565
0
ARC
8
text
10
266.2676736
20
114.9901319
40
48.8613478
50
359.9464152
51
1.4330789
0
ARC
8
text
10
266.4470268
20
114.8973196
40
48.681996
50
358.5414559
51
0.0554522
0
ARC
8
text
10
285.9541072
20
114.383034
40
29.1681508
50
356.3786214
51
358.5760134
0
ARC
8
text
10
299.2007043
20
113.5314908
40
15.8942236
50
353.2811431
51
356.4260221
0
ARC
8
text
10
307.3777865
20
112.5505114
40
7.658548
50
348.2922071
51
353.4123896
0
ARC
8
text
10
310.9619068
20
111.861118
40
4.0094428
50
324.3676129
51
347.545656
0
ARC
8
text
10
309.818336
20
112.6413091
40
5.393526
50
314.7730745
51
324.7086919
0
ARC
8
text
10
310.0972732
20
112.31396
40
4.9647914
50
271.720684
51
315.1485346
0
ARC
8
text
10
309.9022651
20
113.9445369
40
6.6021021
50
269.9803437
51
272.9874776
0
ARC
8
text
10
309.8429975
20
113.0745786
40
5.7324268
50
251.9649173
51
270.5697522
0
ARC
8
text
10
309.607369
20
112.2150024
40
4.8423165
50
224.6418892
51
251.4670935
0
ARC
8
text
10
309.8422854
20
112.53934
40
5.2377781
50
212.9679651
51
225.3606048
0
ARC
8
text
10
308.6582905
20
111.779971
40
3.8312171
50
192.1220506
51
213.0756857
0
ARC
8
text
10
312.4364353
20
112.4912298
40
7.6751048
50
186.242809
51
191.39051
0
ARC
8
text
10
321.0008601
20
113.4760375
40
16.2959024
50
183.491623
51
186.4103593
0
ARC
8
text
10
334.7297263
20
114.333259
40
30.0514973
50
181.4276507
51
183.5288138
0
ARC
8
text
10
355.3388568
20
114.8774501
40
50.6677979
50
180.0279007
51
181.4622009
0
ARC
8
text
10
369.1821712
20
114.9442138
40
64.5111712
50
179.9998034
51
180.0812099
0
ARC
8
text
10
356.7229084
20
114.9933602
40
52.0519313
50
178.6191086
51
180.0538539
0
ARC
8
text
10
336.2393658
20
115.4963138
40
31.5622183
50
176.7579991
51
178.6357721
0
ARC
8
text
10
321.9816043
20
116.3260274
40
17.2803661
50
173.7915118
51
176.8311453
0
ARC
8
text
10
312.7041126
20
117.3556997
40
7.9459576
50
168.8342168
51
173.9379159
0
ARC
8
text
10
309.7409962
20
117.9039337
40
4.9328965
50
168.1911763
51
168.4166923
0
ARC
8
text
10
308.6976987
20
118.0952515
40
3.8726158
50
145.3016012
51
167.8029672
0
ARC
8
text
10
309.9180628
20
117.282788
40
5.3385172
50
134.7147686
51
145.5884329
0
ARC
8
text
10
309.6784553
20
117.5724044
40
4.9642411
50
92.6660722
51
135.1013986
0
ARC
8
text
10
309.8961295
20
115.9038198
40
6.6426166
50
89.9666144
51
93.8722147
0
ARC
8
text
10
309.9582798
20
116.9226281
40
5.624109
50
71.1396311
51
90.5937372
0
ARC
8
text
10
310.1620532
20
117.6674498
40
4.8536417
50
44.6163478
51
70.5736972
0
ARC
8
text
10
309.9715762
20
117.3825635
40
5.1897788
50
32.1647374
51
45.3782127
0
ARC
8
text
10
311.0384937
20
118.0545016
40
3.9289011
50
12.3143035
51
32.1526276
0
ARC
8
text
10
305.5525329
20
112.7786746
40
7.9163463
50
350.707865
51
354.9788623
0
ARC
8
text
10
296.1919242
20
113.6463033
40
17.3170298
50
354.8298799
51
357.2036808
0
ARC
8
text
10
281.2145659
20
114.3976128
40
32.3132132
50
357.1686873
51
358.8371859
0
ARC
8
text
10
258.4689442
20
114.8833406
40
55.0640133
50
358.812173
51
359.9790285
0
ARC
8
text
10
242.7506559
20
114.9442331
40
70.7823443
50
359.9343953
51
0.0001636
0
ARC
8
text
10
260.0408832
20
114.9877667
40
53.4921345
50
359.9535873
51
1.1711154
0
ARC
8
text
10
281.3970207
20
115.4327065
40
32.1313652
50
1.1562051
51
2.7597375
0
ARC
8
text
10
296.0814385
20
116.1590348
40
17.4290168
50
2.6990453
51
5.2694197
0
ARC
8
text
10
305.5422606
20
117.0493827
40
7.9264285
50
5.1413926
51
9.4824617
0
ARC
8
text
10
308.662761
20
117.5401251
40
4.7678134
50
9.8436065
51
10.2488824
0
ARC
8
text
10
310.2995146
20
117.8697067
40
3.098712
50
9.6367598
51
45.1992943
0
ARC
8
text
10
309.9820381
20
117.6146568
40
3.5036894
50
44.4543925
51
90.5600932
0
ARC
8
text
10
309.900077
20
116.6757501
40
4.4426849
50
89.3846704
51
90.0009919
0
ARC
8
text
10
309.8563378
20
117.4317105
40
3.6869832
50
89.3214713
51
113.138769
0
ARC
8
text
10
309.8409527
20
117.5822068
40
3.5428334
50
113.8664044
51
135.431401
0
ARC
8
text
10
309.5004856
20
117.8697067
40
3.098712
50
134.8007057
51
170.3632402
0
ARC
8
text
10
313.8086977
20
117.1082279
40
7.4736611
50
170.1368278
51
174.6654615
0
ARC
8
text
10
322.6069267
20
116.2417928
40
16.3143978
50
174.508462
51
177.0289557
0
ARC
8
text
10
336.6927957
20
115.4910722
40
30.4202505
50
176.991996
51
178.7644672
0
ARC
8
text
10
358.0929654
20
115.0055229
40
51.8259201
50
178.7379381
51
179.9777107
0
ARC
8
text
10
373.0197379
20
114.9444737
40
66.7527379
50
179.9302946
51
180.0000331
0
ARC
8
text
10
359.759117
20
114.9011036
40
53.4921345
50
179.9535873
51
181.1711154
0
ARC
8
text
10
338.4029795
20
114.4561638
40
32.1313652
50
181.1562051
51
182.7597375
0
ARC
8
text
10
323.7185617
20
113.7298356
40
17.4290168
50
182.6990453
51
185.2694197
0
ARC
8
text
10
314.2577396
20
112.8394876
40
7.9264285
50
185.1413926
51
189.4824617
0
ARC
8
text
10
311.1372391
20
112.3487453
40
4.7678134
50
189.8436065
51
190.2488824
0
ARC
8
text
10
309.5004856
20
112.0191636
40
3.098712
50
189.6367598
51
225.1992943
0
ARC
8
text
10
309.8179621
20
112.2742135
40
3.5036894
50
224.4543925
51
270.5600932
0
ARC
8
text
10
309.8999232
20
113.2131202
40
4.4426849
50
269.3846704
51
270.0009919
0
ARC
8
text
10
309.9436624
20
112.4571599
40
3.6869832
50
269.3214713
51
293.138769
0
ARC
8
text
10
309.9590475
20
112.3066635
40
3.5428334
50
293.8664044
51
315.431401
0
ARC
8
text
10
310.2542872
20
112.0620345
40
3.1610012
50
314.8348365
51
349.7662178
0
LINE
8
text
10
342.82
20
108.8964444
11
342.82
21
107.4684444
0
LINE
8
text
10
342.82
20
107.4684444
11
333.58
21
107.4684444
0
LINE
8
text
10
333.58
20
107.4684444
11
333.58
21
122.4204444
0
LINE
8
text
10
333.58
20
122.4204444
11
335.176
21
122.4204444
0
LINE
8
text
10
335.176
20
122.4204444
11
335.176
21
108.8964444
0
LINE
8
text
10
335.176
20
108.8964444
11
342.82
21
108.8964444
0
LINE
8
text
10
371.141
20
122.4204444
11
371.141
21
120.9924444
0
LINE
8
text
10
371.141
20
120.9924444
11
363.455
21
120.9924444
0
LINE
8
text
10
363.455
20
120.9924444
11
363.455
21
115.4904444
0
LINE
8
text
10
363.455
20
115.4904444
11
370.007
21
115.4904444
0
LINE
8
text
10
370.007
20
115.4904444
11
370.007
21
114.0624444
0
LINE
8
text
10
370.007
20
114.0624444
11
363.455
21
114.0624444
0
LINE
8
text
10
363.455
20
114.0624444
11
363.455
21
107.4684444
0
LINE
8
text
10
363.455
20
107.4684444
11
361.859
21
107.4684444
0
LINE
8
text
10
361.859
20
107.4684444
11
361.859
21
122.4204444
0
LINE
8
text
10
361.859
20
122.4204444
11
371.141
21
122.4204444
0
LINE
8
text
10
88.141
20
77.452
11
88.141
21
76.024
0
LINE
8
text
10
88.141
20
76.024
11
78.859
21
76.024
0
LINE
8
text
10
78.859
20
76.024
11
78.859
21
77.536
0
LINE
8
text
10
78.859
20
77.536
11
86.335
21
89.548
0
LINE
8
text
10
86.335
20
89.548
11
79.153
21
89.548
0
LINE
8
text
10
79.153
20
89.548
11
79.153
21
90.976
0
LINE
8
text
10
79.153
20
90.976
11
88.141
21
90.976
0
LINE
8
text
10
88.141
20
90.976
11
88.141
21
89.632
0
LINE
8
text
10
88.141
20
89.632
11
80.602
21
77.452
0
LINE
8
text
10
80.602
20
77.452
11
88.141
21
77.452
0
LINE
8
text
10
116.441
20
77.452
11
116.441
21
76.024
0
LINE
8
text
10
116.441
20
76.024
11
107.159
21
76.024
0
LINE
8
text
10
107.159
20
76.024
11
107.159
21
90.976
0
LINE
8
text
10
107.159
20
90.976
11
116.441
21
90.976
0
LINE
8
text
10
116.441
20
90.976
11
116.441
21
89.548
0
LINE
8
text
10
116.441
20
89.548
11
108.755
21
89.548
0
LINE
8
text
10
108.755
20
89.548
11
108.755
21
84.277
0
LINE
8
text
10
108.755
20
84.277
11
115.307
21
84.277
0
LINE
8
text
10
115.307
20
84.277
11
115.307
21
82.849
0
LINE
8
text
10
115.307
20
82.849
11
108.755
21
82.849
0
LINE
8
text
10
108.755
20
82.849
11
108.755
21
77.452
0
LINE
8
text
10
108.755
20
77.452
11
116.441
21
77.452
0
LINE
8
text
10
145.245
20
90.976
11
145.245
21
76.024
0
LINE
8
text
10
145.245
20
76.024
11
143.649
21
76.024
0
LINE
8
text
10
143.649
20
76.024
11
143.649
21
82.849
0
LINE
8
text
10
143.649
20
82.849
11
136.551
21
82.849
0
LINE
8
text
10
136.551
20
82.849
11
136.551
21
76.024
0
LINE
8
text
10
136.551
20
76.024
11
134.955
21
76.024
0
LINE
8
text
10
134.955
20
76.024
11
134.955
21
90.976
0
LINE
8
text
10
134.955
20
90.976
11
136.551
21
90.976
0
LINE
8
text
10
136.551
20
90.976
11
136.551
21
84.277
0
LINE
8
text
10
136.551
20
84.277
11
143.649
21
84.277
0
LINE
8
text
10
143.649
20
84.277
11
143.649
21
90.976
0
LINE
8
text
10
143.649
20
90.976
11
145.245
21
90.976
0
LINE
8
text
10
173.923
20
90.976
11
173.923
21
76.024
0
LINE
8
text
10
173.923
20
76.024
11
172.411
21
76.024
0
LINE
8
text
10
172.411
20
76.024
11
164.473
21
88.015
0
LINE
8
text
10
164.473
20
88.015
11
164.473
21
76.024
0
LINE
8
text
10
164.473
20
76.024
11
162.877
21
76.024
0
LINE
8
text
10
162.877
20
76.024
11
162.877
21
90.976
0
LINE
8
text
10
162.877
20
90.976
11
164.389
21
90.976
0
LINE
8
text
10
164.389
20
90.976
11
172.327
21
79.027
0
LINE
8
text
10
172.327
20
79.027
11
172.327
21
90.976
0
LINE
8
text
10
172.327
20
90.976
11
173.923
21
90.976
0
LINE
8
text
10
201.341
20
77.452
11
201.341
21
76.024
0
LINE
8
text
10
201.341
20
76.024
11
192.059
21
76.024
0
LINE
8
text
10
192.059
20
76.024
11
192.059
21
90.976
0
LINE
8
text
10
192.059
20
90.976
11
201.341
21
90.976
0
LINE
8
text
10
201.341
20
90.976
11
201.341
21
89.548
0
LINE
8
text
10
201.341
20
89.548
11
193.655
21
89.548
0
LINE
8
text
10
193.655
20
89.548
11
193.655
21
84.277
0
LINE
8
text
10
193.655
20
84.277
11
200.207
21
84.277
0
LINE
8
text
10
200.207
20
84.277
11
200.207
21
82.849
0
LINE
8
text
10
200.207
20
82.849
11
193.655
21
82.849
0
LINE
8
text
10
193.655
20
82.849
11
193.655
21
77.452
0
LINE
8
text
10
193.655
20
77.452
11
201.341
21
77.452
0
LINE
8
text
10
228.6223522
20
91.0391333
11
230.2183522
21
91.0391333
0
LINE
8
text
10
230.2183522
20
91.0391333
11
230.2183522
21
81.0221333
0
LINE
8
text
10
219.7813522
20
81.0221333
11
219.7813522
21
91.0391333
0
LINE
8
text
10
219.7813522
20
91.0391333
11
221.3773522
21
91.0391333
0
LINE
8
text
10
221.3773522
20
91.0391333
11
221.3773522
21
81.1481333
0
LINE
8
text
10
228.6223522
20
81.1481333
11
228.6223522
21
91.0391333
0
ARC
8
text
10
224.7628414
20
80.965251
40
5.4558074
50
341.5260673
51
0.5973772
0
ARC
8
text
10
225.5616796
20
80.7458135
40
4.62882
50
313.3279489
51
340.9690339
0
ARC
8
text
10
225.2432903
20
81.0295433
40
5.053821
50
274.1798914
51
313.7465269
0
ARC
8
text
10
224.9965322
20
82.7232599
40
6.7621305
50
269.939164
51
275.2191655
0
ARC
8
text
10
224.93304
20
81.9061406
40
5.945274
50
252.9275836
51
270.5427003
0
ARC
8
text
10
224.6493651
20
80.8714842
40
4.8730379
50
225.7885042
51
252.5445151
0
ARC
8
text
10
224.5366403
20
80.8035377
40
4.7458495
50
182.5175038
51
226.1919584
0
ARC
8
text
10
226.1823435
20
81.0185019
40
6.4009922
50
179.9674944
51
183.792868
0
ARC
8
text
10
226.1904647
20
81.1090505
40
4.8132711
50
179.5347637
51
193.7269681
0
ARC
8
text
10
224.8456329
20
80.7700149
40
3.4264146
50
193.5559133
51
223.3455912
0
ARC
8
text
10
224.6969024
20
80.6530514
40
3.2380153
50
223.6469187
51
261.6343885
0
ARC
8
text
10
224.9717854
20
82.0267942
40
4.6376941
50
260.7436849
51
270.2170282
0
ARC
8
text
10
225.0281958
20
81.6239678
40
4.2350126
50
269.474476
51
285.659462
0
ARC
8
text
10
225.2848272
20
80.6713258
40
3.2484756
50
285.8363762
51
316.0830212
0
ARC
8
text
10
225.125228
20
80.8195545
40
3.4662581
50
316.1478917
51
350.4500564
0
ARC
8
text
10
223.6720295
20
81.1251037
40
4.9503763
50
349.7530689
51
0.2665469
0
LINE
8
text
10
258.823
20
90.976
11
258.823
21
76.024
0
LINE
8
text
10
258.823
20
76.024
11
257.311
21
76.024
0
LINE
8
text
10
257.311
20
76.024
11
249.373
21
88.015
0
LINE
8
text
10
249.373
20
88.015
11
249.373
21
76.024
0
LINE
8
text
10
249.373
20
76.024
11
247.777
21
76.024
0
LINE
8
text
10
247.777
20
76.024
11
247.777
21
90.976
0
LINE
8
text
10
247.777
20
90.976
11
249.289
21
90.976
0
LINE
8
text
10
249.289
20
90.976
11
257.227
21
79.027
0
LINE
8
text
10
257.227
20
79.027
11
257.227
21
90.976
0
LINE
8
text
10
257.227
20
90.976
11
258.823
21
90.976
0
LINE
8
text
10
281.8205
20
85.201
11
287.1965
21
76.024
0
LINE
8
text
10
287.1965
20
76.024
11
285.3065
21
76.024
0
LINE
8
text
10
285.3065
20
76.024
11
280.7495
21
83.983
0
LINE
8
text
10
280.7495
20
83.983
11
277.5995
21
80.203
0
LINE
8
text
10
277.5995
20
80.203
11
277.5995
21
76.024
0
LINE
8
text
10
277.5995
20
76.024
11
276.0035
21
76.024
0
LINE
8
text
10
276.0035
20
76.024
11
276.0035
21
90.976
0
LINE
8
text
10
276.0035
20
90.976
11
277.5995
21
90.976
0
LINE
8
text
10
277.5995
20
90.976
11
277.5995
21
82.387
0
LINE
8
text
10
277.5995
20
82.387
11
284.5715
21
90.976
0
LINE
8
text
10
284.5715
20
90.976
11
286.5245
21
90.976
0
LINE
8
text
10
286.5245
20
90.976
11
281.8205
21
85.201
0
LINE
8
text
10
313.5223522
20
91.0391333
11
315.1183522
21
91.0391333
0
LINE
8
text
10
315.1183522
20
91.0391333
11
315.1183522
21
81.0221333
0
LINE
8
text
10
304.6813522
20
81.0221333
11
304.6813522
21
91.0391333
0
LINE
8
text
10
304.6813522
20
91.0391333
11
306.2773522
21
91.0391333
0
LINE
8
text
10
306.2773522
20
91.0391333
11
306.2773522
21
81.1481333
0
LINE
8
text
10
313.5223522
20
81.1481333
11
313.5223522
21
91.0391333
0
ARC
8
text
10
309.6628414
20
80.965251
40
5.4558074
50
341.5260673
51
0.5973772
0
ARC
8
text
10
310.4616796
20
80.7458135
40
4.62882
50
313.3279489
51
340.9690339
0
ARC
8
text
10
310.1432903
20
81.0295433
40
5.053821
50
274.1798914
51
313.7465269
0
ARC
8
text
10
309.8965322
20
82.7232599
40
6.7621305
50
269.939164
51
275.2191655
0
ARC
8
text
10
309.83304
20
81.9061406
40
5.945274
50
252.9275836
51
270.5427003
0
ARC
8
text
10
309.5493651
20
80.8714842
40
4.8730379
50
225.7885042
51
252.5445151
0
ARC
8
text
10
309.4366403
20
80.8035377
40
4.7458495
50
182.5175038
51
226.1919584
0
ARC
8
text
10
311.0823435
20
81.0185019
40
6.4009922
50
179.9674944
51
183.792868
0
ARC
8
text
10
311.0904647
20
81.1090505
40
4.8132711
50
179.5347637
51
193.7269681
0
ARC
8
text
10
309.7456329
20
80.7700149
40
3.4264146
50
193.5559133
51
223.3455912
0
ARC
8
text
10
309.5969024
20
80.6530514
40
3.2380153
50
223.6469187
51
261.6343885
0
ARC
8
text
10
309.8717854
20
82.0267942
40
4.6376941
50
260.7436849
51
270.2170282
0
ARC
8
text
10
309.9281958
20
81.6239678
40
4.2350126
50
269.474476
51
285.659462
0
ARC
8
text
10
310.1848272
20
80.6713258
40
3.2484756
50
285.8363762
51
316.0830212
0
ARC
8
text
10
310.025228
20
80.8195545
40
3.4662581
50
316.1478917
51
350.4500564
0
ARC
8
text
10
308.5720295
20
81.1251037
40
4.9503763
50
349.7530689
51
0.2665469
0
LINE
8
text
10
343.345
20
90.976
11
343.345
21
76.024
0
LINE
8
text
10
343.345
20
76.024
11
341.749
21
76.024
0
LINE
8
text
10
341.749
20
76.024
11
341.749
21
82.849
0
LINE
8
text
10
341.749
20
82.849
11
334.651
21
82.849
0
LINE
8
text
10
334.651
20
82.849
11
334.651
21
76.024
0
LINE
8
text
10
334.651
20
76.024
11
333.055
21
76.024
0
LINE
8
text
10
333.055
20
76.024
11
333.055
21
90.976
0
LINE
8
text
10
333.055
20
90.976
11
334.651
21
90.976
0
LINE
8
text
10
334.651
20
90.976
11
334.651
21
84.277
0
LINE
8
text
10
334.651
20
84.277
11
341.749
21
84.277
0
LINE
8
text
10
341.749
20
84.277
11
341.749
21
90.976
0
LINE
8
text
10
341.749
20
90.976
11
343.345
21
90.976
0
LINE
8
text
10
368.18
20
82.8069052
11
371.729
21
76.0239052
0
LINE
8
text
10
371.729
20
76.0239052
11
369.86
21
76.0239052
0
LINE
8
text
10
369.86
20
76.0239052
11
366.458
21
82.6599052
0
LINE
8
text
10
366.458
20
82.6599052
11
362.867
21
82.6599052
0
LINE
8
text
10
362.867
20
82.6599052
11
362.867
21
76.0239052
0
LINE
8
text
10
362.867
20
76.0239052
11
361.271
21
76.0239052
0
LINE
8
text
10
361.271
20
76.0239052
11
361.271
21
90.9759052
0
LINE
8
text
10
361.271
20
90.9759052
11
367.004
21
90.9759052
0
LINE
8
text
10
366.857
20
89.5479052
11
362.867
21
89.5479052
0
LINE
8
text
10
362.867
20
89.5479052
11
362.867
21
84.0669052
0
LINE
8
text
10
362.867
20
84.0669052
11
366.857
21
84.0669052
0
ARC
8
text
10
367.0505085
20
85.2740237
40
5.7020711
50
76.0084761
51
90.4673334
0
ARC
8
text
10
367.4338202
20
86.7877978
40
4.1405362
50
47.9605042
51
76.0906949
0
ARC
8
text
10
367.7458009
20
87.154284
40
3.6594629
50
8.236572
51
47.7458178
0
ARC
8
text
10
366.165439
20
86.8376769
40
5.2695979
50
359.7850231
51
9.1818775
0
ARC
8
text
10
366.6875606
20
86.7794426
40
4.7475952
50
345.3552818
51
0.4641862
0
ARC
8
text
10
367.7743453
20
86.5010971
40
3.6257492
50
320.0287648
51
345.2689496
0
ARC
8
text
10
367.5253506
20
86.7309136
40
3.9642382
50
286.8513273
51
319.7950728
0
ARC
8
text
10
367.1286225
20
87.8123946
40
5.114716
50
281.8622429
51
287.5927391
0
ARC
8
text
10
367.5732907
20
86.4295235
40
2.2230151
50
311.3176916
51
346.6168934
0
ARC
8
text
10
366.3808266
20
86.7508506
40
3.4576651
50
346.0105267
51
359.521086
0
ARC
8
text
10
365.4041605
20
86.7966402
40
4.4348395
50
359.0349906
51
0.0034227
0
ARC
8
text
10
366.2715974
20
86.8261416
40
3.5675224
50
359.530446
51
12.6917223
0
ARC
8
text
10
367.4762271
20
87.1151683
40
2.3288899
50
12.2660707
51
40.9152432
0
ARC
8
text
10
367.5866877
20
87.1831314
40
2.2010053
50
41.4615778
51
49.0061094
0
ARC
8
text
10
367.242193
20
86.7557523
40
2.7496387
50
49.4298238
51
76.6636932
0
ARC
8
text
10
366.9149101
20
85.4909301
40
4.0559334
50
76.2864438
51
88.8752683
0
ARC
8
text
10
366.857699
20
84.4124289
40
5.1354764
50
88.4732816
51
90.007799
0
ARC
8
text
10
366.8872947
20
88.4355004
40
4.3687003
50
269.6026801
51
281.6245522
0
ARC
8
text
10
367.1840527
20
87.0555619
40
2.9572967
50
281.3801085
51
303.1392164
0
ARC
8
text
10
367.3549663
20
86.7526028
40
2.6102783
50
303.6332444
51
310.2347654
0
ENDSEC
0
EOF