999
PN 2D      DXF 1.1
  0
SECTION
  2
HEADER
  0
ENDSEC
  0
SECTION
  2
TABLES
  0
TABLE
  2
LTYPE
  0
LTYPE
  2
CONTINUOUS
 70
     0
  3
Solid line
 72
    65
 73
     0
 40
.00
  0
LTYPE
  2
DASHED_1
 70
     0
  3
Non-Solid line
 72
    65
 73
     2
 40
1.00
 49
.75
 49
-.25
  0
LTYPE
  2
DASHED_5
 70
     0
  3
Non-Solid line
 72
    65
 73
     2
 40
5.00
 49
3.50
 49
-1.50
  0
LTYPE
  2
DASHED_10
 70
     0
  3
Non-Solid line
 72
    65
 73
     2
 40
10.00
 49
7.50
 49
-2.50
  0
LTYPE
  2
DASHPOINT_1
 70
     0
  3
Non-Solid line
 72
    65
 73
     4
 40
1.00
 49
.70
 49
-.14
 49
.02
 49
-.14
  0
LTYPE
  2
DASHPOINT_5
 70
     0
  3
Non-Solid line
 72
    65
 73
     4
 40
5.00
 49
3.00
 49
-.95
 49
.10
 49
-.95
  0
LTYPE
  2
DASHPOINT_10
 70
     0
  3
Non-Solid line
 72
    65
 73
     4
 40
10.00
 49
7.00
 49
-1.40
 49
.20
 49
-1.40
  0
ENDTAB
  0
TABLE
  2
LAYER
 70
9
  0
LAYER
  2
1
 70
0
 62
1
  6
CONTINUOUS
  0
LAYER
  2
2
 70
0
 62
2
  6
CONTINUOUS
  0
LAYER
  2
3
 70
0
 62
3
  6
CONTINUOUS
  0
LAYER
  2
4
 70
0
 62
4
  6
CONTINUOUS
  0
LAYER
  2
5
 70
0
 62
5
  6
CONTINUOUS
  0
LAYER
  2
6
 70
0
 62
6
  6
CONTINUOUS
  0
LAYER
  2
7
 70
0
 62
7
  6
CONTINUOUS
  0
LAYER
  2
8
 70
0
 62
8
  6
CONTINUOUS
  0
ENDTAB
  0
ENDSEC
  0
SECTION
  2
ENTITIES
  0
LINE
  8
3
 10
404.59842
 20
118.93600
 11
404.59842
 21
136.05701
  0
LINE
  8
3
 10
406.83344
 20
118.93600
 11
404.59842
 21
118.93600
  0
LINE
  8
3
 10
406.83344
 20
126.68300
 11
406.83344
 21
118.93600
  0
LINE
  8
3
 10
413.28543
 20
126.68300
 11
406.83344
 21
126.68300
  0
LINE
  8
3
 10
413.28543
 20
128.51300
 11
413.28543
 21
126.68300
  0
LINE
  8
3
 10
406.83344
 20
128.51300
 11
413.28543
 21
128.51300
  0
LINE
  8
3
 10
406.83344
 20
134.20300
 11
406.83344
 21
128.51300
  0
LINE
  8
3
 10
413.81842
 20
134.20300
 11
406.83344
 21
134.20300
  0
LINE
  8
3
 10
413.81842
 20
136.05701
 11
413.81842
 21
134.20300
  0
LINE
  8
3
 10
404.59842
 20
136.05701
 11
413.81842
 21
136.05701
  0
LINE
  8
3
 10
408.10944
 20
169.20200
 11
408.10944
 21
153.96100
  0
LINE
  8
3
 10
408.10944
 20
153.96100
 11
410.34442
 21
153.96100
  0
LINE
  8
3
 10
410.34442
 20
153.96100
 11
410.34442
 21
169.20200
  0
LINE
  8
3
 10
410.34442
 20
169.20200
 11
415.57843
 21
169.20200
  0
LINE
  8
3
 10
415.57843
 20
169.20200
 11
415.57843
 21
171.08299
  0
LINE
  8
3
 10
415.57843
 20
171.08299
 11
402.90244
 21
171.08299
  0
LINE
  8
3
 10
402.90244
 20
171.08299
 11
402.90244
 21
169.20200
  0
LINE
  8
3
 10
402.90244
 20
169.20200
 11
408.10944
 21
169.20200
  0
LINE
  8
3
 10
410.41644
 20
224.01401
 11
410.41644
 21
241.13499
  0
LINE
  8
3
 10
410.41644
 20
241.13499
 11
408.18143
 21
241.13499
  0
LINE
  8
3
 10
408.18143
 20
241.13499
 11
408.18143
 21
224.01401
  0
LINE
  8
3
 10
408.18143
 20
224.01401
 11
410.41644
 21
224.01401
  0
LINE
  8
3
 10
404.71243
 20
259.03900
 11
404.71243
 21
276.16199
  0
LINE
  8
3
 10
406.94742
 20
259.03900
 11
404.71243
 21
259.03900
  0
LINE
  8
3
 10
406.94742
 20
266.78900
 11
406.94742
 21
259.03900
  0
LINE
  8
3
 10
413.39944
 20
266.78900
 11
406.94742
 21
266.78900
  0
LINE
  8
3
 10
413.39944
 20
268.61801
 11
413.39944
 21
266.78900
  0
LINE
  8
3
 10
406.94742
 20
268.61801
 11
413.39944
 21
268.61801
  0
LINE
  8
3
 10
406.94742
 20
274.30701
 11
406.94742
 21
268.61801
  0
LINE
  8
3
 10
413.93344
 20
274.30701
 11
406.94742
 21
274.30701
  0
LINE
  8
3
 10
413.93344
 20
276.16199
 11
413.93344
 21
274.30701
  0
LINE
  8
3
 10
404.71243
 20
276.16199
 11
413.93344
 21
276.16199
  0
LINE
  8
3
 10
405.16245
 20
311.18799
 11
402.92642
 21
311.18799
  0
LINE
  8
3
 10
402.92642
 20
311.18799
 11
402.92642
 21
294.06601
  0
LINE
  8
3
 10
402.92642
 20
294.06601
 11
405.16245
 21
294.06601
  0
LINE
  8
3
 10
405.16245
 20
294.06601
 11
405.16245
 21
302.09201
  0
LINE
  8
3
 10
405.16245
 20
302.09201
 11
413.44244
 21
302.09201
  0
LINE
  8
3
 10
413.44244
 20
302.09201
 11
413.44244
 21
294.06601
  0
LINE
  8
3
 10
413.44244
 20
294.06601
 11
415.67844
 21
294.06601
  0
LINE
  8
3
 10
415.67844
 20
294.06601
 11
415.67844
 21
311.18799
  0
LINE
  8
3
 10
415.67844
 20
311.18799
 11
413.44244
 21
311.18799
  0
LINE
  8
3
 10
413.44244
 20
311.18799
 11
413.44244
 21
304.02499
  0
LINE
  8
3
 10
413.44244
 20
304.02499
 11
405.16245
 21
304.02499
  0
LINE
  8
3
 10
405.16245
 20
304.02499
 11
405.16245
 21
311.18799
  0
LINE
  8
3
 10
404.45944
 20
329.09299
 11
404.45944
 21
346.21201
  0
LINE
  8
3
 10
414.01044
 20
329.09299
 11
404.45944
 21
329.09299
  0
LINE
  8
3
 10
414.01044
 20
330.94699
 11
414.01044
 21
329.09299
  0
LINE
  8
3
 10
406.69443
 20
330.94699
 11
414.01044
 21
330.94699
  0
LINE
  8
3
 10
406.69443
 20
346.21201
 11
406.69443
 21
330.94699
  0
LINE
  8
3
 10
404.45944
 20
346.21201
 11
406.69443
 21
346.21201
  0
ARC
  8
3
 10
407.52820
 20
82.39402
 40
18.71000
 50
87.41096
 51
94.35789
  0
ARC
  8
3
 10
407.78500
 20
79.03462
 40
22.08000
 50
94.35995
 51
100.61549
  0
LINE
  8
3
 10
403.71744
 20
94.83900
 11
403.71744
 21
100.73701
  0
LINE
  8
3
 10
405.92743
 20
94.83900
 11
403.71744
 21
94.83900
  0
LINE
  8
3
 10
405.92743
 20
99.18800
 11
405.92743
 21
94.83900
  0
ARC
  8
3
 10
408.19858
 20
86.59302
 40
12.79750
 50
93.36931
 51
100.22183
  0
ARC
  8
3
 10
407.86316
 20
92.27304
 40
7.10750
 50
82.11385
 51
93.36115
  0
ARC
  8
3
 10
408.01422
 20
93.36332
 40
6.00750
 50
68.74100
 51
82.11423
  0
ARC
  8
3
 10
409.16376
 20
96.31577
 40
2.84000
 50
40.90876
 51
68.75710
  0
ARC
  8
3
 10
408.82269
 20
96.02054
 40
3.29000
 50
23.12996
 51
40.90487
  0
ARC
  8
3
 10
409.53531
 20
96.32551
 40
2.51500
 50
.01912
 51
23.11796
  0
ARC
  8
3
 10
408.31964
 20
96.32719
 40
3.73000
 50
-10.11472
 51
.00000
  0
ARC
  8
3
 10
409.12039
 20
96.18292
 40
2.91750
 50
337.04031
 51
349.91281
  0
ARC
  8
3
 10
409.03046
 20
96.22104
 40
3.01500
 50
310.60034
 51
337.04004
  0
ARC
  8
3
 10
408.27316
 20
97.10389
 40
4.17750
 50
274.35504
 51
310.60651
  0
LINE
  8
3
 10
403.71744
 20
92.93800
 11
408.59042
 21
92.93800
  0
LINE
  8
3
 10
403.71744
 20
83.84500
 11
403.71744
 21
92.93800
  0
LINE
  8
3
 10
405.92743
 20
83.84500
 11
403.71744
 21
83.84500
  0
LINE
  8
3
 10
405.92743
 20
91.26100
 11
405.92743
 21
83.84500
  0
LINE
  8
3
 10
408.01144
 20
91.26099
 11
405.92743
 21
91.26100
  0
ARC
  8
3
 10
408.09717
 20
88.17509
 40
3.08750
 50
48.15968
 51
91.59122
  0
ARC
  8
3
 10
407.80841
 20
87.85202
 40
3.52000
 50
27.80216
 51
48.16583
  0
ARC
  8
3
 10
406.48938
 20
87.15859
 40
5.01000
 50
18.04868
 51
27.78110
  0
ARC
  8
3
 10
403.46680
 20
86.16723
 40
8.19250
 50
12.13329
 51
18.09142
  0
LINE
  8
3
 10
411.88943
 20
86.01801
 11
411.47540
 21
87.88899
  0
ARC
  8
3
 10
424.91040
 20
88.97924
 40
13.35250
 50
192.81233
 51
202.61195
  0
LINE
  8
3
 10
414.86942
 20
83.84499
 11
412.58344
 21
83.84500
  0
ARC
  8
3
 10
434.65451
 20
91.56301
 40
21.23750
 50
193.67567
 51
201.31038
  0
LINE
  8
3
 10
413.53143
 20
88.61900
 11
414.01944
 21
86.54200
  0
ARC
  8
3
 10
406.96817
 20
87.12755
 40
6.73000
 50
12.80264
 51
29.21823
  0
ARC
  8
3
 10
409.51880
 20
88.55360
 40
3.80750
 50
29.22490
 51
66.12148
  0
ARC
  8
3
 10
408.87250
 20
97.36908
 40
5.76500
 50
292.30618
 51
306.76172
  0
ARC
  8
3
 10
409.41977
 20
96.63523
 40
4.85000
 50
306.77075
 51
333.13477
  0
ARC
  8
3
 10
409.50476
 20
96.59427
 40
4.75500
 50
333.11227
 51
359.99008
  0
ARC
  8
3
 10
409.76651
 20
96.59261
 40
4.49250
 50
.00000
 51
23.73438
  0
ARC
  8
3
 10
410.52908
 20
96.92719
 40
3.66000
 50
23.74459
 51
52.65451
  0
ARC
  8
3
 10
409.93921
 20
96.16039
 40
4.62750
 50
52.60759
 51
64.87019
  0
ARC
  8
3
 10
409.08249
 20
94.33318
 40
6.64500
 50
64.87308
 51
73.43303
  0
ARC
  8
3
 10
408.67191
 20
92.93781
 40
8.10000
 50
73.46367
 51
82.79085
  0
ARC
  8
3
 10
407.64493
 20
84.75706
 40
16.34500
 50
82.81804
 51
87.44556
  0
ARC
  8
3
 10
407.70215
 20
187.46703
 40
18.71000
 50
87.41077
 51
94.35770
  0
ARC
  8
3
 10
407.95917
 20
184.10764
 40
22.08000
 50
94.36035
 51
100.61589
  0
LINE
  8
3
 10
403.89145
 20
205.81000
 11
403.89142
 21
199.91200
  0
LINE
  8
3
 10
403.89142
 20
199.91200
 11
406.10144
 21
199.91200
  0
LINE
  8
3
 10
406.10144
 20
199.91200
 11
406.10144
 21
204.26100
  0
ARC
  8
3
 10
408.37265
 20
191.66603
 40
12.79750
 50
93.36958
 51
100.22211
  0
ARC
  8
3
 10
408.03711
 20
197.34604
 40
7.10750
 50
82.11336
 51
93.36064
  0
ARC
  8
3
 10
408.18820
 20
198.43633
 40
6.00750
 50
68.74071
 51
82.11395
  0
ARC
  8
3
 10
409.33777
 20
201.38876
 40
2.84000
 50
40.90911
 51
68.75714
  0
ARC
  8
3
 10
408.99667
 20
201.09355
 40
3.29000
 50
23.12951
 51
40.90452
  0
ARC
  8
3
 10
409.70932
 20
201.39851
 40
2.51500
 50
.01912
 51
23.11780
  0
ARC
  8
3
 10
408.49365
 20
201.40019
 40
3.73000
 50
-10.11472
 51
.00000
  0
ARC
  8
3
 10
409.29440
 20
201.25595
 40
2.91750
 50
337.04004
 51
349.91223
  0
ARC
  8
3
 10
409.20447
 20
201.29405
 40
3.01500
 50
310.60034
 51
337.04004
  0
ARC
  8
3
 10
408.44717
 20
202.17690
 40
4.17750
 50
274.35504
 51
310.60657
  0
LINE
  8
3
 10
408.76443
 20
198.01100
 11
403.89142
 21
198.01100
  0
LINE
  8
3
 10
403.89142
 20
198.01100
 11
403.89142
 21
188.91800
  0
LINE
  8
3
 10
403.89142
 20
188.91800
 11
406.10144
 21
188.91800
  0
LINE
  8
3
 10
406.10144
 20
188.91800
 11
406.10144
 21
196.33400
  0
LINE
  8
3
 10
406.10144
 20
196.33400
 11
408.18542
 21
196.33400
  0
ARC
  8
3
 10
408.27118
 20
193.24808
 40
3.08750
 50
48.15997
 51
91.59178
  0
ARC
  8
3
 10
407.98239
 20
192.92506
 40
3.52000
 50
27.80105
 51
48.16513
  0
ARC
  8
3
 10
406.66339
 20
192.23154
 40
5.01000
 50
18.04926
 51
27.78149
  0
ARC
  8
3
 10
403.64081
 20
191.24022
 40
8.19250
 50
12.13334
 51
18.09147
  0
LINE
  8
3
 10
411.64941
 20
192.96199
 11
412.06345
 21
191.09100
  0
ARC
  8
3
 10
425.08441
 20
194.05225
 40
13.35250
 50
192.81233
 51
202.61195
  0
LINE
  8
3
 10
412.75745
 20
188.91801
 11
415.04343
 21
188.91800
  0
ARC
  8
3
 10
434.82852
 20
196.63602
 40
21.23750
 50
193.67567
 51
201.31038
  0
LINE
  8
3
 10
414.19345
 20
191.61501
 11
413.70544
 21
193.69200
  0
ARC
  8
3
 10
407.14218
 20
192.20053
 40
6.73000
 50
12.80277
 51
29.21829
  0
ARC
  8
3
 10
409.69278
 20
193.62659
 40
3.80750
 50
29.22478
 51
66.12119
  0
ARC
  8
3
 10
409.04648
 20
202.44206
 40
5.76500
 50
292.30655
 51
306.76181
  0
ARC
  8
3
 10
409.59378
 20
201.70828
 40
4.85000
 50
306.77008
 51
333.13419
  0
ARC
  8
3
 10
409.67874
 20
201.66721
 40
4.75500
 50
333.11310
 51
359.99081
  0
ARC
  8
3
 10
409.94052
 20
201.66570
 40
4.49250
 50
.00000
 51
23.73340
  0
ARC
  8
3
 10
410.70309
 20
202.00017
 40
3.66000
 50
23.74492
 51
52.65457
  0
ARC
  8
3
 10
410.11316
 20
201.23341
 40
4.62750
 50
52.60670
 51
64.86938
  0
ARC
  8
3
 10
409.25644
 20
199.40619
 40
6.64500
 50
64.87254
 51
73.43251
  0
ARC
  8
3
 10
408.84592
 20
198.01082
 40
8.10000
 50
73.46365
 51
82.79085
  0
ARC
  8
3
 10
407.81894
 20
189.83005
 40
16.34500
 50
82.81805
 51
87.44556
  0
ARC
  8
3
 10
411.39905
 20
371.56329
 40
9.85250
 50
90.01224
 51
113.59805
  0
ARC
  8
3
 10
410.89871
 20
372.70618
 40
8.60500
 50
113.59154
 51
140.48547
  0
ARC
  8
3
 10
410.89328
 20
372.71069
 40
8.60000
 50
140.48566
 51
162.18860
  0
ARC
  8
3
 10
412.72208
 20
372.12061
 40
10.52000
 50
162.17551
 51
180.00000
  0
ARC
  8
3
 10
408.57407
 20
372.12537
 40
6.37250
 50
180.02141
 51
196.16696
  0
ARC
  8
3
 10
415.55307
 20
374.14163
 40
13.63750
 50
196.13889
 51
203.72406
  0
ARC
  8
3
 10
422.47574
 20
377.18365
 40
21.19750
 50
203.72336
 51
207.50060
  0
ARC
  8
3
 10
407.45703
 20
369.36554
 40
4.26750
 50
207.50450
 51
226.12003
  0
ARC
  8
3
 10
407.61081
 20
369.52731
 40
4.49000
 50
226.13651
 51
237.32028
  0
LINE
  8
3
 10
405.18643
 20
365.74802
 11
405.94043
 21
365.29700
  0
ARC
  8
3
 10
410.93985
 20
374.29129
 40
10.29000
 50
240.93279
 51
252.54068
  0
ARC
  8
3
 10
411.89163
 20
377.31036
 40
13.45500
 50
252.53163
 51
261.42123
  0
ARC
  8
3
 10
411.47791
 20
374.60403
 40
10.71750
 50
261.45007
 51
278.55008
  0
ARC
  8
3
 10
410.97134
 20
377.98990
 40
14.14250
 50
278.54010
 51
292.03284
  0
LINE
  8
3
 10
416.27643
 20
364.88098
 11
416.27643
 21
373.11099
  0
LINE
  8
3
 10
416.27643
 20
373.11099
 11
410.63544
 21
373.11099
  0
LINE
  8
3
 10
410.63544
 20
373.11099
 11
410.63544
 21
371.33301
  0
LINE
  8
3
 10
410.63544
 20
371.33301
 11
414.09042
 21
371.33301
  0
LINE
  8
3
 10
414.09042
 20
371.33301
 11
414.09045
 21
366.22998
  0
ARC
  8
3
 10
411.51675
 20
373.75287
 40
7.95000
 50
276.56250
 51
288.88663
  0
ARC
  8
3
 10
410.96359
 20
378.52985
 40
12.76000
 50
270.00000
 51
276.57861
  0
ARC
  8
3
 10
410.96713
 20
372.14905
 40
6.38000
 50
241.61380
 51
269.98410
  0
ARC
  8
3
 10
410.78149
 20
371.80594
 40
5.99000
 50
211.45200
 51
241.61569
  0
ARC
  8
3
 10
412.17740
 20
372.66022
 40
7.62500
 50
165.44960
 51
211.45505
  0
ARC
  8
3
 10
411.17627
 20
372.91980
 40
6.59250
 50
113.13620
 51
165.44736
  0
ARC
  8
3
 10
411.36621
 20
372.48145
 40
7.07000
 50
97.31271
 51
113.15588
  0
ARC
  8
3
 10
411.49719
 20
371.41901
 40
8.14000
 50
83.48703
 51
97.27530
  0
ARC
  8
3
 10
411.12952
 20
368.16302
 40
11.41500
 50
69.07121
 51
83.50719
  0
LINE
  8
3
 10
415.20746
 20
378.82602
 11
415.76746
 21
380.62900
  0
ARC
  8
3
 10
411.64853
 20
370.05792
 40
11.34500
 50
68.71207
 51
83.81206
  0
ARC
  8
3
 10
411.39484
 20
367.74789
 40
13.67000
 50
83.79857
 51
89.99988
  0
LINE
  8
3
 10
372.88779
 20
101.03100
 11
370.65280
 21
101.03100
  0
LINE
  8
3
 10
370.65280
 20
101.03100
 11
370.65280
 21
83.90900
  0
LINE
  8
3
 10
370.65280
 20
83.90900
 11
372.88779
 21
83.90900
  0
LINE
  8
3
 10
372.88779
 20
83.90900
 11
372.88779
 21
91.93600
  0
LINE
  8
3
 10
372.88779
 20
91.93600
 11
381.16879
 21
91.93600
  0
LINE
  8
3
 10
381.16879
 20
91.93600
 11
381.16879
 21
83.90900
  0
LINE
  8
3
 10
381.16879
 20
83.90900
 11
383.40579
 21
83.90900
  0
LINE
  8
3
 10
383.40579
 20
83.90900
 11
383.40579
 21
101.03100
  0
LINE
  8
3
 10
383.40579
 20
101.03100
 11
381.16879
 21
101.03100
  0
LINE
  8
3
 10
381.16879
 20
101.03100
 11
381.16879
 21
93.86800
  0
LINE
  8
3
 10
381.16879
 20
93.86800
 11
372.88779
 21
93.86800
  0
LINE
  8
3
 10
372.88779
 20
93.86800
 11
372.88779
 21
101.03100
  0
LINE
  8
3
 10
372.17581
 20
136.05701
 11
372.17581
 21
118.93600
  0
LINE
  8
3
 10
372.17581
 20
118.93600
 11
381.72681
 21
118.93600
  0
LINE
  8
3
 10
381.72681
 20
118.93600
 11
381.72681
 21
120.78900
  0
LINE
  8
3
 10
381.72681
 20
120.78900
 11
374.41080
 21
120.78900
  0
LINE
  8
3
 10
374.41080
 20
120.78900
 11
374.41080
 21
136.05701
  0
LINE
  8
3
 10
374.41080
 20
136.05701
 11
372.17581
 21
136.05701
  0
LINE
  8
3
 10
370.59781
 20
171.08299
 11
372.83279
 21
171.08299
  0
LINE
  8
3
 10
370.59781
 20
153.96100
 11
370.59781
 21
171.08299
  0
LINE
  8
3
 10
372.83279
 20
153.96100
 11
370.59781
 21
153.96100
  0
LINE
  8
3
 10
372.83279
 20
161.98900
 11
372.83279
 21
153.96100
  0
LINE
  8
3
 10
381.11380
 20
161.98900
 11
372.83279
 21
161.98900
  0
LINE
  8
3
 10
381.11380
 20
153.96100
 11
381.11380
 21
161.98900
  0
LINE
  8
3
 10
383.35080
 20
153.96100
 11
381.11380
 21
153.96100
  0
LINE
  8
3
 10
383.35080
 20
171.08299
 11
383.35080
 21
153.96100
  0
LINE
  8
3
 10
381.11380
 20
171.08299
 11
383.35080
 21
171.08299
  0
LINE
  8
3
 10
381.11380
 20
163.91901
 11
381.11380
 21
171.08299
  0
LINE
  8
3
 10
372.83279
 20
163.91901
 11
381.11380
 21
163.91901
  0
LINE
  8
3
 10
372.83279
 20
171.08299
 11
372.83279
 21
163.91901
  0
LINE
  8
3
 10
381.17880
 20
197.01500
 11
381.17880
 21
198.84399
  0
LINE
  8
3
 10
381.17880
 20
198.84399
 11
374.54880
 21
198.84399
  0
LINE
  8
3
 10
374.54880
 20
198.84399
 11
374.54880
 21
204.25400
  0
LINE
  8
3
 10
374.54880
 20
204.25400
 11
381.58481
 21
204.25400
  0
LINE
  8
3
 10
381.58481
 20
204.25400
 11
381.58481
 21
206.10899
  0
LINE
  8
3
 10
381.58481
 20
206.10899
 11
372.31381
 21
206.10899
  0
LINE
  8
3
 10
372.31381
 20
206.10899
 11
372.31381
 21
188.98801
  0
LINE
  8
3
 10
372.31381
 20
188.98801
 11
381.96579
 21
188.98801
  0
LINE
  8
3
 10
381.96579
 20
188.98801
 11
381.96579
 21
190.84200
  0
LINE
  8
3
 10
381.96579
 20
190.84200
 11
374.54880
 21
190.84200
  0
LINE
  8
3
 10
374.54880
 20
190.84200
 11
374.54880
 21
197.01500
  0
LINE
  8
3
 10
374.54880
 20
197.01500
 11
381.17880
 21
197.01500
  0
LINE
  8
3
 10
381.06680
 20
232.04100
 11
381.06680
 21
233.87000
  0
LINE
  8
3
 10
381.06680
 20
233.87000
 11
374.43680
 21
233.87000
  0
LINE
  8
3
 10
374.43680
 20
233.87000
 11
374.43680
 21
239.28101
  0
LINE
  8
3
 10
374.43680
 20
239.28101
 11
381.47281
 21
239.28101
  0
LINE
  8
3
 10
381.47281
 20
239.28101
 11
381.47281
 21
241.13499
  0
LINE
  8
3
 10
381.47281
 20
241.13499
 11
372.20081
 21
241.13499
  0
LINE
  8
3
 10
372.20081
 20
241.13499
 11
372.20081
 21
224.01401
  0
LINE
  8
3
 10
372.20081
 20
224.01401
 11
381.85379
 21
224.01401
  0
LINE
  8
3
 10
381.85379
 20
224.01401
 11
381.85379
 21
225.86900
  0
LINE
  8
3
 10
381.85379
 20
225.86900
 11
374.43680
 21
225.86900
  0
LINE
  8
3
 10
374.43680
 20
225.86900
 11
374.43680
 21
232.04100
  0
LINE
  8
3
 10
374.43680
 20
232.04100
 11
381.06680
 21
232.04100
  0
LINE
  8
3
 10
380.98679
 20
337.11899
 11
380.98679
 21
338.94800
  0
LINE
  8
3
 10
380.98679
 20
338.94800
 11
374.35681
 21
338.94800
  0
LINE
  8
3
 10
374.35681
 20
338.94800
 11
374.35681
 21
344.35999
  0
LINE
  8
3
 10
374.35681
 20
344.35999
 11
381.39182
 21
344.35999
  0
LINE
  8
3
 10
381.39182
 20
344.35999
 11
381.39182
 21
346.21201
  0
LINE
  8
3
 10
381.39182
 20
346.21201
 11
372.12079
 21
346.21201
  0
LINE
  8
3
 10
372.12079
 20
346.21201
 11
372.12079
 21
329.09299
  0
LINE
  8
3
 10
372.12079
 20
329.09299
 11
381.77380
 21
329.09299
  0
LINE
  8
3
 10
381.77380
 20
329.09299
 11
381.77380
 21
330.94699
  0
LINE
  8
3
 10
381.77380
 20
330.94699
 11
374.35681
 21
330.94699
  0
LINE
  8
3
 10
374.35681
 20
330.94699
 11
374.35681
 21
337.11899
  0
LINE
  8
3
 10
374.35681
 20
337.11899
 11
380.98679
 21
337.11899
  0
ARC
  8
3
 10
379.23218
 20
302.96573
 40
8.50250
 50
89.97737
 51
136.64496
  0
ARC
  8
3
 10
379.75577
 20
302.47195
 40
9.22000
 50
136.64760
 51
180.00000
  0
ARC
  8
3
 10
379.59982
 20
302.47195
 40
9.06500
 50
180.00000
 51
222.23209
  0
ARC
  8
3
 10
378.74216
 20
301.69424
 40
7.90750
 50
222.23663
 51
270.00000
  0
ARC
  8
3
 10
378.74362
 20
311.16922
 40
17.38250
 50
269.99750
 51
274.12433
  0
ARC
  8
3
 10
378.89255
 20
309.09100
 40
15.29750
 50
274.12781
 51
278.81433
  0
ARC
  8
3
 10
378.13132
 20
314.08643
 40
20.35250
 50
278.77710
 51
281.95428
  0
ARC
  8
3
 10
381.47189
 20
298.29605
 40
4.21250
 50
281.98895
 51
298.62610
  0
LINE
  8
3
 10
383.48978
 20
294.59900
 11
383.05780
 21
296.37701
  0
ARC
  8
3
 10
379.16046
 20
306.59995
 40
10.94000
 50
278.55396
 51
290.86859
  0
ARC
  8
3
 10
379.24826
 20
306.02924
 40
10.36250
 50
270.00000
 51
278.54327
  0
ARC
  8
3
 10
379.24713
 20
301.99792
 40
6.33250
 50
245.52435
 51
270.00497
  0
ARC
  8
3
 10
379.13849
 20
301.76025
 40
6.07000
 50
220.03873
 51
245.52823
  0
ARC
  8
3
 10
379.54214
 20
302.10019
 40
6.59750
 50
198.05667
 51
220.04379
  0
ARC
  8
3
 10
380.94507
 20
302.55551
 40
8.07250
 50
180.00000
 51
198.04285
  0
ARC
  8
3
 10
379.91760
 20
302.55688
 40
7.04500
 50
64.23061
 51
180.00496
  0
LINE
  8
3
 10
382.98077
 20
308.90201
 11
383.54080
 21
310.70602
  0
ARC
  8
3
 10
381.56702
 20
306.99026
 40
4.20750
 50
62.02307
 51
76.07141
  0
ARC
  8
3
 10
379.24380
 20
297.60284
 40
13.87750
 50
76.09109
 51
80.04576
  0
ARC
  8
3
 10
379.52579
 20
299.21063
 40
12.24500
 50
80.04488
 51
85.70538
  0
ARC
  8
3
 10
379.23849
 20
295.33408
 40
16.13250
 50
85.71892
 51
90.00000
  0
CIRCLE
  8
3
 10
348.04315
 20
138.92101
 40
1.27500
  0
CIRCLE
  8
3
 10
343.34818
 20
138.92101
 40
1.27750
  0
LINE
  8
3
 10
350.81216
 20
134.48399
 11
349.59515
 21
132.64001
  0
ARC
  8
3
 10
340.39810
 20
127.22718
 40
10.67250
 50
10.61508
 51
30.47852
  0
ARC
  8
3
 10
344.33902
 20
127.96576
 40
6.66250
 50
-.00235
 51
10.61522
  0
ARC
  8
3
 10
342.09628
 20
127.96523
 40
8.90500
 50
-6.07376
 51
.00005
  0
ARC
  8
3
 10
337.26608
 20
128.48103
 40
13.76250
 50
349.99078
 51
353.91858
  0
ARC
  8
3
 10
343.42166
 20
127.39185
 40
7.51250
 50
321.45190
 51
350.01154
  0
ARC
  8
3
 10
344.93384
 20
126.18781
 40
5.57750
 50
283.60645
 51
321.44501
  0
ARC
  8
3
 10
345.31116
 20
124.63603
 40
3.98250
 50
257.30426
 51
283.58237
  0
ARC
  8
3
 10
345.26007
 20
124.41805
 40
3.75750
 50
222.53146
 51
257.33374
  0
LINE
  8
3
 10
342.49115
 20
121.87801
 11
341.37115
 21
120.18200
  0
ARC
  8
3
 10
346.24457
 20
127.99618
 40
9.21000
 50
238.04974
 51
258.52313
  0
ARC
  8
3
 10
345.40353
 20
123.84896
 40
4.97750
 50
258.51205
 51
267.78537
  0
ARC
  8
3
 10
345.39966
 20
123.77894
 40
4.90750
 50
267.79901
 51
277.19318
  0
ARC
  8
3
 10
344.98398
 20
127.06345
 40
8.21750
 50
277.20111
 51
291.23169
  0
ARC
  8
3
 10
344.76926
 20
127.62108
 40
8.81500
 50
291.22006
 51
304.30762
  0
ARC
  8
3
 10
345.72189
 20
126.22578
 40
7.12750
 50
304.30392
 51
326.35056
  0
ARC
  8
3
 10
343.63766
 20
127.61098
 40
9.63000
 50
326.36118
 51
342.76483
  0
ARC
  8
3
 10
341.39633
 20
128.31253
 40
11.97750
 50
342.73636
 51
350.37543
  0
ARC
  8
3
 10
343.81693
 20
127.89585
 40
9.52000
 50
-9.58774
 51
.01593
  0
ARC
  8
3
 10
344.16592
 20
127.90098
 40
9.17250
 50
.00000
 51
9.08328
  0
ARC
  8
3
 10
342.32639
 20
127.60764
 40
11.03500
 50
9.07942
 51
16.64222
  0
ARC
  8
3
 10
344.79156
 20
128.34097
 40
8.46250
 50
16.66521
 51
25.42184
  0
ARC
  8
3
 10
357.34796
 20
134.30864
 40
5.44000
 50
196.73955
 51
205.41789
  0
ARC
  8
3
 10
343.77582
 20
128.64171
 40
9.31500
 50
26.11733
 51
34.56388
  0
ARC
  8
3
 10
349.88116
 20
132.78700
 40
1.93500
 50
36.04673
 51
61.25003
  0
ARC
  8
3
 10
346.29562
 20
130.92125
 40
5.73500
 50
54.48311
 51
75.36900
  0
ARC
  8
3
 10
345.59195
 20
128.22202
 40
8.52500
 50
75.37540
 51
85.42308
  0
ARC
  8
3
 10
345.79526
 20
130.74100
 40
5.99750
 50
85.43886
 51
93.13622
  0
ARC
  8
3
 10
345.74536
 20
131.57863
 40
5.15750
 50
93.09183
 51
102.04337
  0
ARC
  8
3
 10
347.70215
 20
122.47476
 40
14.47000
 50
102.09950
 51
105.96954
  0
ARC
  8
3
 10
345.47491
 20
130.24834
 40
6.38250
 50
105.94652
 51
114.71367
  0
ARC
  8
3
 10
346.30066
 20
128.44672
 40
8.36500
 50
114.69238
 51
123.19225
  0
ARC
  8
3
 10
346.11438
 20
128.73250
 40
8.02500
 50
123.19629
 51
132.05865
  0
ARC
  8
3
 10
346.06314
 20
128.79326
 40
7.94500
 50
132.07784
 51
150.93291
  0
ARC
  8
3
 10
347.48776
 20
128.00137
 40
9.57500
 50
150.93280
 51
166.61987
  0
ARC
  8
3
 10
351.99176
 20
126.91969
 40
14.20750
 50
166.57936
 51
171.86505
  0
ARC
  8
3
 10
347.09952
 20
127.62782
 40
9.26250
 50
171.91902
 51
180.02350
  0
ARC
  8
3
 10
346.03644
 20
127.62019
 40
8.20000
 50
180.00000
 51
190.44897
  0
ARC
  8
3
 10
348.99948
 20
128.17477
 40
11.21500
 50
190.48988
 51
198.15712
  0
ARC
  8
3
 10
348.85501
 20
128.12532
 40
11.06250
 50
198.14691
 51
217.95947
  0
LINE
  8
3
 10
341.43317
 20
123.27500
 11
340.13318
 21
121.32101
  0
ARC
  8
3
 10
350.79022
 20
128.40196
 40
10.67000
 50
188.72752
 51
208.71942
  0
ARC
  8
3
 10
347.40817
 20
127.88206
 40
7.24750
 50
171.54286
 51
188.72198
  0
ARC
  8
3
 10
349.92249
 20
127.51034
 40
9.79000
 50
158.79024
 51
171.55511
  0
ARC
  8
3
 10
347.88419
 20
128.30093
 40
7.60250
 50
143.83209
 51
158.78737
  0
ARC
  8
3
 10
346.13562
 20
129.57845
 40
5.43750
 50
123.03616
 51
143.82578
  0
ARC
  8
3
 10
346.41220
 20
129.15401
 40
5.94500
 50
111.17351
 51
123.04073
  0
ARC
  8
3
 10
345.75455
 20
130.85112
 40
4.12500
 50
48.00018
 51
111.16975
  0
LINE
  8
3
 10
349.62717
 20
135.58899
 11
348.51416
 21
133.91600
  0
ARC
  8
3
 10
347.90256
 20
162.86172
 40
8.50250
 50
89.97820
 51
136.64496
  0
ARC
  8
3
 10
348.42615
 20
162.36795
 40
9.22000
 50
136.64760
 51
180.00000
  0
ARC
  8
3
 10
348.27023
 20
162.36790
 40
9.06500
 50
180.00009
 51
222.23175
  0
ARC
  8
3
 10
347.41248
 20
161.59029
 40
7.90750
 50
222.23720
 51
270.00000
  0
ARC
  8
3
 10
347.41422
 20
171.06522
 40
17.38250
 50
269.99707
 51
274.12366
  0
ARC
  8
3
 10
347.56268
 20
168.98698
 40
15.29750
 50
274.12872
 51
278.81516
  0
ARC
  8
3
 10
346.80258
 20
173.98256
 40
20.35250
 50
278.77454
 51
281.95175
  0
ARC
  8
3
 10
350.14212
 20
158.19199
 40
4.21250
 50
281.99109
 51
298.62842
  0
LINE
  8
3
 10
352.16016
 20
154.49501
 11
351.72818
 21
156.27299
  0
ARC
  8
3
 10
347.83090
 20
166.49596
 40
10.94000
 50
278.55365
 51
290.86823
  0
ARC
  8
3
 10
347.91864
 20
165.92525
 40
10.36250
 50
270.00000
 51
278.54324
  0
ARC
  8
3
 10
347.91745
 20
161.89392
 40
6.33250
 50
245.52496
 51
270.00525
  0
ARC
  8
3
 10
347.80887
 20
161.65620
 40
6.07000
 50
220.03850
 51
245.52817
  0
ARC
  8
3
 10
348.21249
 20
161.99622
 40
6.59750
 50
198.05693
 51
220.04427
  0
ARC
  8
3
 10
349.61542
 20
162.45142
 40
8.07250
 50
180.00000
 51
198.04222
  0
ARC
  8
3
 10
348.58798
 20
162.45290
 40
7.04500
 50
64.23056
 51
180.00558
  0
LINE
  8
3
 10
351.65115
 20
168.79800
 11
352.21118
 21
170.60201
  0
ARC
  8
3
 10
350.23737
 20
166.88628
 40
4.20750
 50
62.02251
 51
76.07095
  0
ARC
  8
3
 10
347.91418
 20
157.49883
 40
13.87750
 50
76.09111
 51
80.04578
  0
ARC
  8
3
 10
348.19604
 20
159.10664
 40
12.24500
 50
80.04431
 51
85.70496
  0
ARC
  8
3
 10
347.90906
 20
155.23004
 40
16.13250
 50
85.71968
 51
90.00000
  0
LINE
  8
3
 10
346.95215
 20
206.10899
 11
346.95215
 21
188.98801
  0
LINE
  8
3
 10
344.71616
 20
206.10899
 11
346.95215
 21
206.10899
  0
LINE
  8
3
 10
344.71616
 20
188.98801
 11
344.71616
 21
206.10899
  0
LINE
  8
3
 10
346.95215
 20
188.98801
 11
344.71616
 21
188.98801
  0
LINE
  8
3
 10
344.52917
 20
344.33301
 11
344.52917
 21
329.09299
  0
LINE
  8
3
 10
344.52917
 20
329.09299
 11
346.76416
 21
329.09299
  0
LINE
  8
3
 10
346.76416
 20
329.09299
 11
346.76416
 21
344.33301
  0
LINE
  8
3
 10
346.76416
 20
344.33301
 11
351.99817
 21
344.33301
  0
LINE
  8
3
 10
351.99817
 20
344.33301
 11
351.99817
 21
346.21201
  0
LINE
  8
3
 10
351.99817
 20
346.21201
 11
339.32117
 21
346.21201
  0
LINE
  8
3
 10
339.32117
 20
346.21201
 11
339.32117
 21
344.33301
  0
LINE
  8
3
 10
339.32117
 20
344.33301
 11
344.52917
 21
344.33301
  0
LINE
  8
3
 10
341.71515
 20
416.64099
 11
339.48117
 21
416.64099
  0
LINE
  8
3
 10
339.48117
 20
416.64099
 11
339.48218
 21
406.99271
  0
ARC
  8
3
 10
315.60397
 20
406.99280
 40
23.87750
 50
-1.28577
 51
.00000
  0
ARC
  8
3
 10
344.78308
 20
406.34399
 40
5.30750
 50
178.78012
 51
183.55360
  0
ARC
  8
3
 10
350.72260
 20
406.78525
 40
11.26500
 50
183.92117
 51
189.80017
  0
ARC
  8
3
 10
350.94031
 20
406.82367
 40
11.48500
 50
189.80417
 51
195.21779
  0
ARC
  8
3
 10
346.61017
 20
405.64795
 40
6.99750
 50
195.23514
 51
216.46362
  0
ARC
  8
3
 10
345.32373
 20
404.69833
 40
5.40000
 50
216.47244
 51
243.77777
  0
ARC
  8
3
 10
345.51205
 20
405.08005
 40
5.82500
 50
243.77501
 51
257.47784
  0
ARC
  8
3
 10
345.63385
 20
405.62589
 40
6.38500
 50
257.47290
 51
269.99152
  0
ARC
  8
3
 10
345.63196
 20
405.91788
 40
6.67500
 50
270.00000
 51
282.60806
  0
ARC
  8
3
 10
345.70969
 20
405.58020
 40
6.33000
 50
282.58865
 51
295.86774
  0
ARC
  8
3
 10
345.94614
 20
405.08719
 40
5.78250
 50
295.89093
 51
322.14987
  0
ARC
  8
3
 10
345.01382
 20
405.81619
 40
6.96500
 50
322.12051
 51
344.03375
  0
ARC
  8
3
 10
341.10748
 20
406.93222
 40
11.02750
 50
344.04178
 51
349.66168
  0
ARC
  8
3
 10
341.47076
 20
406.86328
 40
10.66000
 50
349.67578
 51
355.80463
  0
LINE
  8
3
 10
352.10117
 20
406.08350
 11
352.10516
 21
416.64099
  0
LINE
  8
3
 10
352.10516
 20
416.64099
 11
349.87015
 21
416.64099
  0
LINE
  8
3
 10
349.87015
 20
416.64099
 11
349.86917
 21
406.13699
  0
ARC
  8
3
 10
344.30609
 20
406.28683
 40
5.56500
 50
351.16409
 51
358.45712
  0
ARC
  8
3
 10
334.00449
 20
407.87885
 40
15.99000
 50
348.65668
 51
351.19730
  0
ARC
  8
3
 10
343.82800
 20
405.91248
 40
5.97000
 50
330.47345
 51
348.61633
  0
ARC
  8
3
 10
345.73825
 20
404.83310
 40
3.77750
 50
302.10178
 51
330.43970
  0
ARC
  8
3
 10
345.70740
 20
404.87430
 40
3.82750
 50
279.68167
 51
302.16528
  0
ARC
  8
3
 10
345.70859
 20
404.88797
 40
3.84000
 50
257.22339
 51
279.62988
  0
ARC
  8
3
 10
345.63959
 20
404.58878
 40
3.53500
 50
228.91652
 51
257.24161
  0
ARC
  8
3
 10
345.91327
 20
404.90524
 40
3.95250
 50
203.51918
 51
228.94089
  0
ARC
  8
3
 10
347.62964
 20
405.64847
 40
5.82250
 50
192.33058
 51
203.48529
  0
ARC
  8
3
 10
351.20413
 20
406.43277
 40
9.48250
 50
185.48131
 51
192.34792
  0
ARC
  8
3
 10
361.66898
 20
407.43839
 40
19.99500
 50
184.38667
 51
185.48534
  0
ARC
  8
3
 10
347.77884
 20
406.39548
 40
6.06500
 50
181.64810
 51
184.59979
  0
LINE
  8
3
 10
341.71515
 20
406.22101
 11
341.71515
 21
416.64099
  0
CIRCLE
  8
3
 10
348.20615
 20
419.13000
 40
1.27250
  0
CIRCLE
  8
3
 10
343.48517
 20
419.13101
 40
1.27500
  0
LINE
  8
3
 10
339.45215
 20
101.17000
 11
341.68616
 21
101.17000
  0
LINE
  8
3
 10
339.45319
 20
91.52170
 11
339.45215
 21
101.17000
  0
ARC
  8
3
 10
315.57498
 20
91.52180
 40
23.87750
 50
-1.28577
 51
.00000
  0
ARC
  8
3
 10
344.75409
 20
90.87300
 40
5.30750
 50
178.78020
 51
183.55353
  0
ARC
  8
3
 10
350.69360
 20
91.31422
 40
11.26500
 50
183.92099
 51
189.80008
  0
ARC
  8
3
 10
350.91132
 20
91.35262
 40
11.48500
 50
189.80399
 51
195.21768
  0
ARC
  8
3
 10
346.58112
 20
90.17697
 40
6.99750
 50
195.23563
 51
216.46402
  0
ARC
  8
3
 10
345.29471
 20
89.22736
 40
5.40000
 50
216.47284
 51
243.77811
  0
ARC
  8
3
 10
345.48306
 20
89.60906
 40
5.82500
 50
243.77498
 51
257.47781
  0
ARC
  8
3
 10
345.60498
 20
90.15487
 40
6.38500
 50
257.47174
 51
269.99341
  0
ARC
  8
3
 10
345.60291
 20
90.44688
 40
6.67500
 50
270.00000
 51
282.60858
  0
ARC
  8
3
 10
345.68073
 20
90.10921
 40
6.33000
 50
282.58838
 51
295.86743
  0
ARC
  8
3
 10
345.91708
 20
89.61615
 40
5.78250
 50
295.89166
 51
322.15042
  0
ARC
  8
3
 10
344.98480
 20
90.34524
 40
6.96500
 50
322.12024
 51
344.03320
  0
ARC
  8
3
 10
341.07855
 20
91.46143
 40
11.02750
 50
344.04047
 51
349.66055
  0
ARC
  8
3
 10
341.44177
 20
91.39227
 40
10.66000
 50
349.67587
 51
355.80475
  0
LINE
  8
3
 10
352.07617
 20
101.17000
 11
352.07217
 21
90.61252
  0
LINE
  8
3
 10
349.84116
 20
101.17000
 11
352.07617
 21
101.17000
  0
LINE
  8
3
 10
349.84018
 20
90.66600
 11
349.84116
 21
101.17000
  0
ARC
  8
3
 10
344.27710
 20
90.81581
 40
5.56500
 50
351.16425
 51
358.45743
  0
ARC
  8
3
 10
333.97549
 20
92.40784
 40
15.99000
 50
348.65668
 51
351.19730
  0
ARC
  8
3
 10
343.79904
 20
90.44165
 40
5.97000
 50
330.47162
 51
348.61453
  0
ARC
  8
3
 10
345.70914
 20
89.36205
 40
3.77750
 50
302.10370
 51
330.44095
  0
ARC
  8
3
 10
345.67834
 20
89.40330
 40
3.82750
 50
279.68256
 51
302.16611
  0
ARC
  8
3
 10
345.67966
 20
89.41697
 40
3.84000
 50
257.22247
 51
279.62894
  0
ARC
  8
3
 10
345.61057
 20
89.11778
 40
3.53500
 50
228.91635
 51
257.24210
  0
ARC
  8
3
 10
345.88422
 20
89.43429
 40
3.95250
 50
203.52008
 51
228.94144
  0
ARC
  8
3
 10
347.60062
 20
90.17743
 40
5.82250
 50
192.33014
 51
203.48502
  0
ARC
  8
3
 10
351.17511
 20
90.96178
 40
9.48250
 50
185.48145
 51
192.34796
  0
ARC
  8
3
 10
361.64011
 20
91.96578
 40
19.99500
 50
184.38210
 51
185.48074
  0
ARC
  8
3
 10
347.74985
 20
90.92447
 40
6.06500
 50
181.64810
 51
184.59979
  0
LINE
  8
3
 10
341.68616
 20
101.17000
 11
341.68616
 21
90.75000
  0
LINE
  8
3
 10
341.69717
 20
276.53699
 11
339.46317
 21
276.53699
  0
LINE
  8
3
 10
339.46317
 20
276.53699
 11
339.46417
 21
266.88870
  0
ARC
  8
3
 10
315.58597
 20
266.88879
 40
23.87750
 50
-1.28577
 51
.00000
  0
ARC
  8
3
 10
344.76508
 20
266.24002
 40
5.30750
 50
178.78044
 51
183.55360
  0
ARC
  8
3
 10
350.70459
 20
266.68124
 40
11.26500
 50
183.92102
 51
189.80017
  0
ARC
  8
3
 10
350.92230
 20
266.71967
 40
11.48500
 50
189.80417
 51
195.21779
  0
ARC
  8
3
 10
346.59216
 20
265.54395
 40
6.99750
 50
195.23514
 51
216.46362
  0
ARC
  8
3
 10
345.30566
 20
264.59439
 40
5.40000
 50
216.47336
 51
243.77850
  0
ARC
  8
3
 10
345.49405
 20
264.97607
 40
5.82500
 50
243.77501
 51
257.47784
  0
ARC
  8
3
 10
345.61597
 20
265.52188
 40
6.38500
 50
257.47174
 51
269.99042
  0
ARC
  8
3
 10
345.61383
 20
265.81390
 40
6.67500
 50
270.00000
 51
282.60910
  0
ARC
  8
3
 10
345.69180
 20
265.47623
 40
6.33000
 50
282.58759
 51
295.86664
  0
ARC
  8
3
 10
345.92813
 20
264.98318
 40
5.78250
 50
295.89093
 51
322.14987
  0
ARC
  8
3
 10
344.99582
 20
265.71219
 40
6.96500
 50
322.12051
 51
344.03375
  0
ARC
  8
3
 10
341.08948
 20
266.82822
 40
11.02750
 50
344.04178
 51
349.66168
  0
ARC
  8
3
 10
341.45276
 20
266.75928
 40
10.66000
 50
349.67578
 51
355.80463
  0
LINE
  8
3
 10
352.08316
 20
265.97949
 11
352.08716
 21
276.53699
  0
LINE
  8
3
 10
352.08716
 20
276.53699
 11
349.85217
 21
276.53699
  0
LINE
  8
3
 10
349.85217
 20
276.53699
 11
349.85117
 21
266.03299
  0
ARC
  8
3
 10
344.28809
 20
266.18283
 40
5.56500
 50
351.16409
 51
358.45712
  0
ARC
  8
3
 10
333.98648
 20
267.77484
 40
15.99000
 50
348.65668
 51
351.19730
  0
ARC
  8
3
 10
343.81000
 20
265.80847
 40
5.97000
 50
330.47345
 51
348.61633
  0
ARC
  8
3
 10
345.72025
 20
264.72910
 40
3.77750
 50
302.10178
 51
330.43970
  0
ARC
  8
3
 10
345.68936
 20
264.77029
 40
3.82750
 50
279.68259
 51
302.16565
  0
ARC
  8
3
 10
345.69061
 20
264.78397
 40
3.84000
 50
257.22339
 51
279.62988
  0
ARC
  8
3
 10
345.62158
 20
264.48477
 40
3.53500
 50
228.91652
 51
257.24210
  0
ARC
  8
3
 10
345.89526
 20
264.80124
 40
3.95250
 50
203.51918
 51
228.94089
  0
ARC
  8
3
 10
347.61163
 20
265.54446
 40
5.82250
 50
192.33058
 51
203.48529
  0
ARC
  8
3
 10
351.18613
 20
266.32877
 40
9.48250
 50
185.48131
 51
192.34792
  0
ARC
  8
3
 10
361.65097
 20
267.33438
 40
19.99500
 50
184.38667
 51
185.48534
  0
ARC
  8
3
 10
347.76083
 20
266.29147
 40
6.06500
 50
181.64810
 51
184.59979
  0
LINE
  8
3
 10
341.69714
 20
266.11700
 11
341.69717
 21
276.53699
  0
CIRCLE
  8
3
 10
348.18817
 20
279.02600
 40
1.27250
  0
CIRCLE
  8
3
 10
343.46716
 20
279.02701
 40
1.27500
  0
LINE
  8
3
 10
307.26096
 20
225.30901
 11
307.26096
 21
224.01401
  0
LINE
  8
3
 10
307.26096
 20
224.01401
 11
319.75897
 21
224.01401
  0
LINE
  8
3
 10
319.75897
 20
224.01401
 11
319.75897
 21
225.86900
  0
LINE
  8
3
 10
319.75897
 20
225.86900
 11
310.18295
 21
225.86900
  0
LINE
  8
3
 10
310.18295
 20
225.86900
 11
319.63196
 21
239.78799
  0
LINE
  8
3
 10
319.63196
 20
239.78799
 11
319.63196
 21
241.13499
  0
LINE
  8
3
 10
319.63196
 20
241.13499
 11
308.07397
 21
241.13499
  0
LINE
  8
3
 10
308.07397
 20
241.13499
 11
308.07397
 21
239.28101
  0
LINE
  8
3
 10
308.07397
 20
239.28101
 11
316.73697
 21
239.28101
  0
LINE
  8
3
 10
316.73697
 20
239.28101
 11
307.26096
 21
225.30901
  0
LINE
  8
3
 10
308.91397
 20
276.16199
 11
308.91397
 21
259.03900
  0
LINE
  8
3
 10
308.91397
 20
259.03900
 11
311.14996
 21
259.03900
  0
LINE
  8
3
 10
311.14996
 20
259.03900
 11
311.14996
 21
266.78900
  0
LINE
  8
3
 10
311.14996
 20
266.78900
 11
317.60196
 21
266.78900
  0
LINE
  8
3
 10
317.60196
 20
266.78900
 11
317.60196
 21
268.61801
  0
LINE
  8
3
 10
317.60196
 20
268.61801
 11
311.14996
 21
268.61801
  0
LINE
  8
3
 10
311.14996
 20
268.61801
 11
311.14996
 21
274.30701
  0
LINE
  8
3
 10
311.14996
 20
274.30701
 11
318.13596
 21
274.30701
  0
LINE
  8
3
 10
318.13596
 20
274.30701
 11
318.13596
 21
276.16199
  0
LINE
  8
3
 10
318.13596
 20
276.16199
 11
308.91397
 21
276.16199
  0
ARC
  8
3
 10
311.63382
 20
327.57501
 40
18.71000
 50
87.41115
 51
94.35808
  0
ARC
  8
3
 10
311.89053
 20
324.21561
 40
22.08000
 50
94.35986
 51
100.61549
  0
LINE
  8
3
 10
307.82297
 20
345.91800
 11
307.82297
 21
340.01999
  0
LINE
  8
3
 10
307.82297
 20
340.01999
 11
310.03296
 21
340.01999
  0
LINE
  8
3
 10
310.03296
 20
340.01999
 11
310.03296
 21
344.36902
  0
ARC
  8
3
 10
312.30405
 20
331.77402
 40
12.79750
 50
93.36903
 51
100.22154
  0
ARC
  8
3
 10
311.96857
 20
337.45404
 40
7.10750
 50
82.11285
 51
93.36015
  0
ARC
  8
3
 10
312.11978
 20
338.54434
 40
6.00750
 50
68.74120
 51
82.11449
  0
ARC
  8
3
 10
313.26926
 20
341.49680
 40
2.84000
 50
40.90778
 51
68.75635
  0
ARC
  8
3
 10
312.92825
 20
341.20151
 40
3.29000
 50
23.13090
 51
40.90541
  0
ARC
  8
3
 10
313.64084
 20
341.50653
 40
2.51500
 50
.01669
 51
23.11780
  0
ARC
  8
3
 10
312.42520
 20
341.50821
 40
3.73000
 50
349.88544
 51
359.99765
  0
ARC
  8
3
 10
313.22592
 20
341.36392
 40
2.91750
 50
337.04059
 51
349.91342
  0
ARC
  8
3
 10
313.13596
 20
341.40201
 40
3.01500
 50
310.60098
 51
337.04108
  0
ARC
  8
3
 10
312.37869
 20
342.28488
 40
4.17750
 50
274.35504
 51
310.60641
  0
LINE
  8
3
 10
312.69595
 20
338.11899
 11
307.82297
 21
338.11899
  0
LINE
  8
3
 10
307.82297
 20
338.11899
 11
307.82297
 21
329.02600
  0
LINE
  8
3
 10
307.82297
 20
329.02600
 11
310.03296
 21
329.02600
  0
LINE
  8
3
 10
310.03296
 20
329.02600
 11
310.03296
 21
336.44199
  0
LINE
  8
3
 10
310.03296
 20
336.44199
 11
312.11697
 21
336.44199
  0
ARC
  8
3
 10
312.20270
 20
333.35608
 40
3.08750
 50
48.15997
 51
91.59122
  0
ARC
  8
3
 10
311.91391
 20
333.03305
 40
3.52000
 50
27.80127
 51
48.16530
  0
ARC
  8
3
 10
310.59491
 20
332.33954
 40
5.01000
 50
18.04926
 51
27.78149
  0
ARC
  8
3
 10
307.57233
 20
331.34821
 40
8.19250
 50
12.13355
 51
18.09157
  0
LINE
  8
3
 10
315.58093
 20
333.07001
 11
315.99496
 21
331.19901
  0
ARC
  8
3
 10
329.01593
 20
334.16025
 40
13.35250
 50
192.81233
 51
202.61195
  0
LINE
  8
3
 10
316.68896
 20
329.02600
 11
318.97495
 21
329.02600
  0
ARC
  8
3
 10
338.76004
 20
336.74402
 40
21.23750
 50
193.67567
 51
201.31038
  0
LINE
  8
3
 10
318.12497
 20
331.72299
 11
317.63699
 21
333.79999
  0
ARC
  8
3
 10
311.07373
 20
332.30856
 40
6.73000
 50
12.80239
 51
29.21806
  0
ARC
  8
3
 10
313.62436
 20
333.73456
 40
3.80750
 50
29.22540
 51
66.12202
  0
ARC
  8
3
 10
312.97797
 20
342.55002
 40
5.76500
 50
292.30688
 51
306.76257
  0
ARC
  8
3
 10
313.52530
 20
341.81622
 40
4.85000
 50
306.77081
 51
333.13483
  0
ARC
  8
3
 10
313.61032
 20
341.77533
 40
4.75500
 50
333.11145
 51
359.98972
  0
ARC
  8
3
 10
313.87207
 20
341.77362
 40
4.49250
 50
.00000
 51
23.73429
  0
ARC
  8
3
 10
314.63464
 20
342.10815
 40
3.66000
 50
23.74514
 51
52.65524
  0
ARC
  8
3
 10
314.04468
 20
341.34143
 40
4.62750
 50
52.60670
 51
64.86938
  0
ARC
  8
3
 10
313.18823
 20
339.51410
 40
6.64500
 50
64.87509
 51
73.43492
  0
ARC
  8
3
 10
312.77725
 20
338.11884
 40
8.10000
 50
73.46231
 51
82.78955
  0
ARC
  8
3
 10
311.75046
 20
329.93805
 40
16.34500
 50
82.81805
 51
87.44545
  0
LINE
  8
3
 10
275.97021
 20
118.93600
 11
275.97021
 21
120.23100
  0
LINE
  8
3
 10
288.46823
 20
118.93600
 11
275.97021
 21
118.93600
  0
LINE
  8
3
 10
288.46823
 20
120.78900
 11
288.46823
 21
118.93600
  0
LINE
  8
3
 10
278.89023
 20
120.78900
 11
288.46823
 21
120.78900
  0
LINE
  8
3
 10
288.34122
 20
134.71001
 11
278.89023
 21
120.78900
  0
LINE
  8
3
 10
288.34122
 20
136.05701
 11
288.34122
 21
134.71001
  0
LINE
  8
3
 10
276.78421
 20
136.05701
 11
288.34122
 21
136.05701
  0
LINE
  8
3
 10
276.78421
 20
134.20300
 11
276.78421
 21
136.05701
  0
LINE
  8
3
 10
285.44421
 20
134.20300
 11
276.78421
 21
134.20300
  0
LINE
  8
3
 10
275.97021
 20
120.23100
 11
285.44421
 21
134.20300
  0
LINE
  8
3
 10
277.43823
 20
171.08299
 11
277.43823
 21
153.96100
  0
LINE
  8
3
 10
277.43823
 20
153.96100
 11
286.98923
 21
153.96100
  0
LINE
  8
3
 10
286.98923
 20
153.96100
 11
286.98923
 21
155.81500
  0
LINE
  8
3
 10
286.98923
 20
155.81500
 11
279.67322
 21
155.81500
  0
LINE
  8
3
 10
279.67322
 20
155.81500
 11
279.67322
 21
171.08299
  0
LINE
  8
3
 10
279.67322
 20
171.08299
 11
277.43823
 21
171.08299
  0
LINE
  8
3
 10
286.03323
 20
206.24800
 11
283.79822
 21
206.24800
  0
LINE
  8
3
 10
283.79822
 20
206.24800
 11
283.79822
 21
196.29320
  0
ARC
  8
3
 10
177.84135
 20
196.29265
 40
105.95750
 50
-.70386
 51
.00002
  0
ARC
  8
3
 10
272.87460
 20
195.13164
 40
10.91750
 50
352.32126
 51
359.26190
  0
ARC
  8
3
 10
279.27432
 20
194.26729
 40
4.45750
 50
327.15448
 51
352.34027
  0
ARC
  8
3
 10
281.05927
 20
193.11435
 40
2.33500
 50
280.94141
 51
327.16714
  0
ARC
  8
3
 10
280.56100
 20
195.69701
 40
4.96500
 50
249.15079
 51
280.92987
  0
LINE
  8
3
 10
278.79425
 20
191.05800
 11
278.49023
 21
189.25400
  0
ARC
  8
3
 10
280.75772
 20
195.59410
 40
6.73250
 50
250.32083
 51
272.83920
  0
ARC
  8
3
 10
280.71246
 20
196.56328
 40
7.70250
 50
272.81836
 51
280.63528
  0
ARC
  8
3
 10
281.34207
 20
193.19833
 40
4.28000
 50
280.66516
 51
319.26144
  0
ARC
  8
3
 10
280.39178
 20
194.02022
 40
5.53750
 50
319.23480
 51
349.52911
  0
ARC
  8
3
 10
275.41339
 20
194.94040
 40
10.60000
 50
349.52853
 51
357.98660
  0
ARC
  8
3
 10
241.20267
 20
196.12392
 40
44.83000
 50
358.01108
 51
359.99997
  0
LINE
  8
3
 10
286.03323
 20
196.12390
 11
286.03323
 21
206.24800
  0
LINE
  8
3
 10
277.48923
 20
276.16199
 11
277.48923
 21
259.03900
  0
LINE
  8
3
 10
277.48923
 20
259.03900
 11
287.04022
 21
259.03900
  0
LINE
  8
3
 10
287.04022
 20
259.03900
 11
287.04022
 21
260.89401
  0
LINE
  8
3
 10
287.04022
 20
260.89401
 11
279.72421
 21
260.89401
  0
LINE
  8
3
 10
279.72421
 20
260.89401
 11
279.72421
 21
276.16199
  0
LINE
  8
3
 10
279.72421
 20
276.16199
 11
277.48923
 21
276.16199
  0
LINE
  8
3
 10
286.16321
 20
337.11899
 11
286.16321
 21
338.94800
  0
LINE
  8
3
 10
286.16321
 20
338.94800
 11
279.53122
 21
338.94800
  0
LINE
  8
3
 10
279.53122
 20
338.94800
 11
279.53122
 21
344.35999
  0
LINE
  8
3
 10
279.53122
 20
344.35999
 11
286.56723
 21
344.35999
  0
LINE
  8
3
 10
286.56723
 20
344.35999
 11
286.56723
 21
346.21201
  0
LINE
  8
3
 10
286.56723
 20
346.21201
 11
277.29623
 21
346.21201
  0
LINE
  8
3
 10
277.29623
 20
346.21201
 11
277.29623
 21
329.09299
  0
LINE
  8
3
 10
277.29623
 20
329.09299
 11
286.94821
 21
329.09299
  0
LINE
  8
3
 10
286.94821
 20
329.09299
 11
286.94821
 21
330.94699
  0
LINE
  8
3
 10
286.94821
 20
330.94699
 11
279.53122
 21
330.94699
  0
LINE
  8
3
 10
279.53122
 20
330.94699
 11
279.53122
 21
337.11899
  0
LINE
  8
3
 10
279.53122
 20
337.11899
 11
286.16321
 21
337.11899
  0
LINE
  8
3
 10
211.48718
 20
365.41501
 11
211.48718
 21
364.11899
  0
LINE
  8
3
 10
211.48718
 20
364.11899
 11
223.98718
 21
364.11899
  0
LINE
  8
3
 10
223.98718
 20
364.11899
 11
223.98718
 21
365.97101
  0
LINE
  8
3
 10
223.98718
 20
365.97101
 11
214.40819
 21
365.97101
  0
LINE
  8
3
 10
214.40819
 20
365.97101
 11
223.85719
 21
379.89301
  0
LINE
  8
3
 10
223.85719
 20
379.89301
 11
223.85719
 21
381.23901
  0
LINE
  8
3
 10
223.85719
 20
381.23901
 11
212.30019
 21
381.23901
  0
LINE
  8
3
 10
212.30019
 20
381.23901
 11
212.30019
 21
379.38501
  0
LINE
  8
3
 10
212.30019
 20
379.38501
 11
220.96219
 21
379.38501
  0
LINE
  8
3
 10
220.96219
 20
379.38501
 11
211.48718
 21
365.41501
  0
LINE
  8
3
 10
221.79720
 20
91.93600
 11
221.79720
 21
93.76600
  0
LINE
  8
3
 10
221.79720
 20
93.76600
 11
215.16818
 21
93.76600
  0
LINE
  8
3
 10
215.16818
 20
93.76600
 11
215.16818
 21
99.17600
  0
LINE
  8
3
 10
215.16818
 20
99.17600
 11
222.20419
 21
99.17600
  0
LINE
  8
3
 10
222.20419
 20
99.17600
 11
222.20419
 21
101.03100
  0
LINE
  8
3
 10
222.20419
 20
101.03100
 11
212.93320
 21
101.03100
  0
LINE
  8
3
 10
212.93320
 20
101.03100
 11
212.93320
 21
83.90900
  0
LINE
  8
3
 10
212.93320
 20
83.90900
 11
222.58519
 21
83.90900
  0
LINE
  8
3
 10
222.58519
 20
83.90900
 11
222.58519
 21
85.76300
  0
LINE
  8
3
 10
222.58519
 20
85.76300
 11
215.16818
 21
85.76300
  0
LINE
  8
3
 10
215.16818
 20
85.76300
 11
215.16818
 21
91.93600
  0
LINE
  8
3
 10
215.16818
 20
91.93600
 11
221.79720
 21
91.93600
  0
LINE
  8
3
 10
221.76219
 20
126.96300
 11
221.76219
 21
128.79100
  0
LINE
  8
3
 10
221.76219
 20
128.79100
 11
215.13219
 21
128.79100
  0
LINE
  8
3
 10
215.13219
 20
128.79100
 11
215.13219
 21
134.20300
  0
LINE
  8
3
 10
215.13219
 20
134.20300
 11
222.16818
 21
134.20300
  0
LINE
  8
3
 10
222.16818
 20
134.20300
 11
222.16818
 21
136.05701
  0
LINE
  8
3
 10
222.16818
 20
136.05701
 11
212.89519
 21
136.05701
  0
LINE
  8
3
 10
212.89519
 20
136.05701
 11
212.89519
 21
118.93600
  0
LINE
  8
3
 10
212.89519
 20
118.93600
 11
222.54919
 21
118.93600
  0
LINE
  8
3
 10
222.54919
 20
118.93600
 11
222.54919
 21
120.78900
  0
LINE
  8
3
 10
222.54919
 20
120.78900
 11
215.13219
 21
120.78900
  0
LINE
  8
3
 10
215.13219
 20
120.78900
 11
215.13219
 21
126.96300
  0
LINE
  8
3
 10
215.13219
 20
126.96300
 11
221.76219
 21
126.96300
  0
ARC
  8
3
 10
217.81520
 20
166.08000
 40
5.18000
 50
108.50150
 51
133.75665
  0
ARC
  8
3
 10
217.24152
 20
166.67784
 40
4.35250
 50
133.74481
 51
163.60884
  0
ARC
  8
3
 10
216.85121
 20
166.79434
 40
3.94500
 50
163.63243
 51
190.07840
  0
ARC
  8
3
 10
217.25684
 20
166.86694
 40
4.35750
 50
190.08496
 51
214.10419
  0
ARC
  8
3
 10
217.76297
 20
167.20819
 40
4.96750
 50
214.09000
 51
236.16612
  0
ARC
  8
3
 10
221.98656
 20
173.50400
 40
12.54750
 50
236.15277
 51
244.98955
  0
ARC
  8
3
 10
220.31111
 20
169.93207
 40
8.60250
 50
245.04407
 51
250.08926
  0
ARC
  8
3
 10
214.46945
 20
153.81235
 40
8.54250
 50
64.98053
 51
70.07043
  0
ARC
  8
3
 10
214.34712
 20
153.55060
 40
8.83000
 50
55.88464
 51
64.97955
  0
ARC
  8
3
 10
217.53568
 20
158.26260
 40
3.14250
 50
30.62424
 51
55.83095
  0
ARC
  8
3
 10
217.79860
 20
158.41411
 40
2.83750
 50
15.75978
 51
30.69614
  0
ARC
  8
3
 10
217.93729
 20
158.45422
 40
2.69500
 50
.01752
 51
15.73980
  0
ARC
  8
3
 10
218.17633
 20
158.45589
 40
2.45500
 50
-19.09042
 51
.00000
  0
ARC
  8
3
 10
217.71904
 20
158.60971
 40
2.93750
 50
325.00165
 51
340.99146
  0
ARC
  8
3
 10
217.85216
 20
158.51997
 40
2.77750
 50
296.17841
 51
324.94302
  0
ARC
  8
3
 10
216.93729
 20
160.38435
 40
4.85250
 50
279.47412
 51
296.16098
  0
ARC
  8
3
 10
216.75195
 20
161.47702
 40
5.96250
 50
256.91473
 51
279.50247
  0
ARC
  8
3
 10
216.99782
 20
162.53015
 40
7.04250
 50
236.52748
 51
256.90619
  0
LINE
  8
3
 10
213.11319
 20
156.65500
 11
212.52917
 21
154.80101
  0
ARC
  8
3
 10
215.53882
 20
159.69414
 40
5.74500
 50
238.40533
 51
251.44907
  0
ARC
  8
3
 10
217.24036
 20
164.75117
 40
11.08000
 50
251.42712
 51
256.97531
  0
ARC
  8
3
 10
217.95157
 20
167.83344
 40
14.24250
 50
256.98230
 51
261.13760
  0
ARC
  8
3
 10
216.78117
 20
160.35732
 40
6.67750
 50
261.17737
 51
270.01062
  0
ARC
  8
3
 10
216.78366
 20
161.88797
 40
8.20750
 50
270.00000
 51
279.76904
  0
ARC
  8
3
 10
216.98871
 20
160.70419
 40
7.00500
 50
279.75909
 51
291.18329
  0
ARC
  8
3
 10
217.07928
 20
160.48097
 40
6.76500
 50
291.15112
 51
301.56308
  0
ARC
  8
3
 10
218.18248
 20
158.67848
 40
4.65250
 50
301.60614
 51
316.70941
  0
ARC
  8
3
 10
217.99706
 20
158.85381
 40
4.90750
 50
316.70392
 51
328.96301
  0
ARC
  8
3
 10
218.33170
 20
158.65097
 40
4.51500
 50
328.97900
 51
342.29749
  0
ARC
  8
3
 10
216.96465
 20
159.09125
 40
5.95250
 50
342.26144
 51
350.59793
  0
ARC
  8
3
 10
219.68816
 20
158.63686
 40
3.19000
 50
-9.34155
 51
6.13834
  0
ARC
  8
3
 10
218.20497
 20
158.48143
 40
4.68250
 50
6.08864
 51
45.21075
  0
ARC
  8
3
 10
215.94058
 20
156.19835
 40
7.89750
 50
45.22083
 51
69.01944
  0
ARC
  8
3
 10
227.26019
 20
185.73216
 40
23.73250
 50
246.88370
 51
249.03265
  0
ARC
  8
3
 10
221.80260
 20
172.96173
 40
9.84500
 50
241.74249
 51
246.91714
  0
ARC
  8
3
 10
220.25296
 20
170.06107
 40
6.55500
 50
229.95236
 51
241.66985
  0
ARC
  8
3
 10
217.69298
 20
167.01726
 40
2.57750
 50
200.74760
 51
229.97971
  0
ARC
  8
3
 10
217.42424
 20
166.91400
 40
2.29000
 50
165.79395
 51
200.71359
  0
ARC
  8
3
 10
217.54474
 20
166.88593
 40
2.41500
 50
132.59032
 51
165.84982
  0
ARC
  8
3
 10
217.99969
 20
166.38776
 40
3.08750
 50
100.13564
 51
132.54964
  0
ARC
  8
3
 10
218.47856
 20
163.73003
 40
5.79000
 50
82.53973
 51
100.17215
  0
ARC
  8
3
 10
218.33397
 20
162.64409
 40
6.88500
 50
61.95155
 51
82.51999
  0
LINE
  8
3
 10
221.57118
 20
168.72000
 11
222.18118
 21
170.52399
  0
ARC
  8
3
 10
218.54056
 20
162.93919
 40
8.41250
 50
64.35947
 51
84.03972
  0
ARC
  8
3
 10
218.50900
 20
162.58699
 40
8.76750
 50
84.07362
 51
94.80804
  0
ARC
  8
3
 10
218.34331
 20
164.49985
 40
6.84750
 50
94.76804
 51
108.49632
  0
LINE
  8
3
 10
211.45918
 20
311.32501
 11
213.69319
 21
311.32501
  0
LINE
  8
3
 10
211.46021
 20
301.67679
 11
211.45918
 21
311.32501
  0
ARC
  8
3
 10
187.58200
 20
301.67679
 40
23.87750
 50
-1.28577
 51
.00000
  0
ARC
  8
3
 10
216.76109
 20
301.02802
 40
5.30750
 50
178.78044
 51
183.55362
  0
ARC
  8
3
 10
222.70064
 20
301.46909
 40
11.26500
 50
183.92024
 51
189.79938
  0
ARC
  8
3
 10
222.91832
 20
301.50772
 40
11.48500
 50
189.80447
 51
195.21825
  0
ARC
  8
3
 10
218.58820
 20
300.33194
 40
6.99750
 50
195.23537
 51
216.46355
  0
ARC
  8
3
 10
217.30174
 20
299.38239
 40
5.40000
 50
216.47307
 51
243.77792
  0
ARC
  8
3
 10
217.49007
 20
299.76407
 40
5.82500
 50
243.77501
 51
257.47784
  0
ARC
  8
3
 10
217.61200
 20
300.30988
 40
6.38500
 50
257.47162
 51
270.00000
  0
ARC
  8
3
 10
217.60985
 20
300.60190
 40
6.67500
 50
270.00931
 51
282.60922
  0
ARC
  8
3
 10
217.68770
 20
300.26422
 40
6.33000
 50
282.58878
 51
295.86786
  0
ARC
  8
3
 10
217.92418
 20
299.77118
 40
5.78250
 50
295.89093
 51
322.15002
  0
ARC
  8
3
 10
216.99184
 20
300.50021
 40
6.96500
 50
322.12057
 51
344.03323
  0
ARC
  8
3
 10
213.08557
 20
301.61642
 40
11.02750
 50
344.04044
 51
349.66052
  0
ARC
  8
3
 10
213.44878
 20
301.54724
 40
10.66000
 50
349.67596
 51
355.80496
  0
LINE
  8
3
 10
224.08319
 20
311.32501
 11
224.07919
 21
300.76752
  0
LINE
  8
3
 10
221.84819
 20
311.32501
 11
224.08319
 21
311.32501
  0
LINE
  8
3
 10
221.84718
 20
300.82098
 11
221.84819
 21
311.32501
  0
ARC
  8
3
 10
216.28409
 20
300.97061
 40
5.56500
 50
351.16666
 51
358.45932
  0
ARC
  8
3
 10
205.98256
 20
302.56305
 40
15.99000
 50
348.65588
 51
351.19662
  0
ARC
  8
3
 10
215.80603
 20
300.59656
 40
5.97000
 50
330.47256
 51
348.61545
  0
ARC
  8
3
 10
217.71623
 20
299.51709
 40
3.77750
 50
302.10217
 51
330.43982
  0
ARC
  8
3
 10
217.68532
 20
299.55826
 40
3.82750
 50
279.68372
 51
302.16669
  0
ARC
  8
3
 10
217.68674
 20
299.57196
 40
3.84000
 50
257.22205
 51
279.62848
  0
ARC
  8
3
 10
217.61763
 20
299.27277
 40
3.53500
 50
228.91582
 51
257.24185
  0
ARC
  8
3
 10
217.89124
 20
299.58932
 40
3.95250
 50
203.52058
 51
228.94196
  0
ARC
  8
3
 10
219.60770
 20
300.33231
 40
5.82250
 50
192.32906
 51
203.48367
  0
ARC
  8
3
 10
223.18214
 20
301.11688
 40
9.48250
 50
185.48204
 51
192.34866
  0
ARC
  8
3
 10
233.64691
 20
302.12314
 40
19.99500
 50
184.38887
 51
185.48753
  0
ARC
  8
3
 10
219.75690
 20
301.07858
 40
6.06500
 50
181.63974
 51
184.59142
  0
LINE
  8
3
 10
213.69319
 20
311.32501
 11
213.69319
 21
300.90500
  0
ARC
  8
3
 10
217.90613
 20
411.26297
 40
5.18000
 50
108.50064
 51
133.75581
  0
ARC
  8
3
 10
217.33252
 20
411.86090
 40
4.35250
 50
133.74538
 51
163.60980
  0
ARC
  8
3
 10
216.94221
 20
411.97733
 40
3.94500
 50
163.63243
 51
190.07840
  0
ARC
  8
3
 10
217.34784
 20
412.04990
 40
4.35750
 50
190.08456
 51
214.10358
  0
ARC
  8
3
 10
217.85393
 20
412.39124
 40
4.96750
 50
214.09064
 51
236.16676
  0
ARC
  8
3
 10
222.07764
 20
418.68695
 40
12.54750
 50
236.15234
 51
244.98914
  0
ARC
  8
3
 10
220.40218
 20
415.11505
 40
8.60250
 50
245.04366
 51
250.08875
  0
ARC
  8
3
 10
214.56038
 20
398.99539
 40
8.54250
 50
64.97990
 51
70.06995
  0
ARC
  8
3
 10
214.43813
 20
398.73358
 40
8.83000
 50
55.88464
 51
64.97955
  0
ARC
  8
3
 10
217.62668
 20
403.44562
 40
3.14250
 50
30.62391
 51
55.83063
  0
ARC
  8
3
 10
217.88962
 20
403.59702
 40
2.83750
 50
15.76194
 51
30.69778
  0
ARC
  8
3
 10
218.02831
 20
403.63724
 40
2.69500
 50
.01752
 51
15.73989
  0
ARC
  8
3
 10
218.26733
 20
403.63889
 40
2.45500
 50
-19.09042
 51
.00000
  0
ARC
  8
3
 10
217.81004
 20
403.79276
 40
2.93750
 50
325.00073
 51
340.99063
  0
ARC
  8
3
 10
217.94315
 20
403.70297
 40
2.77750
 50
296.17841
 51
324.94302
  0
ARC
  8
3
 10
217.02838
 20
405.56738
 40
4.85250
 50
279.47287
 51
296.15970
  0
ARC
  8
3
 10
216.84296
 20
406.66003
 40
5.96250
 50
256.91470
 51
279.50235
  0
ARC
  8
3
 10
217.08870
 20
407.71320
 40
7.04250
 50
236.52858
 51
256.90717
  0
LINE
  8
3
 10
212.62018
 20
399.98398
 11
213.20419
 21
401.83798
  0
ARC
  8
3
 10
215.62961
 20
404.87723
 40
5.74500
 50
238.40779
 51
251.45128
  0
ARC
  8
3
 10
217.33151
 20
409.93414
 40
11.08000
 50
251.42627
 51
256.97449
  0
ARC
  8
3
 10
218.04277
 20
413.01642
 40
14.24250
 50
256.98151
 51
261.13678
  0
ARC
  8
3
 10
216.87207
 20
405.54031
 40
6.67750
 50
261.17828
 51
270.01154
  0
ARC
  8
3
 10
216.87491
 20
407.07098
 40
8.20750
 50
270.00000
 51
279.76718
  0
ARC
  8
3
 10
217.07962
 20
405.88718
 40
7.00500
 50
279.75970
 51
291.18387
  0
ARC
  8
3
 10
217.17032
 20
405.66397
 40
6.76500
 50
291.15073
 51
301.56277
  0
ARC
  8
3
 10
218.27348
 20
403.86148
 40
4.65250
 50
301.60605
 51
316.70929
  0
ARC
  8
3
 10
218.08797
 20
404.03668
 40
4.90750
 50
316.70557
 51
328.96487
  0
ARC
  8
3
 10
218.42273
 20
403.83405
 40
4.51500
 50
328.97803
 51
342.29663
  0
ARC
  8
3
 10
217.05565
 20
404.27429
 40
5.95250
 50
342.26117
 51
350.59750
  0
ARC
  8
3
 10
219.77914
 20
403.81979
 40
3.19000
 50
-9.34042
 51
6.13971
  0
ARC
  8
3
 10
218.29599
 20
403.66440
 40
4.68250
 50
6.08924
 51
45.21101
  0
ARC
  8
3
 10
216.03146
 20
401.38138
 40
7.89750
 50
45.21997
 51
69.01857
  0
ARC
  8
3
 10
227.35034
 20
430.91550
 40
23.73250
 50
246.88589
 51
249.03485
  0
ARC
  8
3
 10
221.89380
 20
418.14462
 40
9.84500
 50
241.74118
 51
246.91580
  0
ARC
  8
3
 10
220.34401
 20
415.24405
 40
6.55500
 50
229.95187
 51
241.66943
  0
ARC
  8
3
 10
217.78397
 20
412.20029
 40
2.57750
 50
200.74867
 51
229.98019
  0
ARC
  8
3
 10
217.51524
 20
412.09698
 40
2.29000
 50
165.79395
 51
200.71359
  0
ARC
  8
3
 10
217.63576
 20
412.06897
 40
2.41500
 50
132.59134
 51
165.85132
  0
ARC
  8
3
 10
218.09064
 20
411.57074
 40
3.08750
 50
100.13480
 51
132.54863
  0
ARC
  8
3
 10
218.56966
 20
408.91302
 40
5.79000
 50
82.54065
 51
100.17322
  0
ARC
  8
3
 10
218.42490
 20
407.82712
 40
6.88500
 50
61.95081
 51
82.51935
  0
LINE
  8
3
 10
222.27219
 20
415.70700
 11
221.66219
 21
413.90298
  0
ARC
  8
3
 10
218.63159
 20
408.12219
 40
8.41250
 50
64.35970
 51
84.03992
  0
ARC
  8
3
 10
218.59993
 20
407.76999
 40
8.76750
 50
84.07312
 51
94.80754
  0
ARC
  8
3
 10
218.43443
 20
409.68289
 40
6.84750
 50
94.76907
 51
108.49745
  0
LINE
  8
3
 10
182.28828
 20
153.96100
 11
180.05328
 21
153.96100
  0
LINE
  8
3
 10
182.28828
 20
161.98900
 11
182.28828
 21
153.96100
  0
LINE
  8
3
 10
190.56929
 20
161.98900
 11
182.28828
 21
161.98900
  0
LINE
  8
3
 10
190.56929
 20
153.96100
 11
190.56929
 21
161.98900
  0
LINE
  8
3
 10
192.80429
 20
153.96100
 11
190.56929
 21
153.96100
  0
LINE
  8
3
 10
192.80429
 20
171.08299
 11
192.80429
 21
153.96100
  0
LINE
  8
3
 10
190.56929
 20
171.08299
 11
192.80429
 21
171.08299
  0
LINE
  8
3
 10
190.56929
 20
163.91901
 11
190.56929
 21
171.08299
  0
LINE
  8
3
 10
182.28828
 20
163.91901
 11
190.56929
 21
163.91901
  0
LINE
  8
3
 10
182.28828
 20
171.08299
 11
182.28828
 21
163.91901
  0
LINE
  8
3
 10
180.05328
 20
171.08299
 11
182.28828
 21
171.08299
  0
LINE
  8
3
 10
180.05328
 20
153.96100
 11
180.05328
 21
171.08299
  0
LINE
  8
3
 10
187.47729
 20
206.10899
 11
187.47729
 21
188.98801
  0
LINE
  8
3
 10
185.24030
 20
206.10899
 11
187.47729
 21
206.10899
  0
LINE
  8
3
 10
185.24030
 20
188.98801
 11
185.24030
 21
206.10899
  0
LINE
  8
3
 10
187.47729
 20
188.98801
 11
185.24030
 21
188.98801
  0
LINE
  8
3
 10
181.89229
 20
311.18799
 11
181.89229
 21
294.06601
  0
LINE
  8
3
 10
181.89229
 20
294.06601
 11
184.12729
 21
294.06601
  0
LINE
  8
3
 10
184.12729
 20
294.06601
 11
184.12729
 21
301.81299
  0
LINE
  8
3
 10
184.12729
 20
301.81299
 11
190.57928
 21
301.81299
  0
LINE
  8
3
 10
190.57928
 20
301.81299
 11
190.57928
 21
303.64200
  0
LINE
  8
3
 10
190.57928
 20
303.64200
 11
184.12729
 21
303.64200
  0
LINE
  8
3
 10
184.12729
 20
303.64200
 11
184.12729
 21
309.33099
  0
LINE
  8
3
 10
184.12729
 20
309.33099
 11
191.11229
 21
309.33099
  0
LINE
  8
3
 10
191.11229
 20
309.33099
 11
191.11229
 21
311.18799
  0
LINE
  8
3
 10
191.11229
 20
311.18799
 11
181.89229
 21
311.18799
  0
LINE
  8
3
 10
187.39130
 20
346.21201
 11
187.39130
 21
329.09299
  0
LINE
  8
3
 10
185.15630
 20
346.21201
 11
187.39130
 21
346.21201
  0
LINE
  8
3
 10
185.15630
 20
329.09299
 11
185.15630
 21
346.21201
  0
LINE
  8
3
 10
187.39130
 20
329.09299
 11
185.15630
 21
329.09299
  0
ARC
  8
3
 10
186.41628
 20
236.22498
 40
5.18000
 50
108.50107
 51
133.75618
  0
ARC
  8
3
 10
185.84264
 20
236.82289
 40
4.35250
 50
133.74538
 51
163.60966
  0
ARC
  8
3
 10
185.45232
 20
236.93933
 40
3.94500
 50
163.63243
 51
190.07819
  0
ARC
  8
3
 10
185.85793
 20
237.01196
 40
4.35750
 50
190.08519
 51
214.10458
  0
ARC
  8
3
 10
186.36414
 20
237.35315
 40
4.96750
 50
214.08926
 51
236.16534
  0
ARC
  8
3
 10
190.58759
 20
243.64903
 40
12.54750
 50
236.15318
 51
244.98993
  0
ARC
  8
3
 10
188.91222
 20
240.07707
 40
8.60250
 50
245.04407
 51
250.08926
  0
ARC
  8
3
 10
183.07042
 20
223.95743
 40
8.54250
 50
64.97945
 51
70.06940
  0
ARC
  8
3
 10
182.94823
 20
223.69557
 40
8.83000
 50
55.88470
 51
64.97960
  0
ARC
  8
3
 10
186.13680
 20
228.40761
 40
3.14250
 50
30.62415
 51
55.83102
  0
ARC
  8
3
 10
186.39967
 20
228.55910
 40
2.83750
 50
15.75961
 51
30.69582
  0
ARC
  8
3
 10
186.53839
 20
228.59921
 40
2.69500
 50
.01785
 51
15.73980
  0
ARC
  8
3
 10
186.77744
 20
228.60089
 40
2.45500
 50
-19.09042
 51
.00000
  0
ARC
  8
3
 10
186.32016
 20
228.75475
 40
2.93750
 50
325.00082
 51
340.99081
  0
ARC
  8
3
 10
186.45323
 20
228.66495
 40
2.77750
 50
296.17883
 51
324.94373
  0
ARC
  8
3
 10
185.53842
 20
230.52936
 40
4.85250
 50
279.47375
 51
296.16040
  0
ARC
  8
3
 10
185.35306
 20
231.62202
 40
5.96250
 50
256.91473
 51
279.50247
  0
ARC
  8
3
 10
185.59892
 20
232.67516
 40
7.04250
 50
236.52748
 51
256.90619
  0
LINE
  8
3
 10
181.13029
 20
224.94601
 11
181.71429
 21
226.80000
  0
ARC
  8
3
 10
184.13997
 20
229.83914
 40
5.74500
 50
238.40509
 51
251.44864
  0
ARC
  8
3
 10
185.84132
 20
234.89622
 40
11.08000
 50
251.42787
 51
256.97604
  0
ARC
  8
3
 10
186.55287
 20
237.97839
 40
14.24250
 50
256.98148
 51
261.13678
  0
ARC
  8
3
 10
185.38228
 20
230.50232
 40
6.67750
 50
261.17737
 51
270.01062
  0
ARC
  8
3
 10
185.38475
 20
232.03297
 40
8.20750
 50
270.00000
 51
279.76904
  0
ARC
  8
3
 10
185.58980
 20
230.84920
 40
7.00500
 50
279.75909
 51
291.18329
  0
ARC
  8
3
 10
185.68053
 20
230.62604
 40
6.76500
 50
291.14975
 51
301.56186
  0
ARC
  8
3
 10
186.78357
 20
228.82346
 40
4.65250
 50
301.60657
 51
316.70969
  0
ARC
  8
3
 10
186.59813
 20
228.99875
 40
4.90750
 50
316.70456
 51
328.96356
  0
ARC
  8
3
 10
186.93280
 20
228.79597
 40
4.51500
 50
328.97873
 51
342.29767
  0
ARC
  8
3
 10
185.56577
 20
229.23628
 40
5.95250
 50
342.26126
 51
350.59763
  0
ARC
  8
3
 10
188.28925
 20
228.78180
 40
3.19000
 50
-9.34042
 51
6.13916
  0
ARC
  8
3
 10
186.80608
 20
228.62642
 40
4.68250
 50
6.08866
 51
45.21088
  0
ARC
  8
3
 10
184.54167
 20
226.34334
 40
7.89750
 50
45.22083
 51
69.01944
  0
ARC
  8
3
 10
195.86113
 20
255.87721
 40
23.73250
 50
246.88406
 51
249.03305
  0
ARC
  8
3
 10
190.40396
 20
243.10661
 40
9.84500
 50
241.74083
 51
246.91536
  0
ARC
  8
3
 10
188.85406
 20
240.20607
 40
6.55500
 50
229.95236
 51
241.66985
  0
ARC
  8
3
 10
186.29408
 20
237.16228
 40
2.57750
 50
200.74823
 51
229.97993
  0
ARC
  8
3
 10
186.02534
 20
237.05898
 40
2.29000
 50
165.79349
 51
200.71324
  0
ARC
  8
3
 10
186.14587
 20
237.03096
 40
2.41500
 50
132.59134
 51
165.85097
  0
ARC
  8
3
 10
186.60077
 20
236.53275
 40
3.08750
 50
100.13509
 51
132.54904
  0
ARC
  8
3
 10
187.07967
 20
233.87502
 40
5.79000
 50
82.53973
 51
100.17215
  0
ARC
  8
3
 10
186.93510
 20
232.78908
 40
6.88500
 50
61.95184
 51
82.52025
  0
LINE
  8
3
 10
190.78227
 20
240.66899
 11
190.17229
 21
238.86501
  0
ARC
  8
3
 10
187.14165
 20
233.08420
 40
8.41250
 50
64.35947
 51
84.03961
  0
ARC
  8
3
 10
187.11011
 20
232.73199
 40
8.76750
 50
84.07362
 51
94.80804
  0
ARC
  8
3
 10
186.94441
 20
234.64485
 40
6.84750
 50
94.76804
 51
108.49632
  0
ARC
  8
3
 10
185.19771
 20
113.61204
 40
22.58500
 50
93.55508
 51
100.54576
  0
LINE
  8
3
 10
181.06429
 20
135.81500
 11
181.06429
 21
122.48300
  0
LINE
  8
3
 10
181.06429
 20
122.48300
 11
183.27328
 21
122.48300
  0
LINE
  8
3
 10
183.27328
 20
122.48300
 11
183.27330
 21
134.34100
  0
ARC
  8
3
 10
185.13948
 20
123.07103
 40
11.42250
 50
87.21619
 51
99.40222
  0
ARC
  8
3
 10
185.46690
 20
129.82533
 40
4.66000
 50
64.25893
 51
87.20384
  0
ARC
  8
3
 10
186.37051
 20
131.70081
 40
2.58000
 50
23.37069
 51
64.24593
  0
ARC
  8
3
 10
186.40334
 20
131.71361
 40
2.54500
 50
-49.93576
 51
23.39924
  0
ARC
  8
3
 10
185.50204
 20
132.79144
 40
3.95000
 50
289.11530
 51
310.00671
  0
ARC
  8
3
 10
185.44597
 20
132.95016
 40
4.11750
 50
274.95041
 51
289.12930
  0
ARC
  8
3
 10
184.65788
 20
142.03914
 40
13.24000
 50
268.35287
 51
274.95398
  0
LINE
  8
3
 10
184.27730
 20
128.80400
 11
184.27730
 21
127.15300
  0
ARC
  8
3
 10
184.82291
 20
119.15107
 40
8.02000
 50
79.72684
 51
93.90065
  0
ARC
  8
3
 10
185.19614
 20
121.21202
 40
5.92500
 50
67.88290
 51
79.72386
  0
ARC
  8
3
 10
186.12833
 20
123.50597
 40
3.45000
 50
29.52317
 51
67.88165
  0
ARC
  8
3
 10
186.66536
 20
123.80943
 40
2.83250
 50
-16.39038
 51
29.53476
  0
ARC
  8
3
 10
186.59784
 20
123.83083
 40
2.90500
 50
310.53958
 51
343.58044
  0
ARC
  8
3
 10
185.73296
 20
124.83826
 40
4.23250
 50
287.56885
 51
310.57312
  0
ARC
  8
3
 10
185.31969
 20
126.14687
 40
5.60500
 50
277.10974
 51
287.55847
  0
ARC
  8
3
 10
184.99509
 20
128.78320
 40
8.26000
 50
269.99323
 51
277.08063
  0
ARC
  8
3
 10
184.99074
 20
196.15025
 40
75.62749
 50
267.02396
 51
270.00256
  0
LINE
  8
3
 10
181.06429
 20
120.62500
 11
181.06430
 21
118.99900
  0
ARC
  8
3
 10
184.32933
 20
145.49074
 40
26.69250
 50
262.97388
 51
270.92084
  0
ARC
  8
3
 10
184.57681
 20
129.81659
 40
11.01500
 50
270.94397
 51
277.26724
  0
ARC
  8
3
 10
183.35165
 20
139.50075
 40
20.77750
 50
277.24054
 51
281.42490
  0
ARC
  8
3
 10
185.99706
 20
126.41217
 40
7.42500
 50
281.42212
 51
293.09543
  0
ARC
  8
3
 10
207.59656
 20
75.74195
 40
47.65749
 50
112.14194
 51
113.08614
  0
ARC
  8
3
 10
188.82750
 20
121.86511
 40
2.13750
 50
292.16769
 51
312.94678
  0
ARC
  8
3
 10
187.18419
 20
123.62886
 40
4.55000
 50
312.96198
 51
326.45184
  0
ARC
  8
3
 10
186.46057
 20
124.10944
 40
5.41750
 50
326.44519
 51
337.79440
  0
ARC
  8
3
 10
186.08151
 20
124.26025
 40
5.82500
 50
337.83020
 51
348.02951
  0
ARC
  8
3
 10
188.03535
 20
123.84915
 40
3.83000
 50
-12.01666
 51
3.44162
  0
ARC
  8
3
 10
187.96429
 20
123.84397
 40
3.90000
 50
3.45492
 51
25.77706
  0
ARC
  8
3
 10
187.21028
 20
123.48001
 40
4.73750
 50
25.77519
 51
44.22157
  0
ARC
  8
3
 10
187.01306
 20
123.28714
 40
5.01250
 50
44.22932
 51
74.80196
  0
ARC
  8
3
 10
185.75119
 20
133.84697
 40
6.27500
 50
294.23795
 51
310.84579
  0
ARC
  8
3
 10
187.29457
 20
132.06010
 40
3.91500
 50
310.86237
 51
330.92352
  0
ARC
  8
3
 10
186.68207
 20
132.40384
 40
4.61750
 50
330.88937
 51
342.43921
  0
ARC
  8
3
 10
188.19843
 20
131.92389
 40
3.02500
 50
342.44058
 51
359.98007
  0
ARC
  8
3
 10
187.23659
 20
131.92181
 40
3.98750
 50
-.00021
 51
26.88420
  0
ARC
  8
3
 10
187.50375
 20
132.05862
 40
3.68750
 50
26.86532
 51
55.84096
  0
ARC
  8
3
 10
186.68721
 20
130.84746
 40
5.14750
 50
55.88976
 51
68.76019
  0
ARC
  8
3
 10
186.06544
 20
129.27667
 40
6.83750
 50
68.67239
 51
78.37477
  0
ARC
  8
3
 10
185.33517
 20
125.66129
 40
10.52500
 50
78.44685
 51
84.68457
  0
ARC
  8
3
 10
185.16928
 20
123.88872
 40
12.30750
 50
84.68005
 51
90.02650
  0
ARC
  8
3
 10
185.15761
 20
114.14038
 40
22.05500
 50
89.99995
 51
93.53622
  0
ARC
  8
3
 10
185.21471
 20
253.70604
 40
22.58500
 50
93.55510
 51
100.54578
  0
LINE
  8
3
 10
181.08128
 20
262.57700
 11
181.08128
 21
275.90900
  0
LINE
  8
3
 10
183.29028
 20
262.57700
 11
181.08128
 21
262.57700
  0
LINE
  8
3
 10
183.29030
 20
274.43500
 11
183.29028
 21
262.57700
  0
ARC
  8
3
 10
185.15663
 20
263.16504
 40
11.42250
 50
87.21687
 51
99.40298
  0
ARC
  8
3
 10
185.48392
 20
269.91934
 40
4.66000
 50
64.25902
 51
87.20386
  0
ARC
  8
3
 10
186.38750
 20
271.79483
 40
2.58000
 50
23.37056
 51
64.24532
  0
ARC
  8
3
 10
186.42033
 20
271.80762
 40
2.54500
 50
-49.93597
 51
23.39956
  0
ARC
  8
3
 10
185.51903
 20
272.88544
 40
3.95000
 50
289.11569
 51
310.00687
  0
ARC
  8
3
 10
185.46310
 20
273.04419
 40
4.11750
 50
274.94873
 51
289.12756
  0
ARC
  8
3
 10
184.67476
 20
282.13315
 40
13.24000
 50
268.35339
 51
274.95459
  0
LINE
  8
3
 10
184.29430
 20
267.24698
 11
184.29430
 21
268.89801
  0
ARC
  8
3
 10
184.83997
 20
259.24506
 40
8.02000
 50
79.72726
 51
93.90109
  0
ARC
  8
3
 10
185.21326
 20
261.30597
 40
5.92500
 50
67.88428
 51
79.72511
  0
ARC
  8
3
 10
186.14528
 20
263.60001
 40
3.45000
 50
29.52215
 51
67.88086
  0
ARC
  8
3
 10
186.68236
 20
263.90341
 40
2.83250
 50
-16.38980
 51
29.53505
  0
ARC
  8
3
 10
186.61484
 20
263.92487
 40
2.90500
 50
310.53937
 51
343.58002
  0
ARC
  8
3
 10
185.74988
 20
264.93222
 40
4.23250
 50
287.56992
 51
310.57437
  0
ARC
  8
3
 10
185.33676
 20
266.24088
 40
5.60500
 50
277.10895
 51
287.55765
  0
ARC
  8
3
 10
185.01215
 20
268.87720
 40
8.26000
 50
269.99323
 51
277.08023
  0
ARC
  8
3
 10
185.00761
 20
336.24423
 40
75.62749
 50
267.02405
 51
270.00269
  0
LINE
  8
3
 10
181.08130
 20
259.09302
 11
181.08130
 21
260.71896
  0
ARC
  8
3
 10
184.34650
 20
285.58475
 40
26.69250
 50
262.97354
 51
270.92047
  0
ARC
  8
3
 10
184.59372
 20
269.91058
 40
11.01500
 50
270.94446
 51
277.26764
  0
ARC
  8
3
 10
183.36887
 20
279.59479
 40
20.77750
 50
277.23984
 51
281.42426
  0
ARC
  8
3
 10
186.01401
 20
266.50616
 40
7.42500
 50
281.42236
 51
293.09570
  0
ARC
  8
3
 10
207.61368
 20
215.83601
 40
47.65749
 50
112.14209
 51
113.08633
  0
ARC
  8
3
 10
188.84457
 20
261.95917
 40
2.13750
 50
292.16556
 51
312.94418
  0
ARC
  8
3
 10
187.20111
 20
263.72278
 40
4.55000
 50
312.96335
 51
326.45331
  0
ARC
  8
3
 10
186.47754
 20
264.20349
 40
5.41750
 50
326.44492
 51
337.79404
  0
ARC
  8
3
 10
186.09853
 20
264.35434
 40
5.82500
 50
337.82928
 51
348.02850
  0
ARC
  8
3
 10
188.05235
 20
263.94321
 40
3.83000
 50
-12.01761
 51
3.44082
  0
ARC
  8
3
 10
187.98129
 20
263.93796
 40
3.90000
 50
3.45514
 51
25.77726
  0
ARC
  8
3
 10
187.22731
 20
263.57401
 40
4.73750
 50
25.77544
 51
44.22183
  0
ARC
  8
3
 10
187.03006
 20
263.38113
 40
5.01250
 50
44.22926
 51
74.80196
  0
ARC
  8
3
 10
185.76819
 20
273.94095
 40
6.27500
 50
294.23801
 51
310.84589
  0
ARC
  8
3
 10
187.31149
 20
272.15405
 40
3.91500
 50
310.86365
 51
330.92493
  0
ARC
  8
3
 10
186.69911
 20
272.49796
 40
4.61750
 50
330.88800
 51
342.43777
  0
ARC
  8
3
 10
188.21542
 20
272.01788
 40
3.02500
 50
342.44086
 51
359.98035
  0
ARC
  8
3
 10
187.25359
 20
272.01581
 40
3.98750
 50
.00000
 51
26.88420
  0
ARC
  8
3
 10
187.52077
 20
272.15259
 40
3.68750
 50
26.86585
 51
55.84128
  0
ARC
  8
3
 10
186.70416
 20
270.94150
 40
5.14750
 50
55.88895
 51
68.75954
  0
ARC
  8
3
 10
186.08243
 20
269.37064
 40
6.83750
 50
68.67236
 51
78.37469
  0
ARC
  8
3
 10
185.35216
 20
265.75528
 40
10.52500
 50
78.44678
 51
84.68440
  0
ARC
  8
3
 10
185.18629
 20
263.98270
 40
12.30750
 50
84.68005
 51
90.02707
  0
ARC
  8
3
 10
185.17461
 20
254.23438
 40
22.05500
 50
89.99995
 51
93.53622
  0
LINE
  8
3
 10
150.07945
 20
101.03100
 11
147.84447
 21
101.03100
  0
LINE
  8
3
 10
147.84447
 20
101.03100
 11
147.84447
 21
83.90900
  0
LINE
  8
3
 10
147.84447
 20
83.90900
 11
150.07945
 21
83.90900
  0
LINE
  8
3
 10
150.07945
 20
83.90900
 11
150.07945
 21
91.93600
  0
LINE
  8
3
 10
150.07945
 20
91.93600
 11
158.36046
 21
91.93600
  0
LINE
  8
3
 10
158.36046
 20
91.93600
 11
158.36046
 21
83.90900
  0
LINE
  8
3
 10
158.36046
 20
83.90900
 11
160.59546
 21
83.90900
  0
LINE
  8
3
 10
160.59546
 20
83.90900
 11
160.59546
 21
101.03100
  0
LINE
  8
3
 10
160.59546
 20
101.03100
 11
158.36046
 21
101.03100
  0
LINE
  8
3
 10
158.36046
 20
101.03100
 11
158.36046
 21
93.86800
  0
LINE
  8
3
 10
158.36046
 20
93.86800
 11
150.07945
 21
93.86800
  0
LINE
  8
3
 10
150.07945
 20
93.86800
 11
150.07945
 21
101.03100
  0
LINE
  8
3
 10
158.23846
 20
126.96300
 11
158.23846
 21
128.79100
  0
LINE
  8
3
 10
158.23846
 20
128.79100
 11
151.60846
 21
128.79100
  0
LINE
  8
3
 10
151.60846
 20
128.79100
 11
151.60846
 21
134.20300
  0
LINE
  8
3
 10
151.60846
 20
134.20300
 11
158.64445
 21
134.20300
  0
LINE
  8
3
 10
158.64445
 20
134.20300
 11
158.64445
 21
136.05701
  0
LINE
  8
3
 10
158.64445
 20
136.05701
 11
149.37346
 21
136.05701
  0
LINE
  8
3
 10
149.37346
 20
136.05701
 11
149.37346
 21
118.93600
  0
LINE
  8
3
 10
149.37346
 20
118.93600
 11
159.02547
 21
118.93600
  0
LINE
  8
3
 10
159.02547
 20
118.93600
 11
159.02547
 21
120.78900
  0
LINE
  8
3
 10
159.02547
 20
120.78900
 11
151.60846
 21
120.78900
  0
LINE
  8
3
 10
151.60846
 20
120.78900
 11
151.60846
 21
126.96300
  0
LINE
  8
3
 10
151.60846
 20
126.96300
 11
158.23846
 21
126.96300
  0
ARC
  8
3
 10
156.34985
 20
162.86172
 40
8.50250
 50
90.00000
 51
136.64496
  0
ARC
  8
3
 10
156.87346
 20
162.36794
 40
9.22000
 50
136.64760
 51
180.00009
  0
ARC
  8
3
 10
156.71751
 20
162.36790
 40
9.06500
 50
180.00000
 51
222.23181
  0
ARC
  8
3
 10
155.85977
 20
161.59029
 40
7.90750
 50
222.23720
 51
270.00000
  0
ARC
  8
3
 10
155.86154
 20
171.06522
 40
17.38250
 50
270.00000
 51
274.12360
  0
ARC
  8
3
 10
156.00996
 20
168.98698
 40
15.29750
 50
274.12885
 51
278.81522
  0
ARC
  8
3
 10
155.24977
 20
173.98254
 40
20.35250
 50
278.77481
 51
281.95197
  0
ARC
  8
3
 10
158.58939
 20
158.19199
 40
4.21250
 50
281.99109
 51
298.62888
  0
LINE
  8
3
 10
160.60745
 20
154.49503
 11
160.17548
 21
156.27299
  0
ARC
  8
3
 10
156.27820
 20
166.49596
 40
10.94000
 50
278.55365
 51
290.86823
  0
ARC
  8
3
 10
156.36594
 20
165.92525
 40
10.36250
 50
269.99680
 51
278.54324
  0
ARC
  8
3
 10
156.36478
 20
161.89392
 40
6.33250
 50
245.52466
 51
269.99988
  0
ARC
  8
3
 10
156.25618
 20
161.65623
 40
6.07000
 50
220.03851
 51
245.52809
  0
ARC
  8
3
 10
156.65982
 20
161.99622
 40
6.59750
 50
198.05688
 51
220.04399
  0
ARC
  8
3
 10
158.06273
 20
162.45151
 40
8.07250
 50
179.99741
 51
198.04285
  0
ARC
  8
3
 10
157.03528
 20
162.45290
 40
7.04500
 50
64.23044
 51
180.00832
  0
LINE
  8
3
 10
160.09846
 20
168.79800
 11
160.65846
 21
170.60201
  0
ARC
  8
3
 10
158.68466
 20
166.88628
 40
4.20750
 50
62.02269
 51
76.07135
  0
ARC
  8
3
 10
156.36139
 20
157.49886
 40
13.87750
 50
76.09084
 51
80.04538
  0
ARC
  8
3
 10
156.64334
 20
159.10664
 40
12.24500
 50
80.04431
 51
85.70496
  0
ARC
  8
3
 10
156.35634
 20
155.23004
 40
16.13250
 50
85.71964
 51
90.01154
  0
LINE
  8
3
 10
158.08546
 20
197.01500
 11
158.08546
 21
198.84399
  0
LINE
  8
3
 10
158.08546
 20
198.84399
 11
151.45647
 21
198.84399
  0
LINE
  8
3
 10
151.45647
 20
198.84399
 11
151.45647
 21
204.25400
  0
LINE
  8
3
 10
151.45647
 20
204.25400
 11
158.49246
 21
204.25400
  0
LINE
  8
3
 10
158.49246
 20
204.25400
 11
158.49246
 21
206.10899
  0
LINE
  8
3
 10
158.49246
 20
206.10899
 11
149.22147
 21
206.10899
  0
LINE
  8
3
 10
149.22147
 20
206.10899
 11
149.22147
 21
188.98801
  0
LINE
  8
3
 10
149.22147
 20
188.98801
 11
158.87346
 21
188.98801
  0
LINE
  8
3
 10
158.87346
 20
188.98801
 11
158.87346
 21
190.84200
  0
LINE
  8
3
 10
158.87346
 20
190.84200
 11
151.45647
 21
190.84200
  0
LINE
  8
3
 10
151.45647
 20
190.84200
 11
151.45647
 21
197.01500
  0
LINE
  8
3
 10
151.45647
 20
197.01500
 11
158.08546
 21
197.01500
  0
LINE
  8
3
 10
149.40146
 20
276.16199
 11
149.40146
 21
259.03900
  0
LINE
  8
3
 10
149.40146
 20
259.03900
 11
158.95146
 21
259.03900
  0
LINE
  8
3
 10
158.95146
 20
259.03900
 11
158.95146
 21
260.89401
  0
LINE
  8
3
 10
158.95146
 20
260.89401
 11
151.63646
 21
260.89401
  0
LINE
  8
3
 10
151.63646
 20
260.89401
 11
151.63646
 21
276.16199
  0
LINE
  8
3
 10
151.63646
 20
276.16199
 11
149.40146
 21
276.16199
  0
LINE
  8
3
 10
158.01945
 20
337.11899
 11
158.01945
 21
338.94800
  0
LINE
  8
3
 10
158.01945
 20
338.94800
 11
151.39046
 21
338.94800
  0
LINE
  8
3
 10
151.39046
 20
338.94800
 11
151.39046
 21
344.35999
  0
LINE
  8
3
 10
151.39046
 20
344.35999
 11
158.42645
 21
344.35999
  0
LINE
  8
3
 10
158.42645
 20
344.35999
 11
158.42645
 21
346.21201
  0
LINE
  8
3
 10
158.42645
 20
346.21201
 11
149.15546
 21
346.21201
  0
LINE
  8
3
 10
149.15546
 20
346.21201
 11
149.15546
 21
329.09299
  0
LINE
  8
3
 10
149.15546
 20
329.09299
 11
158.80446
 21
329.09299
  0
LINE
  8
3
 10
158.80446
 20
329.09299
 11
158.80446
 21
330.94699
  0
LINE
  8
3
 10
158.80446
 20
330.94699
 11
151.39046
 21
330.94699
  0
LINE
  8
3
 10
151.39046
 20
330.94699
 11
151.39046
 21
337.11899
  0
LINE
  8
3
 10
151.39046
 20
337.11899
 11
158.01945
 21
337.11899
  0
LINE
  8
3
 10
150.06647
 20
381.23901
 11
147.83147
 21
381.23901
  0
LINE
  8
3
 10
147.83147
 20
381.23901
 11
147.83147
 21
364.11899
  0
LINE
  8
3
 10
147.83147
 20
364.11899
 11
150.06647
 21
364.11899
  0
LINE
  8
3
 10
150.06647
 20
364.11899
 11
150.06647
 21
372.14600
  0
LINE
  8
3
 10
150.06647
 20
372.14600
 11
158.34746
 21
372.14600
  0
LINE
  8
3
 10
158.34746
 20
372.14600
 11
158.34746
 21
364.11899
  0
LINE
  8
3
 10
158.34746
 20
364.11899
 11
160.58546
 21
364.11899
  0
LINE
  8
3
 10
160.58546
 20
364.11899
 11
160.58546
 21
381.23901
  0
LINE
  8
3
 10
160.58546
 20
381.23901
 11
158.34746
 21
381.23901
  0
LINE
  8
3
 10
158.34746
 20
381.23901
 11
158.34746
 21
374.07901
  0
LINE
  8
3
 10
158.34746
 20
374.07901
 11
150.06647
 21
374.07901
  0
LINE
  8
3
 10
150.06647
 20
374.07901
 11
150.06647
 21
381.23901
  0
ARC
  8
3
 10
152.46631
 20
292.54703
 40
18.71000
 50
87.41115
 51
94.35808
  0
ARC
  8
3
 10
152.72301
 20
289.18762
 40
22.08000
 50
94.35983
 51
100.61545
  0
LINE
  8
3
 10
148.65546
 20
304.99200
 11
148.65546
 21
310.89001
  0
LINE
  8
3
 10
150.86546
 20
304.99200
 11
148.65546
 21
304.99200
  0
LINE
  8
3
 10
150.86546
 20
309.34100
 11
150.86546
 21
304.99200
  0
ARC
  8
3
 10
153.13654
 20
296.74600
 40
12.79750
 50
93.36890
 51
100.22148
  0
ARC
  8
3
 10
152.80106
 20
302.42603
 40
7.10750
 50
82.11285
 51
93.35991
  0
ARC
  8
3
 10
152.95227
 20
303.51633
 40
6.00750
 50
68.74120
 51
82.11449
  0
ARC
  8
3
 10
154.10179
 20
306.46875
 40
2.84000
 50
40.90931
 51
68.75743
  0
ARC
  8
3
 10
153.76073
 20
306.17355
 40
3.29000
 50
23.12982
 51
40.90484
  0
ARC
  8
3
 10
154.47336
 20
306.47849
 40
2.51500
 50
.02016
 51
23.11872
  0
ARC
  8
3
 10
153.25768
 20
306.48029
 40
3.73000
 50
-10.11591
 51
.00000
  0
ARC
  8
3
 10
154.05841
 20
306.33585
 40
2.91750
 50
337.04181
 51
349.91458
  0
ARC
  8
3
 10
153.96849
 20
306.37405
 40
3.01500
 50
310.60016
 51
337.03976
  0
ARC
  8
3
 10
153.21121
 20
307.25690
 40
4.17750
 50
274.35504
 51
310.60626
  0
LINE
  8
3
 10
148.65546
 20
303.09100
 11
153.52847
 21
303.09100
  0
LINE
  8
3
 10
148.65546
 20
293.99799
 11
148.65546
 21
303.09100
  0
LINE
  8
3
 10
150.86546
 20
293.99799
 11
148.65546
 21
293.99799
  0
LINE
  8
3
 10
150.86546
 20
301.41400
 11
150.86546
 21
293.99799
  0
LINE
  8
3
 10
152.94946
 20
301.41400
 11
150.86546
 21
301.41400
  0
ARC
  8
3
 10
153.03517
 20
298.32809
 40
3.08750
 50
48.15938
 51
91.59094
  0
ARC
  8
3
 10
152.74643
 20
298.00504
 40
3.52000
 50
27.80138
 51
48.16566
  0
ARC
  8
3
 10
151.42747
 20
297.31140
 40
5.01000
 50
18.05108
 51
27.78305
  0
ARC
  8
3
 10
148.40486
 20
296.32013
 40
8.19250
 50
12.13397
 51
18.09222
  0
LINE
  8
3
 10
156.82747
 20
296.17099
 11
156.41347
 21
298.04199
  0
ARC
  8
3
 10
169.84843
 20
299.13223
 40
13.35250
 50
192.81233
 51
202.61195
  0
LINE
  8
3
 10
159.80746
 20
293.99799
 11
157.52147
 21
293.99799
  0
ARC
  8
3
 10
179.59254
 20
301.71600
 40
21.23750
 50
193.67567
 51
201.31038
  0
LINE
  8
3
 10
158.46945
 20
298.77200
 11
158.95746
 21
296.69498
  0
ARC
  8
3
 10
151.90617
 20
297.28064
 40
6.73000
 50
12.80185
 51
29.21742
  0
ARC
  8
3
 10
154.45685
 20
298.70657
 40
3.80750
 50
29.22551
 51
66.12183
  0
ARC
  8
3
 10
153.81052
 20
307.52209
 40
5.76500
 50
292.30624
 51
306.76154
  0
ARC
  8
3
 10
154.35788
 20
306.78827
 40
4.85000
 50
306.76950
 51
333.13394
  0
ARC
  8
3
 10
154.44276
 20
306.74716
 40
4.75500
 50
333.11359
 51
359.99081
  0
ARC
  8
3
 10
154.70454
 20
306.74567
 40
4.49250
 50
.00000
 51
23.73393
  0
ARC
  8
3
 10
155.46716
 20
307.08017
 40
3.66000
 50
23.74543
 51
52.65533
  0
ARC
  8
3
 10
154.87711
 20
306.31345
 40
4.62750
 50
52.60587
 51
64.86819
  0
ARC
  8
3
 10
154.02058
 20
304.48615
 40
6.64500
 50
64.87355
 51
73.43347
  0
ARC
  8
3
 10
153.60977
 20
303.09085
 40
8.10000
 50
73.46231
 51
82.78955
  0
ARC
  8
3
 10
152.58299
 20
294.91006
 40
16.34500
 50
82.81810
 51
87.44560
  0
LINE
  8
3
 10
127.01283
 20
91.93600
 11
127.01283
 21
93.76600
  0
LINE
  8
3
 10
127.01283
 20
93.76600
 11
120.38083
 21
93.76600
  0
LINE
  8
3
 10
120.38083
 20
93.76600
 11
120.38083
 21
99.17600
  0
LINE
  8
3
 10
120.38083
 20
99.17600
 11
127.41983
 21
99.17600
  0
LINE
  8
3
 10
127.41983
 20
99.17600
 11
127.41983
 21
101.03100
  0
LINE
  8
3
 10
127.41983
 20
101.03100
 11
118.14883
 21
101.03100
  0
LINE
  8
3
 10
118.14883
 20
101.03100
 11
118.14883
 21
83.90900
  0
LINE
  8
3
 10
118.14883
 20
83.90900
 11
127.80083
 21
83.90900
  0
LINE
  8
3
 10
127.80083
 20
83.90900
 11
127.80083
 21
85.76300
  0
LINE
  8
3
 10
127.80083
 20
85.76300
 11
120.38083
 21
85.76300
  0
LINE
  8
3
 10
120.38083
 20
85.76300
 11
120.38083
 21
91.93600
  0
LINE
  8
3
 10
120.38083
 20
91.93600
 11
127.01283
 21
91.93600
  0
LINE
  8
3
 10
124.07683
 20
118.93600
 11
124.07683
 21
136.05701
  0
LINE
  8
3
 10
124.07683
 20
136.05701
 11
121.84383
 21
136.05701
  0
LINE
  8
3
 10
121.84383
 20
136.05701
 11
121.84383
 21
118.93600
  0
LINE
  8
3
 10
121.84383
 20
118.93600
 11
124.07683
 21
118.93600
  0
LINE
  8
3
 10
126.94983
 20
161.98900
 11
126.94983
 21
163.81700
  0
LINE
  8
3
 10
126.94983
 20
163.81700
 11
120.31783
 21
163.81700
  0
LINE
  8
3
 10
120.31783
 20
163.81700
 11
120.31783
 21
169.22900
  0
LINE
  8
3
 10
120.31783
 20
169.22900
 11
127.35283
 21
169.22900
  0
LINE
  8
3
 10
127.35283
 20
169.22900
 11
127.35283
 21
171.08299
  0
LINE
  8
3
 10
127.35283
 20
171.08299
 11
118.07983
 21
171.08299
  0
LINE
  8
3
 10
118.07983
 20
171.08299
 11
118.07983
 21
153.96100
  0
LINE
  8
3
 10
118.07983
 20
153.96100
 11
127.73383
 21
153.96100
  0
LINE
  8
3
 10
127.73383
 20
153.96100
 11
127.73383
 21
155.81500
  0
LINE
  8
3
 10
127.73383
 20
155.81500
 11
120.31783
 21
155.81500
  0
LINE
  8
3
 10
120.31783
 20
155.81500
 11
120.31783
 21
161.98900
  0
LINE
  8
3
 10
120.31783
 20
161.98900
 11
126.94983
 21
161.98900
  0
LINE
  8
3
 10
124.04083
 20
224.01401
 11
124.04083
 21
241.13499
  0
LINE
  8
3
 10
124.04083
 20
241.13499
 11
121.80883
 21
241.13499
  0
LINE
  8
3
 10
121.80883
 20
241.13499
 11
121.80883
 21
224.01401
  0
LINE
  8
3
 10
121.80883
 20
224.01401
 11
124.04083
 21
224.01401
  0
LINE
  8
3
 10
127.00483
 20
372.14600
 11
127.00483
 21
373.97699
  0
LINE
  8
3
 10
127.00483
 20
373.97699
 11
120.37583
 21
373.97699
  0
LINE
  8
3
 10
120.37583
 20
373.97699
 11
120.37583
 21
379.38501
  0
LINE
  8
3
 10
120.37583
 20
379.38501
 11
127.41183
 21
379.38501
  0
LINE
  8
3
 10
127.41183
 20
379.38501
 11
127.41183
 21
381.23901
  0
LINE
  8
3
 10
127.41183
 20
381.23901
 11
118.14083
 21
381.23901
  0
LINE
  8
3
 10
118.14083
 20
381.23901
 11
118.14083
 21
364.11899
  0
LINE
  8
3
 10
118.14083
 20
364.11899
 11
127.79283
 21
364.11899
  0
LINE
  8
3
 10
127.79283
 20
364.11899
 11
127.79283
 21
365.97101
  0
LINE
  8
3
 10
127.79283
 20
365.97101
 11
120.37583
 21
365.97101
  0
LINE
  8
3
 10
120.37583
 20
365.97101
 11
120.37583
 21
372.14600
  0
LINE
  8
3
 10
120.37583
 20
372.14600
 11
127.00483
 21
372.14600
  0
ARC
  8
3
 10
120.99354
 20
187.54002
 40
18.71000
 50
87.41075
 51
94.35768
  0
ARC
  8
3
 10
121.25052
 20
184.18063
 40
22.08000
 50
94.36023
 51
100.61583
  0
LINE
  8
3
 10
117.18283
 20
199.98500
 11
117.18282
 21
205.88300
  0
LINE
  8
3
 10
119.39283
 20
199.98500
 11
117.18283
 21
199.98500
  0
LINE
  8
3
 10
119.39283
 20
204.33400
 11
119.39283
 21
199.98500
  0
ARC
  8
3
 10
121.66402
 20
191.73903
 40
12.79750
 50
93.36945
 51
100.22203
  0
ARC
  8
3
 10
121.32850
 20
197.41904
 40
7.10750
 50
82.11348
 51
93.36052
  0
ARC
  8
3
 10
121.47957
 20
198.50932
 40
6.00750
 50
68.74063
 51
82.11388
  0
ARC
  8
3
 10
122.62916
 20
201.46178
 40
2.84000
 50
40.90874
 51
68.75732
  0
ARC
  8
3
 10
122.28808
 20
201.16658
 40
3.29000
 50
23.12928
 51
40.90417
  0
ARC
  8
3
 10
123.00074
 20
201.47144
 40
2.51500
 50
.02086
 51
23.11988
  0
ARC
  8
3
 10
121.78504
 20
201.47328
 40
3.73000
 50
-10.11612
 51
.00000
  0
ARC
  8
3
 10
122.58579
 20
201.32895
 40
2.91750
 50
337.03998
 51
349.91220
  0
ARC
  8
3
 10
122.49585
 20
201.36705
 40
3.01500
 50
310.60034
 51
337.04004
  0
ARC
  8
3
 10
121.73855
 20
202.24989
 40
4.17750
 50
274.35535
 51
310.60663
  0
LINE
  8
3
 10
117.18283
 20
198.08400
 11
122.05583
 21
198.08400
  0
LINE
  8
3
 10
117.18283
 20
188.99100
 11
117.18283
 21
198.08400
  0
LINE
  8
3
 10
119.39283
 20
188.99100
 11
117.18283
 21
188.99100
  0
LINE
  8
3
 10
119.39283
 20
196.40700
 11
119.39283
 21
188.99100
  0
LINE
  8
3
 10
121.47683
 20
196.40700
 11
119.39283
 21
196.40700
  0
ARC
  8
3
 10
121.56256
 20
193.32109
 40
3.08750
 50
48.15977
 51
91.59135
  0
ARC
  8
3
 10
121.27380
 20
192.99803
 40
3.52000
 50
27.80160
 51
48.16583
  0
ARC
  8
3
 10
119.95479
 20
192.30453
 40
5.01000
 50
18.04926
 51
27.78149
  0
ARC
  8
3
 10
116.93224
 20
191.31308
 40
8.19250
 50
12.13430
 51
18.09245
  0
LINE
  8
3
 10
125.35484
 20
191.16400
 11
124.94083
 21
193.03499
  0
ARC
  8
3
 10
138.37579
 20
194.12524
 40
13.35250
 50
192.81233
 51
202.61195
  0
LINE
  8
3
 10
128.33484
 20
188.99100
 11
126.04884
 21
188.99101
  0
ARC
  8
3
 10
148.11992
 20
196.70901
 40
21.23750
 50
193.67567
 51
201.31038
  0
LINE
  8
3
 10
126.99683
 20
193.76501
 11
127.48483
 21
191.68800
  0
ARC
  8
3
 10
120.43355
 20
192.27364
 40
6.73000
 50
12.80198
 51
29.21742
  0
ARC
  8
3
 10
122.98421
 20
193.69957
 40
3.80750
 50
29.22529
 51
66.12181
  0
ARC
  8
3
 10
122.33788
 20
202.51508
 40
5.76500
 50
292.30637
 51
306.76166
  0
ARC
  8
3
 10
122.88520
 20
201.78127
 40
4.85000
 50
306.76999
 51
333.13422
  0
ARC
  8
3
 10
122.97013
 20
201.74025
 40
4.75500
 50
333.11264
 51
359.99026
  0
ARC
  8
3
 10
123.23193
 20
201.73863
 40
4.49250
 50
.00000
 51
23.73441
  0
ARC
  8
3
 10
123.99448
 20
202.07320
 40
3.66000
 50
23.74475
 51
52.65443
  0
ARC
  8
3
 10
123.40455
 20
201.30643
 40
4.62750
 50
52.60670
 51
64.86938
  0
ARC
  8
3
 10
122.54791
 20
199.47916
 40
6.64500
 50
64.87337
 51
73.43321
  0
ARC
  8
3
 10
122.13731
 20
198.08382
 40
8.10000
 50
73.46359
 51
82.79079
  0
ARC
  8
3
 10
121.11034
 20
189.90305
 40
16.34500
 50
82.81807
 51
87.44557
  0
ARC
  8
3
 10
120.96166
 20
327.57703
 40
18.71000
 50
87.41118
 51
94.35805
  0
ARC
  8
3
 10
121.21840
 20
324.21762
 40
22.08000
 50
94.35991
 51
100.61551
  0
LINE
  8
3
 10
117.15083
 20
340.02200
 11
117.15083
 21
345.92001
  0
LINE
  8
3
 10
119.36083
 20
340.02200
 11
117.15083
 21
340.02200
  0
LINE
  8
3
 10
119.36082
 20
344.37100
 11
119.36083
 21
340.02200
  0
ARC
  8
3
 10
121.63190
 20
331.77600
 40
12.79750
 50
93.36890
 51
100.22148
  0
ARC
  8
3
 10
121.29658
 20
337.45605
 40
7.10750
 50
82.11414
 51
93.36121
  0
ARC
  8
3
 10
121.44750
 20
338.54636
 40
6.00750
 50
68.73993
 51
82.11325
  0
ARC
  8
3
 10
122.59718
 20
341.49878
 40
2.84000
 50
40.90915
 51
68.75778
  0
ARC
  8
3
 10
122.25608
 20
341.20355
 40
3.29000
 50
23.12977
 51
40.90466
  0
ARC
  8
3
 10
122.96873
 20
341.50845
 40
2.51500
 50
.02016
 51
23.11949
  0
ARC
  8
3
 10
121.75304
 20
341.51025
 40
3.73000
 50
-10.11591
 51
.00000
  0
ARC
  8
3
 10
122.55379
 20
341.36594
 40
2.91750
 50
337.04004
 51
349.91223
  0
ARC
  8
3
 10
122.46384
 20
341.40405
 40
3.01500
 50
310.60037
 51
337.03989
  0
ARC
  8
3
 10
121.70657
 20
342.28690
 40
4.17750
 50
274.35495
 51
310.60626
  0
LINE
  8
3
 10
117.15083
 20
338.12100
 11
122.02383
 21
338.12100
  0
LINE
  8
3
 10
117.15083
 20
329.02802
 11
117.15083
 21
338.12100
  0
LINE
  8
3
 10
119.36083
 20
329.02802
 11
117.15083
 21
329.02802
  0
LINE
  8
3
 10
119.36083
 20
336.44400
 11
119.36083
 21
329.02802
  0
LINE
  8
3
 10
121.44483
 20
336.44400
 11
119.36083
 21
336.44400
  0
ARC
  8
3
 10
121.53058
 20
333.35809
 40
3.08750
 50
48.16019
 51
91.59164
  0
ARC
  8
3
 10
121.24180
 20
333.03506
 40
3.52000
 50
27.80132
 51
48.16548
  0
ARC
  8
3
 10
119.92277
 20
332.34161
 40
5.01000
 50
18.04819
 51
27.78075
  0
ARC
  8
3
 10
116.90023
 20
331.35010
 40
8.19250
 50
12.13420
 51
18.09223
  0
LINE
  8
3
 10
125.32284
 20
331.20099
 11
124.90882
 21
333.07199
  0
ARC
  8
3
 10
138.34380
 20
334.16223
 40
13.35250
 50
192.81233
 51
202.61195
  0
LINE
  8
3
 10
128.30284
 20
329.02798
 11
126.01684
 21
329.02798
  0
ARC
  8
3
 10
148.08792
 20
336.74600
 40
21.23750
 50
193.67567
 51
201.31038
  0
LINE
  8
3
 10
126.96482
 20
333.80200
 11
127.45284
 21
331.72498
  0
ARC
  8
3
 10
120.40154
 20
332.31064
 40
6.73000
 50
12.80184
 51
29.21739
  0
ARC
  8
3
 10
122.95221
 20
333.73654
 40
3.80750
 50
29.22574
 51
66.12201
  0
ARC
  8
3
 10
122.30577
 20
342.55203
 40
5.76500
 50
292.30737
 51
306.76282
  0
ARC
  8
3
 10
122.85323
 20
341.81830
 40
4.85000
 50
306.76944
 51
333.13354
  0
ARC
  8
3
 10
122.93814
 20
341.77725
 40
4.75500
 50
333.11240
 51
359.99008
  0
ARC
  8
3
 10
123.19992
 20
341.77563
 40
4.49250
 50
.00000
 51
23.73437
  0
ARC
  8
3
 10
123.96247
 20
342.11020
 40
3.66000
 50
23.74465
 51
52.65457
  0
ARC
  8
3
 10
123.37251
 20
341.34341
 40
4.62750
 50
52.60663
 51
64.86911
  0
ARC
  8
3
 10
122.51610
 20
339.51611
 40
6.64500
 50
64.87509
 51
73.43486
  0
ARC
  8
3
 10
122.10512
 20
338.12085
 40
8.10000
 50
73.46227
 51
82.78949
  0
ARC
  8
3
 10
121.07834
 20
329.94006
 40
16.34500
 50
82.81807
 51
87.44557
  0
LINE
  8
3
 10
128.01782
 20
309.63901
 11
126.80083
 21
307.79501
  0
ARC
  8
3
 10
117.60376
 20
302.38214
 40
10.67250
 50
10.61517
 51
30.47865
  0
ARC
  8
3
 10
121.54469
 20
303.12082
 40
6.66250
 50
-.00183
 51
10.61455
  0
ARC
  8
3
 10
119.30195
 20
303.12036
 40
8.90500
 50
-6.07465
 51
.00000
  0
ARC
  8
3
 10
114.47174
 20
303.63583
 40
13.76250
 50
349.99164
 51
353.91940
  0
ARC
  8
3
 10
120.62737
 20
302.54691
 40
7.51250
 50
321.45151
 51
350.01114
  0
ARC
  8
3
 10
122.13950
 20
301.34280
 40
5.57750
 50
283.60663
 51
321.44519
  0
ARC
  8
3
 10
122.51676
 20
299.79102
 40
3.98250
 50
257.30524
 51
283.58344
  0
ARC
  8
3
 10
122.46581
 20
299.57303
 40
3.75750
 50
222.53055
 51
257.33279
  0
LINE
  8
3
 10
119.69684
 20
297.03302
 11
118.57683
 21
295.33701
  0
ARC
  8
3
 10
123.45024
 20
303.15118
 40
9.21000
 50
238.04974
 51
258.52304
  0
ARC
  8
3
 10
122.60923
 20
299.00397
 40
4.97750
 50
258.51163
 51
267.78476
  0
ARC
  8
3
 10
122.60532
 20
298.93393
 40
4.90750
 50
267.79871
 51
277.19321
  0
ARC
  8
3
 10
122.18974
 20
302.21848
 40
8.21750
 50
277.20041
 51
291.23102
  0
ARC
  8
3
 10
121.97482
 20
302.77600
 40
8.81500
 50
291.22086
 51
304.30847
  0
ARC
  8
3
 10
122.92762
 20
301.38080
 40
7.12750
 50
304.30347
 51
326.35019
  0
ARC
  8
3
 10
120.84327
 20
302.76587
 40
9.63000
 50
326.36200
 51
342.76569
  0
ARC
  8
3
 10
118.60201
 20
303.46759
 40
11.97750
 50
342.73618
 51
350.37509
  0
ARC
  8
3
 10
121.02258
 20
303.05093
 40
9.52250
 50
-9.58835
 51
.01561
  0
ARC
  8
3
 10
121.37158
 20
303.05609
 40
9.17250
 50
.00000
 51
9.08273
  0
ARC
  8
3
 10
119.53214
 20
302.76239
 40
11.03500
 50
9.08088
 51
16.64358
  0
ARC
  8
3
 10
121.99725
 20
303.49597
 40
8.46250
 50
16.66525
 51
25.42190
  0
ARC
  8
3
 10
134.55367
 20
309.46353
 40
5.44000
 50
196.73842
 51
205.41675
  0
ARC
  8
3
 10
120.98155
 20
303.79654
 40
9.31500
 50
26.11838
 51
34.56500
  0
ARC
  8
3
 10
127.08680
 20
307.94202
 40
1.93500
 50
36.04597
 51
61.24944
  0
ARC
  8
3
 10
123.50127
 20
306.07623
 40
5.73500
 50
54.48320
 51
75.36897
  0
ARC
  8
3
 10
122.79743
 20
303.37708
 40
8.52500
 50
75.37415
 51
85.42178
  0
ARC
  8
3
 10
123.00116
 20
305.89600
 40
5.99750
 50
85.44106
 51
93.13853
  0
ARC
  8
3
 10
122.95084
 20
306.73361
 40
5.15750
 50
93.08987
 51
102.04128
  0
ARC
  8
3
 10
124.90823
 20
297.62988
 40
14.47000
 50
102.10121
 51
105.97128
  0
ARC
  8
3
 10
122.68062
 20
305.40332
 40
6.38250
 50
105.94682
 51
114.71387
  0
ARC
  8
3
 10
123.50641
 20
303.60175
 40
8.36500
 50
114.69290
 51
123.19279
  0
ARC
  8
3
 10
123.32001
 20
303.88751
 40
8.02500
 50
123.19611
 51
132.05856
  0
ARC
  8
3
 10
123.26879
 20
303.94827
 40
7.94500
 50
132.07787
 51
150.93311
  0
ARC
  8
3
 10
124.69346
 20
303.15643
 40
9.57500
 50
150.93335
 51
166.62027
  0
ARC
  8
3
 10
129.19742
 20
302.07471
 40
14.20750
 50
166.57941
 51
171.86510
  0
ARC
  8
3
 10
124.30518
 20
302.78265
 40
9.26250
 50
171.91800
 51
180.01698
  0
ARC
  8
3
 10
123.24210
 20
302.77524
 40
8.20000
 50
180.00000
 51
190.44928
  0
ARC
  8
3
 10
126.20515
 20
303.32977
 40
11.21500
 50
190.48988
 51
198.15710
  0
ARC
  8
3
 10
126.06067
 20
303.28024
 40
11.06250
 50
198.14653
 51
217.95921
  0
LINE
  8
3
 10
118.63882
 20
298.42999
 11
117.33882
 21
296.47598
  0
ARC
  8
3
 10
127.99588
 20
303.55695
 40
10.67000
 50
188.72752
 51
208.71936
  0
ARC
  8
3
 10
124.61383
 20
303.03705
 40
7.24750
 50
171.54274
 51
188.72198
  0
ARC
  8
3
 10
127.12815
 20
302.66522
 40
9.79000
 50
158.78957
 51
171.55446
  0
ARC
  8
3
 10
125.08992
 20
303.45609
 40
7.60250
 50
143.83342
 51
158.78857
  0
ARC
  8
3
 10
123.34124
 20
304.73343
 40
5.43750
 50
123.03574
 51
143.82550
  0
ARC
  8
3
 10
123.61787
 20
304.30899
 40
5.94500
 50
111.17358
 51
123.04077
  0
ARC
  8
3
 10
122.96022
 20
306.00613
 40
4.12500
 50
48.00026
 51
111.17003
  0
LINE
  8
3
 10
126.83282
 20
310.74399
 11
125.71983
 21
309.07101
  0
ARC
  8
3
 10
123.11977
 20
411.26297
 40
5.18000
 50
108.50064
 51
133.75581
  0
ARC
  8
3
 10
122.54616
 20
411.86090
 40
4.35250
 50
133.74545
 51
163.60980
  0
ARC
  8
3
 10
122.15585
 20
411.97733
 40
3.94500
 50
163.63243
 51
190.07840
  0
ARC
  8
3
 10
122.56146
 20
412.04993
 40
4.35750
 50
190.08499
 51
214.10406
  0
ARC
  8
3
 10
123.06757
 20
412.39120
 40
4.96750
 50
214.09039
 51
236.16656
  0
ARC
  8
3
 10
127.29127
 20
418.68698
 40
12.54750
 50
236.15247
 51
244.98929
  0
ARC
  8
3
 10
125.61593
 20
415.11502
 40
8.60250
 50
245.04301
 51
250.08795
  0
ARC
  8
3
 10
119.77402
 20
398.99539
 40
8.54250
 50
64.97990
 51
70.06995
  0
ARC
  8
3
 10
119.65182
 20
398.73355
 40
8.83000
 50
55.88496
 51
64.97995
  0
ARC
  8
3
 10
122.84031
 20
403.44565
 40
3.14250
 50
30.62336
 51
55.82986
  0
ARC
  8
3
 10
123.10326
 20
403.59702
 40
2.83750
 50
15.76198
 51
30.69786
  0
ARC
  8
3
 10
123.24193
 20
403.63727
 40
2.69500
 50
.01688
 51
15.73918
  0
ARC
  8
3
 10
123.48097
 20
403.63885
 40
2.45500
 50
-19.08975
 51
.00000
  0
ARC
  8
3
 10
123.02369
 20
403.79276
 40
2.93750
 50
325.00064
 51
340.99057
  0
ARC
  8
3
 10
123.15677
 20
403.70297
 40
2.77750
 50
296.17883
 51
324.94321
  0
ARC
  8
3
 10
122.24203
 20
405.56738
 40
4.85250
 50
279.47287
 51
296.15970
  0
ARC
  8
3
 10
122.05659
 20
406.66003
 40
5.96250
 50
256.91470
 51
279.50250
  0
ARC
  8
3
 10
122.30236
 20
407.71320
 40
7.04250
 50
236.52847
 51
256.90692
  0
LINE
  8
3
 10
117.83382
 20
399.98398
 11
118.41784
 21
401.83798
  0
ARC
  8
3
 10
120.84326
 20
404.87723
 40
5.74500
 50
238.40773
 51
251.45114
  0
ARC
  8
3
 10
122.54517
 20
409.93414
 40
11.08000
 50
251.42619
 51
256.97440
  0
ARC
  8
3
 10
123.25641
 20
413.01642
 40
14.24250
 50
256.98151
 51
261.13678
  0
ARC
  8
3
 10
122.08572
 20
405.54031
 40
6.67750
 50
261.17822
 51
270.01147
  0
ARC
  8
3
 10
122.08857
 20
407.07098
 40
8.20750
 50
270.00000
 51
279.76715
  0
ARC
  8
3
 10
122.29327
 20
405.88718
 40
7.00500
 50
279.75970
 51
291.18387
  0
ARC
  8
3
 10
122.38392
 20
405.66397
 40
6.76500
 50
291.15115
 51
301.56305
  0
ARC
  8
3
 10
123.48719
 20
403.86151
 40
4.65250
 50
301.60504
 51
316.70862
  0
ARC
  8
3
 10
123.30161
 20
404.03668
 40
4.90750
 50
316.70575
 51
328.96497
  0
ARC
  8
3
 10
123.63636
 20
403.83401
 40
4.51500
 50
328.97845
 51
342.29703
  0
ARC
  8
3
 10
122.26932
 20
404.27438
 40
5.95250
 50
342.26025
 51
350.59662
  0
ARC
  8
3
 10
124.99279
 20
403.81973
 40
3.19000
 50
-9.33929
 51
6.14081
  0
ARC
  8
3
 10
123.50962
 20
403.66440
 40
4.68250
 50
6.08923
 51
45.21094
  0
ARC
  8
3
 10
121.24513
 20
401.38141
 40
7.89750
 50
45.21997
 51
69.01869
  0
ARC
  8
3
 10
132.56392
 20
430.91553
 40
23.73250
 50
246.88605
 51
249.03503
  0
ARC
  8
3
 10
127.10741
 20
418.14465
 40
9.84500
 50
241.74142
 51
246.91608
  0
ARC
  8
3
 10
125.55764
 20
415.24405
 40
6.55500
 50
229.95193
 51
241.66954
  0
ARC
  8
3
 10
122.99760
 20
412.20029
 40
2.57750
 50
200.74867
 51
229.98019
  0
ARC
  8
3
 10
122.72888
 20
412.09698
 40
2.29000
 50
165.79395
 51
200.71359
  0
ARC
  8
3
 10
122.84940
 20
412.06897
 40
2.41500
 50
132.59161
 51
165.85136
  0
ARC
  8
3
 10
123.30426
 20
411.57074
 40
3.08750
 50
100.13438
 51
132.54852
  0
ARC
  8
3
 10
123.78330
 20
408.91302
 40
5.79000
 50
82.54073
 51
100.17322
  0
ARC
  8
3
 10
123.63853
 20
407.82712
 40
6.88500
 50
61.95076
 51
82.51929
  0
LINE
  8
3
 10
127.48582
 20
415.70700
 11
126.87582
 21
413.90298
  0
ARC
  8
3
 10
123.84524
 20
408.12219
 40
8.41250
 50
64.35974
 51
84.03998
  0
ARC
  8
3
 10
123.81356
 20
407.76999
 40
8.76750
 50
84.07307
 51
94.80743
  0
ARC
  8
3
 10
123.64807
 20
409.68286
 40
6.84750
 50
94.76898
 51
108.49738
  0
LINE
  8
3
 10
94.79724
 20
408.99948
 11
94.79724
 21
407.17047
  0
LINE
  8
3
 10
88.12724
 20
408.99948
 11
94.79724
 21
408.99948
  0
LINE
  8
3
 10
88.12724
 20
414.40948
 11
88.12724
 21
408.99948
  0
LINE
  8
3
 10
95.20924
 20
414.40948
 11
88.12724
 21
414.40948
  0
LINE
  8
3
 10
95.20924
 20
416.26147
 11
95.20924
 21
414.40948
  0
LINE
  8
3
 10
85.87724
 20
416.26147
 11
95.20924
 21
416.26147
  0
LINE
  8
3
 10
85.87724
 20
399.14148
 11
85.87724
 21
416.26147
  0
LINE
  8
3
 10
95.59224
 20
399.14148
 11
85.87724
 21
399.14148
  0
LINE
  8
3
 10
95.59224
 20
400.99847
 11
95.59224
 21
399.14148
  0
LINE
  8
3
 10
88.12724
 20
400.99847
 11
95.59224
 21
400.99847
  0
LINE
  8
3
 10
88.12724
 20
407.17047
 11
88.12724
 21
400.99847
  0
LINE
  8
3
 10
94.79724
 20
407.17047
 11
88.12724
 21
407.17047
  0
LINE
  8
3
 10
84.45424
 20
85.20247
 11
84.45424
 21
83.90747
  0
LINE
  8
3
 10
84.45424
 20
83.90747
 11
96.95324
 21
83.90747
  0
LINE
  8
3
 10
96.95324
 20
83.90747
 11
96.95324
 21
85.76047
  0
LINE
  8
3
 10
96.95324
 20
85.76047
 11
87.37524
 21
85.76047
  0
LINE
  8
3
 10
87.37524
 20
85.76047
 11
96.82624
 21
99.68147
  0
LINE
  8
3
 10
96.82624
 20
99.68147
 11
96.82624
 21
101.02947
  0
LINE
  8
3
 10
96.82624
 20
101.02947
 11
85.26724
 21
101.02947
  0
LINE
  8
3
 10
85.26724
 20
101.02947
 11
85.26724
 21
99.17447
  0
LINE
  8
3
 10
85.26724
 20
99.17447
 11
93.93124
 21
99.17447
  0
LINE
  8
3
 10
93.93124
 20
99.17447
 11
84.45424
 21
85.20247
  0
LINE
  8
3
 10
94.68824
 20
232.03947
 11
94.68824
 21
233.86847
  0
LINE
  8
3
 10
94.68824
 20
233.86847
 11
88.06124
 21
233.86847
  0
LINE
  8
3
 10
88.06124
 20
233.86847
 11
88.06124
 21
239.27946
  0
LINE
  8
3
 10
88.06124
 20
239.27946
 11
95.09724
 21
239.27946
  0
LINE
  8
3
 10
95.09724
 20
239.27946
 11
95.09724
 21
241.13347
  0
LINE
  8
3
 10
95.09724
 20
241.13347
 11
85.82324
 21
241.13347
  0
LINE
  8
3
 10
85.82324
 20
241.13347
 11
85.82324
 21
224.01247
  0
LINE
  8
3
 10
85.82324
 20
224.01247
 11
95.47824
 21
224.01247
  0
LINE
  8
3
 10
95.47824
 20
224.01247
 11
95.47824
 21
225.86748
  0
LINE
  8
3
 10
95.47824
 20
225.86748
 11
88.06124
 21
225.86748
  0
LINE
  8
3
 10
88.06124
 20
225.86748
 11
88.06124
 21
232.03947
  0
LINE
  8
3
 10
88.06124
 20
232.03947
 11
94.68824
 21
232.03947
  0
LINE
  8
3
 10
86.50424
 20
276.15747
 11
84.26924
 21
276.15747
  0
LINE
  8
3
 10
84.26924
 20
276.15747
 11
84.26924
 21
259.03748
  0
LINE
  8
3
 10
84.26924
 20
259.03748
 11
86.50424
 21
259.03748
  0
LINE
  8
3
 10
86.50424
 20
259.03748
 11
86.50424
 21
267.06448
  0
LINE
  8
3
 10
86.50424
 20
267.06448
 11
94.78424
 21
267.06448
  0
LINE
  8
3
 10
94.78424
 20
267.06448
 11
94.78424
 21
259.03748
  0
LINE
  8
3
 10
94.78424
 20
259.03748
 11
97.02024
 21
259.03748
  0
LINE
  8
3
 10
97.02024
 20
259.03748
 11
97.02024
 21
276.15747
  0
LINE
  8
3
 10
97.02024
 20
276.15747
 11
94.78424
 21
276.15747
  0
LINE
  8
3
 10
94.78424
 20
276.15747
 11
94.78424
 21
268.99448
  0
LINE
  8
3
 10
94.78424
 20
268.99448
 11
86.50424
 21
268.99448
  0
LINE
  8
3
 10
86.50424
 20
268.99448
 11
86.50424
 21
276.15747
  0
LINE
  8
3
 10
84.45424
 20
365.41348
 11
84.45424
 21
364.11746
  0
LINE
  8
3
 10
84.45424
 20
364.11746
 11
96.95324
 21
364.11746
  0
LINE
  8
3
 10
96.95324
 20
364.11746
 11
96.95324
 21
365.96948
  0
LINE
  8
3
 10
96.95324
 20
365.96948
 11
87.37524
 21
365.96948
  0
LINE
  8
3
 10
87.37524
 20
365.96948
 11
96.82624
 21
379.89148
  0
LINE
  8
3
 10
96.82624
 20
379.89148
 11
96.82624
 21
381.23746
  0
LINE
  8
3
 10
96.82624
 20
381.23746
 11
85.26724
 21
381.23746
  0
LINE
  8
3
 10
85.26724
 20
381.23746
 11
85.26724
 21
379.38348
  0
LINE
  8
3
 10
85.26724
 20
379.38348
 11
93.93124
 21
379.38348
  0
LINE
  8
3
 10
93.93124
 20
379.38348
 11
84.45424
 21
365.41348
  0
ARC
  8
3
 10
90.82027
 20
131.05244
 40
5.18000
 50
108.50163
 51
133.75659
  0
ARC
  8
3
 10
90.24656
 20
131.65033
 40
4.35250
 50
133.74487
 51
163.60919
  0
ARC
  8
3
 10
89.85626
 20
131.76680
 40
3.94500
 50
163.63243
 51
190.07840
  0
ARC
  8
3
 10
90.26188
 20
131.83939
 40
4.35750
 50
190.08478
 51
214.10406
  0
ARC
  8
3
 10
90.76804
 20
132.18066
 40
4.96750
 50
214.09006
 51
236.16608
  0
ARC
  8
3
 10
94.99160
 20
138.47646
 40
12.54750
 50
236.15280
 51
244.98958
  0
ARC
  8
3
 10
93.31623
 20
134.90451
 40
8.60250
 50
245.04361
 51
250.08870
  0
ARC
  8
3
 10
87.47457
 20
118.78480
 40
8.54250
 50
64.98097
 51
70.07098
  0
ARC
  8
3
 10
87.35229
 20
118.52298
 40
8.83000
 50
55.88556
 51
64.98048
  0
ARC
  8
3
 10
90.54069
 20
123.23512
 40
3.14250
 50
30.62308
 51
55.82968
  0
ARC
  8
3
 10
90.80366
 20
123.38651
 40
2.83750
 50
15.76130
 51
30.69743
  0
ARC
  8
3
 10
90.94234
 20
123.42672
 40
2.69500
 50
.01704
 51
15.73933
  0
ARC
  8
3
 10
91.18138
 20
123.42832
 40
2.45500
 50
-19.08990
 51
.00000
  0
ARC
  8
3
 10
90.72411
 20
123.58221
 40
2.93750
 50
325.00070
 51
340.99066
  0
ARC
  8
3
 10
90.85719
 20
123.49244
 40
2.77750
 50
296.17853
 51
324.94290
  0
ARC
  8
3
 10
89.94231
 20
125.35681
 40
4.85250
 50
279.47446
 51
296.16125
  0
ARC
  8
3
 10
89.75704
 20
126.44948
 40
5.96250
 50
256.91434
 51
279.50211
  0
ARC
  8
3
 10
90.00284
 20
127.50262
 40
7.04250
 50
236.52771
 51
256.90643
  0
LINE
  8
3
 10
86.11824
 20
121.62746
 11
85.53423
 21
119.77347
  0
ARC
  8
3
 10
88.54389
 20
124.66660
 40
5.74500
 50
238.40524
 51
251.44888
  0
ARC
  8
3
 10
90.24529
 20
129.72366
 40
11.08000
 50
251.42776
 51
256.97592
  0
ARC
  8
3
 10
90.95659
 20
132.80591
 40
14.24250
 50
256.98239
 51
261.13773
  0
ARC
  8
3
 10
89.78627
 20
125.32978
 40
6.67750
 50
261.17697
 51
270.01022
  0
ARC
  8
3
 10
89.78876
 20
126.86044
 40
8.20750
 50
270.00000
 51
279.76871
  0
ARC
  8
3
 10
89.99377
 20
125.67666
 40
7.00500
 50
279.75903
 51
291.18323
  0
ARC
  8
3
 10
90.08443
 20
125.45348
 40
6.76500
 50
291.15030
 51
301.56223
  0
ARC
  8
3
 10
91.18758
 20
123.65096
 40
4.65250
 50
301.60553
 51
316.70880
  0
ARC
  8
3
 10
91.00201
 20
123.82614
 40
4.90750
 50
316.70575
 51
328.96475
  0
ARC
  8
3
 10
91.33677
 20
123.62348
 40
4.51500
 50
328.97818
 51
342.29706
  0
ARC
  8
3
 10
89.96971
 20
124.06376
 40
5.95250
 50
342.26114
 51
350.59741
  0
ARC
  8
3
 10
92.69320
 20
123.60923
 40
3.19000
 50
-9.34000
 51
6.14013
  0
ARC
  8
3
 10
91.21002
 20
123.45391
 40
4.68250
 50
6.08857
 51
45.21068
  0
ARC
  8
3
 10
88.94560
 20
121.17083
 40
7.89750
 50
45.22064
 51
69.01921
  0
ARC
  8
3
 10
100.26467
 20
150.70485
 40
23.73250
 50
246.88515
 51
249.03415
  0
ARC
  8
3
 10
94.80788
 20
137.93410
 40
9.84500
 50
241.74103
 51
246.91559
  0
ARC
  8
3
 10
93.25800
 20
135.03355
 40
6.55500
 50
229.95255
 51
241.67007
  0
ARC
  8
3
 10
90.69803
 20
131.98975
 40
2.57750
 50
200.74823
 51
229.97993
  0
ARC
  8
3
 10
90.42929
 20
131.88646
 40
2.29000
 50
165.79431
 51
200.71359
  0
ARC
  8
3
 10
90.54981
 20
131.85843
 40
2.41500
 50
132.59148
 51
165.85136
  0
ARC
  8
3
 10
91.00470
 20
131.36021
 40
3.08750
 50
100.13495
 51
132.54904
  0
ARC
  8
3
 10
91.48367
 20
128.70248
 40
5.79000
 50
82.54028
 51
100.17274
  0
ARC
  8
3
 10
91.33901
 20
127.61656
 40
6.88500
 50
61.95149
 51
82.51993
  0
LINE
  8
3
 10
94.57623
 20
133.69247
 11
95.18624
 21
135.49646
  0
ARC
  8
3
 10
91.54561
 20
127.91166
 40
8.41250
 50
64.35944
 51
84.03967
  0
ARC
  8
3
 10
91.51406
 20
127.55946
 40
8.76750
 50
84.07362
 51
94.80804
  0
ARC
  8
3
 10
91.34836
 20
129.47232
 40
6.84750
 50
94.76797
 51
108.49632
  0
ARC
  8
3
 10
90.75627
 20
166.07845
 40
5.18000
 50
108.50163
 51
133.75659
  0
ARC
  8
3
 10
90.18256
 20
166.67633
 40
4.35250
 50
133.74495
 51
163.60922
  0
ARC
  8
3
 10
89.79226
 20
166.79279
 40
3.94500
 50
163.63222
 51
190.07816
  0
ARC
  8
3
 10
90.19786
 20
166.86542
 40
4.35750
 50
190.08519
 51
214.10458
  0
ARC
  8
3
 10
90.70403
 20
167.20667
 40
4.96750
 50
214.09010
 51
236.16615
  0
ARC
  8
3
 10
94.92760
 20
173.50246
 40
12.54750
 50
236.15280
 51
244.98958
  0
ARC
  8
3
 10
93.25208
 20
169.93057
 40
8.60250
 50
245.04474
 51
250.08981
  0
ARC
  8
3
 10
87.41043
 20
153.81087
 40
8.54250
 50
64.97990
 51
70.06995
  0
ARC
  8
3
 10
87.28822
 20
153.54901
 40
8.83000
 50
55.88493
 51
64.97990
  0
ARC
  8
3
 10
90.47670
 20
158.26111
 40
3.14250
 50
30.62346
 51
55.82979
  0
ARC
  8
3
 10
90.73967
 20
158.41245
 40
2.83750
 50
15.76253
 51
30.69873
  0
ARC
  8
3
 10
90.87834
 20
158.45274
 40
2.69500
 50
.01655
 51
15.73886
  0
ARC
  8
3
 10
91.11738
 20
158.45430
 40
2.45500
 50
-19.08936
 51
.00000
  0
ARC
  8
3
 10
90.66011
 20
158.60822
 40
2.93750
 50
325.00058
 51
340.99051
  0
ARC
  8
3
 10
90.79319
 20
158.51843
 40
2.77750
 50
296.17853
 51
324.94312
  0
ARC
  8
3
 10
89.87833
 20
160.38281
 40
4.85250
 50
279.47403
 51
296.16089
  0
ARC
  8
3
 10
89.69299
 20
161.47548
 40
5.96250
 50
256.91473
 51
279.50247
  0
ARC
  8
3
 10
89.93890
 20
162.52861
 40
7.04250
 50
236.52715
 51
256.90582
  0
LINE
  8
3
 10
85.47023
 20
154.79948
 11
86.05424
 21
156.65347
  0
ARC
  8
3
 10
88.47993
 20
159.69260
 40
5.74500
 50
238.40474
 51
251.44849
  0
ARC
  8
3
 10
90.18130
 20
164.74968
 40
11.08000
 50
251.42780
 51
256.97595
  0
ARC
  8
3
 10
90.89286
 20
167.83186
 40
14.24250
 50
256.98138
 51
261.13660
  0
ARC
  8
3
 10
89.72212
 20
160.35577
 40
6.67750
 50
261.17822
 51
270.01105
  0
ARC
  8
3
 10
89.72478
 20
161.88644
 40
8.20750
 50
270.00000
 51
279.76843
  0
ARC
  8
3
 10
89.92971
 20
160.70265
 40
7.00500
 50
279.75940
 51
291.18372
  0
ARC
  8
3
 10
90.02041
 20
160.47948
 40
6.76500
 50
291.15051
 51
301.56238
  0
ARC
  8
3
 10
91.12356
 20
158.67696
 40
4.65250
 50
301.60580
 51
316.70917
  0
ARC
  8
3
 10
90.93803
 20
158.85219
 40
4.90750
 50
316.70526
 51
328.96411
  0
ARC
  8
3
 10
91.27277
 20
158.64949
 40
4.51500
 50
328.97803
 51
342.29684
  0
ARC
  8
3
 10
89.90570
 20
159.08969
 40
5.95250
 50
342.26175
 51
350.59808
  0
ARC
  8
3
 10
92.62920
 20
158.63527
 40
3.19000
 50
-9.34070
 51
6.13945
  0
ARC
  8
3
 10
91.14603
 20
158.47989
 40
4.68250
 50
6.08885
 51
45.21088
  0
ARC
  8
3
 10
88.88158
 20
156.19684
 40
7.89750
 50
45.22047
 51
69.01904
  0
ARC
  8
3
 10
100.20082
 20
185.73080
 40
23.73250
 50
246.88480
 51
249.03377
  0
ARC
  8
3
 10
94.74383
 20
172.96013
 40
9.84500
 50
241.74139
 51
246.91603
  0
ARC
  8
3
 10
93.19401
 20
170.05954
 40
6.55500
 50
229.95241
 51
241.66989
  0
ARC
  8
3
 10
90.63403
 20
167.01575
 40
2.57750
 50
200.74823
 51
229.97993
  0
ARC
  8
3
 10
90.36529
 20
166.91249
 40
2.29000
 50
165.79510
 51
200.71437
  0
ARC
  8
3
 10
90.48580
 20
166.88441
 40
2.41500
 50
132.59109
 51
165.85101
  0
ARC
  8
3
 10
90.94070
 20
166.38622
 40
3.08750
 50
100.13495
 51
132.54904
  0
ARC
  8
3
 10
91.41965
 20
163.72849
 40
5.79000
 50
82.54028
 51
100.17267
  0
ARC
  8
3
 10
91.27502
 20
162.64256
 40
6.88500
 50
61.95155
 51
82.52007
  0
LINE
  8
3
 10
95.12224
 20
170.52245
 11
94.51223
 21
168.71848
  0
ARC
  8
3
 10
91.48161
 20
162.93765
 40
8.41250
 50
64.35947
 51
84.03972
  0
ARC
  8
3
 10
91.44997
 20
162.58546
 40
8.76750
 50
84.07307
 51
94.80750
  0
ARC
  8
3
 10
91.28436
 20
164.49832
 40
6.84750
 50
94.76797
 51
108.49632
  0
ARC
  8
3
 10
87.43004
 20
227.71130
 40
38.87000
 50
264.06863
 51
267.00525
  0
LINE
  8
3
 10
83.41324
 20
190.72647
 11
83.41323
 21
189.04848
  0
LINE
  8
3
 10
85.50624
 20
190.65247
 11
83.41324
 21
190.72647
  0
ARC
  8
3
 10
85.61001
 20
150.87375
 40
39.78000
 50
88.41940
 51
90.14947
  0
LINE
  8
3
 10
87.72703
 20
190.62347
 11
86.70723
 21
190.63747
  0
ARC
  8
3
 10
87.72702
 20
200.02151
 40
9.39750
 50
269.99994
 51
285.18198
  0
ARC
  8
3
 10
88.31197
 20
197.86578
 40
7.16500
 50
285.18219
 51
305.01913
  0
ARC
  8
3
 10
88.96025
 20
196.93947
 40
6.03250
 50
305.02527
 51
335.83499
  0
ARC
  8
3
 10
87.34898
 20
197.66125
 40
7.80000
 50
-24.15723
 51
.01255
  0
ARC
  8
3
 10
86.27216
 20
197.66475
 40
8.87500
 50
.00000
 51
15.50464
  0
ARC
  8
3
 10
89.07731
 20
198.44434
 40
5.96500
 50
15.49164
 51
38.56224
  0
ARC
  8
3
 10
89.23849
 20
198.56955
 40
5.76000
 50
38.58775
 51
68.50526
  0
ARC
  8
3
 10
88.37903
 20
196.39053
 40
8.10250
 50
68.49637
 51
89.97453
  0
ARC
  8
3
 10
88.38620
 20
186.94424
 40
17.55000
 50
90.00000
 51
94.01242
  0
ARC
  8
3
 10
88.21356
 20
189.31349
 40
15.17250
 50
93.98813
 51
99.82918
  0
LINE
  8
3
 10
85.62324
 20
192.70447
 11
85.62324
 21
204.26447
  0
LINE
  8
3
 10
83.41324
 20
192.70447
 11
85.62324
 21
192.70447
  0
LINE
  8
3
 10
83.41324
 20
205.86647
 11
83.41324
 21
192.70447
  0
LINE
  8
3
 10
83.75424
 20
205.92447
 11
83.41324
 21
205.86647
  0
LINE
  8
3
 10
85.61324
 20
206.14247
 11
83.75424
 21
205.92447
  0
LINE
  8
3
 10
87.57523
 20
206.25546
 11
85.61324
 21
206.14247
  0
ARC
  8
3
 10
88.03330
 20
195.66138
 40
10.60500
 50
81.89552
 51
92.47583
  0
ARC
  8
3
 10
86.87946
 20
187.59433
 40
18.75250
 50
75.26202
 51
81.88014
  0
ARC
  8
3
 10
89.08128
 20
195.95114
 40
10.11000
 50
63.04065
 51
75.28134
  0
LINE
  8
3
 10
94.41423
 20
204.56248
 11
93.66524
 21
204.96347
  0
ARC
  8
3
 10
92.56001
 20
201.26392
 40
3.78500
 50
47.85266
 51
60.65845
  0
ARC
  8
3
 10
92.41132
 20
201.10249
 40
4.00250
 50
32.32882
 51
47.82518
  0
LINE
  8
3
 10
96.35323
 20
202.30846
 11
95.79422
 21
203.24345
  0
ARC
  8
3
 10
89.39007
 20
198.37639
 40
7.99750
 50
16.14833
 51
29.45322
  0
ARC
  8
3
 10
84.76545
 20
197.04466
 40
12.81000
 50
7.79728
 51
16.11684
  0
ARC
  8
3
 10
89.99926
 20
197.75824
 40
7.52750
 50
-12.59076
 51
7.82076
  0
ARC
  8
3
 10
85.78690
 20
198.69977
 40
11.84250
 50
334.35175
 51
347.40610
  0
LINE
  8
3
 10
95.87524
 20
192.42146
 11
96.46325
 21
193.57346
  0
ARC
  8
3
 10
91.97176
 20
194.53677
 40
4.44000
 50
314.96506
 51
331.54651
  0
ARC
  8
3
 10
92.45760
 20
194.05536
 40
3.75500
 50
302.00641
 51
314.91104
  0
LINE
  8
3
 10
93.71424
 20
190.44447
 11
94.44824
 21
190.87045
  0
ARC
  8
3
 10
87.86282
 20
201.37209
 40
12.39500
 50
287.13196
 51
298.16776
  0
ARC
  8
3
 10
86.42564
 20
206.00816
 40
17.25000
 50
279.21600
 51
287.15771
  0
ARC
  8
3
 10
87.65114
 20
198.50317
 40
9.64500
 50
273.32910
 51
279.17026
  0
LINE
  8
3
 10
87.23724
 20
188.84546
 11
88.21124
 21
188.87447
  0
ARC
  8
3
 10
87.23729
 20
224.05853
 40
35.21250
 50
267.00793
 51
270.00000
  0
ARC
  8
3
 10
87.40434
 20
367.79626
 40
38.87000
 50
264.06821
 51
267.00482
  0
LINE
  8
3
 10
83.38724
 20
330.81146
 11
83.38725
 21
329.13348
  0
LINE
  8
3
 10
85.48024
 20
330.73746
 11
83.38724
 21
330.81146
  0
ARC
  8
3
 10
85.58401
 20
290.95874
 40
39.78000
 50
88.41940
 51
90.14947
  0
LINE
  8
3
 10
87.70103
 20
330.70847
 11
86.68123
 21
330.72244
  0
ARC
  8
3
 10
87.70102
 20
340.10651
 40
9.39750
 50
269.99994
 51
285.18198
  0
ARC
  8
3
 10
88.28593
 20
337.95078
 40
7.16500
 50
285.18246
 51
305.01947
  0
ARC
  8
3
 10
88.93425
 20
337.02448
 40
6.03250
 50
305.02527
 51
335.83499
  0
ARC
  8
3
 10
87.32298
 20
337.74625
 40
7.80000
 50
-24.15710
 51
.01278
  0
ARC
  8
3
 10
86.24616
 20
337.74973
 40
8.87500
 50
.00000
 51
15.50475
  0
ARC
  8
3
 10
89.05131
 20
338.52933
 40
5.96500
 50
15.49164
 51
38.56224
  0
ARC
  8
3
 10
89.21247
 20
338.65457
 40
5.76000
 50
38.58742
 51
68.50507
  0
ARC
  8
3
 10
88.35314
 20
336.47549
 40
8.10250
 50
68.49724
 51
89.97578
  0
ARC
  8
3
 10
88.35954
 20
327.02924
 40
17.55000
 50
90.00000
 51
94.01028
  0
ARC
  8
3
 10
88.18771
 20
329.39850
 40
15.17250
 50
93.98868
 51
99.82973
  0
LINE
  8
3
 10
85.59724
 20
332.78946
 11
85.59724
 21
344.34946
  0
LINE
  8
3
 10
83.38724
 20
332.78946
 11
85.59724
 21
332.78946
  0
LINE
  8
3
 10
83.38724
 20
345.95148
 11
83.38724
 21
332.78946
  0
LINE
  8
3
 10
83.72824
 20
346.00946
 11
83.38724
 21
345.95148
  0
LINE
  8
3
 10
85.58724
 20
346.22748
 11
83.72824
 21
346.00946
  0
LINE
  8
3
 10
87.54923
 20
346.34045
 11
85.58724
 21
346.22748
  0
ARC
  8
3
 10
88.00730
 20
335.74637
 40
10.60500
 50
81.89552
 51
92.47583
  0
ARC
  8
3
 10
86.85346
 20
327.67932
 40
18.75250
 50
75.26202
 51
81.88014
  0
ARC
  8
3
 10
89.05527
 20
336.03613
 40
10.11000
 50
63.04065
 51
75.28134
  0
LINE
  8
3
 10
94.38823
 20
344.64746
 11
93.63924
 21
345.04846
  0
ARC
  8
3
 10
92.53418
 20
341.34879
 40
3.78500
 50
47.85593
 51
60.66145
  0
ARC
  8
3
 10
92.38530
 20
341.18753
 40
4.00250
 50
32.32816
 51
47.82463
  0
LINE
  8
3
 10
96.32722
 20
342.39346
 11
95.76823
 21
343.32846
  0
ARC
  8
3
 10
89.36407
 20
338.46136
 40
7.99750
 50
16.14866
 51
29.45344
  0
ARC
  8
3
 10
84.73946
 20
337.12964
 40
12.81000
 50
7.79749
 51
16.11706
  0
ARC
  8
3
 10
89.97326
 20
337.84323
 40
7.52750
 50
-12.59076
 51
7.82099
  0
ARC
  8
3
 10
85.76093
 20
338.78488
 40
11.84250
 50
334.35126
 51
347.40549
  0
LINE
  8
3
 10
95.84923
 20
332.50647
 11
96.43723
 21
333.65848
  0
ARC
  8
3
 10
91.94576
 20
334.62180
 40
4.44000
 50
314.96490
 51
331.54636
  0
ARC
  8
3
 10
92.43161
 20
334.14038
 40
3.75500
 50
302.00632
 51
314.91061
  0
LINE
  8
3
 10
93.68825
 20
330.52948
 11
94.42225
 21
330.95547
  0
ARC
  8
3
 10
87.83691
 20
341.45712
 40
12.39500
 50
287.13153
 51
298.16736
  0
ARC
  8
3
 10
86.39954
 20
346.09314
 40
17.25000
 50
279.21634
 51
287.15808
  0
ARC
  8
3
 10
87.62485
 20
338.58813
 40
9.64500
 50
273.33084
 51
279.17200
  0
LINE
  8
3
 10
87.21124
 20
328.93045
 11
88.18523
 21
328.95944
  0
ARC
  8
3
 10
87.21129
 20
364.14352
 40
35.21250
 50
267.00793
 51
270.00000
  0
CIRCLE
  8
3
 10
475.00000
 20
475.00000
 40
1.25000
  0
CIRCLE
  8
3
 10
25.00700
 20
474.99799
 40
1.25000
  0
CIRCLE
  8
3
 10
475.00000
 20
25.00000
 40
1.25000
  0
CIRCLE
  8
3
 10
25.00000
 20
25.00000
 40
1.25000
  0
LINE
  8
3
 10
.00000
 20
500.00000
 11
500.00000
 21
500.00000
  0
LINE
  8
3
 10
500.00000
 20
500.00000
 11
500.00000
 21
.00000
  0
LINE
  8
3
 10
500.00000
 20
.00000
 11
.00000
 21
.00000
  0
LINE
  8
3
 10
.00000
 20
.00000
 11
.00000
 21
500.00000
  0
LINE
  8
3
 10
254.03101
 20
267.06601
 11
254.03101
 21
268.89700
  0
LINE
  8
3
 10
254.03101
 20
268.89700
 11
247.40199
 21
268.89700
  0
LINE
  8
3
 10
247.40199
 20
268.89700
 11
247.40199
 21
274.30701
  0
LINE
  8
3
 10
247.40199
 20
274.30701
 11
254.43800
 21
274.30701
  0
LINE
  8
3
 10
254.43800
 20
274.30701
 11
254.43800
 21
276.16199
  0
LINE
  8
3
 10
254.43800
 20
276.16199
 11
245.16400
 21
276.16199
  0
LINE
  8
3
 10
245.16400
 20
276.16199
 11
245.16400
 21
259.03900
  0
LINE
  8
3
 10
245.16400
 20
259.03900
 11
254.81799
 21
259.03900
  0
LINE
  8
3
 10
254.81799
 20
259.03900
 11
254.81799
 21
260.89401
  0
LINE
  8
3
 10
254.81799
 20
260.89401
 11
247.40199
 21
260.89401
  0
LINE
  8
3
 10
247.40199
 20
260.89401
 11
247.40199
 21
267.06601
  0
LINE
  8
3
 10
247.40199
 20
267.06601
 11
254.03101
 21
267.06601
  0
LINE
  8
3
 10
250.95399
 20
329.09299
 11
250.95399
 21
346.21201
  0
LINE
  8
3
 10
250.95399
 20
346.21201
 11
248.71800
 21
346.21201
  0
LINE
  8
3
 10
248.71800
 20
346.21201
 11
248.71800
 21
329.09299
  0
LINE
  8
3
 10
248.71800
 20
329.09299
 11
250.95399
 21
329.09299
  0
CIRCLE
  8
3
 10
252.40800
 20
243.83501
 40
1.27500
  0
CIRCLE
  8
3
 10
247.68600
 20
243.85600
 40
1.25750
  0
LINE
  8
3
 10
243.69501
 20
101.17000
 11
245.92900
 21
101.17000
  0
LINE
  8
3
 10
243.69601
 20
91.52170
 11
243.69501
 21
101.17000
  0
ARC
  8
3
 10
219.81781
 20
91.52180
 40
23.87750
 50
358.71426
 51
359.99997
  0
ARC
  8
3
 10
248.99690
 20
90.87300
 40
5.30750
 50
178.78011
 51
183.55354
  0
ARC
  8
3
 10
254.93645
 20
91.31409
 40
11.26500
 50
183.92029
 51
189.79938
  0
ARC
  8
3
 10
255.15411
 20
91.35278
 40
11.48500
 50
189.80475
 51
195.21844
  0
ARC
  8
3
 10
250.82399
 20
90.17698
 40
6.99750
 50
195.23558
 51
216.46367
  0
ARC
  8
3
 10
249.53755
 20
89.22736
 40
5.40000
 50
216.47252
 51
243.77782
  0
ARC
  8
3
 10
249.72588
 20
89.60907
 40
5.82500
 50
243.77501
 51
257.47784
  0
ARC
  8
3
 10
249.84781
 20
90.15487
 40
6.38500
 50
257.47162
 51
269.99054
  0
ARC
  8
3
 10
249.84570
 20
90.44689
 40
6.67500
 50
270.00000
 51
282.60883
  0
ARC
  8
3
 10
249.92357
 20
90.10922
 40
6.33000
 50
282.58823
 51
295.86728
  0
ARC
  8
3
 10
250.15993
 20
89.61617
 40
5.78250
 50
295.89142
 51
322.15030
  0
ARC
  8
3
 10
249.22766
 20
90.34523
 40
6.96500
 50
322.12024
 51
344.03323
  0
ARC
  8
3
 10
245.32144
 20
91.46160
 40
11.02750
 50
344.03955
 51
349.65964
  0
ARC
  8
3
 10
245.68457
 20
91.39198
 40
10.66000
 50
349.67743
 51
355.80630
  0
LINE
  8
3
 10
256.31900
 20
101.17000
 11
256.31500
 21
90.61251
  0
LINE
  8
3
 10
254.08400
 20
101.17000
 11
256.31900
 21
101.17000
  0
LINE
  8
3
 10
254.08299
 20
90.66600
 11
254.08400
 21
101.17000
  0
ARC
  8
3
 10
248.51990
 20
90.81557
 40
5.56500
 50
351.16672
 51
358.45987
  0
ARC
  8
3
 10
238.21837
 20
92.40813
 40
15.99000
 50
348.65561
 51
351.19623
  0
ARC
  8
3
 10
248.04184
 20
90.44155
 40
5.97000
 50
330.47263
 51
348.61554
  0
ARC
  8
3
 10
249.95204
 20
89.36207
 40
3.77750
 50
302.10254
 51
330.44012
  0
ARC
  8
3
 10
249.92119
 20
89.40330
 40
3.82750
 50
279.68277
 51
302.16577
  0
ARC
  8
3
 10
249.92252
 20
89.41697
 40
3.84000
 50
257.22247
 51
279.62894
  0
ARC
  8
3
 10
249.85339
 20
89.11779
 40
3.53500
 50
228.91670
 51
257.24261
  0
ARC
  8
3
 10
250.12704
 20
89.43430
 40
3.95250
 50
203.52017
 51
228.94174
  0
ARC
  8
3
 10
251.84352
 20
90.17729
 40
5.82250
 50
192.32872
 51
203.48347
  0
ARC
  8
3
 10
255.41795
 20
90.96178
 40
9.48250
 50
185.48146
 51
192.34799
  0
ARC
  8
3
 10
265.88269
 20
91.96892
 40
19.99500
 50
184.39107
 51
185.48976
  0
ARC
  8
3
 10
251.99272
 20
90.92330
 40
6.06500
 50
181.63707
 51
184.58867
  0
LINE
  8
3
 10
245.92900
 20
101.17000
 11
245.92902
 21
90.75000
  0
LINE
  8
3
 10
243.64400
 20
206.24800
 11
245.87801
 21
206.24800
  0
LINE
  8
3
 10
243.64502
 20
196.59972
 11
243.64400
 21
206.24800
  0
ARC
  8
3
 10
219.76682
 20
196.59981
 40
23.87750
 50
-1.28577
 51
.00000
  0
ARC
  8
3
 10
248.94592
 20
195.95082
 40
5.30750
 50
178.77814
 51
183.55162
  0
ARC
  8
3
 10
254.88544
 20
196.39224
 40
11.26500
 50
183.92110
 51
189.80016
  0
ARC
  8
3
 10
255.10312
 20
196.43079
 40
11.48500
 50
189.80478
 51
195.21849
  0
ARC
  8
3
 10
250.77298
 20
195.25497
 40
6.99750
 50
195.23557
 51
216.46368
  0
ARC
  8
3
 10
249.48656
 20
194.30537
 40
5.40000
 50
216.47258
 51
243.77785
  0
ARC
  8
3
 10
249.67494
 20
194.68704
 40
5.82500
 50
243.77434
 51
257.47723
  0
ARC
  8
3
 10
249.79674
 20
195.23288
 40
6.38500
 50
257.47232
 51
269.99097
  0
ARC
  8
3
 10
249.79466
 20
195.52487
 40
6.67500
 50
269.99988
 51
282.60913
  0
ARC
  8
3
 10
249.87265
 20
195.18726
 40
6.33000
 50
282.58737
 51
295.86652
  0
ARC
  8
3
 10
250.10892
 20
194.69415
 40
5.78250
 50
295.89160
 51
322.15030
  0
ARC
  8
3
 10
249.17665
 20
195.42322
 40
6.96500
 50
322.12024
 51
344.03323
  0
ARC
  8
3
 10
245.27039
 20
196.53943
 40
11.02750
 50
344.04044
 51
349.66052
  0
ARC
  8
3
 10
245.63356
 20
196.46999
 40
10.66000
 50
349.67737
 51
355.80618
  0
LINE
  8
3
 10
256.26801
 20
206.24800
 11
256.26398
 21
195.69049
  0
LINE
  8
3
 10
254.03300
 20
206.24800
 11
256.26801
 21
206.24800
  0
LINE
  8
3
 10
254.03200
 20
195.74400
 11
254.03300
 21
206.24800
  0
ARC
  8
3
 10
248.46890
 20
195.89359
 40
5.56500
 50
351.16666
 51
358.45978
  0
ARC
  8
3
 10
238.16739
 20
197.48616
 40
15.99000
 50
348.65552
 51
351.19614
  0
ARC
  8
3
 10
247.99084
 20
195.51955
 40
5.97000
 50
330.47269
 51
348.61560
  0
ARC
  8
3
 10
249.90106
 20
194.44009
 40
3.77750
 50
302.10178
 51
330.43970
  0
ARC
  8
3
 10
249.87013
 20
194.48129
 40
3.82750
 50
279.68365
 51
302.16623
  0
ARC
  8
3
 10
249.87151
 20
194.49496
 40
3.84000
 50
257.22272
 51
279.62918
  0
ARC
  8
3
 10
249.80241
 20
194.19579
 40
3.53500
 50
228.91652
 51
257.24240
  0
ARC
  8
3
 10
250.07607
 20
194.51228
 40
3.95250
 50
203.51988
 51
228.94150
  0
ARC
  8
3
 10
251.79251
 20
195.25531
 40
5.82250
 50
192.32906
 51
203.48367
  0
ARC
  8
3
 10
255.36694
 20
196.03976
 40
9.48250
 50
185.48132
 51
192.34796
  0
ARC
  8
3
 10
265.83170
 20
197.04695
 40
19.99500
 50
184.39119
 51
185.48985
  0
ARC
  8
3
 10
251.94170
 20
196.00159
 40
6.06500
 50
181.63974
 51
184.59143
  0
LINE
  8
3
 10
245.87801
 20
206.24800
 11
245.87801
 21
195.82800
  0
LINE
  8
3
 10
413.93243
 20
416.26300
 11
404.71243
 21
416.26300
  0
LINE
  8
3
 10
413.93243
 20
414.41101
 11
413.93243
 21
416.26300
  0
LINE
  8
3
 10
406.94742
 20
414.41101
 11
413.93243
 21
414.41101
  0
LINE
  8
3
 10
406.94742
 20
408.72198
 11
406.94742
 21
414.41101
  0
LINE
  8
3
 10
413.39944
 20
408.72198
 11
406.94742
 21
408.72198
  0
LINE
  8
3
 10
413.39944
 20
406.89001
 11
413.39944
 21
408.72198
  0
LINE
  8
3
 10
406.94742
 20
406.89001
 11
413.39944
 21
406.89001
  0
LINE
  8
3
 10
406.94742
 20
399.14301
 11
406.94742
 21
406.89001
  0
LINE
  8
3
 10
404.71243
 20
399.14301
 11
406.94742
 21
399.14301
  0
LINE
  8
3
 10
404.71243
 20
416.26300
 11
404.71243
 21
399.14301
  0
LINE
  8
3
 10
370.63080
 20
399.14301
 11
370.63080
 21
416.26300
  0
LINE
  8
3
 10
372.71481
 20
399.14301
 11
370.63080
 21
399.14301
  0
LINE
  8
3
 10
372.71481
 20
413.52701
 11
372.71481
 21
399.14301
  0
LINE
  8
3
 10
381.01682
 20
399.14301
 11
372.71481
 21
413.52701
  0
LINE
  8
3
 10
383.48480
 20
399.14301
 11
381.01682
 21
399.14301
  0
LINE
  8
3
 10
383.48480
 20
416.26300
 11
383.48480
 21
399.14301
  0
LINE
  8
3
 10
381.40179
 20
416.26300
 11
383.48480
 21
416.26300
  0
LINE
  8
3
 10
381.40179
 20
402.42899
 11
381.40179
 21
416.26300
  0
LINE
  8
3
 10
373.18680
 20
416.26300
 11
381.40179
 21
402.42899
  0
LINE
  8
3
 10
370.63080
 20
416.26300
 11
373.18680
 21
416.26300
  0
LINE
  8
3
 10
375.86179
 20
381.23901
 11
378.09680
 21
381.23901
  0
LINE
  8
3
 10
375.86179
 20
364.11899
 11
375.86179
 21
381.23901
  0
LINE
  8
3
 10
378.09680
 20
364.11899
 11
375.86179
 21
364.11899
  0
LINE
  8
3
 10
378.09680
 20
381.23901
 11
378.09680
 21
364.11899
  0
LINE
  8
3
 10
370.62180
 20
259.04199
 11
370.62180
 21
276.16199
  0
LINE
  8
3
 10
372.70581
 20
259.04199
 11
370.62180
 21
259.04199
  0
LINE
  8
3
 10
372.70581
 20
273.42599
 11
372.70581
 21
259.04199
  0
LINE
  8
3
 10
381.00781
 20
259.04199
 11
372.70581
 21
273.42599
  0
LINE
  8
3
 10
383.47580
 20
259.04199
 11
381.00781
 21
259.04199
  0
LINE
  8
3
 10
383.47580
 20
276.16199
 11
383.47580
 21
259.04199
  0
LINE
  8
3
 10
381.39279
 20
276.16199
 11
383.47580
 21
276.16199
  0
LINE
  8
3
 10
381.39279
 20
262.32800
 11
381.39279
 21
276.16199
  0
LINE
  8
3
 10
373.17780
 20
276.16199
 11
381.39279
 21
262.32800
  0
LINE
  8
3
 10
370.62180
 20
276.16199
 11
373.17780
 21
276.16199
  0
LINE
  8
3
 10
338.54617
 20
294.08701
 11
344.38715
 21
311.20901
  0
LINE
  8
3
 10
344.38715
 20
311.20901
 11
347.02917
 21
311.20901
  0
LINE
  8
3
 10
347.02917
 20
311.20901
 11
352.87216
 21
294.08701
  0
LINE
  8
3
 10
352.87216
 20
294.08701
 11
350.51016
 21
294.08701
  0
LINE
  8
3
 10
350.51016
 20
294.08701
 11
345.63315
 21
309.35101
  0
LINE
  8
3
 10
345.63315
 20
309.35101
 11
343.06717
 21
301.20001
  0
LINE
  8
3
 10
343.06717
 20
301.20001
 11
346.59015
 21
301.20001
  0
LINE
  8
3
 10
346.59015
 20
301.20001
 11
347.10516
 21
299.47198
  0
LINE
  8
3
 10
347.10516
 20
299.47198
 11
342.60916
 21
299.47198
  0
LINE
  8
3
 10
342.60916
 20
299.47198
 11
340.83215
 21
294.08701
  0
LINE
  8
3
 10
340.83215
 20
294.08701
 11
338.54617
 21
294.08701
  0
LINE
  8
3
 10
351.84116
 20
381.23901
 11
340.28317
 21
381.23901
  0
LINE
  8
3
 10
340.28317
 20
381.23901
 11
340.28317
 21
379.38501
  0
LINE
  8
3
 10
340.28317
 20
379.38501
 11
348.94516
 21
379.38501
  0
LINE
  8
3
 10
348.94516
 20
379.38501
 11
339.47015
 21
365.41501
  0
LINE
  8
3
 10
339.47015
 20
365.41501
 11
339.47015
 21
364.11899
  0
LINE
  8
3
 10
339.47015
 20
364.11899
 11
351.96817
 21
364.11899
  0
LINE
  8
3
 10
351.96817
 20
364.11899
 11
351.96817
 21
365.97101
  0
LINE
  8
3
 10
351.96817
 20
365.97101
 11
342.39117
 21
365.97101
  0
LINE
  8
3
 10
342.39117
 20
365.97101
 11
351.84116
 21
379.89301
  0
LINE
  8
3
 10
351.84116
 20
379.89301
 11
351.84116
 21
381.23901
  0
LINE
  8
3
 10
335.30515
 20
241.13400
 11
337.63916
 21
241.13400
  0
LINE
  8
3
 10
339.64816
 20
224.01401
 11
335.30515
 21
241.13400
  0
LINE
  8
3
 10
341.95917
 20
224.01401
 11
339.64816
 21
224.01401
  0
LINE
  8
3
 10
345.74316
 20
238.51801
 11
341.95917
 21
224.01401
  0
LINE
  8
3
 10
349.04617
 20
224.01401
 11
345.74316
 21
238.51801
  0
LINE
  8
3
 10
351.35815
 20
224.01401
 11
349.04617
 21
224.01401
  0
LINE
  8
3
 10
356.20917
 20
241.13400
 11
351.35815
 21
224.01401
  0
LINE
  8
3
 10
353.94815
 20
241.13400
 11
356.20917
 21
241.13400
  0
LINE
  8
3
 10
350.29117
 20
226.58000
 11
353.94815
 21
241.13400
  0
LINE
  8
3
 10
346.98917
 20
241.13400
 11
350.29117
 21
226.58000
  0
LINE
  8
3
 10
344.67816
 20
241.13400
 11
346.98917
 21
241.13400
  0
LINE
  8
3
 10
340.96817
 20
226.55400
 11
344.67816
 21
241.13400
  0
LINE
  8
3
 10
337.63916
 20
241.13400
 11
340.96817
 21
226.55400
  0
LINE
  8
3
 10
307.05695
 20
381.23901
 11
307.05695
 21
364.11899
  0
LINE
  8
3
 10
307.05695
 20
364.11899
 11
309.14096
 21
364.11899
  0
LINE
  8
3
 10
309.14096
 20
364.11899
 11
309.14096
 21
378.50299
  0
LINE
  8
3
 10
309.14096
 20
378.50299
 11
317.44296
 21
364.11899
  0
LINE
  8
3
 10
317.44296
 20
364.11899
 11
319.91095
 21
364.11899
  0
LINE
  8
3
 10
319.91095
 20
364.11899
 11
319.91095
 21
381.23901
  0
LINE
  8
3
 10
319.91095
 20
381.23901
 11
317.82797
 21
381.23901
  0
LINE
  8
3
 10
317.82797
 20
381.23901
 11
317.82797
 21
367.40500
  0
LINE
  8
3
 10
317.82797
 20
367.40500
 11
309.61295
 21
381.23901
  0
LINE
  8
3
 10
309.61295
 20
381.23901
 11
307.05695
 21
381.23901
  0
LINE
  8
3
 10
318.16095
 20
416.26300
 11
308.94095
 21
416.26300
  0
LINE
  8
3
 10
318.16095
 20
414.41101
 11
318.16095
 21
416.26300
  0
LINE
  8
3
 10
311.17596
 20
414.41101
 11
318.16095
 21
414.41101
  0
LINE
  8
3
 10
311.17596
 20
408.72198
 11
311.17596
 21
414.41101
  0
LINE
  8
3
 10
317.62796
 20
408.72198
 11
311.17596
 21
408.72198
  0
LINE
  8
3
 10
317.62796
 20
406.89001
 11
317.62796
 21
408.72198
  0
LINE
  8
3
 10
311.17596
 20
406.89001
 11
317.62796
 21
406.89001
  0
LINE
  8
3
 10
311.17596
 20
399.14301
 11
311.17596
 21
406.89001
  0
LINE
  8
3
 10
308.94095
 20
399.14301
 11
311.17596
 21
399.14301
  0
LINE
  8
3
 10
308.94095
 20
416.26300
 11
308.94095
 21
399.14301
  0
LINE
  8
3
 10
307.47595
 20
101.03100
 11
307.47595
 21
83.90900
  0
LINE
  8
3
 10
307.47595
 20
83.90900
 11
309.68597
 21
83.90900
  0
LINE
  8
3
 10
309.68597
 20
83.90900
 11
309.68597
 21
90.43700
  0
LINE
  8
3
 10
309.68597
 20
90.43700
 11
311.33795
 21
92.31600
  0
LINE
  8
3
 10
311.33795
 20
92.31600
 11
316.95197
 21
83.90900
  0
LINE
  8
3
 10
316.95197
 20
83.90900
 11
319.56696
 21
83.90900
  0
LINE
  8
3
 10
319.56696
 20
83.90900
 11
312.88696
 21
93.76400
  0
LINE
  8
3
 10
312.88696
 20
93.76400
 11
319.08496
 21
101.03100
  0
LINE
  8
3
 10
319.08496
 20
101.03100
 11
316.34097
 21
101.03100
  0
LINE
  8
3
 10
316.34097
 20
101.03100
 11
309.68597
 21
92.77400
  0
LINE
  8
3
 10
309.68597
 20
92.77400
 11
309.68597
 21
101.03100
  0
LINE
  8
3
 10
309.68597
 20
101.03100
 11
307.47595
 21
101.03100
  0
LINE
  8
3
 10
312.07697
 20
188.99001
 11
306.46396
 21
206.10899
  0
LINE
  8
3
 10
314.51797
 20
188.99001
 11
312.07697
 21
188.99001
  0
LINE
  8
3
 10
320.63895
 20
206.10899
 11
314.51797
 21
188.99001
  0
LINE
  8
3
 10
318.27695
 20
206.10899
 11
320.63895
 21
206.10899
  0
LINE
  8
3
 10
313.39795
 20
191.27600
 11
318.27695
 21
206.10899
  0
LINE
  8
3
 10
308.87695
 20
206.10899
 11
313.39795
 21
191.27600
  0
LINE
  8
3
 10
306.46396
 20
206.10899
 11
308.87695
 21
206.10899
  0
LINE
  8
3
 10
305.34396
 20
136.05701
 11
303.00995
 21
136.05701
  0
LINE
  8
3
 10
303.00995
 20
136.05701
 11
307.35297
 21
118.93700
  0
LINE
  8
3
 10
307.35297
 20
118.93700
 11
309.66397
 21
118.93700
  0
LINE
  8
3
 10
309.66397
 20
118.93700
 11
313.44797
 21
133.44099
  0
LINE
  8
3
 10
313.44797
 20
133.44099
 11
316.75095
 21
118.93700
  0
LINE
  8
3
 10
316.75095
 20
118.93700
 11
319.06296
 21
118.93700
  0
LINE
  8
3
 10
319.06296
 20
118.93700
 11
323.91397
 21
136.05701
  0
LINE
  8
3
 10
323.91397
 20
136.05701
 11
321.65295
 21
136.05701
  0
LINE
  8
3
 10
321.65295
 20
136.05701
 11
317.99597
 21
121.50300
  0
LINE
  8
3
 10
317.99597
 20
121.50300
 11
314.69397
 21
136.05701
  0
LINE
  8
3
 10
314.69397
 20
136.05701
 11
312.38297
 21
136.05701
  0
LINE
  8
3
 10
312.38297
 20
136.05701
 11
308.67297
 21
121.47700
  0
LINE
  8
3
 10
308.67297
 20
121.47700
 11
305.34396
 21
136.05701
  0
LINE
  8
3
 10
312.14297
 20
171.08299
 11
306.30197
 21
153.96100
  0
LINE
  8
3
 10
314.78497
 20
171.08299
 11
312.14297
 21
171.08299
  0
LINE
  8
3
 10
320.62796
 20
153.96100
 11
314.78497
 21
171.08299
  0
LINE
  8
3
 10
318.26596
 20
153.96100
 11
320.62796
 21
153.96100
  0
LINE
  8
3
 10
313.38895
 20
169.22501
 11
318.26596
 21
153.96100
  0
LINE
  8
3
 10
310.82297
 20
161.07401
 11
313.38895
 21
169.22501
  0
LINE
  8
3
 10
314.34595
 20
161.07401
 11
310.82297
 21
161.07401
  0
LINE
  8
3
 10
314.86096
 20
159.34599
 11
314.34595
 21
161.07401
  0
LINE
  8
3
 10
310.36496
 20
159.34599
 11
314.86096
 21
159.34599
  0
LINE
  8
3
 10
308.58795
 20
153.96100
 11
310.36496
 21
159.34599
  0
LINE
  8
3
 10
306.30197
 20
153.96100
 11
308.58795
 21
153.96100
  0
LINE
  8
3
 10
307.10495
 20
311.18799
 11
307.10495
 21
294.06799
  0
LINE
  8
3
 10
307.10495
 20
294.06799
 11
309.18896
 21
294.06799
  0
LINE
  8
3
 10
309.18896
 20
294.06799
 11
309.18896
 21
308.45200
  0
LINE
  8
3
 10
309.18896
 20
308.45200
 11
317.49097
 21
294.06799
  0
LINE
  8
3
 10
317.49097
 20
294.06799
 11
319.95895
 21
294.06799
  0
LINE
  8
3
 10
319.95895
 20
294.06799
 11
319.95895
 21
311.18799
  0
LINE
  8
3
 10
319.95895
 20
311.18799
 11
317.87595
 21
311.18799
  0
LINE
  8
3
 10
317.87595
 20
311.18799
 11
317.87595
 21
297.35400
  0
LINE
  8
3
 10
317.87595
 20
297.35400
 11
309.66095
 21
311.18799
  0
LINE
  8
3
 10
309.66095
 20
311.18799
 11
307.10495
 21
311.18799
  0
LINE
  8
3
 10
273.51523
 20
224.01401
 11
274.71021
 21
241.13499
  0
LINE
  8
3
 10
275.62323
 20
224.01401
 11
273.51523
 21
224.01401
  0
LINE
  8
3
 10
276.44522
 20
238.64799
 11
275.62323
 21
224.01401
  0
LINE
  8
3
 10
281.10822
 20
224.11600
 11
276.44522
 21
238.64799
  0
LINE
  8
3
 10
282.99423
 20
224.11600
 11
281.10822
 21
224.11600
  0
LINE
  8
3
 10
288.13422
 20
238.66100
 11
282.99423
 21
224.11600
  0
LINE
  8
3
 10
288.80722
 20
224.01401
 11
288.13422
 21
238.66100
  0
LINE
  8
3
 10
290.99222
 20
224.01401
 11
288.80722
 21
224.01401
  0
LINE
  8
3
 10
289.92621
 20
241.13499
 11
290.99222
 21
224.01401
  0
LINE
  8
3
 10
286.99921
 20
241.13499
 11
289.92621
 21
241.13499
  0
LINE
  8
3
 10
282.20621
 20
227.39799
 11
286.99921
 21
241.13499
  0
LINE
  8
3
 10
277.63522
 20
241.13499
 11
282.20621
 21
227.39799
  0
LINE
  8
3
 10
274.71021
 20
241.13499
 11
277.63522
 21
241.13499
  0
LINE
  8
3
 10
275.07224
 20
364.12100
 11
280.91321
 21
381.24301
  0
LINE
  8
3
 10
280.91321
 20
381.24301
 11
283.55521
 21
381.24301
  0
LINE
  8
3
 10
283.55521
 20
381.24301
 11
289.39822
 21
364.12100
  0
LINE
  8
3
 10
289.39822
 20
364.12100
 11
287.03622
 21
364.12100
  0
LINE
  8
3
 10
287.03622
 20
364.12100
 11
282.15921
 21
379.38501
  0
LINE
  8
3
 10
282.15921
 20
379.38501
 11
279.59323
 21
371.23401
  0
LINE
  8
3
 10
279.59323
 20
371.23401
 11
283.11621
 21
371.23401
  0
LINE
  8
3
 10
283.11621
 20
371.23401
 11
283.63123
 21
369.50601
  0
LINE
  8
3
 10
283.63123
 20
369.50601
 11
279.13522
 21
369.50601
  0
LINE
  8
3
 10
279.13522
 20
369.50601
 11
277.35822
 21
364.12100
  0
LINE
  8
3
 10
277.35822
 20
364.12100
 11
275.07224
 21
364.12100
  0
LINE
  8
3
 10
275.08423
 20
399.14499
 11
280.92523
 21
416.26700
  0
LINE
  8
3
 10
280.92523
 20
416.26700
 11
283.56723
 21
416.26700
  0
LINE
  8
3
 10
283.56723
 20
416.26700
 11
289.41022
 21
399.14499
  0
LINE
  8
3
 10
289.41022
 20
399.14499
 11
287.04822
 21
399.14499
  0
LINE
  8
3
 10
287.04822
 20
399.14499
 11
282.17123
 21
414.40900
  0
LINE
  8
3
 10
282.17123
 20
414.40900
 11
279.60522
 21
406.25800
  0
LINE
  8
3
 10
279.60522
 20
406.25800
 11
283.12823
 21
406.25800
  0
LINE
  8
3
 10
283.12823
 20
406.25800
 11
283.64322
 21
404.53000
  0
LINE
  8
3
 10
283.64322
 20
404.53000
 11
279.14722
 21
404.53000
  0
LINE
  8
3
 10
279.14722
 20
404.53000
 11
277.37021
 21
399.14499
  0
LINE
  8
3
 10
277.37021
 20
399.14499
 11
275.08423
 21
399.14499
  0
LINE
  8
3
 10
276.23621
 20
311.18799
 11
276.23621
 21
294.06601
  0
LINE
  8
3
 10
276.23621
 20
294.06601
 11
278.44623
 21
294.06601
  0
LINE
  8
3
 10
278.44623
 20
294.06601
 11
278.44623
 21
300.59399
  0
LINE
  8
3
 10
278.44623
 20
300.59399
 11
280.09821
 21
302.47299
  0
LINE
  8
3
 10
280.09821
 20
302.47299
 11
285.71222
 21
294.06601
  0
LINE
  8
3
 10
285.71222
 20
294.06601
 11
288.32721
 21
294.06601
  0
LINE
  8
3
 10
288.32721
 20
294.06601
 11
281.64722
 21
303.92099
  0
LINE
  8
3
 10
281.64722
 20
303.92099
 11
287.84521
 21
311.18799
  0
LINE
  8
3
 10
287.84521
 20
311.18799
 11
285.10123
 21
311.18799
  0
LINE
  8
3
 10
285.10123
 20
311.18799
 11
278.44623
 21
302.93100
  0
LINE
  8
3
 10
278.44623
 20
302.93100
 11
278.44623
 21
311.18799
  0
LINE
  8
3
 10
278.44623
 20
311.18799
 11
276.23621
 21
311.18799
  0
LINE
  8
3
 10
275.84421
 20
101.03100
 11
275.84421
 21
83.91100
  0
LINE
  8
3
 10
275.84421
 20
83.91100
 11
277.92822
 21
83.91100
  0
LINE
  8
3
 10
277.92822
 20
83.91100
 11
277.92822
 21
98.29500
  0
LINE
  8
3
 10
277.92822
 20
98.29500
 11
286.23022
 21
83.91100
  0
LINE
  8
3
 10
286.23022
 20
83.91100
 11
288.69821
 21
83.91100
  0
LINE
  8
3
 10
288.69821
 20
83.91100
 11
288.69821
 21
101.03100
  0
LINE
  8
3
 10
288.69821
 20
101.03100
 11
286.61523
 21
101.03100
  0
LINE
  8
3
 10
286.61523
 20
101.03100
 11
286.61523
 21
87.19700
  0
LINE
  8
3
 10
286.61523
 20
87.19700
 11
278.40021
 21
101.03100
  0
LINE
  8
3
 10
278.40021
 20
101.03100
 11
275.84421
 21
101.03100
  0
LINE
  8
3
 10
210.56319
 20
259.04199
 11
216.40419
 21
276.16400
  0
LINE
  8
3
 10
216.40419
 20
276.16400
 11
219.04619
 21
276.16400
  0
LINE
  8
3
 10
219.04619
 20
276.16400
 11
224.88919
 21
259.04199
  0
LINE
  8
3
 10
224.88919
 20
259.04199
 11
222.52719
 21
259.04199
  0
LINE
  8
3
 10
222.52719
 20
259.04199
 11
217.65019
 21
274.30600
  0
LINE
  8
3
 10
217.65019
 20
274.30600
 11
215.08418
 21
266.15500
  0
LINE
  8
3
 10
215.08418
 20
266.15500
 11
218.60719
 21
266.15500
  0
LINE
  8
3
 10
218.60719
 20
266.15500
 11
219.12219
 21
264.42700
  0
LINE
  8
3
 10
219.12219
 20
264.42700
 11
214.62619
 21
264.42700
  0
LINE
  8
3
 10
214.62619
 20
264.42700
 11
212.84920
 21
259.04199
  0
LINE
  8
3
 10
212.84920
 20
259.04199
 11
210.56319
 21
259.04199
  0
LINE
  8
3
 10
211.31519
 20
241.13499
 11
216.34419
 21
232.67599
  0
LINE
  8
3
 10
216.34419
 20
232.67599
 11
211.11218
 21
224.01401
  0
LINE
  8
3
 10
211.11218
 20
224.01401
 11
213.65219
 21
224.01401
  0
LINE
  8
3
 10
213.65219
 20
224.01401
 11
217.58820
 21
231.17700
  0
LINE
  8
3
 10
217.58820
 20
231.17700
 11
221.78220
 21
224.01401
  0
LINE
  8
3
 10
221.78220
 20
224.01401
 11
224.34718
 21
224.01401
  0
LINE
  8
3
 10
224.34718
 20
224.01401
 11
219.01318
 21
232.80299
  0
LINE
  8
3
 10
219.01318
 20
232.80299
 11
224.21819
 21
241.13499
  0
LINE
  8
3
 10
224.21819
 20
241.13499
 11
221.65520
 21
241.13499
  0
LINE
  8
3
 10
221.65520
 20
241.13499
 11
217.75420
 21
234.22501
  0
LINE
  8
3
 10
217.75420
 20
234.22501
 11
213.88019
 21
241.13499
  0
LINE
  8
3
 10
213.88019
 20
241.13499
 11
211.31519
 21
241.13499
  0
LINE
  8
3
 10
210.47620
 20
188.98900
 11
216.31718
 21
206.11099
  0
LINE
  8
3
 10
216.31718
 20
206.11099
 11
218.95918
 21
206.11099
  0
LINE
  8
3
 10
218.95918
 20
206.11099
 11
224.80219
 21
188.98900
  0
LINE
  8
3
 10
224.80219
 20
188.98900
 11
222.44019
 21
188.98900
  0
LINE
  8
3
 10
222.44019
 20
188.98900
 11
217.56319
 21
204.25301
  0
LINE
  8
3
 10
217.56319
 20
204.25301
 11
214.99719
 21
196.10201
  0
LINE
  8
3
 10
214.99719
 20
196.10201
 11
218.52019
 21
196.10201
  0
LINE
  8
3
 10
218.52019
 20
196.10201
 11
219.03519
 21
194.37399
  0
LINE
  8
3
 10
219.03519
 20
194.37399
 11
214.53918
 21
194.37399
  0
LINE
  8
3
 10
214.53918
 20
194.37399
 11
212.76219
 21
188.98900
  0
LINE
  8
3
 10
212.76219
 20
188.98900
 11
210.47620
 21
188.98900
  0
LINE
  8
3
 10
210.47719
 20
346.21201
 11
216.09019
 21
329.09299
  0
LINE
  8
3
 10
216.09019
 20
329.09299
 11
218.53119
 21
329.09299
  0
LINE
  8
3
 10
218.53119
 20
329.09299
 11
224.65219
 21
346.21201
  0
LINE
  8
3
 10
224.65219
 20
346.21201
 11
222.29019
 21
346.21201
  0
LINE
  8
3
 10
222.29019
 20
346.21201
 11
217.41119
 21
331.37900
  0
LINE
  8
3
 10
217.41119
 20
331.37900
 11
212.89018
 21
346.21201
  0
LINE
  8
3
 10
212.89018
 20
346.21201
 11
210.47719
 21
346.21201
  0
LINE
  8
3
 10
180.04630
 20
381.23901
 11
180.04630
 21
364.11899
  0
LINE
  8
3
 10
180.04630
 20
364.11899
 11
182.13029
 21
364.11899
  0
LINE
  8
3
 10
182.13029
 20
364.11899
 11
182.13029
 21
378.50299
  0
LINE
  8
3
 10
182.13029
 20
378.50299
 11
190.43230
 21
364.11899
  0
LINE
  8
3
 10
190.43230
 20
364.11899
 11
192.90028
 21
364.11899
  0
LINE
  8
3
 10
192.90028
 20
364.11899
 11
192.90028
 21
381.23901
  0
LINE
  8
3
 10
192.90028
 20
381.23901
 11
190.81729
 21
381.23901
  0
LINE
  8
3
 10
190.81729
 20
381.23901
 11
190.81729
 21
367.40500
  0
LINE
  8
3
 10
190.81729
 20
367.40500
 11
182.60229
 21
381.23901
  0
LINE
  8
3
 10
182.60229
 20
381.23901
 11
180.04630
 21
381.23901
  0
LINE
  8
3
 10
185.40228
 20
416.26300
 11
187.64029
 21
416.26300
  0
LINE
  8
3
 10
185.40228
 20
399.14301
 11
185.40228
 21
416.26300
  0
LINE
  8
3
 10
187.64029
 20
399.14301
 11
185.40228
 21
399.14301
  0
LINE
  8
3
 10
187.64029
 20
416.26300
 11
187.64029
 21
399.14301
  0
LINE
  8
3
 10
180.06129
 20
101.03100
 11
180.06129
 21
83.91100
  0
LINE
  8
3
 10
180.06129
 20
83.91100
 11
182.14529
 21
83.91100
  0
LINE
  8
3
 10
182.14529
 20
83.91100
 11
182.14529
 21
98.29500
  0
LINE
  8
3
 10
182.14529
 20
98.29500
 11
190.44730
 21
83.91100
  0
LINE
  8
3
 10
190.44730
 20
83.91100
 11
192.91528
 21
83.91100
  0
LINE
  8
3
 10
192.91528
 20
83.91100
 11
192.91528
 21
101.03100
  0
LINE
  8
3
 10
192.91528
 20
101.03100
 11
190.83229
 21
101.03100
  0
LINE
  8
3
 10
190.83229
 20
101.03100
 11
190.83229
 21
87.19700
  0
LINE
  8
3
 10
190.83229
 20
87.19700
 11
182.61729
 21
101.03100
  0
LINE
  8
3
 10
182.61729
 20
101.03100
 11
180.06129
 21
101.03100
  0
LINE
  8
3
 10
147.75046
 20
224.01401
 11
147.75046
 21
241.13400
  0
LINE
  8
3
 10
149.83446
 20
224.01401
 11
147.75046
 21
224.01401
  0
LINE
  8
3
 10
149.83446
 20
238.39799
 11
149.83446
 21
224.01401
  0
LINE
  8
3
 10
158.13646
 20
224.01401
 11
149.83446
 21
238.39799
  0
LINE
  8
3
 10
160.60446
 20
224.01401
 11
158.13646
 21
224.01401
  0
LINE
  8
3
 10
160.60446
 20
241.13400
 11
160.60446
 21
224.01401
  0
LINE
  8
3
 10
158.52145
 20
241.13400
 11
160.60446
 21
241.13400
  0
LINE
  8
3
 10
158.52145
 20
227.30000
 11
158.52145
 21
241.13400
  0
LINE
  8
3
 10
150.30646
 20
241.13400
 11
158.52145
 21
227.30000
  0
LINE
  8
3
 10
147.75046
 20
241.13400
 11
150.30646
 21
241.13400
  0
LINE
  8
3
 10
148.20546
 20
416.26300
 11
148.20546
 21
399.14301
  0
LINE
  8
3
 10
148.20546
 20
399.14301
 11
150.41246
 21
399.14301
  0
LINE
  8
3
 10
150.41246
 20
399.14301
 11
150.41246
 21
405.67401
  0
LINE
  8
3
 10
150.41246
 20
405.67401
 11
152.06546
 21
407.55301
  0
LINE
  8
3
 10
152.06546
 20
407.55301
 11
157.67946
 21
399.14301
  0
LINE
  8
3
 10
157.67946
 20
399.14301
 11
160.29546
 21
399.14301
  0
LINE
  8
3
 10
160.29546
 20
399.14301
 11
153.61546
 21
409.00101
  0
LINE
  8
3
 10
153.61546
 20
409.00101
 11
159.81245
 21
416.26300
  0
LINE
  8
3
 10
159.81245
 20
416.26300
 11
157.06946
 21
416.26300
  0
LINE
  8
3
 10
157.06946
 20
416.26300
 11
150.41246
 21
408.00800
  0
LINE
  8
3
 10
150.41246
 20
408.00800
 11
150.41246
 21
416.26300
  0
LINE
  8
3
 10
150.41246
 20
416.26300
 11
148.20546
 21
416.26300
  0
LINE
  8
3
 10
115.62483
 20
259.04700
 11
121.46583
 21
276.16901
  0
LINE
  8
3
 10
121.46583
 20
276.16901
 11
124.10783
 21
276.16901
  0
LINE
  8
3
 10
124.10783
 20
276.16901
 11
129.95084
 21
259.04700
  0
LINE
  8
3
 10
129.95084
 20
259.04700
 11
127.58883
 21
259.04700
  0
LINE
  8
3
 10
127.58883
 20
259.04700
 11
122.71183
 21
274.31100
  0
LINE
  8
3
 10
122.71183
 20
274.31100
 11
120.14583
 21
266.16000
  0
LINE
  8
3
 10
120.14583
 20
266.16000
 11
123.66883
 21
266.16000
  0
LINE
  8
3
 10
123.66883
 20
266.16000
 11
124.18383
 21
264.43201
  0
LINE
  8
3
 10
124.18383
 20
264.43201
 11
119.68783
 21
264.43201
  0
LINE
  8
3
 10
119.68783
 20
264.43201
 11
117.91083
 21
259.04700
  0
LINE
  8
3
 10
117.91083
 20
259.04700
 11
115.62483
 21
259.04700
  0
LINE
  8
3
 10
83.62924
 20
311.18646
 11
89.24224
 21
294.06747
  0
LINE
  8
3
 10
89.24224
 20
294.06747
 11
91.68324
 21
294.06747
  0
LINE
  8
3
 10
91.68324
 20
294.06747
 11
97.80424
 21
311.18646
  0
LINE
  8
3
 10
97.80424
 20
311.18646
 11
95.44224
 21
311.18646
  0
LINE
  8
3
 10
95.44224
 20
311.18646
 11
90.56324
 21
296.35349
  0
LINE
  8
3
 10
90.56324
 20
296.35349
 11
86.04224
 21
311.18646
  0
LINE
  8
3
 10
86.04224
 20
311.18646
 11
83.62924
 21
311.18646
  0
LINE
  8
3
 10
256.37500
 20
416.26300
 11
243.69901
 21
416.26300
  0
LINE
  8
3
 10
243.69901
 20
416.26300
 11
243.69901
 21
414.38599
  0
LINE
  8
3
 10
243.69901
 20
414.38599
 11
248.90601
 21
414.38599
  0
LINE
  8
3
 10
248.90601
 20
414.38599
 11
248.90601
 21
399.14301
  0
LINE
  8
3
 10
248.90601
 20
399.14301
 11
251.14101
 21
399.14301
  0
LINE
  8
3
 10
251.14101
 20
399.14301
 11
251.14101
 21
414.38599
  0
LINE
  8
3
 10
251.14101
 20
414.38599
 11
256.37500
 21
414.38599
  0
LINE
  8
3
 10
256.37500
 20
414.38599
 11
256.37500
 21
416.26300
  0
LINE
  8
3
 10
243.53500
 20
136.05600
 11
243.53500
 21
118.93600
  0
LINE
  8
3
 10
243.53500
 20
118.93600
 11
245.61900
 21
118.93600
  0
LINE
  8
3
 10
245.61900
 20
118.93600
 11
245.61900
 21
133.32001
  0
LINE
  8
3
 10
245.61900
 20
133.32001
 11
253.92101
 21
118.93600
  0
LINE
  8
3
 10
253.92101
 20
118.93600
 11
256.38901
 21
118.93600
  0
LINE
  8
3
 10
256.38901
 20
118.93600
 11
256.38901
 21
136.05600
  0
LINE
  8
3
 10
256.38901
 20
136.05600
 11
254.30600
 21
136.05600
  0
LINE
  8
3
 10
254.30600
 20
136.05600
 11
254.30600
 21
122.22200
  0
LINE
  8
3
 10
254.30600
 20
122.22200
 11
246.09100
 21
136.05600
  0
LINE
  8
3
 10
246.09100
 20
136.05600
 11
243.53500
 21
136.05600
  0
LINE
  8
3
 10
243.52000
 20
153.96100
 11
243.52000
 21
171.08099
  0
LINE
  8
3
 10
245.60400
 20
153.96100
 11
243.52000
 21
153.96100
  0
LINE
  8
3
 10
245.60400
 20
168.34500
 11
245.60400
 21
153.96100
  0
LINE
  8
3
 10
253.90601
 20
153.96100
 11
245.60400
 21
168.34500
  0
LINE
  8
3
 10
256.37399
 20
153.96100
 11
253.90601
 21
153.96100
  0
LINE
  8
3
 10
256.37399
 20
171.08099
 11
256.37399
 21
153.96100
  0
LINE
  8
3
 10
254.29100
 20
171.08099
 11
256.37399
 21
171.08099
  0
LINE
  8
3
 10
254.29100
 20
157.24699
 11
254.29100
 21
171.08099
  0
LINE
  8
3
 10
246.07600
 20
171.08099
 11
254.29100
 21
157.24699
  0
LINE
  8
3
 10
243.52000
 20
171.08099
 11
246.07600
 21
171.08099
  0
LINE
  8
3
 10
243.59000
 20
311.18799
 11
243.59000
 21
294.06799
  0
LINE
  8
3
 10
243.59000
 20
294.06799
 11
245.67400
 21
294.06799
  0
LINE
  8
3
 10
245.67400
 20
294.06799
 11
245.67400
 21
308.45200
  0
LINE
  8
3
 10
245.67400
 20
308.45200
 11
253.97600
 21
294.06799
  0
LINE
  8
3
 10
253.97600
 20
294.06799
 11
256.44400
 21
294.06799
  0
LINE
  8
3
 10
256.44400
 20
294.06799
 11
256.44400
 21
311.18799
  0
LINE
  8
3
 10
256.44400
 20
311.18799
 11
254.36099
 21
311.18799
  0
LINE
  8
3
 10
254.36099
 20
311.18799
 11
254.36099
 21
297.35400
  0
LINE
  8
3
 10
254.36099
 20
297.35400
 11
246.14600
 21
311.18799
  0
LINE
  8
3
 10
246.14600
 20
311.18799
 11
243.59000
 21
311.18799
  0
LINE
  8
3
 10
239.52800
 20
381.23901
 11
241.86200
 21
381.23901
  0
LINE
  8
3
 10
243.87100
 20
364.11899
 11
239.52800
 21
381.23901
  0
LINE
  8
3
 10
246.18201
 20
364.11899
 11
243.87100
 21
364.11899
  0
LINE
  8
3
 10
249.96600
 20
378.62299
 11
246.18201
 21
364.11899
  0
LINE
  8
3
 10
253.26900
 20
364.11899
 11
249.96600
 21
378.62299
  0
LINE
  8
3
 10
255.58099
 20
364.11899
 11
253.26900
 21
364.11899
  0
LINE
  8
3
 10
260.43201
 20
381.23901
 11
255.58099
 21
364.11899
  0
LINE
  8
3
 10
258.17099
 20
381.23901
 11
260.43201
 21
381.23901
  0
LINE
  8
3
 10
254.51401
 20
366.68500
 11
258.17099
 21
381.23901
  0
LINE
  8
3
 10
251.21201
 20
381.23901
 11
254.51401
 21
366.68500
  0
LINE
  8
3
 10
248.90100
 20
381.23901
 11
251.21201
 21
381.23901
  0
LINE
  8
3
 10
245.19099
 20
366.65900
 11
248.90100
 21
381.23901
  0
LINE
  8
3
 10
241.86200
 20
381.23901
 11
245.19099
 21
366.65900
  0
LINE
  8
3
 10
242.79201
 20
224.28300
 11
248.63300
 21
241.40500
  0
LINE
  8
3
 10
248.63300
 20
241.40500
 11
251.27499
 21
241.40500
  0
LINE
  8
3
 10
251.27499
 20
241.40500
 11
257.11801
 21
224.28300
  0
LINE
  8
3
 10
257.11801
 20
224.28300
 11
254.75600
 21
224.28300
  0
LINE
  8
3
 10
254.75600
 20
224.28300
 11
249.87900
 21
239.54700
  0
LINE
  8
3
 10
249.87900
 20
239.54700
 11
247.31300
 21
231.39600
  0
LINE
  8
3
 10
247.31300
 20
231.39600
 11
250.83600
 21
231.39600
  0
LINE
  8
3
 10
250.83600
 20
231.39600
 11
251.35100
 21
229.66800
  0
LINE
  8
3
 10
251.35100
 20
229.66800
 11
246.85500
 21
229.66800
  0
LINE
  8
3
 10
246.85500
 20
229.66800
 11
245.07800
 21
224.28300
  0
LINE
  8
3
 10
245.07800
 20
224.28300
 11
242.79201
 21
224.28300
  0
ENDSEC
  0
EOF
  0
ENDSEC
  0
EOF
