999
PN 2D      DXF 1.1
  0
SECTION
  2
HEADER
  0
ENDSEC
  0
SECTION
  2
TABLES
  0
TABLE
  2
LTYPE
  0
LTYPE
  2
CONTINUOUS
 70
     0
  3
Solid line
 72
    65
 73
     0
 40
.00
  0
LTYPE
  2
DASHED_1
 70
     0
  3
Non-Solid line
 72
    65
 73
     2
 40
1.00
 49
.75
 49
-.25
  0
LTYPE
  2
DASHED_5
 70
     0
  3
Non-Solid line
 72
    65
 73
     2
 40
5.00
 49
3.50
 49
-1.50
  0
LTYPE
  2
DASHED_10
 70
     0
  3
Non-Solid line
 72
    65
 73
     2
 40
10.00
 49
7.50
 49
-2.50
  0
LTYPE
  2
DASHPOINT_1
 70
     0
  3
Non-Solid line
 72
    65
 73
     4
 40
1.00
 49
.70
 49
-.14
 49
.02
 49
-.14
  0
LTYPE
  2
DASHPOINT_5
 70
     0
  3
Non-Solid line
 72
    65
 73
     4
 40
5.00
 49
3.00
 49
-.95
 49
.10
 49
-.95
  0
LTYPE
  2
DASHPOINT_10
 70
     0
  3
Non-Solid line
 72
    65
 73
     4
 40
10.00
 49
7.00
 49
-1.40
 49
.20
 49
-1.40
  0
ENDTAB
  0
TABLE
  2
LAYER
 70
9
  0
LAYER
  2
1
 70
0
 62
1
  6
CONTINUOUS
  0
LAYER
  2
2
 70
0
 62
2
  6
CONTINUOUS
  0
LAYER
  2
3
 70
0
 62
3
  6
CONTINUOUS
  0
LAYER
  2
4
 70
0
 62
4
  6
CONTINUOUS
  0
LAYER
  2
5
 70
0
 62
5
  6
CONTINUOUS
  0
LAYER
  2
6
 70
0
 62
6
  6
CONTINUOUS
  0
LAYER
  2
7
 70
0
 62
7
  6
CONTINUOUS
  0
LAYER
  2
8
 70
0
 62
8
  6
CONTINUOUS
  0
ENDTAB
  0
ENDSEC
  0
SECTION
  2
ENTITIES
  0
CIRCLE
  8
7
 10
343.22311
 20
416.77100
 40
.94250
  0
CIRCLE
  8
7
 10
347.68600
 20
416.77100
 40
.94250
  0
CIRCLE
  8
7
 10
343.22311
 20
276.77100
 40
.94250
  0
CIRCLE
  8
7
 10
347.68600
 20
276.77100
 40
.94250
  0
CIRCLE
  8
7
 10
462.50000
 20
462.50000
 40
2.00000
  0
CIRCLE
  8
7
 10
37.50000
 20
462.50000
 40
2.00000
  0
CIRCLE
  8
7
 10
37.50000
 20
37.50000
 40
2.00000
  0
CIRCLE
  8
7
 10
462.50000
 20
37.50000
 40
2.00000
  0
LINE
  8
7
 10
96.76990
 20
416.50070
 11
96.76990
 21
414.34061
  0
LINE
  8
7
 10
96.76990
 20
414.34061
 11
87.16030
 21
414.34061
  0
LINE
  8
7
 10
87.16030
 20
414.34061
 11
87.16030
 21
408.58011
  0
LINE
  8
7
 10
87.16030
 20
408.58011
 11
94.36750
 21
408.58011
  0
LINE
  8
7
 10
94.36750
 20
408.58011
 11
94.36750
 21
406.41989
  0
LINE
  8
7
 10
94.36750
 20
406.41989
 11
87.16030
 21
406.41989
  0
LINE
  8
7
 10
87.16030
 20
406.41989
 11
87.16030
 21
400.65939
  0
LINE
  8
7
 10
87.16030
 20
400.65939
 11
96.76990
 21
400.65939
  0
LINE
  8
7
 10
96.76990
 20
400.65939
 11
96.76990
 21
398.49930
  0
LINE
  8
7
 10
96.76990
 20
398.49930
 11
85.04830
 21
398.49930
  0
LINE
  8
7
 10
85.04830
 20
398.49930
 11
85.04830
 21
416.50070
  0
LINE
  8
7
 10
85.04830
 20
416.50070
 11
96.76990
 21
416.50070
  0
LINE
  8
7
 10
128.58810
 20
381.50070
 11
128.58810
 21
379.34061
  0
LINE
  8
7
 10
128.58810
 20
379.34061
 11
118.97850
 21
379.34061
  0
LINE
  8
7
 10
118.97850
 20
379.34061
 11
118.97850
 21
373.58011
  0
LINE
  8
7
 10
118.97850
 20
373.58011
 11
126.18570
 21
373.58011
  0
LINE
  8
7
 10
126.18570
 20
373.58011
 11
126.18570
 21
371.41989
  0
LINE
  8
7
 10
126.18570
 20
371.41989
 11
118.97850
 21
371.41989
  0
LINE
  8
7
 10
118.97850
 20
371.41989
 11
118.97850
 21
365.65939
  0
LINE
  8
7
 10
118.97850
 20
365.65939
 11
128.58810
 21
365.65939
  0
LINE
  8
7
 10
128.58810
 20
365.65939
 11
128.58810
 21
363.49930
  0
LINE
  8
7
 10
128.58810
 20
363.49930
 11
116.86650
 21
363.49930
  0
LINE
  8
7
 10
116.86650
 20
363.49930
 11
116.86650
 21
381.50070
  0
LINE
  8
7
 10
116.86650
 20
381.50070
 11
128.58810
 21
381.50070
  0
LINE
  8
7
 10
160.40630
 20
346.50070
 11
160.40630
 21
344.34061
  0
LINE
  8
7
 10
160.40630
 20
344.34061
 11
150.79671
 21
344.34061
  0
LINE
  8
7
 10
150.79671
 20
344.34061
 11
150.79671
 21
338.58011
  0
LINE
  8
7
 10
150.79671
 20
338.58011
 11
158.00391
 21
338.58011
  0
LINE
  8
7
 10
158.00391
 20
338.58011
 11
158.00391
 21
336.41989
  0
LINE
  8
7
 10
158.00391
 20
336.41989
 11
150.79671
 21
336.41989
  0
LINE
  8
7
 10
150.79671
 20
336.41989
 11
150.79671
 21
330.65939
  0
LINE
  8
7
 10
150.79671
 20
330.65939
 11
160.40630
 21
330.65939
  0
LINE
  8
7
 10
160.40630
 20
330.65939
 11
160.40630
 21
328.49930
  0
LINE
  8
7
 10
160.40630
 20
328.49930
 11
148.68469
 21
328.49930
  0
LINE
  8
7
 10
148.68469
 20
328.49930
 11
148.68469
 21
346.50070
  0
LINE
  8
7
 10
148.68469
 20
346.50070
 11
160.40630
 21
346.50070
  0
LINE
  8
7
 10
287.67899
 20
346.50070
 11
287.67899
 21
344.34061
  0
LINE
  8
7
 10
287.67899
 20
344.34061
 11
278.06940
 21
344.34061
  0
LINE
  8
7
 10
278.06940
 20
344.34061
 11
278.06940
 21
338.58011
  0
LINE
  8
7
 10
278.06940
 20
338.58011
 11
285.27661
 21
338.58011
  0
LINE
  8
7
 10
285.27661
 20
338.58011
 11
285.27661
 21
336.41989
  0
LINE
  8
7
 10
285.27661
 20
336.41989
 11
278.06940
 21
336.41989
  0
LINE
  8
7
 10
278.06940
 20
336.41989
 11
278.06940
 21
330.65939
  0
LINE
  8
7
 10
278.06940
 20
330.65939
 11
287.67899
 21
330.65939
  0
LINE
  8
7
 10
287.67899
 20
330.65939
 11
287.67899
 21
328.49930
  0
LINE
  8
7
 10
287.67899
 20
328.49930
 11
275.95740
 21
328.49930
  0
LINE
  8
7
 10
275.95740
 20
328.49930
 11
275.95740
 21
346.50070
  0
LINE
  8
7
 10
275.95740
 20
346.50070
 11
287.67899
 21
346.50070
  0
LINE
  8
7
 10
383.13351
 20
346.50070
 11
383.13351
 21
344.34061
  0
LINE
  8
7
 10
383.13351
 20
344.34061
 11
373.52390
 21
344.34061
  0
LINE
  8
7
 10
373.52390
 20
344.34061
 11
373.52390
 21
338.58011
  0
LINE
  8
7
 10
373.52390
 20
338.58011
 11
380.73111
 21
338.58011
  0
LINE
  8
7
 10
380.73111
 20
338.58011
 11
380.73111
 21
336.41989
  0
LINE
  8
7
 10
380.73111
 20
336.41989
 11
373.52390
 21
336.41989
  0
LINE
  8
7
 10
373.52390
 20
336.41989
 11
373.52390
 21
330.65939
  0
LINE
  8
7
 10
373.52390
 20
330.65939
 11
383.13351
 21
330.65939
  0
LINE
  8
7
 10
383.13351
 20
330.65939
 11
383.13351
 21
328.49930
  0
LINE
  8
7
 10
383.13351
 20
328.49930
 11
371.41190
 21
328.49930
  0
LINE
  8
7
 10
371.41190
 20
328.49930
 11
371.41190
 21
346.50070
  0
LINE
  8
7
 10
371.41190
 20
346.50070
 11
383.13351
 21
346.50070
  0
LINE
  8
7
 10
255.86079
 20
276.50070
 11
255.86079
 21
274.34061
  0
LINE
  8
7
 10
255.86079
 20
274.34061
 11
246.25121
 21
274.34061
  0
LINE
  8
7
 10
246.25121
 20
274.34061
 11
246.25121
 21
268.58011
  0
LINE
  8
7
 10
246.25121
 20
268.58011
 11
253.45840
 21
268.58011
  0
LINE
  8
7
 10
253.45840
 20
268.58011
 11
253.45840
 21
266.41989
  0
LINE
  8
7
 10
253.45840
 20
266.41989
 11
246.25121
 21
266.41989
  0
LINE
  8
7
 10
246.25121
 20
266.41989
 11
246.25121
 21
260.65939
  0
LINE
  8
7
 10
246.25121
 20
260.65939
 11
255.86079
 21
260.65939
  0
LINE
  8
7
 10
255.86079
 20
260.65939
 11
255.86079
 21
258.49930
  0
LINE
  8
7
 10
255.86079
 20
258.49930
 11
244.13921
 21
258.49930
  0
LINE
  8
7
 10
244.13921
 20
258.49930
 11
244.13921
 21
276.50070
  0
LINE
  8
7
 10
244.13921
 20
276.50070
 11
255.86079
 21
276.50070
  0
LINE
  8
7
 10
383.13351
 20
241.50070
 11
383.13351
 21
239.34061
  0
LINE
  8
7
 10
383.13351
 20
239.34061
 11
373.52390
 21
239.34061
  0
LINE
  8
7
 10
373.52390
 20
239.34061
 11
373.52390
 21
233.58009
  0
LINE
  8
7
 10
373.52390
 20
233.58009
 11
380.73111
 21
233.58009
  0
LINE
  8
7
 10
380.73111
 20
233.58009
 11
380.73111
 21
231.41991
  0
LINE
  8
7
 10
380.73111
 20
231.41991
 11
373.52390
 21
231.41991
  0
LINE
  8
7
 10
373.52390
 20
231.41991
 11
373.52390
 21
225.65939
  0
LINE
  8
7
 10
373.52390
 20
225.65939
 11
383.13351
 21
225.65939
  0
LINE
  8
7
 10
383.13351
 20
225.65939
 11
383.13351
 21
223.49930
  0
LINE
  8
7
 10
383.13351
 20
223.49930
 11
371.41190
 21
223.49930
  0
LINE
  8
7
 10
371.41190
 20
223.49930
 11
371.41190
 21
241.50070
  0
LINE
  8
7
 10
371.41190
 20
241.50070
 11
383.13351
 21
241.50070
  0
LINE
  8
7
 10
96.76990
 20
241.50070
 11
96.76990
 21
239.34061
  0
LINE
  8
7
 10
96.76990
 20
239.34061
 11
87.16030
 21
239.34061
  0
LINE
  8
7
 10
87.16030
 20
239.34061
 11
87.16030
 21
233.58009
  0
LINE
  8
7
 10
87.16030
 20
233.58009
 11
94.36750
 21
233.58009
  0
LINE
  8
7
 10
94.36750
 20
233.58009
 11
94.36750
 21
231.41991
  0
LINE
  8
7
 10
94.36750
 20
231.41991
 11
87.16030
 21
231.41991
  0
LINE
  8
7
 10
87.16030
 20
231.41991
 11
87.16030
 21
225.65939
  0
LINE
  8
7
 10
87.16030
 20
225.65939
 11
96.76990
 21
225.65939
  0
LINE
  8
7
 10
96.76990
 20
225.65939
 11
96.76990
 21
223.49930
  0
LINE
  8
7
 10
96.76990
 20
223.49930
 11
85.04830
 21
223.49930
  0
LINE
  8
7
 10
85.04830
 20
223.49930
 11
85.04830
 21
241.50070
  0
LINE
  8
7
 10
85.04830
 20
241.50070
 11
96.76990
 21
241.50070
  0
LINE
  8
7
 10
160.40630
 20
206.50070
 11
160.40630
 21
204.34061
  0
LINE
  8
7
 10
160.40630
 20
204.34061
 11
150.79671
 21
204.34061
  0
LINE
  8
7
 10
150.79671
 20
204.34061
 11
150.79671
 21
198.58009
  0
LINE
  8
7
 10
150.79671
 20
198.58009
 11
158.00391
 21
198.58009
  0
LINE
  8
7
 10
158.00391
 20
198.58009
 11
158.00391
 21
196.41991
  0
LINE
  8
7
 10
158.00391
 20
196.41991
 11
150.79671
 21
196.41991
  0
LINE
  8
7
 10
150.79671
 20
196.41991
 11
150.79671
 21
190.65939
  0
LINE
  8
7
 10
150.79671
 20
190.65939
 11
160.40630
 21
190.65939
  0
LINE
  8
7
 10
160.40630
 20
190.65939
 11
160.40630
 21
188.49930
  0
LINE
  8
7
 10
160.40630
 20
188.49930
 11
148.68469
 21
188.49930
  0
LINE
  8
7
 10
148.68469
 20
188.49930
 11
148.68469
 21
206.50070
  0
LINE
  8
7
 10
148.68469
 20
206.50070
 11
160.40630
 21
206.50070
  0
LINE
  8
7
 10
382.15161
 20
205.42059
 11
382.15161
 21
203.26050
  0
LINE
  8
7
 10
382.15161
 20
203.26050
 11
372.54199
 21
203.26050
  0
LINE
  8
7
 10
372.54199
 20
203.26050
 11
372.54199
 21
197.50000
  0
LINE
  8
7
 10
372.54199
 20
197.50000
 11
379.74921
 21
197.50000
  0
LINE
  8
7
 10
379.74921
 20
197.50000
 11
379.74921
 21
195.33980
  0
LINE
  8
7
 10
379.74921
 20
195.33980
 11
372.54199
 21
195.33980
  0
LINE
  8
7
 10
372.54199
 20
195.33980
 11
372.54199
 21
189.57941
  0
LINE
  8
7
 10
372.54199
 20
189.57941
 11
382.15161
 21
189.57941
  0
LINE
  8
7
 10
382.15161
 20
189.57941
 11
382.15161
 21
187.41920
  0
LINE
  8
7
 10
382.15161
 20
187.41920
 11
370.42999
 21
187.41920
  0
LINE
  8
7
 10
370.42999
 20
187.41920
 11
370.42999
 21
205.42059
  0
LINE
  8
7
 10
370.42999
 20
205.42059
 11
382.15161
 21
205.42059
  0
LINE
  8
7
 10
128.58810
 20
171.50070
 11
128.58810
 21
169.34061
  0
LINE
  8
7
 10
128.58810
 20
169.34061
 11
118.97850
 21
169.34061
  0
LINE
  8
7
 10
118.97850
 20
169.34061
 11
118.97850
 21
163.58009
  0
LINE
  8
7
 10
118.97850
 20
163.58009
 11
126.18570
 21
163.58009
  0
LINE
  8
7
 10
126.18570
 20
163.58009
 11
126.18570
 21
161.41991
  0
LINE
  8
7
 10
126.18570
 20
161.41991
 11
118.97850
 21
161.41991
  0
LINE
  8
7
 10
118.97850
 20
161.41991
 11
118.97850
 21
155.65939
  0
LINE
  8
7
 10
118.97850
 20
155.65939
 11
128.58810
 21
155.65939
  0
LINE
  8
7
 10
128.58810
 20
155.65939
 11
128.58810
 21
153.49930
  0
LINE
  8
7
 10
128.58810
 20
153.49930
 11
116.86650
 21
153.49930
  0
LINE
  8
7
 10
116.86650
 20
153.49930
 11
116.86650
 21
171.50070
  0
LINE
  8
7
 10
116.86650
 20
171.50070
 11
128.58810
 21
171.50070
  0
LINE
  8
7
 10
160.40630
 20
136.50070
 11
160.40630
 21
134.34061
  0
LINE
  8
7
 10
160.40630
 20
134.34061
 11
150.79671
 21
134.34061
  0
LINE
  8
7
 10
150.79671
 20
134.34061
 11
150.79671
 21
128.58009
  0
LINE
  8
7
 10
150.79671
 20
128.58009
 11
158.00391
 21
128.58009
  0
LINE
  8
7
 10
158.00391
 20
128.58009
 11
158.00391
 21
126.41990
  0
LINE
  8
7
 10
158.00391
 20
126.41990
 11
150.79671
 21
126.41990
  0
LINE
  8
7
 10
150.79671
 20
126.41990
 11
150.79671
 21
120.65940
  0
LINE
  8
7
 10
150.79671
 20
120.65940
 11
160.40630
 21
120.65940
  0
LINE
  8
7
 10
160.40630
 20
120.65940
 11
160.40630
 21
118.49930
  0
LINE
  8
7
 10
160.40630
 20
118.49930
 11
148.68469
 21
118.49930
  0
LINE
  8
7
 10
148.68469
 20
118.49930
 11
148.68469
 21
136.50070
  0
LINE
  8
7
 10
148.68469
 20
136.50070
 11
160.40630
 21
136.50070
  0
LINE
  8
7
 10
224.04260
 20
136.50070
 11
224.04260
 21
134.34061
  0
LINE
  8
7
 10
224.04260
 20
134.34061
 11
214.43300
 21
134.34061
  0
LINE
  8
7
 10
214.43300
 20
134.34061
 11
214.43300
 21
128.58009
  0
LINE
  8
7
 10
214.43300
 20
128.58009
 11
221.64020
 21
128.58009
  0
LINE
  8
7
 10
221.64020
 20
128.58009
 11
221.64020
 21
126.41990
  0
LINE
  8
7
 10
221.64020
 20
126.41990
 11
214.43300
 21
126.41990
  0
LINE
  8
7
 10
214.43300
 20
126.41990
 11
214.43300
 21
120.65940
  0
LINE
  8
7
 10
214.43300
 20
120.65940
 11
224.04260
 21
120.65940
  0
LINE
  8
7
 10
224.04260
 20
120.65940
 11
224.04260
 21
118.49930
  0
LINE
  8
7
 10
224.04260
 20
118.49930
 11
212.32100
 21
118.49930
  0
LINE
  8
7
 10
212.32100
 20
118.49930
 11
212.32100
 21
136.50070
  0
LINE
  8
7
 10
212.32100
 20
136.50070
 11
224.04260
 21
136.50070
  0
LINE
  8
7
 10
128.58810
 20
101.50070
 11
128.58810
 21
99.34050
  0
LINE
  8
7
 10
128.58810
 20
99.34050
 11
118.97850
 21
99.34050
  0
LINE
  8
7
 10
118.97850
 20
99.34050
 11
118.97850
 21
93.58010
  0
LINE
  8
7
 10
118.97850
 20
93.58010
 11
126.18570
 21
93.58010
  0
LINE
  8
7
 10
126.18570
 20
93.58010
 11
126.18570
 21
91.41990
  0
LINE
  8
7
 10
126.18570
 20
91.41990
 11
118.97850
 21
91.41990
  0
LINE
  8
7
 10
118.97850
 20
91.41990
 11
118.97850
 21
85.65940
  0
LINE
  8
7
 10
118.97850
 20
85.65940
 11
128.58810
 21
85.65940
  0
LINE
  8
7
 10
128.58810
 20
85.65940
 11
128.58810
 21
83.49930
  0
LINE
  8
7
 10
128.58810
 20
83.49930
 11
116.86650
 21
83.49930
  0
LINE
  8
7
 10
116.86650
 20
83.49930
 11
116.86650
 21
101.50070
  0
LINE
  8
7
 10
116.86650
 20
101.50070
 11
128.58810
 21
101.50070
  0
LINE
  8
7
 10
224.04260
 20
101.50070
 11
224.04260
 21
99.34050
  0
LINE
  8
7
 10
224.04260
 20
99.34050
 11
214.43300
 21
99.34050
  0
LINE
  8
7
 10
214.43300
 20
99.34050
 11
214.43300
 21
93.58010
  0
LINE
  8
7
 10
214.43300
 20
93.58010
 11
221.64020
 21
93.58010
  0
LINE
  8
7
 10
221.64020
 20
93.58010
 11
221.64020
 21
91.41990
  0
LINE
  8
7
 10
221.64020
 20
91.41990
 11
214.43300
 21
91.41990
  0
LINE
  8
7
 10
214.43300
 20
91.41990
 11
214.43300
 21
85.65940
  0
LINE
  8
7
 10
214.43300
 20
85.65940
 11
224.04260
 21
85.65940
  0
LINE
  8
7
 10
224.04260
 20
85.65940
 11
224.04260
 21
83.49930
  0
LINE
  8
7
 10
224.04260
 20
83.49930
 11
212.32100
 21
83.49930
  0
LINE
  8
7
 10
212.32100
 20
83.49930
 11
212.32100
 21
101.50070
  0
LINE
  8
7
 10
212.32100
 20
101.50070
 11
224.04260
 21
101.50070
  0
LINE
  8
7
 10
123.89940
 20
400.65939
 11
121.55510
 21
400.65939
  0
LINE
  8
7
 10
123.89940
 20
416.50070
 11
121.55510
 21
416.50070
  0
LINE
  8
7
 10
126.47610
 20
411.70511
 11
128.58810
 21
411.70511
  0
LINE
  8
7
 10
121.55510
 20
414.34061
 11
123.89940
 21
414.34061
  0
LINE
  8
7
 10
125.18450
 20
407.90680
 11
120.84890
 21
409.17068
  0
LINE
  8
7
 10
121.55510
 20
398.49930
 11
123.89940
 21
398.49930
  0
LINE
  8
7
 10
116.86650
 20
403.29489
 11
116.95660
 21
402.35931
  0
LINE
  8
7
 10
116.95660
 20
402.35931
 11
117.22340
 21
401.45969
  0
LINE
  8
7
 10
117.22340
 20
401.45969
 11
117.65670
 21
400.63062
  0
LINE
  8
7
 10
117.65670
 20
400.63062
 11
118.23970
 21
399.90390
  0
LINE
  8
7
 10
118.23970
 20
399.90390
 11
118.95020
 21
399.30750
  0
LINE
  8
7
 10
118.95020
 20
399.30750
 11
119.76080
 21
398.86429
  0
LINE
  8
7
 10
119.76080
 20
398.86429
 11
120.64040
 21
398.59140
  0
LINE
  8
7
 10
120.64040
 20
398.59140
 11
121.55510
 21
398.49930
  0
LINE
  8
7
 10
118.97850
 20
403.29489
 11
116.86650
 21
403.29489
  0
LINE
  8
7
 10
119.02800
 20
402.78070
 11
118.97850
 21
403.29489
  0
LINE
  8
7
 10
119.17460
 20
402.28629
 11
119.02800
 21
402.78070
  0
LINE
  8
7
 10
119.41270
 20
401.83069
 11
119.17460
 21
402.28629
  0
LINE
  8
7
 10
119.73310
 20
401.43130
 11
119.41270
 21
401.83069
  0
LINE
  8
7
 10
120.12360
 20
401.10361
 11
119.73310
 21
401.43130
  0
LINE
  8
7
 10
120.56910
 20
400.86011
 11
120.12360
 21
401.10361
  0
LINE
  8
7
 10
121.05240
 20
400.71011
 11
120.56910
 21
400.86011
  0
LINE
  8
7
 10
121.55510
 20
400.65939
 11
121.05240
 21
400.71011
  0
LINE
  8
7
 10
124.38840
 20
400.70731
 11
123.89940
 21
400.65939
  0
LINE
  8
7
 10
124.85960
 20
400.84930
 11
124.38840
 21
400.70731
  0
LINE
  8
7
 10
125.29590
 20
401.08011
 11
124.85960
 21
400.84930
  0
LINE
  8
7
 10
125.68150
 20
401.39139
 11
125.29590
 21
401.08011
  0
LINE
  8
7
 10
126.00230
 20
401.77191
 11
125.68150
 21
401.39139
  0
LINE
  8
7
 10
126.24660
 20
402.20770
 11
126.00230
 21
401.77191
  0
LINE
  8
7
 10
126.40570
 20
402.68301
 11
126.24660
 21
402.20770
  0
LINE
  8
7
 10
126.47370
 20
403.18060
 11
126.40570
 21
402.68301
  0
LINE
  8
7
 10
126.44810
 20
403.68240
 11
126.47370
 21
403.18060
  0
LINE
  8
7
 10
126.32980
 20
404.17001
 11
126.44810
 21
403.68240
  0
LINE
  8
7
 10
126.12330
 20
404.62589
 11
126.32980
 21
404.17001
  0
LINE
  8
7
 10
125.83590
 20
405.03329
 11
126.12330
 21
404.62589
  0
LINE
  8
7
 10
125.47820
 20
405.37759
 11
125.83590
 21
405.03329
  0
LINE
  8
7
 10
125.06310
 20
405.64621
 11
125.47820
 21
405.37759
  0
LINE
  8
7
 10
124.60570
 20
405.82932
 11
125.06310
 21
405.64621
  0
LINE
  8
7
 10
120.27000
 20
407.09320
 11
124.60570
 21
405.82932
  0
LINE
  8
7
 10
121.55510
 20
416.50070
 11
120.66530
 21
416.41360
  0
LINE
  8
7
 10
120.66530
 20
416.41360
 11
119.80790
 21
416.15530
  0
LINE
  8
7
 10
119.80790
 20
416.15530
 11
119.01400
 21
415.73529
  0
LINE
  8
7
 10
119.01400
 20
415.73529
 11
118.31240
 21
415.16879
  0
LINE
  8
7
 10
118.31240
 20
415.16879
 11
117.72870
 21
414.47650
  0
LINE
  8
7
 10
117.72870
 20
414.47650
 11
117.28400
 21
413.68341
  0
LINE
  8
7
 10
117.28400
 20
413.68341
 11
116.99460
 21
412.81839
  0
LINE
  8
7
 10
116.99460
 20
412.81839
 11
116.87090
 21
411.91299
  0
LINE
  8
7
 10
116.87090
 20
411.91299
 11
116.91740
 21
411.00000
  0
LINE
  8
7
 10
116.91740
 20
411.00000
 11
117.13250
 21
410.11261
  0
LINE
  8
7
 10
117.13250
 20
410.11261
 11
117.50840
 21
409.28311
  0
LINE
  8
7
 10
117.50840
 20
409.28311
 11
118.03130
 21
408.54169
  0
LINE
  8
7
 10
118.03130
 20
408.54169
 11
118.68230
 21
407.91519
  0
LINE
  8
7
 10
118.68230
 20
407.91519
 11
119.43770
 21
407.42639
  0
LINE
  8
7
 10
119.43770
 20
407.42639
 11
120.27000
 21
407.09320
  0
LINE
  8
7
 10
128.58810
 20
411.70511
 11
128.49800
 21
412.64069
  0
LINE
  8
7
 10
128.49800
 20
412.64069
 11
128.23120
 21
413.54031
  0
LINE
  8
7
 10
128.23120
 20
413.54031
 11
127.79790
 21
414.36938
  0
LINE
  8
7
 10
127.79790
 20
414.36938
 11
127.21480
 21
415.09610
  0
LINE
  8
7
 10
127.21480
 20
415.09610
 11
126.50430
 21
415.69250
  0
LINE
  8
7
 10
126.50430
 20
415.69250
 11
125.69370
 21
416.13571
  0
LINE
  8
7
 10
125.69370
 20
416.13571
 11
124.81410
 21
416.40860
  0
LINE
  8
7
 10
124.81410
 20
416.40860
 11
123.89940
 21
416.50070
  0
LINE
  8
7
 10
126.42660
 20
412.21930
 11
126.47610
 21
411.70511
  0
LINE
  8
7
 10
126.27990
 20
412.71371
 11
126.42660
 21
412.21930
  0
LINE
  8
7
 10
126.04180
 20
413.16931
 11
126.27990
 21
412.71371
  0
LINE
  8
7
 10
125.72140
 20
413.56860
 11
126.04180
 21
413.16931
  0
LINE
  8
7
 10
125.33090
 20
413.89639
 11
125.72140
 21
413.56860
  0
LINE
  8
7
 10
124.88550
 20
414.13989
 11
125.33090
 21
413.89639
  0
LINE
  8
7
 10
124.40210
 20
414.28989
 11
124.88550
 21
414.13989
  0
LINE
  8
7
 10
123.89940
 20
414.34061
 11
124.40210
 21
414.28989
  0
LINE
  8
7
 10
121.06610
 20
414.29269
 11
121.55510
 21
414.34061
  0
LINE
  8
7
 10
120.59490
 20
414.15070
 11
121.06610
 21
414.29269
  0
LINE
  8
7
 10
120.15860
 20
413.91989
 11
120.59490
 21
414.15070
  0
LINE
  8
7
 10
119.77310
 20
413.60861
 11
120.15860
 21
413.91989
  0
LINE
  8
7
 10
119.45230
 20
413.22809
 11
119.77310
 21
413.60861
  0
LINE
  8
7
 10
119.20790
 20
412.79230
 11
119.45230
 21
413.22809
  0
LINE
  8
7
 10
119.04890
 20
412.31689
 11
119.20790
 21
412.79230
  0
LINE
  8
7
 10
118.98090
 20
411.81940
 11
119.04890
 21
412.31689
  0
LINE
  8
7
 10
119.00650
 20
411.31760
 11
118.98090
 21
411.81940
  0
LINE
  8
7
 10
119.12470
 20
410.82999
 11
119.00650
 21
411.31760
  0
LINE
  8
7
 10
119.33120
 20
410.37411
 11
119.12470
 21
410.82999
  0
LINE
  8
7
 10
119.61860
 20
409.96671
 11
119.33120
 21
410.37411
  0
LINE
  8
7
 10
119.97630
 20
409.62241
 11
119.61860
 21
409.96671
  0
LINE
  8
7
 10
120.39150
 20
409.35379
 11
119.97630
 21
409.62241
  0
LINE
  8
7
 10
120.84890
 20
409.17068
 11
120.39150
 21
409.35379
  0
LINE
  8
7
 10
123.89940
 20
398.49930
 11
124.78920
 21
398.58640
  0
LINE
  8
7
 10
124.78920
 20
398.58640
 11
125.64660
 21
398.84470
  0
LINE
  8
7
 10
125.64660
 20
398.84470
 11
126.44060
 21
399.26471
  0
LINE
  8
7
 10
126.44060
 20
399.26471
 11
127.14220
 21
399.83121
  0
LINE
  8
7
 10
127.14220
 20
399.83121
 11
127.72590
 21
400.52350
  0
LINE
  8
7
 10
127.72590
 20
400.52350
 11
128.17050
 21
401.31659
  0
LINE
  8
7
 10
128.17050
 20
401.31659
 11
128.46001
 21
402.18161
  0
LINE
  8
7
 10
128.46001
 20
402.18161
 11
128.58369
 21
403.08701
  0
LINE
  8
7
 10
128.58369
 20
403.08701
 11
128.53709
 21
404.00000
  0
LINE
  8
7
 10
128.53709
 20
404.00000
 11
128.32201
 21
404.88739
  0
LINE
  8
7
 10
128.32201
 20
404.88739
 11
127.94620
 21
405.71689
  0
LINE
  8
7
 10
127.94620
 20
405.71689
 11
127.42320
 21
406.45831
  0
LINE
  8
7
 10
127.42320
 20
406.45831
 11
126.77230
 21
407.08481
  0
LINE
  8
7
 10
126.77230
 20
407.08481
 11
126.01690
 21
407.57361
  0
LINE
  8
7
 10
126.01690
 20
407.57361
 11
125.18450
 21
407.90680
  0
LINE
  8
7
 10
219.35400
 20
400.65939
 11
217.00960
 21
400.65939
  0
LINE
  8
7
 10
219.35400
 20
416.50070
 11
217.00960
 21
416.50070
  0
LINE
  8
7
 10
221.93060
 20
411.70511
 11
224.04260
 21
411.70511
  0
LINE
  8
7
 10
217.00960
 20
414.34061
 11
219.35400
 21
414.34061
  0
LINE
  8
7
 10
220.63910
 20
407.90680
 11
216.30341
 21
409.17068
  0
LINE
  8
7
 10
217.00960
 20
398.49930
 11
219.35400
 21
398.49930
  0
LINE
  8
7
 10
212.32100
 20
403.29489
 11
212.41110
 21
402.35931
  0
LINE
  8
7
 10
212.41110
 20
402.35931
 11
212.67790
 21
401.45969
  0
LINE
  8
7
 10
212.67790
 20
401.45969
 11
213.11121
 21
400.63062
  0
LINE
  8
7
 10
213.11121
 20
400.63062
 11
213.69431
 21
399.90390
  0
LINE
  8
7
 10
213.69431
 20
399.90390
 11
214.40480
 21
399.30750
  0
LINE
  8
7
 10
214.40480
 20
399.30750
 11
215.21539
 21
398.86429
  0
LINE
  8
7
 10
215.21539
 20
398.86429
 11
216.09500
 21
398.59140
  0
LINE
  8
7
 10
216.09500
 20
398.59140
 11
217.00960
 21
398.49930
  0
LINE
  8
7
 10
214.43300
 20
403.29489
 11
212.32100
 21
403.29489
  0
LINE
  8
7
 10
214.48250
 20
402.78070
 11
214.43300
 21
403.29489
  0
LINE
  8
7
 10
214.62920
 20
402.28629
 11
214.48250
 21
402.78070
  0
LINE
  8
7
 10
214.86729
 20
401.83069
 11
214.62920
 21
402.28629
  0
LINE
  8
7
 10
215.18770
 20
401.43130
 11
214.86729
 21
401.83069
  0
LINE
  8
7
 10
215.57809
 20
401.10361
 11
215.18770
 21
401.43130
  0
LINE
  8
7
 10
216.02361
 20
400.86011
 11
215.57809
 21
401.10361
  0
LINE
  8
7
 10
216.50700
 20
400.71011
 11
216.02361
 21
400.86011
  0
LINE
  8
7
 10
217.00960
 20
400.65939
 11
216.50700
 21
400.71011
  0
LINE
  8
7
 10
219.84300
 20
400.70731
 11
219.35400
 21
400.65939
  0
LINE
  8
7
 10
220.31419
 20
400.84930
 11
219.84300
 21
400.70731
  0
LINE
  8
7
 10
220.75050
 20
401.08011
 11
220.31419
 21
400.84930
  0
LINE
  8
7
 10
221.13600
 20
401.39139
 11
220.75050
 21
401.08011
  0
LINE
  8
7
 10
221.45680
 20
401.77191
 11
221.13600
 21
401.39139
  0
LINE
  8
7
 10
221.70120
 20
402.20770
 11
221.45680
 21
401.77191
  0
LINE
  8
7
 10
221.86020
 20
402.68301
 11
221.70120
 21
402.20770
  0
LINE
  8
7
 10
221.92821
 20
403.18060
 11
221.86020
 21
402.68301
  0
LINE
  8
7
 10
221.90260
 20
403.68240
 11
221.92821
 21
403.18060
  0
LINE
  8
7
 10
221.78439
 20
404.17001
 11
221.90260
 21
403.68240
  0
LINE
  8
7
 10
221.57790
 20
404.62589
 11
221.78439
 21
404.17001
  0
LINE
  8
7
 10
221.29050
 20
405.03329
 11
221.57790
 21
404.62589
  0
LINE
  8
7
 10
220.93269
 20
405.37759
 11
221.29050
 21
405.03329
  0
LINE
  8
7
 10
220.51759
 20
405.64621
 11
220.93269
 21
405.37759
  0
LINE
  8
7
 10
220.06020
 20
405.82932
 11
220.51759
 21
405.64621
  0
LINE
  8
7
 10
215.72459
 20
407.09320
 11
220.06020
 21
405.82932
  0
LINE
  8
7
 10
217.00960
 20
416.50070
 11
216.11990
 21
416.41360
  0
LINE
  8
7
 10
216.11990
 20
416.41360
 11
215.26241
 21
416.15530
  0
LINE
  8
7
 10
215.26241
 20
416.15530
 11
214.46851
 21
415.73529
  0
LINE
  8
7
 10
214.46851
 20
415.73529
 11
213.76691
 21
415.16879
  0
LINE
  8
7
 10
213.76691
 20
415.16879
 11
213.18320
 21
414.47650
  0
LINE
  8
7
 10
213.18320
 20
414.47650
 11
212.73849
 21
413.68341
  0
LINE
  8
7
 10
212.73849
 20
413.68341
 11
212.44910
 21
412.81839
  0
LINE
  8
7
 10
212.44910
 20
412.81839
 11
212.32539
 21
411.91299
  0
LINE
  8
7
 10
212.32539
 20
411.91299
 11
212.37199
 21
411.00000
  0
LINE
  8
7
 10
212.37199
 20
411.00000
 11
212.58710
 21
410.11261
  0
LINE
  8
7
 10
212.58710
 20
410.11261
 11
212.96291
 21
409.28311
  0
LINE
  8
7
 10
212.96291
 20
409.28311
 11
213.48579
 21
408.54169
  0
LINE
  8
7
 10
213.48579
 20
408.54169
 11
214.13680
 21
407.91519
  0
LINE
  8
7
 10
214.13680
 20
407.91519
 11
214.89220
 21
407.42639
  0
LINE
  8
7
 10
214.89220
 20
407.42639
 11
215.72459
 21
407.09320
  0
LINE
  8
7
 10
224.04260
 20
411.70511
 11
223.95250
 21
412.64069
  0
LINE
  8
7
 10
223.95250
 20
412.64069
 11
223.68570
 21
413.54031
  0
LINE
  8
7
 10
223.68570
 20
413.54031
 11
223.25240
 21
414.36938
  0
LINE
  8
7
 10
223.25240
 20
414.36938
 11
222.66930
 21
415.09610
  0
LINE
  8
7
 10
222.66930
 20
415.09610
 11
221.95880
 21
415.69250
  0
LINE
  8
7
 10
221.95880
 20
415.69250
 11
221.14819
 21
416.13571
  0
LINE
  8
7
 10
221.14819
 20
416.13571
 11
220.26871
 21
416.40860
  0
LINE
  8
7
 10
220.26871
 20
416.40860
 11
219.35400
 21
416.50070
  0
LINE
  8
7
 10
221.88110
 20
412.21930
 11
221.93060
 21
411.70511
  0
LINE
  8
7
 10
221.73450
 20
412.71371
 11
221.88110
 21
412.21930
  0
LINE
  8
7
 10
221.49640
 20
413.16931
 11
221.73450
 21
412.71371
  0
LINE
  8
7
 10
221.17590
 20
413.56860
 11
221.49640
 21
413.16931
  0
LINE
  8
7
 10
220.78551
 20
413.89639
 11
221.17590
 21
413.56860
  0
LINE
  8
7
 10
220.34000
 20
414.13989
 11
220.78551
 21
413.89639
  0
LINE
  8
7
 10
219.85670
 20
414.28989
 11
220.34000
 21
414.13989
  0
LINE
  8
7
 10
219.35400
 20
414.34061
 11
219.85670
 21
414.28989
  0
LINE
  8
7
 10
216.52071
 20
414.29269
 11
217.00960
 21
414.34061
  0
LINE
  8
7
 10
216.04950
 20
414.15070
 11
216.52071
 21
414.29269
  0
LINE
  8
7
 10
215.61320
 20
413.91989
 11
216.04950
 21
414.15070
  0
LINE
  8
7
 10
215.22760
 20
413.60861
 11
215.61320
 21
413.91989
  0
LINE
  8
7
 10
214.90680
 20
413.22809
 11
215.22760
 21
413.60861
  0
LINE
  8
7
 10
214.66251
 20
412.79230
 11
214.90680
 21
413.22809
  0
LINE
  8
7
 10
214.50340
 20
412.31689
 11
214.66251
 21
412.79230
  0
LINE
  8
7
 10
214.43539
 20
411.81940
 11
214.50340
 21
412.31689
  0
LINE
  8
7
 10
214.46100
 20
411.31760
 11
214.43539
 21
411.81940
  0
LINE
  8
7
 10
214.57919
 20
410.82999
 11
214.46100
 21
411.31760
  0
LINE
  8
7
 10
214.78580
 20
410.37411
 11
214.57919
 21
410.82999
  0
LINE
  8
7
 10
215.07310
 20
409.96671
 11
214.78580
 21
410.37411
  0
LINE
  8
7
 10
215.43089
 20
409.62241
 11
215.07310
 21
409.96671
  0
LINE
  8
7
 10
215.84599
 20
409.35379
 11
215.43089
 21
409.62241
  0
LINE
  8
7
 10
216.30341
 20
409.17068
 11
215.84599
 21
409.35379
  0
LINE
  8
7
 10
219.35400
 20
398.49930
 11
220.24380
 21
398.58640
  0
LINE
  8
7
 10
220.24380
 20
398.58640
 11
221.10120
 21
398.84470
  0
LINE
  8
7
 10
221.10120
 20
398.84470
 11
221.89510
 21
399.26471
  0
LINE
  8
7
 10
221.89510
 20
399.26471
 11
222.59669
 21
399.83121
  0
LINE
  8
7
 10
222.59669
 20
399.83121
 11
223.18040
 21
400.52350
  0
LINE
  8
7
 10
223.18040
 20
400.52350
 11
223.62511
 21
401.31659
  0
LINE
  8
7
 10
223.62511
 20
401.31659
 11
223.91451
 21
402.18161
  0
LINE
  8
7
 10
223.91451
 20
402.18161
 11
224.03819
 21
403.08701
  0
LINE
  8
7
 10
224.03819
 20
403.08701
 11
223.99159
 21
404.00000
  0
LINE
  8
7
 10
223.99159
 20
404.00000
 11
223.77650
 21
404.88739
  0
LINE
  8
7
 10
223.77650
 20
404.88739
 11
223.40070
 21
405.71689
  0
LINE
  8
7
 10
223.40070
 20
405.71689
 11
222.87781
 21
406.45831
  0
LINE
  8
7
 10
222.87781
 20
406.45831
 11
222.22681
 21
407.08481
  0
LINE
  8
7
 10
222.22681
 20
407.08481
 11
221.47141
 21
407.57361
  0
LINE
  8
7
 10
221.47141
 20
407.57361
 11
220.63910
 21
407.90680
  0
LINE
  8
7
 10
187.53580
 20
225.65939
 11
185.19150
 21
225.65939
  0
LINE
  8
7
 10
187.53580
 20
241.50070
 11
185.19150
 21
241.50070
  0
LINE
  8
7
 10
190.11240
 20
236.70509
 11
192.22440
 21
236.70509
  0
LINE
  8
7
 10
185.19150
 20
239.34061
 11
187.53580
 21
239.34061
  0
LINE
  8
7
 10
188.82091
 20
232.90680
 11
184.48531
 21
234.17059
  0
LINE
  8
7
 10
185.19150
 20
223.49930
 11
187.53580
 21
223.49930
  0
LINE
  8
7
 10
180.50281
 20
228.29491
 11
180.59290
 21
227.35930
  0
LINE
  8
7
 10
180.59290
 20
227.35930
 11
180.85970
 21
226.45970
  0
LINE
  8
7
 10
180.85970
 20
226.45970
 11
181.29300
 21
225.63060
  0
LINE
  8
7
 10
181.29300
 20
225.63060
 11
181.87610
 21
224.90390
  0
LINE
  8
7
 10
181.87610
 20
224.90390
 11
182.58659
 21
224.30750
  0
LINE
  8
7
 10
182.58659
 20
224.30750
 11
183.39720
 21
223.86430
  0
LINE
  8
7
 10
183.39720
 20
223.86430
 11
184.27679
 21
223.59140
  0
LINE
  8
7
 10
184.27679
 20
223.59140
 11
185.19150
 21
223.49930
  0
LINE
  8
7
 10
182.61481
 20
228.29491
 11
180.50281
 21
228.29491
  0
LINE
  8
7
 10
182.66431
 20
227.78070
 11
182.61481
 21
228.29491
  0
LINE
  8
7
 10
182.81100
 20
227.28630
 11
182.66431
 21
227.78070
  0
LINE
  8
7
 10
183.04910
 20
226.83070
 11
182.81100
 21
227.28630
  0
LINE
  8
7
 10
183.36951
 20
226.43130
 11
183.04910
 21
226.83070
  0
LINE
  8
7
 10
183.75999
 20
226.10361
 11
183.36951
 21
226.43130
  0
LINE
  8
7
 10
184.20540
 20
225.86011
 11
183.75999
 21
226.10361
  0
LINE
  8
7
 10
184.68880
 20
225.71010
 11
184.20540
 21
225.86011
  0
LINE
  8
7
 10
185.19150
 20
225.65939
 11
184.68880
 21
225.71010
  0
LINE
  8
7
 10
188.02480
 20
225.70731
 11
187.53580
 21
225.65939
  0
LINE
  8
7
 10
188.49600
 20
225.84930
 11
188.02480
 21
225.70731
  0
LINE
  8
7
 10
188.93230
 20
226.08009
 11
188.49600
 21
225.84930
  0
LINE
  8
7
 10
189.31779
 20
226.39140
 11
188.93230
 21
226.08009
  0
LINE
  8
7
 10
189.63860
 20
226.77190
 11
189.31779
 21
226.39140
  0
LINE
  8
7
 10
189.88300
 20
227.20770
 11
189.63860
 21
226.77190
  0
LINE
  8
7
 10
190.04201
 20
227.68311
 11
189.88300
 21
227.20770
  0
LINE
  8
7
 10
190.11000
 20
228.18060
 11
190.04201
 21
227.68311
  0
LINE
  8
7
 10
190.08440
 20
228.68240
 11
190.11000
 21
228.18060
  0
LINE
  8
7
 10
189.96620
 20
229.17000
 11
190.08440
 21
228.68240
  0
LINE
  8
7
 10
189.75970
 20
229.62590
 11
189.96620
 21
229.17000
  0
LINE
  8
7
 10
189.47231
 20
230.03329
 11
189.75970
 21
229.62590
  0
LINE
  8
7
 10
189.11459
 20
230.37759
 11
189.47231
 21
230.03329
  0
LINE
  8
7
 10
188.69940
 20
230.64619
 11
189.11459
 21
230.37759
  0
LINE
  8
7
 10
188.24200
 20
230.82930
 11
188.69940
 21
230.64619
  0
LINE
  8
7
 10
183.90640
 20
232.09320
 11
188.24200
 21
230.82930
  0
LINE
  8
7
 10
185.19150
 20
241.50070
 11
184.30170
 21
241.41360
  0
LINE
  8
7
 10
184.30170
 20
241.41360
 11
183.44431
 21
241.15530
  0
LINE
  8
7
 10
183.44431
 20
241.15530
 11
182.65030
 21
240.73531
  0
LINE
  8
7
 10
182.65030
 20
240.73531
 11
181.94870
 21
240.16879
  0
LINE
  8
7
 10
181.94870
 20
240.16879
 11
181.36501
 21
239.47650
  0
LINE
  8
7
 10
181.36501
 20
239.47650
 11
180.92039
 21
238.68340
  0
LINE
  8
7
 10
180.92039
 20
238.68340
 11
180.63091
 21
237.81841
  0
LINE
  8
7
 10
180.63091
 20
237.81841
 11
180.50720
 21
236.91299
  0
LINE
  8
7
 10
180.50720
 20
236.91299
 11
180.55380
 21
236.00000
  0
LINE
  8
7
 10
180.55380
 20
236.00000
 11
180.76891
 21
235.11259
  0
LINE
  8
7
 10
180.76891
 20
235.11259
 11
181.14470
 21
234.28310
  0
LINE
  8
7
 10
181.14470
 20
234.28310
 11
181.66769
 21
233.54170
  0
LINE
  8
7
 10
181.66769
 20
233.54170
 11
182.31860
 21
232.91521
  0
LINE
  8
7
 10
182.31860
 20
232.91521
 11
183.07401
 21
232.42641
  0
LINE
  8
7
 10
183.07401
 20
232.42641
 11
183.90640
 21
232.09320
  0
LINE
  8
7
 10
192.22440
 20
236.70509
 11
192.13429
 21
237.64070
  0
LINE
  8
7
 10
192.13429
 20
237.64070
 11
191.86749
 21
238.54030
  0
LINE
  8
7
 10
191.86749
 20
238.54030
 11
191.43420
 21
239.36940
  0
LINE
  8
7
 10
191.43420
 20
239.36940
 11
190.85120
 21
240.09610
  0
LINE
  8
7
 10
190.85120
 20
240.09610
 11
190.14070
 21
240.69250
  0
LINE
  8
7
 10
190.14070
 20
240.69250
 11
189.33009
 21
241.13570
  0
LINE
  8
7
 10
189.33009
 20
241.13570
 11
188.45050
 21
241.40860
  0
LINE
  8
7
 10
188.45050
 20
241.40860
 11
187.53580
 21
241.50070
  0
LINE
  8
7
 10
190.06290
 20
237.21930
 11
190.11240
 21
236.70509
  0
LINE
  8
7
 10
189.91631
 20
237.71370
 11
190.06290
 21
237.21930
  0
LINE
  8
7
 10
189.67821
 20
238.16930
 11
189.91631
 21
237.71370
  0
LINE
  8
7
 10
189.35780
 20
238.56860
 11
189.67821
 21
238.16930
  0
LINE
  8
7
 10
188.96730
 20
238.89639
 11
189.35780
 21
238.56860
  0
LINE
  8
7
 10
188.52180
 20
239.13989
 11
188.96730
 21
238.89639
  0
LINE
  8
7
 10
188.03850
 20
239.28990
 11
188.52180
 21
239.13989
  0
LINE
  8
7
 10
187.53580
 20
239.34061
 11
188.03850
 21
239.28990
  0
LINE
  8
7
 10
184.70250
 20
239.29269
 11
185.19150
 21
239.34061
  0
LINE
  8
7
 10
184.23129
 20
239.15070
 11
184.70250
 21
239.29269
  0
LINE
  8
7
 10
183.79500
 20
238.91991
 11
184.23129
 21
239.15070
  0
LINE
  8
7
 10
183.40939
 20
238.60860
 11
183.79500
 21
238.91991
  0
LINE
  8
7
 10
183.08870
 20
238.22810
 11
183.40939
 21
238.60860
  0
LINE
  8
7
 10
182.84430
 20
237.79230
 11
183.08870
 21
238.22810
  0
LINE
  8
7
 10
182.68520
 20
237.31689
 11
182.84430
 21
237.79230
  0
LINE
  8
7
 10
182.61729
 20
236.81940
 11
182.68520
 21
237.31689
  0
LINE
  8
7
 10
182.64281
 20
236.31760
 11
182.61729
 21
236.81940
  0
LINE
  8
7
 10
182.76109
 20
235.83000
 11
182.64281
 21
236.31760
  0
LINE
  8
7
 10
182.96761
 20
235.37410
 11
182.76109
 21
235.83000
  0
LINE
  8
7
 10
183.25500
 20
234.96671
 11
182.96761
 21
235.37410
  0
LINE
  8
7
 10
183.61270
 20
234.62241
 11
183.25500
 21
234.96671
  0
LINE
  8
7
 10
184.02780
 20
234.35381
 11
183.61270
 21
234.62241
  0
LINE
  8
7
 10
184.48531
 20
234.17059
 11
184.02780
 21
234.35381
  0
LINE
  8
7
 10
187.53580
 20
223.49930
 11
188.42560
 21
223.58640
  0
LINE
  8
7
 10
188.42560
 20
223.58640
 11
189.28300
 21
223.84470
  0
LINE
  8
7
 10
189.28300
 20
223.84470
 11
190.07690
 21
224.26469
  0
LINE
  8
7
 10
190.07690
 20
224.26469
 11
190.77850
 21
224.83121
  0
LINE
  8
7
 10
190.77850
 20
224.83121
 11
191.36220
 21
225.52350
  0
LINE
  8
7
 10
191.36220
 20
225.52350
 11
191.80690
 21
226.31660
  0
LINE
  8
7
 10
191.80690
 20
226.31660
 11
192.09630
 21
227.18159
  0
LINE
  8
7
 10
192.09630
 20
227.18159
 11
192.22000
 21
228.08701
  0
LINE
  8
7
 10
192.22000
 20
228.08701
 11
192.17349
 21
229.00000
  0
LINE
  8
7
 10
192.17349
 20
229.00000
 11
191.95840
 21
229.88741
  0
LINE
  8
7
 10
191.95840
 20
229.88741
 11
191.58250
 21
230.71680
  0
LINE
  8
7
 10
191.58250
 20
230.71680
 11
191.05960
 21
231.45830
  0
LINE
  8
7
 10
191.05960
 20
231.45830
 11
190.40860
 21
232.08479
  0
LINE
  8
7
 10
190.40860
 20
232.08479
 11
189.65320
 21
232.57359
  0
LINE
  8
7
 10
189.65320
 20
232.57359
 11
188.82091
 21
232.90680
  0
LINE
  8
7
 10
92.08120
 20
155.65939
 11
89.73690
 21
155.65939
  0
LINE
  8
7
 10
92.08120
 20
171.50070
 11
89.73690
 21
171.50070
  0
LINE
  8
7
 10
94.65790
 20
166.70509
 11
96.76990
 21
166.70509
  0
LINE
  8
7
 10
89.73690
 20
169.34061
 11
92.08120
 21
169.34061
  0
LINE
  8
7
 10
93.36630
 20
162.90680
 11
89.03070
 21
164.17059
  0
LINE
  8
7
 10
89.73690
 20
153.49930
 11
92.08120
 21
153.49930
  0
LINE
  8
7
 10
85.04830
 20
158.29491
 11
85.13840
 21
157.35930
  0
LINE
  8
7
 10
85.13840
 20
157.35930
 11
85.40520
 21
156.45970
  0
LINE
  8
7
 10
85.40520
 20
156.45970
 11
85.83850
 21
155.63060
  0
LINE
  8
7
 10
85.83850
 20
155.63060
 11
86.42160
 21
154.90390
  0
LINE
  8
7
 10
86.42160
 20
154.90390
 11
87.13210
 21
154.30750
  0
LINE
  8
7
 10
87.13210
 20
154.30750
 11
87.94270
 21
153.86430
  0
LINE
  8
7
 10
87.94270
 20
153.86430
 11
88.82220
 21
153.59140
  0
LINE
  8
7
 10
88.82220
 20
153.59140
 11
89.73690
 21
153.49930
  0
LINE
  8
7
 10
87.16030
 20
158.29491
 11
85.04830
 21
158.29491
  0
LINE
  8
7
 10
87.20980
 20
157.78070
 11
87.16030
 21
158.29491
  0
LINE
  8
7
 10
87.35640
 20
157.28630
 11
87.20980
 21
157.78070
  0
LINE
  8
7
 10
87.59450
 20
156.83070
 11
87.35640
 21
157.28630
  0
LINE
  8
7
 10
87.91500
 20
156.43130
 11
87.59450
 21
156.83070
  0
LINE
  8
7
 10
88.30540
 20
156.10361
 11
87.91500
 21
156.43130
  0
LINE
  8
7
 10
88.75090
 20
155.86011
 11
88.30540
 21
156.10361
  0
LINE
  8
7
 10
89.23430
 20
155.71010
 11
88.75090
 21
155.86011
  0
LINE
  8
7
 10
89.73690
 20
155.65939
 11
89.23430
 21
155.71010
  0
LINE
  8
7
 10
92.57020
 20
155.70731
 11
92.08120
 21
155.65939
  0
LINE
  8
7
 10
93.04140
 20
155.84930
 11
92.57020
 21
155.70731
  0
LINE
  8
7
 10
93.47770
 20
156.08009
 11
93.04140
 21
155.84930
  0
LINE
  8
7
 10
93.86330
 20
156.39140
 11
93.47770
 21
156.08009
  0
LINE
  8
7
 10
94.18410
 20
156.77190
 11
93.86330
 21
156.39140
  0
LINE
  8
7
 10
94.42840
 20
157.20770
 11
94.18410
 21
156.77190
  0
LINE
  8
7
 10
94.58750
 20
157.68311
 11
94.42840
 21
157.20770
  0
LINE
  8
7
 10
94.65550
 20
158.18060
 11
94.58750
 21
157.68311
  0
LINE
  8
7
 10
94.62990
 20
158.68240
 11
94.65550
 21
158.18060
  0
LINE
  8
7
 10
94.51170
 20
159.17000
 11
94.62990
 21
158.68240
  0
LINE
  8
7
 10
94.30510
 20
159.62590
 11
94.51170
 21
159.17000
  0
LINE
  8
7
 10
94.01780
 20
160.03329
 11
94.30510
 21
159.62590
  0
LINE
  8
7
 10
93.66000
 20
160.37759
 11
94.01780
 21
160.03329
  0
LINE
  8
7
 10
93.24490
 20
160.64619
 11
93.66000
 21
160.37759
  0
LINE
  8
7
 10
92.78750
 20
160.82930
 11
93.24490
 21
160.64619
  0
LINE
  8
7
 10
88.45180
 20
162.09320
 11
92.78750
 21
160.82930
  0
LINE
  8
7
 10
89.73690
 20
171.50070
 11
88.84710
 21
171.41360
  0
LINE
  8
7
 10
88.84710
 20
171.41360
 11
87.98970
 21
171.15530
  0
LINE
  8
7
 10
87.98970
 20
171.15530
 11
87.19580
 21
170.73531
  0
LINE
  8
7
 10
87.19580
 20
170.73531
 11
86.49420
 21
170.16879
  0
LINE
  8
7
 10
86.49420
 20
170.16879
 11
85.91050
 21
169.47650
  0
LINE
  8
7
 10
85.91050
 20
169.47650
 11
85.46580
 21
168.68340
  0
LINE
  8
7
 10
85.46580
 20
168.68340
 11
85.17640
 21
167.81841
  0
LINE
  8
7
 10
85.17640
 20
167.81841
 11
85.05270
 21
166.91299
  0
LINE
  8
7
 10
85.05270
 20
166.91299
 11
85.09920
 21
166.00000
  0
LINE
  8
7
 10
85.09920
 20
166.00000
 11
85.31440
 21
165.11259
  0
LINE
  8
7
 10
85.31440
 20
165.11259
 11
85.69020
 21
164.28310
  0
LINE
  8
7
 10
85.69020
 20
164.28310
 11
86.21310
 21
163.54170
  0
LINE
  8
7
 10
86.21310
 20
163.54170
 11
86.86410
 21
162.91521
  0
LINE
  8
7
 10
86.86410
 20
162.91521
 11
87.61950
 21
162.42641
  0
LINE
  8
7
 10
87.61950
 20
162.42641
 11
88.45180
 21
162.09320
  0
LINE
  8
7
 10
96.76990
 20
166.70509
 11
96.67980
 21
167.64070
  0
LINE
  8
7
 10
96.67980
 20
167.64070
 11
96.41300
 21
168.54030
  0
LINE
  8
7
 10
96.41300
 20
168.54030
 11
95.97970
 21
169.36940
  0
LINE
  8
7
 10
95.97970
 20
169.36940
 11
95.39660
 21
170.09610
  0
LINE
  8
7
 10
95.39660
 20
170.09610
 11
94.68610
 21
170.69250
  0
LINE
  8
7
 10
94.68610
 20
170.69250
 11
93.87550
 21
171.13570
  0
LINE
  8
7
 10
93.87550
 20
171.13570
 11
92.99600
 21
171.40860
  0
LINE
  8
7
 10
92.99600
 20
171.40860
 11
92.08120
 21
171.50070
  0
LINE
  8
7
 10
94.60840
 20
167.21930
 11
94.65790
 21
166.70509
  0
LINE
  8
7
 10
94.46170
 20
167.71370
 11
94.60840
 21
167.21930
  0
LINE
  8
7
 10
94.22360
 20
168.16930
 11
94.46170
 21
167.71370
  0
LINE
  8
7
 10
93.90320
 20
168.56860
 11
94.22360
 21
168.16930
  0
LINE
  8
7
 10
93.51270
 20
168.89639
 11
93.90320
 21
168.56860
  0
LINE
  8
7
 10
93.06730
 20
169.13989
 11
93.51270
 21
168.89639
  0
LINE
  8
7
 10
92.58390
 20
169.28990
 11
93.06730
 21
169.13989
  0
LINE
  8
7
 10
92.08120
 20
169.34061
 11
92.58390
 21
169.28990
  0
LINE
  8
7
 10
89.24800
 20
169.29269
 11
89.73690
 21
169.34061
  0
LINE
  8
7
 10
88.77680
 20
169.15070
 11
89.24800
 21
169.29269
  0
LINE
  8
7
 10
88.34040
 20
168.91991
 11
88.77680
 21
169.15070
  0
LINE
  8
7
 10
87.95490
 20
168.60860
 11
88.34040
 21
168.91991
  0
LINE
  8
7
 10
87.63410
 20
168.22810
 11
87.95490
 21
168.60860
  0
LINE
  8
7
 10
87.38970
 20
167.79230
 11
87.63410
 21
168.22810
  0
LINE
  8
7
 10
87.23070
 20
167.31689
 11
87.38970
 21
167.79230
  0
LINE
  8
7
 10
87.16270
 20
166.81940
 11
87.23070
 21
167.31689
  0
LINE
  8
7
 10
87.18830
 20
166.31760
 11
87.16270
 21
166.81940
  0
LINE
  8
7
 10
87.30650
 20
165.83000
 11
87.18830
 21
166.31760
  0
LINE
  8
7
 10
87.51310
 20
165.37410
 11
87.30650
 21
165.83000
  0
LINE
  8
7
 10
87.80040
 20
164.96671
 11
87.51310
 21
165.37410
  0
LINE
  8
7
 10
88.15820
 20
164.62241
 11
87.80040
 21
164.96671
  0
LINE
  8
7
 10
88.57330
 20
164.35381
 11
88.15820
 21
164.62241
  0
LINE
  8
7
 10
89.03070
 20
164.17059
 11
88.57330
 21
164.35381
  0
LINE
  8
7
 10
92.08120
 20
153.49930
 11
92.97100
 21
153.58640
  0
LINE
  8
7
 10
92.97100
 20
153.58640
 11
93.82850
 21
153.84470
  0
LINE
  8
7
 10
93.82850
 20
153.84470
 11
94.62240
 21
154.26469
  0
LINE
  8
7
 10
94.62240
 20
154.26469
 11
95.32400
 21
154.83121
  0
LINE
  8
7
 10
95.32400
 20
154.83121
 11
95.90770
 21
155.52350
  0
LINE
  8
7
 10
95.90770
 20
155.52350
 11
96.35240
 21
156.31660
  0
LINE
  8
7
 10
96.35240
 20
156.31660
 11
96.64180
 21
157.18159
  0
LINE
  8
7
 10
96.64180
 20
157.18159
 11
96.76550
 21
158.08701
  0
LINE
  8
7
 10
96.76550
 20
158.08701
 11
96.71890
 21
159.00000
  0
LINE
  8
7
 10
96.71890
 20
159.00000
 11
96.50380
 21
159.88741
  0
LINE
  8
7
 10
96.50380
 20
159.88741
 11
96.12800
 21
160.71680
  0
LINE
  8
7
 10
96.12800
 20
160.71680
 11
95.60510
 21
161.45830
  0
LINE
  8
7
 10
95.60510
 20
161.45830
 11
94.95410
 21
162.08479
  0
LINE
  8
7
 10
94.95410
 20
162.08479
 11
94.19870
 21
162.57359
  0
LINE
  8
7
 10
94.19870
 20
162.57359
 11
93.36630
 21
162.90680
  0
LINE
  8
7
 10
92.08120
 20
120.65940
 11
89.73690
 21
120.65940
  0
LINE
  8
7
 10
92.08120
 20
136.50070
 11
89.73690
 21
136.50070
  0
LINE
  8
7
 10
94.65790
 20
131.70509
 11
96.76990
 21
131.70509
  0
LINE
  8
7
 10
89.73690
 20
134.34061
 11
92.08120
 21
134.34061
  0
LINE
  8
7
 10
93.36630
 20
127.90680
 11
89.03070
 21
129.17059
  0
LINE
  8
7
 10
89.73690
 20
118.49930
 11
92.08120
 21
118.49930
  0
LINE
  8
7
 10
85.04830
 20
123.29490
 11
85.13840
 21
122.35930
  0
LINE
  8
7
 10
85.13840
 20
122.35930
 11
85.40520
 21
121.45970
  0
LINE
  8
7
 10
85.40520
 20
121.45970
 11
85.83850
 21
120.63060
  0
LINE
  8
7
 10
85.83850
 20
120.63060
 11
86.42160
 21
119.90390
  0
LINE
  8
7
 10
86.42160
 20
119.90390
 11
87.13210
 21
119.30750
  0
LINE
  8
7
 10
87.13210
 20
119.30750
 11
87.94270
 21
118.86430
  0
LINE
  8
7
 10
87.94270
 20
118.86430
 11
88.82220
 21
118.59140
  0
LINE
  8
7
 10
88.82220
 20
118.59140
 11
89.73690
 21
118.49930
  0
LINE
  8
7
 10
87.16030
 20
123.29490
 11
85.04830
 21
123.29490
  0
LINE
  8
7
 10
87.20980
 20
122.78070
 11
87.16030
 21
123.29490
  0
LINE
  8
7
 10
87.35640
 20
122.28630
 11
87.20980
 21
122.78070
  0
LINE
  8
7
 10
87.59450
 20
121.83070
 11
87.35640
 21
122.28630
  0
LINE
  8
7
 10
87.91500
 20
121.43130
 11
87.59450
 21
121.83070
  0
LINE
  8
7
 10
88.30540
 20
121.10360
 11
87.91500
 21
121.43130
  0
LINE
  8
7
 10
88.75090
 20
120.86010
 11
88.30540
 21
121.10360
  0
LINE
  8
7
 10
89.23430
 20
120.71010
 11
88.75090
 21
120.86010
  0
LINE
  8
7
 10
89.73690
 20
120.65940
 11
89.23430
 21
120.71010
  0
LINE
  8
7
 10
92.57020
 20
120.70730
 11
92.08120
 21
120.65940
  0
LINE
  8
7
 10
93.04140
 20
120.84930
 11
92.57020
 21
120.70730
  0
LINE
  8
7
 10
93.47770
 20
121.08010
 11
93.04140
 21
120.84930
  0
LINE
  8
7
 10
93.86330
 20
121.39140
 11
93.47770
 21
121.08010
  0
LINE
  8
7
 10
94.18410
 20
121.77190
 11
93.86330
 21
121.39140
  0
LINE
  8
7
 10
94.42840
 20
122.20770
 11
94.18410
 21
121.77190
  0
LINE
  8
7
 10
94.58750
 20
122.68300
 11
94.42840
 21
122.20770
  0
LINE
  8
7
 10
94.65550
 20
123.18060
 11
94.58750
 21
122.68300
  0
LINE
  8
7
 10
94.62990
 20
123.68240
 11
94.65550
 21
123.18060
  0
LINE
  8
7
 10
94.51170
 20
124.17000
 11
94.62990
 21
123.68240
  0
LINE
  8
7
 10
94.30510
 20
124.62590
 11
94.51170
 21
124.17000
  0
LINE
  8
7
 10
94.01780
 20
125.03330
 11
94.30510
 21
124.62590
  0
LINE
  8
7
 10
93.66000
 20
125.37760
 11
94.01780
 21
125.03330
  0
LINE
  8
7
 10
93.24490
 20
125.64620
 11
93.66000
 21
125.37760
  0
LINE
  8
7
 10
92.78750
 20
125.82930
 11
93.24490
 21
125.64620
  0
LINE
  8
7
 10
88.45180
 20
127.09320
 11
92.78750
 21
125.82930
  0
LINE
  8
7
 10
89.73690
 20
136.50070
 11
88.84710
 21
136.41360
  0
LINE
  8
7
 10
88.84710
 20
136.41360
 11
87.98970
 21
136.15530
  0
LINE
  8
7
 10
87.98970
 20
136.15530
 11
87.19580
 21
135.73531
  0
LINE
  8
7
 10
87.19580
 20
135.73531
 11
86.49420
 21
135.16879
  0
LINE
  8
7
 10
86.49420
 20
135.16879
 11
85.91050
 21
134.47650
  0
LINE
  8
7
 10
85.91050
 20
134.47650
 11
85.46580
 21
133.68340
  0
LINE
  8
7
 10
85.46580
 20
133.68340
 11
85.17640
 21
132.81841
  0
LINE
  8
7
 10
85.17640
 20
132.81841
 11
85.05270
 21
131.91299
  0
LINE
  8
7
 10
85.05270
 20
131.91299
 11
85.09920
 21
131.00000
  0
LINE
  8
7
 10
85.09920
 20
131.00000
 11
85.31440
 21
130.11259
  0
LINE
  8
7
 10
85.31440
 20
130.11259
 11
85.69020
 21
129.28310
  0
LINE
  8
7
 10
85.69020
 20
129.28310
 11
86.21310
 21
128.54170
  0
LINE
  8
7
 10
86.21310
 20
128.54170
 11
86.86410
 21
127.91520
  0
LINE
  8
7
 10
86.86410
 20
127.91520
 11
87.61950
 21
127.42640
  0
LINE
  8
7
 10
87.61950
 20
127.42640
 11
88.45180
 21
127.09320
  0
LINE
  8
7
 10
96.76990
 20
131.70509
 11
96.67980
 21
132.64070
  0
LINE
  8
7
 10
96.67980
 20
132.64070
 11
96.41300
 21
133.54030
  0
LINE
  8
7
 10
96.41300
 20
133.54030
 11
95.97970
 21
134.36940
  0
LINE
  8
7
 10
95.97970
 20
134.36940
 11
95.39660
 21
135.09610
  0
LINE
  8
7
 10
95.39660
 20
135.09610
 11
94.68610
 21
135.69250
  0
LINE
  8
7
 10
94.68610
 20
135.69250
 11
93.87550
 21
136.13570
  0
LINE
  8
7
 10
93.87550
 20
136.13570
 11
92.99600
 21
136.40860
  0
LINE
  8
7
 10
92.99600
 20
136.40860
 11
92.08120
 21
136.50070
  0
LINE
  8
7
 10
94.60840
 20
132.21930
 11
94.65790
 21
131.70509
  0
LINE
  8
7
 10
94.46170
 20
132.71370
 11
94.60840
 21
132.21930
  0
LINE
  8
7
 10
94.22360
 20
133.16930
 11
94.46170
 21
132.71370
  0
LINE
  8
7
 10
93.90320
 20
133.56860
 11
94.22360
 21
133.16930
  0
LINE
  8
7
 10
93.51270
 20
133.89639
 11
93.90320
 21
133.56860
  0
LINE
  8
7
 10
93.06730
 20
134.13989
 11
93.51270
 21
133.89639
  0
LINE
  8
7
 10
92.58390
 20
134.28990
 11
93.06730
 21
134.13989
  0
LINE
  8
7
 10
92.08120
 20
134.34061
 11
92.58390
 21
134.28990
  0
LINE
  8
7
 10
89.24800
 20
134.29269
 11
89.73690
 21
134.34061
  0
LINE
  8
7
 10
88.77680
 20
134.15070
 11
89.24800
 21
134.29269
  0
LINE
  8
7
 10
88.34040
 20
133.91991
 11
88.77680
 21
134.15070
  0
LINE
  8
7
 10
87.95490
 20
133.60860
 11
88.34040
 21
133.91991
  0
LINE
  8
7
 10
87.63410
 20
133.22810
 11
87.95490
 21
133.60860
  0
LINE
  8
7
 10
87.38970
 20
132.79230
 11
87.63410
 21
133.22810
  0
LINE
  8
7
 10
87.23070
 20
132.31689
 11
87.38970
 21
132.79230
  0
LINE
  8
7
 10
87.16270
 20
131.81940
 11
87.23070
 21
132.31689
  0
LINE
  8
7
 10
87.18830
 20
131.31760
 11
87.16270
 21
131.81940
  0
LINE
  8
7
 10
87.30650
 20
130.83000
 11
87.18830
 21
131.31760
  0
LINE
  8
7
 10
87.51310
 20
130.37410
 11
87.30650
 21
130.83000
  0
LINE
  8
7
 10
87.80040
 20
129.96671
 11
87.51310
 21
130.37410
  0
LINE
  8
7
 10
88.15820
 20
129.62241
 11
87.80040
 21
129.96671
  0
LINE
  8
7
 10
88.57330
 20
129.35381
 11
88.15820
 21
129.62241
  0
LINE
  8
7
 10
89.03070
 20
129.17059
 11
88.57330
 21
129.35381
  0
LINE
  8
7
 10
92.08120
 20
118.49930
 11
92.97100
 21
118.58640
  0
LINE
  8
7
 10
92.97100
 20
118.58640
 11
93.82850
 21
118.84470
  0
LINE
  8
7
 10
93.82850
 20
118.84470
 11
94.62240
 21
119.26470
  0
LINE
  8
7
 10
94.62240
 20
119.26470
 11
95.32400
 21
119.83120
  0
LINE
  8
7
 10
95.32400
 20
119.83120
 11
95.90770
 21
120.52350
  0
LINE
  8
7
 10
95.90770
 20
120.52350
 11
96.35240
 21
121.31660
  0
LINE
  8
7
 10
96.35240
 20
121.31660
 11
96.64180
 21
122.18160
  0
LINE
  8
7
 10
96.64180
 20
122.18160
 11
96.76550
 21
123.08700
  0
LINE
  8
7
 10
96.76550
 20
123.08700
 11
96.71890
 21
124.00000
  0
LINE
  8
7
 10
96.71890
 20
124.00000
 11
96.50380
 21
124.88740
  0
LINE
  8
7
 10
96.50380
 20
124.88740
 11
96.12800
 21
125.71680
  0
LINE
  8
7
 10
96.12800
 20
125.71680
 11
95.60510
 21
126.45830
  0
LINE
  8
7
 10
95.60510
 20
126.45830
 11
94.95410
 21
127.08480
  0
LINE
  8
7
 10
94.95410
 20
127.08480
 11
94.19870
 21
127.57360
  0
LINE
  8
7
 10
94.19870
 20
127.57360
 11
93.36630
 21
127.90680
  0
LINE
  8
7
 10
219.35400
 20
155.65939
 11
217.00960
 21
155.65939
  0
LINE
  8
7
 10
219.35400
 20
171.50070
 11
217.00960
 21
171.50070
  0
LINE
  8
7
 10
221.93060
 20
166.70509
 11
224.04260
 21
166.70509
  0
LINE
  8
7
 10
217.00960
 20
169.34061
 11
219.35400
 21
169.34061
  0
LINE
  8
7
 10
220.63910
 20
162.90680
 11
216.30341
 21
164.17059
  0
LINE
  8
7
 10
217.00960
 20
153.49930
 11
219.35400
 21
153.49930
  0
LINE
  8
7
 10
212.32100
 20
158.29491
 11
212.41110
 21
157.35930
  0
LINE
  8
7
 10
212.41110
 20
157.35930
 11
212.67790
 21
156.45970
  0
LINE
  8
7
 10
212.67790
 20
156.45970
 11
213.11121
 21
155.63060
  0
LINE
  8
7
 10
213.11121
 20
155.63060
 11
213.69431
 21
154.90390
  0
LINE
  8
7
 10
213.69431
 20
154.90390
 11
214.40480
 21
154.30750
  0
LINE
  8
7
 10
214.40480
 20
154.30750
 11
215.21539
 21
153.86430
  0
LINE
  8
7
 10
215.21539
 20
153.86430
 11
216.09500
 21
153.59140
  0
LINE
  8
7
 10
216.09500
 20
153.59140
 11
217.00960
 21
153.49930
  0
LINE
  8
7
 10
214.43300
 20
158.29491
 11
212.32100
 21
158.29491
  0
LINE
  8
7
 10
214.48250
 20
157.78070
 11
214.43300
 21
158.29491
  0
LINE
  8
7
 10
214.62920
 20
157.28630
 11
214.48250
 21
157.78070
  0
LINE
  8
7
 10
214.86729
 20
156.83070
 11
214.62920
 21
157.28630
  0
LINE
  8
7
 10
215.18770
 20
156.43130
 11
214.86729
 21
156.83070
  0
LINE
  8
7
 10
215.57809
 20
156.10361
 11
215.18770
 21
156.43130
  0
LINE
  8
7
 10
216.02361
 20
155.86011
 11
215.57809
 21
156.10361
  0
LINE
  8
7
 10
216.50700
 20
155.71010
 11
216.02361
 21
155.86011
  0
LINE
  8
7
 10
217.00960
 20
155.65939
 11
216.50700
 21
155.71010
  0
LINE
  8
7
 10
219.84300
 20
155.70731
 11
219.35400
 21
155.65939
  0
LINE
  8
7
 10
220.31419
 20
155.84930
 11
219.84300
 21
155.70731
  0
LINE
  8
7
 10
220.75050
 20
156.08009
 11
220.31419
 21
155.84930
  0
LINE
  8
7
 10
221.13600
 20
156.39140
 11
220.75050
 21
156.08009
  0
LINE
  8
7
 10
221.45680
 20
156.77190
 11
221.13600
 21
156.39140
  0
LINE
  8
7
 10
221.70120
 20
157.20770
 11
221.45680
 21
156.77190
  0
LINE
  8
7
 10
221.86020
 20
157.68311
 11
221.70120
 21
157.20770
  0
LINE
  8
7
 10
221.92821
 20
158.18060
 11
221.86020
 21
157.68311
  0
LINE
  8
7
 10
221.90260
 20
158.68240
 11
221.92821
 21
158.18060
  0
LINE
  8
7
 10
221.78439
 20
159.17000
 11
221.90260
 21
158.68240
  0
LINE
  8
7
 10
221.57790
 20
159.62590
 11
221.78439
 21
159.17000
  0
LINE
  8
7
 10
221.29050
 20
160.03329
 11
221.57790
 21
159.62590
  0
LINE
  8
7
 10
220.93269
 20
160.37759
 11
221.29050
 21
160.03329
  0
LINE
  8
7
 10
220.51759
 20
160.64619
 11
220.93269
 21
160.37759
  0
LINE
  8
7
 10
220.06020
 20
160.82930
 11
220.51759
 21
160.64619
  0
LINE
  8
7
 10
215.72459
 20
162.09320
 11
220.06020
 21
160.82930
  0
LINE
  8
7
 10
217.00960
 20
171.50070
 11
216.11990
 21
171.41360
  0
LINE
  8
7
 10
216.11990
 20
171.41360
 11
215.26241
 21
171.15530
  0
LINE
  8
7
 10
215.26241
 20
171.15530
 11
214.46851
 21
170.73531
  0
LINE
  8
7
 10
214.46851
 20
170.73531
 11
213.76691
 21
170.16879
  0
LINE
  8
7
 10
213.76691
 20
170.16879
 11
213.18320
 21
169.47650
  0
LINE
  8
7
 10
213.18320
 20
169.47650
 11
212.73849
 21
168.68340
  0
LINE
  8
7
 10
212.73849
 20
168.68340
 11
212.44910
 21
167.81841
  0
LINE
  8
7
 10
212.44910
 20
167.81841
 11
212.32539
 21
166.91299
  0
LINE
  8
7
 10
212.32539
 20
166.91299
 11
212.37199
 21
166.00000
  0
LINE
  8
7
 10
212.37199
 20
166.00000
 11
212.58710
 21
165.11259
  0
LINE
  8
7
 10
212.58710
 20
165.11259
 11
212.96291
 21
164.28310
  0
LINE
  8
7
 10
212.96291
 20
164.28310
 11
213.48579
 21
163.54170
  0
LINE
  8
7
 10
213.48579
 20
163.54170
 11
214.13680
 21
162.91521
  0
LINE
  8
7
 10
214.13680
 20
162.91521
 11
214.89220
 21
162.42641
  0
LINE
  8
7
 10
214.89220
 20
162.42641
 11
215.72459
 21
162.09320
  0
LINE
  8
7
 10
224.04260
 20
166.70509
 11
223.95250
 21
167.64070
  0
LINE
  8
7
 10
223.95250
 20
167.64070
 11
223.68570
 21
168.54030
  0
LINE
  8
7
 10
223.68570
 20
168.54030
 11
223.25240
 21
169.36940
  0
LINE
  8
7
 10
223.25240
 20
169.36940
 11
222.66930
 21
170.09610
  0
LINE
  8
7
 10
222.66930
 20
170.09610
 11
221.95880
 21
170.69250
  0
LINE
  8
7
 10
221.95880
 20
170.69250
 11
221.14819
 21
171.13570
  0
LINE
  8
7
 10
221.14819
 20
171.13570
 11
220.26871
 21
171.40860
  0
LINE
  8
7
 10
220.26871
 20
171.40860
 11
219.35400
 21
171.50070
  0
LINE
  8
7
 10
221.88110
 20
167.21930
 11
221.93060
 21
166.70509
  0
LINE
  8
7
 10
221.73450
 20
167.71370
 11
221.88110
 21
167.21930
  0
LINE
  8
7
 10
221.49640
 20
168.16930
 11
221.73450
 21
167.71370
  0
LINE
  8
7
 10
221.17590
 20
168.56860
 11
221.49640
 21
168.16930
  0
LINE
  8
7
 10
220.78551
 20
168.89639
 11
221.17590
 21
168.56860
  0
LINE
  8
7
 10
220.34000
 20
169.13989
 11
220.78551
 21
168.89639
  0
LINE
  8
7
 10
219.85670
 20
169.28990
 11
220.34000
 21
169.13989
  0
LINE
  8
7
 10
219.35400
 20
169.34061
 11
219.85670
 21
169.28990
  0
LINE
  8
7
 10
216.52071
 20
169.29269
 11
217.00960
 21
169.34061
  0
LINE
  8
7
 10
216.04950
 20
169.15070
 11
216.52071
 21
169.29269
  0
LINE
  8
7
 10
215.61320
 20
168.91991
 11
216.04950
 21
169.15070
  0
LINE
  8
7
 10
215.22760
 20
168.60860
 11
215.61320
 21
168.91991
  0
LINE
  8
7
 10
214.90680
 20
168.22810
 11
215.22760
 21
168.60860
  0
LINE
  8
7
 10
214.66251
 20
167.79230
 11
214.90680
 21
168.22810
  0
LINE
  8
7
 10
214.50340
 20
167.31689
 11
214.66251
 21
167.79230
  0
LINE
  8
7
 10
214.43539
 20
166.81940
 11
214.50340
 21
167.31689
  0
LINE
  8
7
 10
214.46100
 20
166.31760
 11
214.43539
 21
166.81940
  0
LINE
  8
7
 10
214.57919
 20
165.83000
 11
214.46100
 21
166.31760
  0
LINE
  8
7
 10
214.78580
 20
165.37410
 11
214.57919
 21
165.83000
  0
LINE
  8
7
 10
215.07310
 20
164.96671
 11
214.78580
 21
165.37410
  0
LINE
  8
7
 10
215.43089
 20
164.62241
 11
215.07310
 21
164.96671
  0
LINE
  8
7
 10
215.84599
 20
164.35381
 11
215.43089
 21
164.62241
  0
LINE
  8
7
 10
216.30341
 20
164.17059
 11
215.84599
 21
164.35381
  0
LINE
  8
7
 10
219.35400
 20
153.49930
 11
220.24380
 21
153.58640
  0
LINE
  8
7
 10
220.24380
 20
153.58640
 11
221.10120
 21
153.84470
  0
LINE
  8
7
 10
221.10120
 20
153.84470
 11
221.89510
 21
154.26469
  0
LINE
  8
7
 10
221.89510
 20
154.26469
 11
222.59669
 21
154.83121
  0
LINE
  8
7
 10
222.59669
 20
154.83121
 11
223.18040
 21
155.52350
  0
LINE
  8
7
 10
223.18040
 20
155.52350
 11
223.62511
 21
156.31660
  0
LINE
  8
7
 10
223.62511
 20
156.31660
 11
223.91451
 21
157.18159
  0
LINE
  8
7
 10
223.91451
 20
157.18159
 11
224.03819
 21
158.08701
  0
LINE
  8
7
 10
224.03819
 20
158.08701
 11
223.99159
 21
159.00000
  0
LINE
  8
7
 10
223.99159
 20
159.00000
 11
223.77650
 21
159.88741
  0
LINE
  8
7
 10
223.77650
 20
159.88741
 11
223.40070
 21
160.71680
  0
LINE
  8
7
 10
223.40070
 20
160.71680
 11
222.87781
 21
161.45830
  0
LINE
  8
7
 10
222.87781
 20
161.45830
 11
222.22681
 21
162.08479
  0
LINE
  8
7
 10
222.22681
 20
162.08479
 11
221.47141
 21
162.57359
  0
LINE
  8
7
 10
221.47141
 20
162.57359
 11
220.63910
 21
162.90680
  0
LINE
  8
7
 10
148.68469
 20
416.50070
 11
150.79671
 21
416.50070
  0
LINE
  8
7
 10
157.67630
 20
416.50070
 11
160.40630
 21
416.50070
  0
LINE
  8
7
 10
160.40630
 20
416.50070
 11
153.19910
 21
407.50000
  0
LINE
  8
7
 10
153.19910
 20
407.50000
 11
160.40630
 21
398.49930
  0
LINE
  8
7
 10
160.40630
 20
398.49930
 11
157.67630
 21
398.49930
  0
LINE
  8
7
 10
157.67630
 20
398.49930
 11
151.83411
 21
405.79541
  0
LINE
  8
7
 10
151.83411
 20
405.79541
 11
150.79671
 21
404.49979
  0
LINE
  8
7
 10
150.79671
 20
404.49979
 11
150.79671
 21
398.49930
  0
LINE
  8
7
 10
150.79671
 20
398.49930
 11
148.68469
 21
398.49930
  0
LINE
  8
7
 10
148.68469
 20
398.49930
 11
148.68469
 21
416.50070
  0
LINE
  8
7
 10
150.79671
 20
416.50070
 11
150.79671
 21
407.90900
  0
LINE
  8
7
 10
150.79671
 20
407.90900
 11
157.67630
 21
416.50070
  0
LINE
  8
7
 10
275.95740
 20
311.50070
 11
278.06940
 21
311.50070
  0
LINE
  8
7
 10
284.94910
 20
311.50070
 11
287.67899
 21
311.50070
  0
LINE
  8
7
 10
287.67899
 20
311.50070
 11
280.47180
 21
302.50000
  0
LINE
  8
7
 10
280.47180
 20
302.50000
 11
287.67899
 21
293.49930
  0
LINE
  8
7
 10
287.67899
 20
293.49930
 11
284.94910
 21
293.49930
  0
LINE
  8
7
 10
284.94910
 20
293.49930
 11
279.10681
 21
300.79541
  0
LINE
  8
7
 10
279.10681
 20
300.79541
 11
278.06940
 21
299.49979
  0
LINE
  8
7
 10
278.06940
 20
299.49979
 11
278.06940
 21
293.49930
  0
LINE
  8
7
 10
278.06940
 20
293.49930
 11
275.95740
 21
293.49930
  0
LINE
  8
7
 10
275.95740
 20
293.49930
 11
275.95740
 21
311.50070
  0
LINE
  8
7
 10
278.06940
 20
311.50070
 11
278.06940
 21
302.90900
  0
LINE
  8
7
 10
278.06940
 20
302.90900
 11
284.94910
 21
311.50070
  0
LINE
  8
7
 10
307.77560
 20
101.50070
 11
309.88760
 21
101.50070
  0
LINE
  8
7
 10
316.76721
 20
101.50070
 11
319.49719
 21
101.50070
  0
LINE
  8
7
 10
319.49719
 20
101.50070
 11
312.29001
 21
92.50000
  0
LINE
  8
7
 10
312.29001
 20
92.50000
 11
319.49719
 21
83.49930
  0
LINE
  8
7
 10
319.49719
 20
83.49930
 11
316.76721
 21
83.49930
  0
LINE
  8
7
 10
316.76721
 20
83.49930
 11
310.92499
 21
90.79540
  0
LINE
  8
7
 10
310.92499
 20
90.79540
 11
309.88760
 21
89.49980
  0
LINE
  8
7
 10
309.88760
 20
89.49980
 11
309.88760
 21
83.49930
  0
LINE
  8
7
 10
309.88760
 20
83.49930
 11
307.77560
 21
83.49930
  0
LINE
  8
7
 10
307.77560
 20
83.49930
 11
307.77560
 21
101.50070
  0
LINE
  8
7
 10
309.88760
 20
101.50070
 11
309.88760
 21
92.90900
  0
LINE
  8
7
 10
309.88760
 20
92.90900
 11
316.76721
 21
101.50070
  0
LINE
  8
7
 10
185.11610
 20
416.50070
 11
185.11610
 21
398.49930
  0
LINE
  8
7
 10
187.61121
 20
416.50070
 11
185.11610
 21
416.50070
  0
LINE
  8
7
 10
187.61121
 20
398.49930
 11
187.61121
 21
416.50070
  0
LINE
  8
7
 10
185.11610
 20
398.49930
 11
187.61121
 21
398.49930
  0
LINE
  8
7
 10
376.02521
 20
381.50070
 11
376.02521
 21
363.49930
  0
LINE
  8
7
 10
378.52029
 20
381.50070
 11
376.02521
 21
381.50070
  0
LINE
  8
7
 10
378.52029
 20
363.49930
 11
378.52029
 21
381.50070
  0
LINE
  8
7
 10
376.02521
 20
363.49930
 11
378.52029
 21
363.49930
  0
LINE
  8
7
 10
185.11610
 20
346.50070
 11
185.11610
 21
328.49930
  0
LINE
  8
7
 10
187.61121
 20
346.50070
 11
185.11610
 21
346.50070
  0
LINE
  8
7
 10
187.61121
 20
328.49930
 11
187.61121
 21
346.50070
  0
LINE
  8
7
 10
185.11610
 20
328.49930
 11
187.61121
 21
328.49930
  0
LINE
  8
7
 10
248.75240
 20
346.50070
 11
248.75240
 21
328.49930
  0
LINE
  8
7
 10
251.24750
 20
346.50070
 11
248.75240
 21
346.50070
  0
LINE
  8
7
 10
251.24750
 20
328.49930
 11
251.24750
 21
346.50070
  0
LINE
  8
7
 10
248.75240
 20
328.49930
 11
251.24750
 21
328.49930
  0
LINE
  8
7
 10
407.84329
 20
241.50070
 11
407.84329
 21
223.49930
  0
LINE
  8
7
 10
410.33850
 20
241.50070
 11
407.84329
 21
241.50070
  0
LINE
  8
7
 10
410.33850
 20
223.49930
 11
410.33850
 21
241.50070
  0
LINE
  8
7
 10
407.84329
 20
223.49930
 11
410.33850
 21
223.49930
  0
LINE
  8
7
 10
185.11610
 20
206.50070
 11
185.11610
 21
188.49930
  0
LINE
  8
7
 10
187.61121
 20
206.50070
 11
185.11610
 21
206.50070
  0
LINE
  8
7
 10
187.61121
 20
188.49930
 11
187.61121
 21
206.50070
  0
LINE
  8
7
 10
185.11610
 20
188.49930
 11
187.61121
 21
188.49930
  0
LINE
  8
7
 10
344.20700
 20
206.50070
 11
344.20700
 21
188.49930
  0
LINE
  8
7
 10
346.70209
 20
206.50070
 11
344.20700
 21
206.50070
  0
LINE
  8
7
 10
346.70209
 20
188.49930
 11
346.70209
 21
206.50070
  0
LINE
  8
7
 10
344.20700
 20
188.49930
 11
346.70209
 21
188.49930
  0
LINE
  8
7
 10
121.47970
 20
136.50070
 11
121.47970
 21
118.49930
  0
LINE
  8
7
 10
123.97480
 20
136.50070
 11
121.47970
 21
136.50070
  0
LINE
  8
7
 10
123.97480
 20
118.49930
 11
123.97480
 21
136.50070
  0
LINE
  8
7
 10
121.47970
 20
118.49930
 11
123.97480
 21
118.49930
  0
LINE
  8
7
 10
244.13921
 20
416.50070
 11
255.86079
 21
416.50070
  0
LINE
  8
7
 10
255.86079
 20
416.50070
 11
255.86079
 21
414.34061
  0
LINE
  8
7
 10
255.86079
 20
414.34061
 11
251.05600
 21
414.34061
  0
LINE
  8
7
 10
251.05600
 20
414.34061
 11
251.05600
 21
398.49930
  0
LINE
  8
7
 10
251.05600
 20
398.49930
 11
248.94400
 21
398.49930
  0
LINE
  8
7
 10
248.94400
 20
398.49930
 11
248.94400
 21
414.34061
  0
LINE
  8
7
 10
248.94400
 20
414.34061
 11
244.13921
 21
414.34061
  0
LINE
  8
7
 10
244.13921
 20
414.34061
 11
244.13921
 21
416.50070
  0
LINE
  8
7
 10
339.59369
 20
346.50070
 11
351.31531
 21
346.50070
  0
LINE
  8
7
 10
351.31531
 20
346.50070
 11
351.31531
 21
344.34061
  0
LINE
  8
7
 10
351.31531
 20
344.34061
 11
346.51050
 21
344.34061
  0
LINE
  8
7
 10
346.51050
 20
344.34061
 11
346.51050
 21
328.49930
  0
LINE
  8
7
 10
346.51050
 20
328.49930
 11
344.39850
 21
328.49930
  0
LINE
  8
7
 10
344.39850
 20
328.49930
 11
344.39850
 21
344.34061
  0
LINE
  8
7
 10
344.39850
 20
344.34061
 11
339.59369
 21
344.34061
  0
LINE
  8
7
 10
339.59369
 20
344.34061
 11
339.59369
 21
346.50070
  0
LINE
  8
7
 10
403.23010
 20
171.50070
 11
414.95169
 21
171.50070
  0
LINE
  8
7
 10
414.95169
 20
171.50070
 11
414.95169
 21
169.34061
  0
LINE
  8
7
 10
414.95169
 20
169.34061
 11
410.14691
 21
169.34061
  0
LINE
  8
7
 10
410.14691
 20
169.34061
 11
410.14691
 21
153.49930
  0
LINE
  8
7
 10
410.14691
 20
153.49930
 11
408.03491
 21
153.49930
  0
LINE
  8
7
 10
408.03491
 20
153.49930
 11
408.03491
 21
169.34061
  0
LINE
  8
7
 10
408.03491
 20
169.34061
 11
403.23010
 21
169.34061
  0
LINE
  8
7
 10
403.23010
 20
169.34061
 11
403.23010
 21
171.50070
  0
LINE
  8
7
 10
284.12930
 20
405.57220
 11
281.81821
 21
412.23999
  0
LINE
  8
7
 10
281.81821
 20
412.23999
 11
277.05539
 21
398.49930
  0
LINE
  8
7
 10
280.84961
 20
405.57220
 11
284.12930
 21
405.57220
  0
LINE
  8
7
 10
280.44830
 20
416.48129
 11
283.18799
 21
416.48129
  0
LINE
  8
7
 10
283.18799
 20
416.48129
 11
289.42099
 21
398.49930
  0
LINE
  8
7
 10
289.42099
 20
398.49930
 11
286.58099
 21
398.49930
  0
LINE
  8
7
 10
286.58099
 20
398.49930
 11
284.87729
 21
403.41440
  0
LINE
  8
7
 10
277.05539
 20
398.49930
 11
274.21539
 21
398.49930
  0
LINE
  8
7
 10
274.21539
 20
398.49930
 11
280.44830
 21
416.48129
  0
LINE
  8
7
 10
284.87729
 20
403.41440
 11
280.10159
 21
403.41440
  0
LINE
  8
7
 10
280.10159
 20
403.41440
 11
280.84961
 21
405.57220
  0
LINE
  8
7
 10
284.12930
 20
370.57220
 11
281.81821
 21
377.23999
  0
LINE
  8
7
 10
281.81821
 20
377.23999
 11
277.05539
 21
363.49930
  0
LINE
  8
7
 10
280.84961
 20
370.57220
 11
284.12930
 21
370.57220
  0
LINE
  8
7
 10
280.44830
 20
381.48129
 11
283.18799
 21
381.48129
  0
LINE
  8
7
 10
283.18799
 20
381.48129
 11
289.42099
 21
363.49930
  0
LINE
  8
7
 10
289.42099
 20
363.49930
 11
286.58099
 21
363.49930
  0
LINE
  8
7
 10
286.58099
 20
363.49930
 11
284.87729
 21
368.41440
  0
LINE
  8
7
 10
277.05539
 20
363.49930
 11
274.21539
 21
363.49930
  0
LINE
  8
7
 10
274.21539
 20
363.49930
 11
280.44830
 21
381.48129
  0
LINE
  8
7
 10
284.87729
 20
368.41440
 11
280.10159
 21
368.41440
  0
LINE
  8
7
 10
280.10159
 20
368.41440
 11
280.84961
 21
370.57220
  0
LINE
  8
7
 10
347.76569
 20
300.57220
 11
345.45450
 21
307.23999
  0
LINE
  8
7
 10
345.45450
 20
307.23999
 11
340.69180
 21
293.49930
  0
LINE
  8
7
 10
344.48590
 20
300.57220
 11
347.76569
 21
300.57220
  0
LINE
  8
7
 10
344.08469
 20
311.48129
 11
346.82440
 21
311.48129
  0
LINE
  8
7
 10
346.82440
 20
311.48129
 11
353.05731
 21
293.49930
  0
LINE
  8
7
 10
353.05731
 20
293.49930
 11
350.21729
 21
293.49930
  0
LINE
  8
7
 10
350.21729
 20
293.49930
 11
348.51370
 21
298.41440
  0
LINE
  8
7
 10
340.69180
 20
293.49930
 11
337.85172
 21
293.49930
  0
LINE
  8
7
 10
337.85172
 20
293.49930
 11
344.08469
 21
311.48129
  0
LINE
  8
7
 10
348.51370
 20
298.41440
 11
343.73801
 21
298.41440
  0
LINE
  8
7
 10
343.73801
 20
298.41440
 11
344.48590
 21
300.57220
  0
LINE
  8
7
 10
125.03840
 20
265.57220
 11
122.72730
 21
272.23999
  0
LINE
  8
7
 10
122.72730
 20
272.23999
 11
117.96450
 21
258.49930
  0
LINE
  8
7
 10
121.75860
 20
265.57220
 11
125.03840
 21
265.57220
  0
LINE
  8
7
 10
121.35740
 20
276.48129
 11
124.09710
 21
276.48129
  0
LINE
  8
7
 10
124.09710
 20
276.48129
 11
130.33009
 21
258.49930
  0
LINE
  8
7
 10
130.33009
 20
258.49930
 11
127.49010
 21
258.49930
  0
LINE
  8
7
 10
127.49010
 20
258.49930
 11
125.78640
 21
263.41440
  0
LINE
  8
7
 10
117.96450
 20
258.49930
 11
115.12450
 21
258.49930
  0
LINE
  8
7
 10
115.12450
 20
258.49930
 11
121.35740
 21
276.48129
  0
LINE
  8
7
 10
125.78640
 20
263.41440
 11
121.01070
 21
263.41440
  0
LINE
  8
7
 10
121.01070
 20
263.41440
 11
121.75860
 21
265.57220
  0
LINE
  8
7
 10
220.49300
 20
265.57220
 11
218.18179
 21
272.23999
  0
LINE
  8
7
 10
218.18179
 20
272.23999
 11
213.41901
 21
258.49930
  0
LINE
  8
7
 10
217.21320
 20
265.57220
 11
220.49300
 21
265.57220
  0
LINE
  8
7
 10
216.81190
 20
276.48129
 11
219.55170
 21
276.48129
  0
LINE
  8
7
 10
219.55170
 20
276.48129
 11
225.78461
 21
258.49930
  0
LINE
  8
7
 10
225.78461
 20
258.49930
 11
222.94460
 21
258.49930
  0
LINE
  8
7
 10
222.94460
 20
258.49930
 11
221.24091
 21
263.41440
  0
LINE
  8
7
 10
213.41901
 20
258.49930
 11
210.57899
 21
258.49930
  0
LINE
  8
7
 10
210.57899
 20
258.49930
 11
216.81190
 21
276.48129
  0
LINE
  8
7
 10
221.24091
 20
263.41440
 11
216.46519
 21
263.41440
  0
LINE
  8
7
 10
216.46519
 20
263.41440
 11
217.21320
 21
265.57220
  0
LINE
  8
7
 10
252.31120
 20
230.57220
 11
250.00000
 21
237.24001
  0
LINE
  8
7
 10
250.00000
 20
237.24001
 11
245.23720
 21
223.49930
  0
LINE
  8
7
 10
249.03140
 20
230.57220
 11
252.31120
 21
230.57220
  0
LINE
  8
7
 10
248.63010
 20
241.48129
 11
251.36990
 21
241.48129
  0
LINE
  8
7
 10
251.36990
 20
241.48129
 11
257.60281
 21
223.49930
  0
LINE
  8
7
 10
257.60281
 20
223.49930
 11
254.76280
 21
223.49930
  0
LINE
  8
7
 10
254.76280
 20
223.49930
 11
253.05910
 21
228.41440
  0
LINE
  8
7
 10
245.23720
 20
223.49930
 11
242.39720
 21
223.49930
  0
LINE
  8
7
 10
242.39720
 20
223.49930
 11
248.63010
 21
241.48129
  0
LINE
  8
7
 10
253.05910
 20
228.41440
 11
248.28340
 21
228.41440
  0
LINE
  8
7
 10
248.28340
 20
228.41440
 11
249.03140
 21
230.57220
  0
LINE
  8
7
 10
315.94751
 20
160.57220
 11
313.63641
 21
167.24001
  0
LINE
  8
7
 10
313.63641
 20
167.24001
 11
308.87360
 21
153.49930
  0
LINE
  8
7
 10
312.66769
 20
160.57220
 11
315.94751
 21
160.57220
  0
LINE
  8
7
 10
312.26651
 20
171.48129
 11
315.00620
 21
171.48129
  0
LINE
  8
7
 10
315.00620
 20
171.48129
 11
321.23920
 21
153.49930
  0
LINE
  8
7
 10
321.23920
 20
153.49930
 11
318.39920
 21
153.49930
  0
LINE
  8
7
 10
318.39920
 20
153.49930
 11
316.69550
 21
158.41440
  0
LINE
  8
7
 10
308.87360
 20
153.49930
 11
306.03360
 21
153.49930
  0
LINE
  8
7
 10
306.03360
 20
153.49930
 11
312.26651
 21
171.48129
  0
LINE
  8
7
 10
316.69550
 20
158.41440
 11
311.91980
 21
158.41440
  0
LINE
  8
7
 10
311.91980
 20
158.41440
 11
312.66769
 21
160.57220
  0
LINE
  8
7
 10
319.49719
 20
414.34061
 11
309.88760
 21
414.34061
  0
LINE
  8
7
 10
309.88760
 20
414.34061
 11
309.88760
 21
408.58011
  0
LINE
  8
7
 10
317.09479
 20
406.41989
 11
309.88760
 21
406.41989
  0
LINE
  8
7
 10
309.88760
 20
406.41989
 11
309.88760
 21
398.49930
  0
LINE
  8
7
 10
309.88760
 20
398.49930
 11
307.77560
 21
398.49930
  0
LINE
  8
7
 10
307.77560
 20
398.49930
 11
307.77560
 21
416.50070
  0
LINE
  8
7
 10
307.77560
 20
416.50070
 11
319.49719
 21
416.50070
  0
LINE
  8
7
 10
319.49719
 20
416.50070
 11
319.49719
 21
414.34061
  0
LINE
  8
7
 10
309.88760
 20
408.58011
 11
317.09479
 21
408.58011
  0
LINE
  8
7
 10
317.09479
 20
408.58011
 11
317.09479
 21
406.41989
  0
LINE
  8
7
 10
414.95169
 20
414.34061
 11
405.34210
 21
414.34061
  0
LINE
  8
7
 10
405.34210
 20
414.34061
 11
405.34210
 21
408.58011
  0
LINE
  8
7
 10
412.54929
 20
406.41989
 11
405.34210
 21
406.41989
  0
LINE
  8
7
 10
405.34210
 20
406.41989
 11
405.34210
 21
398.49930
  0
LINE
  8
7
 10
405.34210
 20
398.49930
 11
403.23010
 21
398.49930
  0
LINE
  8
7
 10
403.23010
 20
398.49930
 11
403.23010
 21
416.50070
  0
LINE
  8
7
 10
403.23010
 20
416.50070
 11
414.95169
 21
416.50070
  0
LINE
  8
7
 10
414.95169
 20
416.50070
 11
414.95169
 21
414.34061
  0
LINE
  8
7
 10
405.34210
 20
408.58011
 11
412.54929
 21
408.58011
  0
LINE
  8
7
 10
412.54929
 20
408.58011
 11
412.54929
 21
406.41989
  0
LINE
  8
7
 10
192.22440
 20
309.34061
 11
182.61481
 21
309.34061
  0
LINE
  8
7
 10
182.61481
 20
309.34061
 11
182.61481
 21
303.58011
  0
LINE
  8
7
 10
189.82201
 20
301.41989
 11
182.61481
 21
301.41989
  0
LINE
  8
7
 10
182.61481
 20
301.41989
 11
182.61481
 21
293.49930
  0
LINE
  8
7
 10
182.61481
 20
293.49930
 11
180.50281
 21
293.49930
  0
LINE
  8
7
 10
180.50281
 20
293.49930
 11
180.50281
 21
311.50070
  0
LINE
  8
7
 10
180.50281
 20
311.50070
 11
192.22440
 21
311.50070
  0
LINE
  8
7
 10
192.22440
 20
311.50070
 11
192.22440
 21
309.34061
  0
LINE
  8
7
 10
182.61481
 20
303.58011
 11
189.82201
 21
303.58011
  0
LINE
  8
7
 10
189.82201
 20
303.58011
 11
189.82201
 21
301.41989
  0
LINE
  8
7
 10
414.95169
 20
274.34061
 11
405.34210
 21
274.34061
  0
LINE
  8
7
 10
405.34210
 20
274.34061
 11
405.34210
 21
268.58011
  0
LINE
  8
7
 10
412.54929
 20
266.41989
 11
405.34210
 21
266.41989
  0
LINE
  8
7
 10
405.34210
 20
266.41989
 11
405.34210
 21
258.49930
  0
LINE
  8
7
 10
405.34210
 20
258.49930
 11
403.23010
 21
258.49930
  0
LINE
  8
7
 10
403.23010
 20
258.49930
 11
403.23010
 21
276.50070
  0
LINE
  8
7
 10
403.23010
 20
276.50070
 11
414.95169
 21
276.50070
  0
LINE
  8
7
 10
414.95169
 20
276.50070
 11
414.95169
 21
274.34061
  0
LINE
  8
7
 10
405.34210
 20
268.58011
 11
412.54929
 21
268.58011
  0
LINE
  8
7
 10
412.54929
 20
268.58011
 11
412.54929
 21
266.41989
  0
LINE
  8
7
 10
319.49719
 20
274.34061
 11
309.88760
 21
274.34061
  0
LINE
  8
7
 10
309.88760
 20
274.34061
 11
309.88760
 21
268.58011
  0
LINE
  8
7
 10
317.09479
 20
266.41989
 11
309.88760
 21
266.41989
  0
LINE
  8
7
 10
309.88760
 20
266.41989
 11
309.88760
 21
258.49930
  0
LINE
  8
7
 10
309.88760
 20
258.49930
 11
307.77560
 21
258.49930
  0
LINE
  8
7
 10
307.77560
 20
258.49930
 11
307.77560
 21
276.50070
  0
LINE
  8
7
 10
307.77560
 20
276.50070
 11
319.49719
 21
276.50070
  0
LINE
  8
7
 10
319.49719
 20
276.50070
 11
319.49719
 21
274.34061
  0
LINE
  8
7
 10
309.88760
 20
268.58011
 11
317.09479
 21
268.58011
  0
LINE
  8
7
 10
317.09479
 20
268.58011
 11
317.09479
 21
266.41989
  0
LINE
  8
7
 10
414.95169
 20
134.34061
 11
405.34210
 21
134.34061
  0
LINE
  8
7
 10
405.34210
 20
134.34061
 11
405.34210
 21
128.58009
  0
LINE
  8
7
 10
412.54929
 20
126.41990
 11
405.34210
 21
126.41990
  0
LINE
  8
7
 10
405.34210
 20
126.41990
 11
405.34210
 21
118.49930
  0
LINE
  8
7
 10
405.34210
 20
118.49930
 11
403.23010
 21
118.49930
  0
LINE
  8
7
 10
403.23010
 20
118.49930
 11
403.23010
 21
136.50070
  0
LINE
  8
7
 10
403.23010
 20
136.50070
 11
414.95169
 21
136.50070
  0
LINE
  8
7
 10
414.95169
 20
136.50070
 11
414.95169
 21
134.34061
  0
LINE
  8
7
 10
405.34210
 20
128.58009
 11
412.54929
 21
128.58009
  0
LINE
  8
7
 10
412.54929
 20
128.58009
 11
412.54929
 21
126.41990
  0
LINE
  8
7
 10
339.88220
 20
415.68250
 11
339.88220
 21
404.76709
  0
LINE
  8
7
 10
341.89020
 20
415.68250
 11
339.88220
 21
415.68250
  0
LINE
  8
7
 10
341.89731
 20
404.54761
 11
341.89020
 21
404.76709
  0
LINE
  8
7
 10
341.91849
 20
404.32889
 11
341.89731
 21
404.54761
  0
LINE
  8
7
 10
341.95370
 20
404.11209
 11
341.91849
 21
404.32889
  0
LINE
  8
7
 10
342.00281
 20
403.89780
 11
341.95370
 21
404.11209
  0
LINE
  8
7
 10
342.06570
 20
403.68689
 11
342.00281
 21
403.89780
  0
LINE
  8
7
 10
342.14191
 20
403.48041
 11
342.06570
 21
403.68689
  0
LINE
  8
7
 10
342.23141
 20
403.27890
 11
342.14191
 21
403.48041
  0
LINE
  8
7
 10
342.33359
 20
403.08340
 11
342.23141
 21
403.27890
  0
LINE
  8
7
 10
342.44821
 20
402.89450
 11
342.33359
 21
403.08340
  0
LINE
  8
7
 10
342.57471
 20
402.71310
 11
342.44821
 21
402.89450
  0
LINE
  8
7
 10
342.71271
 20
402.53989
 11
342.57471
 21
402.71310
  0
LINE
  8
7
 10
342.86151
 20
402.37540
 11
342.71271
 21
402.53989
  0
LINE
  8
7
 10
343.02069
 20
402.22049
 11
342.86151
 21
402.37540
  0
LINE
  8
7
 10
343.18951
 20
402.07571
 11
343.02069
 21
402.22049
  0
LINE
  8
7
 10
343.36731
 20
401.94150
 11
343.18951
 21
402.07571
  0
LINE
  8
7
 10
343.55341
 20
401.81860
 11
343.36731
 21
401.94150
  0
LINE
  8
7
 10
343.74701
 20
401.70740
 11
343.55341
 21
401.81860
  0
LINE
  8
7
 10
343.94739
 20
401.60831
 11
343.74701
 21
401.70740
  0
LINE
  8
7
 10
344.15381
 20
401.52170
 11
343.94739
 21
401.60831
  0
LINE
  8
7
 10
344.36530
 20
401.44809
 11
344.15381
 21
401.52170
  0
LINE
  8
7
 10
344.58121
 20
401.38760
 11
344.36530
 21
401.44809
  0
LINE
  8
7
 10
344.80051
 20
401.34052
 11
344.58121
 21
401.38760
  0
LINE
  8
7
 10
345.02249
 20
401.30701
 11
344.80051
 21
401.34052
  0
LINE
  8
7
 10
345.24609
 20
401.28729
 11
345.02249
 21
401.30701
  0
LINE
  8
7
 10
345.47061
 20
401.28131
 11
345.24609
 21
401.28729
  0
LINE
  8
7
 10
345.69501
 20
401.28931
 11
345.47061
 21
401.28131
  0
LINE
  8
7
 10
345.91849
 20
401.31100
 11
345.69501
 21
401.28931
  0
LINE
  8
7
 10
346.14011
 20
401.34641
 11
345.91849
 21
401.31100
  0
LINE
  8
7
 10
346.35901
 20
401.39539
 11
346.14011
 21
401.34641
  0
LINE
  8
7
 10
346.57431
 20
401.45779
 11
346.35901
 21
401.39539
  0
LINE
  8
7
 10
346.78510
 20
401.53329
 11
346.57431
 21
401.45779
  0
LINE
  8
7
 10
346.99069
 20
401.62170
 11
346.78510
 21
401.53329
  0
LINE
  8
7
 10
347.19019
 20
401.72250
 11
346.99069
 21
401.62170
  0
LINE
  8
7
 10
347.38281
 20
401.83539
 11
347.19019
 21
401.72250
  0
LINE
  8
7
 10
347.56769
 20
401.95999
 11
347.38281
 21
401.83539
  0
LINE
  8
7
 10
347.74429
 20
402.09570
 11
347.56769
 21
401.95999
  0
LINE
  8
7
 10
347.91171
 20
402.24200
 11
347.74429
 21
402.09570
  0
LINE
  8
7
 10
348.06949
 20
402.39828
 11
347.91171
 21
402.24200
  0
LINE
  8
7
 10
348.21680
 20
402.56409
 11
348.06949
 21
402.39828
  0
LINE
  8
7
 10
348.35321
 20
402.73849
 11
348.21680
 21
402.56409
  0
LINE
  8
7
 10
348.47800
 20
402.92111
 11
348.35321
 21
402.73849
  0
LINE
  8
7
 10
348.59091
 20
403.11090
 11
348.47800
 21
402.92111
  0
LINE
  8
7
 10
348.69131
 20
403.30740
 11
348.59091
 21
403.11090
  0
LINE
  8
7
 10
348.77881
 20
403.50961
 11
348.69131
 21
403.30740
  0
LINE
  8
7
 10
348.85321
 20
403.71680
 11
348.77881
 21
403.50961
  0
LINE
  8
7
 10
348.91409
 20
403.92819
 11
348.85321
 21
403.71680
  0
LINE
  8
7
 10
348.96130
 20
404.14291
 11
348.91409
 21
403.92819
  0
LINE
  8
7
 10
348.99451
 20
404.36011
 11
348.96130
 21
404.14291
  0
LINE
  8
7
 10
349.01630
 20
404.67297
 11
348.99451
 21
404.36011
  0
LINE
  8
7
 10
349.01889
 20
415.68250
 11
349.01630
 21
404.67297
  0
LINE
  8
7
 10
351.02689
 20
415.68250
 11
349.01889
 21
415.68250
  0
LINE
  8
7
 10
351.02686
 20
404.74750
 11
351.02689
 21
415.68250
  0
LINE
  8
7
 10
339.88220
 20
404.76709
 11
339.88730
 21
404.53210
  0
LINE
  8
7
 10
339.88730
 20
404.53210
 11
339.90289
 21
404.29749
  0
LINE
  8
7
 10
339.90289
 20
404.29749
 11
339.92871
 21
404.06381
  0
LINE
  8
7
 10
339.92871
 20
404.06381
 11
339.96490
 21
403.83151
  0
LINE
  8
7
 10
339.96490
 20
403.83151
 11
340.01129
 21
403.60080
  0
LINE
  8
7
 10
340.01129
 20
403.60080
 11
340.06769
 21
403.37241
  0
LINE
  8
7
 10
340.06769
 20
403.37241
 11
340.13419
 21
403.14651
  0
LINE
  8
7
 10
340.13419
 20
403.14651
 11
340.21060
 21
402.92371
  0
LINE
  8
7
 10
340.21060
 20
402.92371
 11
340.29681
 21
402.70432
  0
LINE
  8
7
 10
340.29681
 20
402.70432
 11
340.39261
 21
402.48871
  0
LINE
  8
7
 10
340.39261
 20
402.48871
 11
340.49771
 21
402.27731
  0
LINE
  8
7
 10
340.49771
 20
402.27731
 11
340.61209
 21
402.07059
  0
LINE
  8
7
 10
340.61209
 20
402.07059
 11
340.73550
 21
401.86890
  0
LINE
  8
7
 10
340.73550
 20
401.86890
 11
340.86771
 21
401.67261
  0
LINE
  8
7
 10
340.86771
 20
401.67261
 11
341.00839
 21
401.48209
  0
LINE
  8
7
 10
341.00839
 20
401.48209
 11
341.15741
 21
401.29761
  0
LINE
  8
7
 10
341.15741
 20
401.29761
 11
341.31430
 21
401.11960
  0
LINE
  8
7
 10
341.31430
 20
401.11960
 11
341.47900
 21
400.94839
  0
LINE
  8
7
 10
341.47900
 20
400.94839
 11
341.65109
 21
400.78430
  0
LINE
  8
7
 10
341.65109
 20
400.78430
 11
341.83020
 21
400.62769
  0
LINE
  8
7
 10
341.83020
 20
400.62769
 11
342.01611
 21
400.47870
  0
LINE
  8
7
 10
342.01611
 20
400.47870
 11
342.20840
 21
400.33771
  0
LINE
  8
7
 10
342.20840
 20
400.33771
 11
342.40671
 21
400.20490
  0
LINE
  8
7
 10
342.40671
 20
400.20490
 11
342.61069
 21
400.08060
  0
LINE
  8
7
 10
342.61069
 20
400.08060
 11
342.82001
 21
399.96500
  0
LINE
  8
7
 10
342.82001
 20
399.96500
 11
343.03421
 21
399.85840
  0
LINE
  8
7
 10
343.03421
 20
399.85840
 11
343.25290
 21
399.76089
  0
LINE
  8
7
 10
343.25290
 20
399.76089
 11
343.47571
 21
399.67270
  0
LINE
  8
7
 10
343.47571
 20
399.67270
 11
343.70209
 21
399.59399
  0
LINE
  8
7
 10
343.70209
 20
399.59399
 11
343.93188
 21
399.52490
  0
LINE
  8
7
 10
343.93188
 20
399.52490
 11
344.16440
 21
399.46561
  0
LINE
  8
7
 10
344.16440
 20
399.46561
 11
344.36011
 21
399.42371
  0
LINE
  8
7
 10
344.36011
 20
399.42371
 11
344.55710
 21
399.38861
  0
LINE
  8
7
 10
344.55710
 20
399.38861
 11
344.75531
 21
399.36060
  0
LINE
  8
7
 10
344.75531
 20
399.36060
 11
344.95450
 21
399.33951
  0
LINE
  8
7
 10
344.95450
 20
399.33951
 11
345.15421
 21
399.32541
  0
LINE
  8
7
 10
345.15421
 20
399.32541
 11
345.35440
 21
399.31839
  0
LINE
  8
7
 10
345.35440
 20
399.31839
 11
345.55469
 21
399.31839
  0
LINE
  8
7
 10
345.55469
 20
399.31839
 11
345.75479
 21
399.32541
  0
LINE
  8
7
 10
345.75479
 20
399.32541
 11
345.95459
 21
399.33951
  0
LINE
  8
7
 10
345.95459
 20
399.33951
 11
346.15369
 21
399.36060
  0
LINE
  8
7
 10
346.15369
 20
399.36060
 11
346.35199
 21
399.38861
  0
LINE
  8
7
 10
346.35199
 20
399.38861
 11
346.54901
 21
399.42371
  0
LINE
  8
7
 10
346.54901
 20
399.42371
 11
346.74469
 21
399.46561
  0
LINE
  8
7
 10
346.74469
 20
399.46561
 11
346.93869
 21
399.51431
  0
LINE
  8
7
 10
346.93869
 20
399.51431
 11
347.16891
 21
399.58179
  0
LINE
  8
7
 10
347.16891
 20
399.58179
 11
347.39590
 21
399.65891
  0
LINE
  8
7
 10
347.39590
 20
399.65891
 11
347.61929
 21
399.74561
  0
LINE
  8
7
 10
347.61929
 20
399.74561
 11
347.83871
 21
399.84149
  0
LINE
  8
7
 10
347.83871
 20
399.84149
 11
348.05371
 21
399.94659
  0
LINE
  8
7
 10
348.05371
 20
399.94659
 11
348.26379
 21
400.06070
  0
LINE
  8
7
 10
348.26379
 20
400.06070
 11
348.46869
 21
400.18359
  0
LINE
  8
7
 10
348.46869
 20
400.18359
 11
348.66800
 21
400.31500
  0
LINE
  8
7
 10
348.66800
 20
400.31500
 11
348.86130
 21
400.45459
  0
LINE
  8
7
 10
348.86130
 20
400.45459
 11
349.04831
 21
400.60229
  0
LINE
  8
7
 10
349.04831
 20
400.60229
 11
349.22861
 21
400.75769
  0
LINE
  8
7
 10
349.22861
 20
400.75769
 11
349.40189
 21
400.92059
  0
LINE
  8
7
 10
349.40189
 20
400.92059
 11
349.56781
 21
401.09061
  0
LINE
  8
7
 10
349.56781
 20
401.09061
 11
349.72610
 21
401.26749
  0
LINE
  8
7
 10
349.72610
 20
401.26749
 11
349.87640
 21
401.45090
  0
LINE
  8
7
 10
349.87640
 20
401.45090
 11
350.01849
 21
401.64041
  0
LINE
  8
7
 10
350.01849
 20
401.64041
 11
350.15219
 21
401.83578
  0
LINE
  8
7
 10
350.15219
 20
401.83578
 11
350.27701
 21
402.03659
  0
LINE
  8
7
 10
350.27701
 20
402.03659
 11
350.39291
 21
402.24249
  0
LINE
  8
7
 10
350.39291
 20
402.24249
 11
350.49960
 21
402.45309
  0
LINE
  8
7
 10
350.49960
 20
402.45309
 11
350.59698
 21
402.66800
  0
LINE
  8
7
 10
350.59698
 20
402.66800
 11
350.68481
 21
402.88690
  0
LINE
  8
7
 10
350.68481
 20
402.88690
 11
350.76279
 21
403.10919
  0
LINE
  8
7
 10
350.76279
 20
403.10919
 11
350.83099
 21
403.33450
  0
LINE
  8
7
 10
350.83099
 20
403.33450
 11
350.88910
 21
403.56259
  0
LINE
  8
7
 10
350.88910
 20
403.56259
 11
350.93719
 21
403.79291
  0
LINE
  8
7
 10
350.93719
 20
403.79291
 11
350.97501
 21
404.02499
  0
LINE
  8
7
 10
350.97501
 20
404.02499
 11
351.00259
 21
404.25851
  0
LINE
  8
7
 10
351.00259
 20
404.25851
 11
351.01990
 21
404.49289
  0
LINE
  8
7
 10
351.01990
 20
404.49289
 11
351.02686
 21
404.74750
  0
LINE
  8
7
 10
341.89020
 20
404.76709
 11
341.89020
 21
415.68250
  0
LINE
  8
7
 10
339.88220
 20
275.68250
 11
339.88220
 21
264.76709
  0
LINE
  8
7
 10
341.89020
 20
275.68250
 11
339.88220
 21
275.68250
  0
LINE
  8
7
 10
341.89731
 20
264.54761
 11
341.89020
 21
264.76709
  0
LINE
  8
7
 10
341.91849
 20
264.32889
 11
341.89731
 21
264.54761
  0
LINE
  8
7
 10
341.95370
 20
264.11209
 11
341.91849
 21
264.32889
  0
LINE
  8
7
 10
342.00281
 20
263.89780
 11
341.95370
 21
264.11209
  0
LINE
  8
7
 10
342.06570
 20
263.68689
 11
342.00281
 21
263.89780
  0
LINE
  8
7
 10
342.14191
 20
263.48041
 11
342.06570
 21
263.68689
  0
LINE
  8
7
 10
342.23141
 20
263.27890
 11
342.14191
 21
263.48041
  0
LINE
  8
7
 10
342.33359
 20
263.08340
 11
342.23141
 21
263.27890
  0
LINE
  8
7
 10
342.44821
 20
262.89450
 11
342.33359
 21
263.08340
  0
LINE
  8
7
 10
342.57471
 20
262.71310
 11
342.44821
 21
262.89450
  0
LINE
  8
7
 10
342.71271
 20
262.53989
 11
342.57471
 21
262.71310
  0
LINE
  8
7
 10
342.86151
 20
262.37540
 11
342.71271
 21
262.53989
  0
LINE
  8
7
 10
343.02069
 20
262.22049
 11
342.86151
 21
262.37540
  0
LINE
  8
7
 10
343.18951
 20
262.07571
 11
343.02069
 21
262.22049
  0
LINE
  8
7
 10
343.36731
 20
261.94150
 11
343.18951
 21
262.07571
  0
LINE
  8
7
 10
343.55341
 20
261.81860
 11
343.36731
 21
261.94150
  0
LINE
  8
7
 10
343.74701
 20
261.70740
 11
343.55341
 21
261.81860
  0
LINE
  8
7
 10
343.94739
 20
261.60831
 11
343.74701
 21
261.70740
  0
LINE
  8
7
 10
344.15381
 20
261.52170
 11
343.94739
 21
261.60831
  0
LINE
  8
7
 10
344.36530
 20
261.44809
 11
344.15381
 21
261.52170
  0
LINE
  8
7
 10
344.58121
 20
261.38760
 11
344.36530
 21
261.44809
  0
LINE
  8
7
 10
344.80051
 20
261.34052
 11
344.58121
 21
261.38760
  0
LINE
  8
7
 10
345.02249
 20
261.30701
 11
344.80051
 21
261.34052
  0
LINE
  8
7
 10
345.24609
 20
261.28729
 11
345.02249
 21
261.30701
  0
LINE
  8
7
 10
345.47061
 20
261.28131
 11
345.24609
 21
261.28729
  0
LINE
  8
7
 10
345.69501
 20
261.28931
 11
345.47061
 21
261.28131
  0
LINE
  8
7
 10
345.91849
 20
261.31100
 11
345.69501
 21
261.28931
  0
LINE
  8
7
 10
346.14011
 20
261.34641
 11
345.91849
 21
261.31100
  0
LINE
  8
7
 10
346.35901
 20
261.39539
 11
346.14011
 21
261.34641
  0
LINE
  8
7
 10
346.57431
 20
261.45779
 11
346.35901
 21
261.39539
  0
LINE
  8
7
 10
346.78510
 20
261.53329
 11
346.57431
 21
261.45779
  0
LINE
  8
7
 10
346.99069
 20
261.62170
 11
346.78510
 21
261.53329
  0
LINE
  8
7
 10
347.19019
 20
261.72250
 11
346.99069
 21
261.62170
  0
LINE
  8
7
 10
347.38281
 20
261.83539
 11
347.19019
 21
261.72250
  0
LINE
  8
7
 10
347.56769
 20
261.95999
 11
347.38281
 21
261.83539
  0
LINE
  8
7
 10
347.74429
 20
262.09570
 11
347.56769
 21
261.95999
  0
LINE
  8
7
 10
347.91171
 20
262.24200
 11
347.74429
 21
262.09570
  0
LINE
  8
7
 10
348.06949
 20
262.39828
 11
347.91171
 21
262.24200
  0
LINE
  8
7
 10
348.21680
 20
262.56409
 11
348.06949
 21
262.39828
  0
LINE
  8
7
 10
348.35321
 20
262.73849
 11
348.21680
 21
262.56409
  0
LINE
  8
7
 10
348.47800
 20
262.92111
 11
348.35321
 21
262.73849
  0
LINE
  8
7
 10
348.59091
 20
263.11090
 11
348.47800
 21
262.92111
  0
LINE
  8
7
 10
348.69131
 20
263.30740
 11
348.59091
 21
263.11090
  0
LINE
  8
7
 10
348.77881
 20
263.50961
 11
348.69131
 21
263.30740
  0
LINE
  8
7
 10
348.85321
 20
263.71680
 11
348.77881
 21
263.50961
  0
LINE
  8
7
 10
348.91409
 20
263.92819
 11
348.85321
 21
263.71680
  0
LINE
  8
7
 10
348.96130
 20
264.14291
 11
348.91409
 21
263.92819
  0
LINE
  8
7
 10
348.99451
 20
264.36011
 11
348.96130
 21
264.14291
  0
LINE
  8
7
 10
349.01630
 20
264.67297
 11
348.99451
 21
264.36011
  0
LINE
  8
7
 10
349.01889
 20
275.68250
 11
349.01630
 21
264.67297
  0
LINE
  8
7
 10
351.02689
 20
275.68250
 11
349.01889
 21
275.68250
  0
LINE
  8
7
 10
351.02686
 20
264.74750
 11
351.02689
 21
275.68250
  0
LINE
  8
7
 10
339.88220
 20
264.76709
 11
339.88730
 21
264.53210
  0
LINE
  8
7
 10
339.88730
 20
264.53210
 11
339.90289
 21
264.29749
  0
LINE
  8
7
 10
339.90289
 20
264.29749
 11
339.92871
 21
264.06381
  0
LINE
  8
7
 10
339.92871
 20
264.06381
 11
339.96490
 21
263.83151
  0
LINE
  8
7
 10
339.96490
 20
263.83151
 11
340.01129
 21
263.60080
  0
LINE
  8
7
 10
340.01129
 20
263.60080
 11
340.06769
 21
263.37241
  0
LINE
  8
7
 10
340.06769
 20
263.37241
 11
340.13419
 21
263.14651
  0
LINE
  8
7
 10
340.13419
 20
263.14651
 11
340.21060
 21
262.92371
  0
LINE
  8
7
 10
340.21060
 20
262.92371
 11
340.29681
 21
262.70432
  0
LINE
  8
7
 10
340.29681
 20
262.70432
 11
340.39261
 21
262.48871
  0
LINE
  8
7
 10
340.39261
 20
262.48871
 11
340.49771
 21
262.27731
  0
LINE
  8
7
 10
340.49771
 20
262.27731
 11
340.61209
 21
262.07059
  0
LINE
  8
7
 10
340.61209
 20
262.07059
 11
340.73550
 21
261.86890
  0
LINE
  8
7
 10
340.73550
 20
261.86890
 11
340.86771
 21
261.67261
  0
LINE
  8
7
 10
340.86771
 20
261.67261
 11
341.00839
 21
261.48209
  0
LINE
  8
7
 10
341.00839
 20
261.48209
 11
341.15741
 21
261.29761
  0
LINE
  8
7
 10
341.15741
 20
261.29761
 11
341.31430
 21
261.11960
  0
LINE
  8
7
 10
341.31430
 20
261.11960
 11
341.47900
 21
260.94839
  0
LINE
  8
7
 10
341.47900
 20
260.94839
 11
341.65109
 21
260.78430
  0
LINE
  8
7
 10
341.65109
 20
260.78430
 11
341.83020
 21
260.62769
  0
LINE
  8
7
 10
341.83020
 20
260.62769
 11
342.01611
 21
260.47870
  0
LINE
  8
7
 10
342.01611
 20
260.47870
 11
342.20840
 21
260.33771
  0
LINE
  8
7
 10
342.20840
 20
260.33771
 11
342.40671
 21
260.20490
  0
LINE
  8
7
 10
342.40671
 20
260.20490
 11
342.61069
 21
260.08060
  0
LINE
  8
7
 10
342.61069
 20
260.08060
 11
342.82001
 21
259.96500
  0
LINE
  8
7
 10
342.82001
 20
259.96500
 11
343.03421
 21
259.85840
  0
LINE
  8
7
 10
343.03421
 20
259.85840
 11
343.25290
 21
259.76089
  0
LINE
  8
7
 10
343.25290
 20
259.76089
 11
343.47571
 21
259.67270
  0
LINE
  8
7
 10
343.47571
 20
259.67270
 11
343.70209
 21
259.59399
  0
LINE
  8
7
 10
343.70209
 20
259.59399
 11
343.93188
 21
259.52490
  0
LINE
  8
7
 10
343.93188
 20
259.52490
 11
344.16440
 21
259.46561
  0
LINE
  8
7
 10
344.16440
 20
259.46561
 11
344.36011
 21
259.42371
  0
LINE
  8
7
 10
344.36011
 20
259.42371
 11
344.55710
 21
259.38861
  0
LINE
  8
7
 10
344.55710
 20
259.38861
 11
344.75531
 21
259.36060
  0
LINE
  8
7
 10
344.75531
 20
259.36060
 11
344.95450
 21
259.33951
  0
LINE
  8
7
 10
344.95450
 20
259.33951
 11
345.15421
 21
259.32541
  0
LINE
  8
7
 10
345.15421
 20
259.32541
 11
345.35440
 21
259.31839
  0
LINE
  8
7
 10
345.35440
 20
259.31839
 11
345.55469
 21
259.31839
  0
LINE
  8
7
 10
345.55469
 20
259.31839
 11
345.75479
 21
259.32541
  0
LINE
  8
7
 10
345.75479
 20
259.32541
 11
345.95459
 21
259.33951
  0
LINE
  8
7
 10
345.95459
 20
259.33951
 11
346.15369
 21
259.36060
  0
LINE
  8
7
 10
346.15369
 20
259.36060
 11
346.35199
 21
259.38861
  0
LINE
  8
7
 10
346.35199
 20
259.38861
 11
346.54901
 21
259.42371
  0
LINE
  8
7
 10
346.54901
 20
259.42371
 11
346.74469
 21
259.46561
  0
LINE
  8
7
 10
346.74469
 20
259.46561
 11
346.93869
 21
259.51431
  0
LINE
  8
7
 10
346.93869
 20
259.51431
 11
347.16891
 21
259.58179
  0
LINE
  8
7
 10
347.16891
 20
259.58179
 11
347.39590
 21
259.65891
  0
LINE
  8
7
 10
347.39590
 20
259.65891
 11
347.61929
 21
259.74561
  0
LINE
  8
7
 10
347.61929
 20
259.74561
 11
347.83871
 21
259.84149
  0
LINE
  8
7
 10
347.83871
 20
259.84149
 11
348.05371
 21
259.94659
  0
LINE
  8
7
 10
348.05371
 20
259.94659
 11
348.26379
 21
260.06070
  0
LINE
  8
7
 10
348.26379
 20
260.06070
 11
348.46869
 21
260.18359
  0
LINE
  8
7
 10
348.46869
 20
260.18359
 11
348.66800
 21
260.31500
  0
LINE
  8
7
 10
348.66800
 20
260.31500
 11
348.86130
 21
260.45459
  0
LINE
  8
7
 10
348.86130
 20
260.45459
 11
349.04831
 21
260.60229
  0
LINE
  8
7
 10
349.04831
 20
260.60229
 11
349.22861
 21
260.75769
  0
LINE
  8
7
 10
349.22861
 20
260.75769
 11
349.40189
 21
260.92059
  0
LINE
  8
7
 10
349.40189
 20
260.92059
 11
349.56781
 21
261.09061
  0
LINE
  8
7
 10
349.56781
 20
261.09061
 11
349.72610
 21
261.26749
  0
LINE
  8
7
 10
349.72610
 20
261.26749
 11
349.87640
 21
261.45090
  0
LINE
  8
7
 10
349.87640
 20
261.45090
 11
350.01849
 21
261.64041
  0
LINE
  8
7
 10
350.01849
 20
261.64041
 11
350.15219
 21
261.83578
  0
LINE
  8
7
 10
350.15219
 20
261.83578
 11
350.27701
 21
262.03659
  0
LINE
  8
7
 10
350.27701
 20
262.03659
 11
350.39291
 21
262.24249
  0
LINE
  8
7
 10
350.39291
 20
262.24249
 11
350.49960
 21
262.45309
  0
LINE
  8
7
 10
350.49960
 20
262.45309
 11
350.59698
 21
262.66800
  0
LINE
  8
7
 10
350.59698
 20
262.66800
 11
350.68481
 21
262.88690
  0
LINE
  8
7
 10
350.68481
 20
262.88690
 11
350.76279
 21
263.10919
  0
LINE
  8
7
 10
350.76279
 20
263.10919
 11
350.83099
 21
263.33450
  0
LINE
  8
7
 10
350.83099
 20
263.33450
 11
350.88910
 21
263.56259
  0
LINE
  8
7
 10
350.88910
 20
263.56259
 11
350.93719
 21
263.79291
  0
LINE
  8
7
 10
350.93719
 20
263.79291
 11
350.97501
 21
264.02499
  0
LINE
  8
7
 10
350.97501
 20
264.02499
 11
351.00259
 21
264.25851
  0
LINE
  8
7
 10
351.00259
 20
264.25851
 11
351.01990
 21
264.49289
  0
LINE
  8
7
 10
351.01990
 20
264.49289
 11
351.02686
 21
264.74750
  0
LINE
  8
7
 10
341.89020
 20
264.76709
 11
341.89020
 21
275.68250
  0
LINE
  8
7
 10
373.14810
 20
412.06631
 11
373.14810
 21
398.49930
  0
LINE
  8
7
 10
373.14810
 20
398.49930
 11
370.82431
 21
398.49930
  0
LINE
  8
7
 10
373.14810
 20
416.43790
 11
381.39740
 21
402.87079
  0
LINE
  8
7
 10
381.39740
 20
402.87079
 11
381.39740
 21
416.43790
  0
LINE
  8
7
 10
383.72119
 20
398.49930
 11
381.39740
 21
398.49930
  0
LINE
  8
7
 10
381.39740
 20
398.49930
 11
373.14810
 21
412.06631
  0
LINE
  8
7
 10
370.82431
 20
398.49930
 11
370.82431
 21
416.43790
  0
LINE
  8
7
 10
370.82431
 20
416.43790
 11
373.14810
 21
416.43790
  0
LINE
  8
7
 10
381.39740
 20
416.43790
 11
383.72119
 21
416.43790
  0
LINE
  8
7
 10
383.72119
 20
416.43790
 11
383.72119
 21
398.49930
  0
LINE
  8
7
 10
309.51169
 20
377.06631
 11
309.51169
 21
363.49930
  0
LINE
  8
7
 10
309.51169
 20
363.49930
 11
307.18790
 21
363.49930
  0
LINE
  8
7
 10
309.51169
 20
381.43790
 11
317.76099
 21
367.87079
  0
LINE
  8
7
 10
317.76099
 20
367.87079
 11
317.76099
 21
381.43790
  0
LINE
  8
7
 10
320.08481
 20
363.49930
 11
317.76099
 21
363.49930
  0
LINE
  8
7
 10
317.76099
 20
363.49930
 11
309.51169
 21
377.06631
  0
LINE
  8
7
 10
307.18790
 20
363.49930
 11
307.18790
 21
381.43790
  0
LINE
  8
7
 10
307.18790
 20
381.43790
 11
309.51169
 21
381.43790
  0
LINE
  8
7
 10
317.76099
 20
381.43790
 11
320.08481
 21
381.43790
  0
LINE
  8
7
 10
320.08481
 20
381.43790
 11
320.08481
 21
363.49930
  0
LINE
  8
7
 10
182.23900
 20
377.06631
 11
182.23900
 21
363.49930
  0
LINE
  8
7
 10
182.23900
 20
363.49930
 11
179.91521
 21
363.49930
  0
LINE
  8
7
 10
182.23900
 20
381.43790
 11
190.48830
 21
367.87079
  0
LINE
  8
7
 10
190.48830
 20
367.87079
 11
190.48830
 21
381.43790
  0
LINE
  8
7
 10
192.81210
 20
363.49930
 11
190.48830
 21
363.49930
  0
LINE
  8
7
 10
190.48830
 20
363.49930
 11
182.23900
 21
377.06631
  0
LINE
  8
7
 10
179.91521
 20
363.49930
 11
179.91521
 21
381.43790
  0
LINE
  8
7
 10
179.91521
 20
381.43790
 11
182.23900
 21
381.43790
  0
LINE
  8
7
 10
190.48830
 20
381.43790
 11
192.81210
 21
381.43790
  0
LINE
  8
7
 10
192.81210
 20
381.43790
 11
192.81210
 21
363.49930
  0
LINE
  8
7
 10
245.87531
 20
307.06631
 11
245.87531
 21
293.49930
  0
LINE
  8
7
 10
245.87531
 20
293.49930
 11
243.55161
 21
293.49930
  0
LINE
  8
7
 10
245.87531
 20
311.43790
 11
254.12469
 21
297.87079
  0
LINE
  8
7
 10
254.12469
 20
297.87079
 11
254.12469
 21
311.43790
  0
LINE
  8
7
 10
256.44839
 20
293.49930
 11
254.12469
 21
293.49930
  0
LINE
  8
7
 10
254.12469
 20
293.49930
 11
245.87531
 21
307.06631
  0
LINE
  8
7
 10
243.55161
 20
293.49930
 11
243.55161
 21
311.43790
  0
LINE
  8
7
 10
243.55161
 20
311.43790
 11
245.87531
 21
311.43790
  0
LINE
  8
7
 10
254.12469
 20
311.43790
 11
256.44839
 21
311.43790
  0
LINE
  8
7
 10
256.44839
 20
311.43790
 11
256.44839
 21
293.49930
  0
LINE
  8
7
 10
309.51169
 20
307.06631
 11
309.51169
 21
293.49930
  0
LINE
  8
7
 10
309.51169
 20
293.49930
 11
307.18790
 21
293.49930
  0
LINE
  8
7
 10
309.51169
 20
311.43790
 11
317.76099
 21
297.87079
  0
LINE
  8
7
 10
317.76099
 20
297.87079
 11
317.76099
 21
311.43790
  0
LINE
  8
7
 10
320.08481
 20
293.49930
 11
317.76099
 21
293.49930
  0
LINE
  8
7
 10
317.76099
 20
293.49930
 11
309.51169
 21
307.06631
  0
LINE
  8
7
 10
307.18790
 20
293.49930
 11
307.18790
 21
311.43790
  0
LINE
  8
7
 10
307.18790
 20
311.43790
 11
309.51169
 21
311.43790
  0
LINE
  8
7
 10
317.76099
 20
311.43790
 11
320.08481
 21
311.43790
  0
LINE
  8
7
 10
320.08481
 20
311.43790
 11
320.08481
 21
293.49930
  0
LINE
  8
7
 10
373.14810
 20
272.06631
 11
373.14810
 21
258.49930
  0
LINE
  8
7
 10
373.14810
 20
258.49930
 11
370.82431
 21
258.49930
  0
LINE
  8
7
 10
373.14810
 20
276.43790
 11
381.39740
 21
262.87079
  0
LINE
  8
7
 10
381.39740
 20
262.87079
 11
381.39740
 21
276.43790
  0
LINE
  8
7
 10
383.72119
 20
258.49930
 11
381.39740
 21
258.49930
  0
LINE
  8
7
 10
381.39740
 20
258.49930
 11
373.14810
 21
272.06631
  0
LINE
  8
7
 10
370.82431
 20
258.49930
 11
370.82431
 21
276.43790
  0
LINE
  8
7
 10
370.82431
 20
276.43790
 11
373.14810
 21
276.43790
  0
LINE
  8
7
 10
381.39740
 20
276.43790
 11
383.72119
 21
276.43790
  0
LINE
  8
7
 10
383.72119
 20
276.43790
 11
383.72119
 21
258.49930
  0
LINE
  8
7
 10
150.42081
 20
237.06630
 11
150.42081
 21
223.49930
  0
LINE
  8
7
 10
150.42081
 20
223.49930
 11
148.09700
 21
223.49930
  0
LINE
  8
7
 10
150.42081
 20
241.43790
 11
158.67010
 21
227.87080
  0
LINE
  8
7
 10
158.67010
 20
227.87080
 11
158.67010
 21
241.43790
  0
LINE
  8
7
 10
160.99390
 20
223.49930
 11
158.67010
 21
223.49930
  0
LINE
  8
7
 10
158.67010
 20
223.49930
 11
150.42081
 21
237.06630
  0
LINE
  8
7
 10
148.09700
 20
223.49930
 11
148.09700
 21
241.43790
  0
LINE
  8
7
 10
148.09700
 20
241.43790
 11
150.42081
 21
241.43790
  0
LINE
  8
7
 10
158.67010
 20
241.43790
 11
160.99390
 21
241.43790
  0
LINE
  8
7
 10
160.99390
 20
241.43790
 11
160.99390
 21
223.49930
  0
LINE
  8
7
 10
245.87531
 20
132.06630
 11
245.87531
 21
118.49930
  0
LINE
  8
7
 10
245.87531
 20
118.49930
 11
243.55161
 21
118.49930
  0
LINE
  8
7
 10
245.87531
 20
136.43790
 11
254.12469
 21
122.87080
  0
LINE
  8
7
 10
254.12469
 20
122.87080
 11
254.12469
 21
136.43790
  0
LINE
  8
7
 10
256.44839
 20
118.49930
 11
254.12469
 21
118.49930
  0
LINE
  8
7
 10
254.12469
 20
118.49930
 11
245.87531
 21
132.06630
  0
LINE
  8
7
 10
243.55161
 20
118.49930
 11
243.55161
 21
136.43790
  0
LINE
  8
7
 10
243.55161
 20
136.43790
 11
245.87531
 21
136.43790
  0
LINE
  8
7
 10
254.12469
 20
136.43790
 11
256.44839
 21
136.43790
  0
LINE
  8
7
 10
256.44839
 20
136.43790
 11
256.44839
 21
118.49930
  0
LINE
  8
7
 10
182.23900
 20
97.06630
 11
182.23900
 21
83.49930
  0
LINE
  8
7
 10
182.23900
 20
83.49930
 11
179.91521
 21
83.49930
  0
LINE
  8
7
 10
182.23900
 20
101.43790
 11
190.48830
 21
87.87080
  0
LINE
  8
7
 10
190.48830
 20
87.87080
 11
190.48830
 21
101.43790
  0
LINE
  8
7
 10
192.81210
 20
83.49930
 11
190.48830
 21
83.49930
  0
LINE
  8
7
 10
190.48830
 20
83.49930
 11
182.23900
 21
97.06630
  0
LINE
  8
7
 10
179.91521
 20
83.49930
 11
179.91521
 21
101.43790
  0
LINE
  8
7
 10
179.91521
 20
101.43790
 11
182.23900
 21
101.43790
  0
LINE
  8
7
 10
190.48830
 20
101.43790
 11
192.81210
 21
101.43790
  0
LINE
  8
7
 10
192.81210
 20
101.43790
 11
192.81210
 21
83.49930
  0
LINE
  8
7
 10
277.69351
 20
97.06630
 11
277.69351
 21
83.49930
  0
LINE
  8
7
 10
277.69351
 20
83.49930
 11
275.36981
 21
83.49930
  0
LINE
  8
7
 10
277.69351
 20
101.43790
 11
285.94281
 21
87.87080
  0
LINE
  8
7
 10
285.94281
 20
87.87080
 11
285.94281
 21
101.43790
  0
LINE
  8
7
 10
288.26660
 20
83.49930
 11
285.94281
 21
83.49930
  0
LINE
  8
7
 10
285.94281
 20
83.49930
 11
277.69351
 21
97.06630
  0
LINE
  8
7
 10
275.36981
 20
83.49930
 11
275.36981
 21
101.43790
  0
LINE
  8
7
 10
275.36981
 20
101.43790
 11
277.69351
 21
101.43790
  0
LINE
  8
7
 10
285.94281
 20
101.43790
 11
288.26660
 21
101.43790
  0
LINE
  8
7
 10
288.26660
 20
101.43790
 11
288.26660
 21
83.49930
  0
LINE
  8
7
 10
121.47970
 20
241.50070
 11
121.47970
 21
223.49930
  0
LINE
  8
7
 10
123.97480
 20
241.50070
 11
121.47970
 21
241.50070
  0
LINE
  8
7
 10
123.97480
 20
223.49930
 11
123.97480
 21
241.50070
  0
LINE
  8
7
 10
121.47970
 20
223.49930
 11
123.97480
 21
223.49930
  0
LINE
  8
7
 10
87.50000
 20
365.70621
 11
96.93490
 21
365.70621
  0
LINE
  8
7
 10
96.93490
 20
365.70621
 11
96.93490
 21
363.49930
  0
LINE
  8
7
 10
94.31820
 20
379.29379
 11
84.88330
 21
379.29379
  0
LINE
  8
7
 10
84.88330
 20
379.29379
 11
84.88330
 21
381.50070
  0
LINE
  8
7
 10
84.88330
 20
365.70621
 11
94.31820
 21
379.29379
  0
LINE
  8
7
 10
96.93490
 20
379.29379
 11
87.50000
 21
365.70621
  0
LINE
  8
7
 10
96.93490
 20
363.49930
 11
84.88330
 21
363.49930
  0
LINE
  8
7
 10
84.88330
 20
363.49930
 11
84.88330
 21
365.70621
  0
LINE
  8
7
 10
84.88330
 20
381.50070
 11
96.93490
 21
381.50070
  0
LINE
  8
7
 10
96.93490
 20
381.50070
 11
96.93490
 21
379.29379
  0
LINE
  8
7
 10
214.77271
 20
365.70621
 11
224.20760
 21
365.70621
  0
LINE
  8
7
 10
224.20760
 20
365.70621
 11
224.20760
 21
363.49930
  0
LINE
  8
7
 10
221.59090
 20
379.29379
 11
212.15601
 21
379.29379
  0
LINE
  8
7
 10
212.15601
 20
379.29379
 11
212.15601
 21
381.50070
  0
LINE
  8
7
 10
212.15601
 20
365.70621
 11
221.59090
 21
379.29379
  0
LINE
  8
7
 10
224.20760
 20
379.29379
 11
214.77271
 21
365.70621
  0
LINE
  8
7
 10
224.20760
 20
363.49930
 11
212.15601
 21
363.49930
  0
LINE
  8
7
 10
212.15601
 20
363.49930
 11
212.15601
 21
365.70621
  0
LINE
  8
7
 10
212.15601
 20
381.50070
 11
224.20760
 21
381.50070
  0
LINE
  8
7
 10
224.20760
 20
381.50070
 11
224.20760
 21
379.29379
  0
LINE
  8
7
 10
342.04541
 20
365.70621
 11
351.48029
 21
365.70621
  0
LINE
  8
7
 10
351.48029
 20
365.70621
 11
351.48029
 21
363.49930
  0
LINE
  8
7
 10
348.86371
 20
379.29379
 11
339.42871
 21
379.29379
  0
LINE
  8
7
 10
339.42871
 20
379.29379
 11
339.42871
 21
381.50070
  0
LINE
  8
7
 10
339.42871
 20
365.70621
 11
348.86371
 21
379.29379
  0
LINE
  8
7
 10
351.48029
 20
379.29379
 11
342.04541
 21
365.70621
  0
LINE
  8
7
 10
351.48029
 20
363.49930
 11
339.42871
 21
363.49930
  0
LINE
  8
7
 10
339.42871
 20
363.49930
 11
339.42871
 21
365.70621
  0
LINE
  8
7
 10
339.42871
 20
381.50070
 11
351.48029
 21
381.50070
  0
LINE
  8
7
 10
351.48029
 20
381.50070
 11
351.48029
 21
379.29379
  0
LINE
  8
7
 10
310.22729
 20
225.70621
 11
319.66220
 21
225.70621
  0
LINE
  8
7
 10
319.66220
 20
225.70621
 11
319.66220
 21
223.49930
  0
LINE
  8
7
 10
317.04550
 20
239.29379
 11
307.61060
 21
239.29379
  0
LINE
  8
7
 10
307.61060
 20
239.29379
 11
307.61060
 21
241.50070
  0
LINE
  8
7
 10
307.61060
 20
225.70621
 11
317.04550
 21
239.29379
  0
LINE
  8
7
 10
319.66220
 20
239.29379
 11
310.22729
 21
225.70621
  0
LINE
  8
7
 10
319.66220
 20
223.49930
 11
307.61060
 21
223.49930
  0
LINE
  8
7
 10
307.61060
 20
223.49930
 11
307.61060
 21
225.70621
  0
LINE
  8
7
 10
307.61060
 20
241.50070
 11
319.66220
 21
241.50070
  0
LINE
  8
7
 10
319.66220
 20
241.50070
 11
319.66220
 21
239.29379
  0
LINE
  8
7
 10
278.40909
 20
120.70620
 11
287.84399
 21
120.70620
  0
LINE
  8
7
 10
287.84399
 20
120.70620
 11
287.84399
 21
118.49930
  0
LINE
  8
7
 10
285.22729
 20
134.29379
 11
275.79239
 21
134.29379
  0
LINE
  8
7
 10
275.79239
 20
134.29379
 11
275.79239
 21
136.50070
  0
LINE
  8
7
 10
275.79239
 20
120.70620
 11
285.22729
 21
134.29379
  0
LINE
  8
7
 10
287.84399
 20
134.29379
 11
278.40909
 21
120.70620
  0
LINE
  8
7
 10
287.84399
 20
118.49930
 11
275.79239
 21
118.49930
  0
LINE
  8
7
 10
275.79239
 20
118.49930
 11
275.79239
 21
120.70620
  0
LINE
  8
7
 10
275.79239
 20
136.50070
 11
287.84399
 21
136.50070
  0
LINE
  8
7
 10
287.84399
 20
136.50070
 11
287.84399
 21
134.29379
  0
LINE
  8
7
 10
87.50000
 20
85.70620
 11
96.93490
 21
85.70620
  0
LINE
  8
7
 10
96.93490
 20
85.70620
 11
96.93490
 21
83.49930
  0
LINE
  8
7
 10
94.31820
 20
99.29380
 11
84.88330
 21
99.29380
  0
LINE
  8
7
 10
84.88330
 20
99.29380
 11
84.88330
 21
101.50070
  0
LINE
  8
7
 10
84.88330
 20
85.70620
 11
94.31820
 21
99.29380
  0
LINE
  8
7
 10
96.93490
 20
99.29380
 11
87.50000
 21
85.70620
  0
LINE
  8
7
 10
96.93490
 20
83.49930
 11
84.88330
 21
83.49930
  0
LINE
  8
7
 10
84.88330
 20
83.49930
 11
84.88330
 21
85.70620
  0
LINE
  8
7
 10
84.88330
 20
101.50070
 11
96.93490
 21
101.50070
  0
LINE
  8
7
 10
96.93490
 20
101.50070
 11
96.93490
 21
99.29380
  0
LINE
  8
7
 10
148.13710
 20
381.50070
 11
150.44640
 21
381.50070
  0
LINE
  8
7
 10
158.64450
 20
381.50070
 11
160.95380
 21
381.50070
  0
LINE
  8
7
 10
160.95380
 20
381.50070
 11
160.95380
 21
363.49930
  0
LINE
  8
7
 10
160.95380
 20
363.49930
 11
158.64450
 21
363.49930
  0
LINE
  8
7
 10
158.64450
 20
363.49930
 11
158.64450
 21
371.41989
  0
LINE
  8
7
 10
158.64450
 20
371.41989
 11
150.44640
 21
371.41989
  0
LINE
  8
7
 10
150.44640
 20
371.41989
 11
150.44640
 21
363.49930
  0
LINE
  8
7
 10
150.44640
 20
363.49930
 11
148.13710
 21
363.49930
  0
LINE
  8
7
 10
148.13710
 20
363.49930
 11
148.13710
 21
381.50070
  0
LINE
  8
7
 10
150.44640
 20
381.50070
 11
150.44640
 21
373.58011
  0
LINE
  8
7
 10
150.44640
 20
373.58011
 11
158.64450
 21
373.58011
  0
LINE
  8
7
 10
158.64450
 20
373.58011
 11
158.64450
 21
381.50070
  0
LINE
  8
7
 10
402.68250
 20
311.50070
 11
404.99191
 21
311.50070
  0
LINE
  8
7
 10
413.19000
 20
311.50070
 11
415.49930
 21
311.50070
  0
LINE
  8
7
 10
415.49930
 20
311.50070
 11
415.49930
 21
293.49930
  0
LINE
  8
7
 10
415.49930
 20
293.49930
 11
413.19000
 21
293.49930
  0
LINE
  8
7
 10
413.19000
 20
293.49930
 11
413.19000
 21
301.41989
  0
LINE
  8
7
 10
413.19000
 20
301.41989
 11
404.99191
 21
301.41989
  0
LINE
  8
7
 10
404.99191
 20
301.41989
 11
404.99191
 21
293.49930
  0
LINE
  8
7
 10
404.99191
 20
293.49930
 11
402.68250
 21
293.49930
  0
LINE
  8
7
 10
402.68250
 20
293.49930
 11
402.68250
 21
311.50070
  0
LINE
  8
7
 10
404.99191
 20
311.50070
 11
404.99191
 21
303.58011
  0
LINE
  8
7
 10
404.99191
 20
303.58011
 11
413.19000
 21
303.58011
  0
LINE
  8
7
 10
413.19000
 20
303.58011
 11
413.19000
 21
311.50070
  0
LINE
  8
7
 10
84.50070
 20
276.50070
 11
86.81000
 21
276.50070
  0
LINE
  8
7
 10
95.00810
 20
276.50070
 11
97.31750
 21
276.50070
  0
LINE
  8
7
 10
97.31750
 20
276.50070
 11
97.31750
 21
258.49930
  0
LINE
  8
7
 10
97.31750
 20
258.49930
 11
95.00810
 21
258.49930
  0
LINE
  8
7
 10
95.00810
 20
258.49930
 11
95.00810
 21
266.41989
  0
LINE
  8
7
 10
95.00810
 20
266.41989
 11
86.81000
 21
266.41989
  0
LINE
  8
7
 10
86.81000
 20
266.41989
 11
86.81000
 21
258.49930
  0
LINE
  8
7
 10
86.81000
 20
258.49930
 11
84.50070
 21
258.49930
  0
LINE
  8
7
 10
84.50070
 20
258.49930
 11
84.50070
 21
276.50070
  0
LINE
  8
7
 10
86.81000
 20
276.50070
 11
86.81000
 21
268.58011
  0
LINE
  8
7
 10
86.81000
 20
268.58011
 11
95.00810
 21
268.58011
  0
LINE
  8
7
 10
95.00810
 20
268.58011
 11
95.00810
 21
276.50070
  0
LINE
  8
7
 10
179.95531
 20
171.50070
 11
182.26460
 21
171.50070
  0
LINE
  8
7
 10
190.46271
 20
171.50070
 11
192.77200
 21
171.50070
  0
LINE
  8
7
 10
192.77200
 20
171.50070
 11
192.77200
 21
153.49930
  0
LINE
  8
7
 10
192.77200
 20
153.49930
 11
190.46271
 21
153.49930
  0
LINE
  8
7
 10
190.46271
 20
153.49930
 11
190.46271
 21
161.41991
  0
LINE
  8
7
 10
190.46271
 20
161.41991
 11
182.26460
 21
161.41991
  0
LINE
  8
7
 10
182.26460
 20
161.41991
 11
182.26460
 21
153.49930
  0
LINE
  8
7
 10
182.26460
 20
153.49930
 11
179.95531
 21
153.49930
  0
LINE
  8
7
 10
179.95531
 20
153.49930
 11
179.95531
 21
171.50070
  0
LINE
  8
7
 10
182.26460
 20
171.50070
 11
182.26460
 21
163.58009
  0
LINE
  8
7
 10
182.26460
 20
163.58009
 11
190.46271
 21
163.58009
  0
LINE
  8
7
 10
190.46271
 20
163.58009
 11
190.46271
 21
171.50070
  0
LINE
  8
7
 10
370.86441
 20
171.50070
 11
373.17371
 21
171.50070
  0
LINE
  8
7
 10
381.37180
 20
171.50070
 11
383.68109
 21
171.50070
  0
LINE
  8
7
 10
383.68109
 20
171.50070
 11
383.68109
 21
153.49930
  0
LINE
  8
7
 10
383.68109
 20
153.49930
 11
381.37180
 21
153.49930
  0
LINE
  8
7
 10
381.37180
 20
153.49930
 11
381.37180
 21
161.41991
  0
LINE
  8
7
 10
381.37180
 20
161.41991
 11
373.17371
 21
161.41991
  0
LINE
  8
7
 10
373.17371
 20
161.41991
 11
373.17371
 21
153.49930
  0
LINE
  8
7
 10
373.17371
 20
153.49930
 11
370.86441
 21
153.49930
  0
LINE
  8
7
 10
370.86441
 20
153.49930
 11
370.86441
 21
171.50070
  0
LINE
  8
7
 10
373.17371
 20
171.50070
 11
373.17371
 21
163.58009
  0
LINE
  8
7
 10
373.17371
 20
163.58009
 11
381.37180
 21
163.58009
  0
LINE
  8
7
 10
381.37180
 20
163.58009
 11
381.37180
 21
171.50070
  0
LINE
  8
7
 10
148.13710
 20
101.50070
 11
150.44640
 21
101.50070
  0
LINE
  8
7
 10
158.64450
 20
101.50070
 11
160.95380
 21
101.50070
  0
LINE
  8
7
 10
160.95380
 20
101.50070
 11
160.95380
 21
83.49930
  0
LINE
  8
7
 10
160.95380
 20
83.49930
 11
158.64450
 21
83.49930
  0
LINE
  8
7
 10
158.64450
 20
83.49930
 11
158.64450
 21
91.41990
  0
LINE
  8
7
 10
158.64450
 20
91.41990
 11
150.44640
 21
91.41990
  0
LINE
  8
7
 10
150.44640
 20
91.41990
 11
150.44640
 21
83.49930
  0
LINE
  8
7
 10
150.44640
 20
83.49930
 11
148.13710
 21
83.49930
  0
LINE
  8
7
 10
148.13710
 20
83.49930
 11
148.13710
 21
101.50070
  0
LINE
  8
7
 10
150.44640
 20
101.50070
 11
150.44640
 21
93.58010
  0
LINE
  8
7
 10
150.44640
 20
93.58010
 11
158.64450
 21
93.58010
  0
LINE
  8
7
 10
158.64450
 20
93.58010
 11
158.64450
 21
101.50070
  0
LINE
  8
7
 10
252.52831
 20
363.49930
 11
250.00000
 21
369.49979
  0
LINE
  8
7
 10
250.00000
 20
369.49979
 11
247.47169
 21
363.49930
  0
LINE
  8
7
 10
247.47169
 20
363.49930
 11
242.40739
 21
381.50070
  0
LINE
  8
7
 10
242.40739
 20
381.50070
 11
244.32829
 21
381.50070
  0
LINE
  8
7
 10
244.32829
 20
381.50070
 11
247.80800
 21
369.13171
  0
LINE
  8
7
 10
255.67171
 20
381.50070
 11
257.59259
 21
381.50070
  0
LINE
  8
7
 10
257.59259
 20
381.50070
 11
252.52831
 21
363.49930
  0
LINE
  8
7
 10
247.80800
 20
369.13171
 11
250.00000
 21
374.33389
  0
LINE
  8
7
 10
250.00000
 20
374.33389
 11
252.19200
 21
369.13171
  0
LINE
  8
7
 10
252.19200
 20
369.13171
 11
255.67171
 21
381.50070
  0
LINE
  8
7
 10
347.98291
 20
223.49930
 11
345.45450
 21
229.49980
  0
LINE
  8
7
 10
345.45450
 20
229.49980
 11
342.92621
 21
223.49930
  0
LINE
  8
7
 10
342.92621
 20
223.49930
 11
337.86191
 21
241.50070
  0
LINE
  8
7
 10
337.86191
 20
241.50070
 11
339.78281
 21
241.50070
  0
LINE
  8
7
 10
339.78281
 20
241.50070
 11
343.26251
 21
229.13170
  0
LINE
  8
7
 10
351.12631
 20
241.50070
 11
353.04709
 21
241.50070
  0
LINE
  8
7
 10
353.04709
 20
241.50070
 11
347.98291
 21
223.49930
  0
LINE
  8
7
 10
343.26251
 20
229.13170
 11
345.45450
 21
234.33389
  0
LINE
  8
7
 10
345.45450
 20
234.33389
 11
347.64651
 21
229.13170
  0
LINE
  8
7
 10
347.64651
 20
229.13170
 11
351.12631
 21
241.50070
  0
LINE
  8
7
 10
415.58490
 20
369.45590
 11
415.58490
 21
371.36990
  0
LINE
  8
7
 10
402.59689
 20
375.43039
 11
402.59689
 21
369.45590
  0
LINE
  8
7
 10
402.59689
 20
369.45590
 11
402.72171
 21
368.29379
  0
LINE
  8
7
 10
402.72171
 20
368.29379
 11
403.09131
 21
367.17639
  0
LINE
  8
7
 10
403.09131
 20
367.17639
 11
403.69141
 21
366.14661
  0
LINE
  8
7
 10
403.69141
 20
366.14661
 11
404.49899
 21
365.24390
  0
LINE
  8
7
 10
404.49899
 20
365.24390
 11
405.48300
 21
364.50311
  0
LINE
  8
7
 10
405.48300
 20
364.50311
 11
406.60580
 21
363.95270
  0
LINE
  8
7
 10
406.60580
 20
363.95270
 11
407.82401
 21
363.61371
  0
LINE
  8
7
 10
407.82401
 20
363.61371
 11
409.09091
 21
363.49930
  0
LINE
  8
7
 10
409.09091
 20
363.49930
 11
410.35779
 21
363.61371
  0
LINE
  8
7
 10
410.35779
 20
363.61371
 11
411.57599
 21
363.95270
  0
LINE
  8
7
 10
411.57599
 20
363.95270
 11
412.69879
 21
364.50311
  0
LINE
  8
7
 10
412.69879
 20
364.50311
 11
413.68280
 21
365.24390
  0
LINE
  8
7
 10
413.68280
 20
365.24390
 11
414.49039
 21
366.14661
  0
LINE
  8
7
 10
414.49039
 20
366.14661
 11
415.09061
 21
367.17639
  0
LINE
  8
7
 10
415.09061
 20
367.17639
 11
415.46011
 21
368.29379
  0
LINE
  8
7
 10
415.46011
 20
368.29379
 11
415.58490
 21
369.45590
  0
LINE
  8
7
 10
415.58490
 20
375.43039
 11
415.46011
 21
376.59250
  0
LINE
  8
7
 10
415.46011
 20
376.59250
 11
415.09061
 21
377.70990
  0
LINE
  8
7
 10
415.09061
 20
377.70990
 11
414.49039
 21
378.73981
  0
LINE
  8
7
 10
414.49039
 20
378.73981
 11
413.68280
 21
379.64240
  0
LINE
  8
7
 10
413.68280
 20
379.64240
 11
412.69879
 21
380.38321
  0
LINE
  8
7
 10
412.69879
 20
380.38321
 11
411.57599
 21
380.93369
  0
LINE
  8
7
 10
411.57599
 20
380.93369
 11
410.35779
 21
381.27261
  0
LINE
  8
7
 10
410.35779
 20
381.27261
 11
409.09091
 21
381.38708
  0
LINE
  8
7
 10
409.09091
 20
381.38708
 11
407.82401
 21
381.27261
  0
LINE
  8
7
 10
407.82401
 20
381.27261
 11
406.60580
 21
380.93369
  0
LINE
  8
7
 10
406.60580
 20
380.93369
 11
405.48300
 21
380.38321
  0
LINE
  8
7
 10
405.48300
 20
380.38321
 11
404.49899
 21
379.64240
  0
LINE
  8
7
 10
404.49899
 20
379.64240
 11
403.69141
 21
378.73981
  0
LINE
  8
7
 10
403.69141
 20
378.73981
 11
403.09131
 21
377.70990
  0
LINE
  8
7
 10
403.09131
 20
377.70990
 11
402.72171
 21
376.59250
  0
LINE
  8
7
 10
402.72171
 20
376.59250
 11
402.59689
 21
375.43039
  0
LINE
  8
7
 10
413.24469
 20
375.43039
 11
415.58490
 21
375.43039
  0
LINE
  8
7
 10
413.16489
 20
376.17380
 11
413.24469
 21
375.43039
  0
LINE
  8
7
 10
412.92850
 20
376.88849
 11
413.16489
 21
376.17380
  0
LINE
  8
7
 10
412.54471
 20
377.54721
 11
412.92850
 21
376.88849
  0
LINE
  8
7
 10
412.02811
 20
378.12460
 11
412.54471
 21
377.54721
  0
LINE
  8
7
 10
411.39859
 20
378.59839
 11
412.02811
 21
378.12460
  0
LINE
  8
7
 10
410.68051
 20
378.95050
 11
411.39859
 21
378.59839
  0
LINE
  8
7
 10
409.90131
 20
379.16730
 11
410.68051
 21
378.95050
  0
LINE
  8
7
 10
409.09091
 20
379.24051
 11
409.90131
 21
379.16730
  0
LINE
  8
7
 10
408.28049
 20
379.16730
 11
409.09091
 21
379.24051
  0
LINE
  8
7
 10
407.50131
 20
378.95050
 11
408.28049
 21
379.16730
  0
LINE
  8
7
 10
406.78320
 20
378.59839
 11
407.50131
 21
378.95050
  0
LINE
  8
7
 10
406.15369
 20
378.12460
 11
406.78320
 21
378.59839
  0
LINE
  8
7
 10
405.63721
 20
377.54721
 11
406.15369
 21
378.12460
  0
LINE
  8
7
 10
405.25330
 20
376.88849
 11
405.63721
 21
377.54721
  0
LINE
  8
7
 10
405.01691
 20
376.17380
 11
405.25330
 21
376.88849
  0
LINE
  8
7
 10
404.93710
 20
375.43039
 11
405.01691
 21
376.17380
  0
LINE
  8
7
 10
404.93710
 20
369.45590
 11
404.93710
 21
375.43039
  0
LINE
  8
7
 10
405.01691
 20
368.71259
 11
404.93710
 21
369.45590
  0
LINE
  8
7
 10
405.25330
 20
367.99789
 11
405.01691
 21
368.71259
  0
LINE
  8
7
 10
405.63721
 20
367.33911
 11
405.25330
 21
367.99789
  0
LINE
  8
7
 10
406.15369
 20
366.76181
 11
405.63721
 21
367.33911
  0
LINE
  8
7
 10
406.78320
 20
366.28790
 11
406.15369
 21
366.76181
  0
LINE
  8
7
 10
407.50131
 20
365.93579
 11
406.78320
 21
366.28790
  0
LINE
  8
7
 10
408.28049
 20
365.71899
 11
407.50131
 21
365.93579
  0
LINE
  8
7
 10
409.09091
 20
365.64581
 11
408.28049
 21
365.71899
  0
LINE
  8
7
 10
409.90131
 20
365.71899
 11
409.09091
 21
365.64581
  0
LINE
  8
7
 10
410.68051
 20
365.93579
 11
409.90131
 21
365.71899
  0
LINE
  8
7
 10
411.39859
 20
366.28790
 11
410.68051
 21
365.93579
  0
LINE
  8
7
 10
412.02811
 20
366.76181
 11
411.39859
 21
366.28790
  0
LINE
  8
7
 10
412.54471
 20
367.33911
 11
412.02811
 21
366.76181
  0
LINE
  8
7
 10
412.92850
 20
367.99789
 11
412.54471
 21
367.33911
  0
LINE
  8
7
 10
413.16489
 20
368.71259
 11
412.92850
 21
367.99789
  0
LINE
  8
7
 10
413.24469
 20
369.45590
 11
413.16489
 21
368.71259
  0
LINE
  8
7
 10
410.90451
 20
369.45590
 11
413.24469
 21
369.45590
  0
LINE
  8
7
 10
410.90451
 20
371.36990
 11
410.90451
 21
369.45590
  0
LINE
  8
7
 10
415.58490
 20
371.36990
 11
410.90451
 21
371.36990
  0
LINE
  8
7
 10
86.97290
 20
332.74149
 11
86.97290
 21
344.34061
  0
LINE
  8
7
 10
97.46940
 20
335.69989
 11
97.46940
 21
339.30011
  0
LINE
  8
7
 10
84.34880
 20
332.74149
 11
86.97290
 21
332.74149
  0
LINE
  8
7
 10
90.92530
 20
330.75629
 11
89.84920
 21
330.65939
  0
LINE
  8
7
 10
91.96010
 20
331.04309
 11
90.92530
 21
330.75629
  0
LINE
  8
7
 10
92.91380
 20
331.50891
 11
91.96010
 21
331.04309
  0
LINE
  8
7
 10
93.74970
 20
332.13571
 11
92.91380
 21
331.50891
  0
LINE
  8
7
 10
94.43570
 20
332.89951
 11
93.74970
 21
332.13571
  0
LINE
  8
7
 10
94.94550
 20
333.77100
 11
94.43570
 21
332.89951
  0
LINE
  8
7
 10
95.25940
 20
334.71649
 11
94.94550
 21
333.77100
  0
LINE
  8
7
 10
95.36540
 20
335.69989
 11
95.25940
 21
334.71649
  0
LINE
  8
7
 10
95.36540
 20
339.30011
 11
95.36540
 21
335.69989
  0
LINE
  8
7
 10
95.25940
 20
340.28351
 11
95.36540
 21
339.30011
  0
LINE
  8
7
 10
94.94550
 20
341.22900
 11
95.25940
 21
340.28351
  0
LINE
  8
7
 10
94.43570
 20
342.10040
 11
94.94550
 21
341.22900
  0
LINE
  8
7
 10
93.74970
 20
342.86429
 11
94.43570
 21
342.10040
  0
LINE
  8
7
 10
92.91380
 20
343.49109
 11
93.74970
 21
342.86429
  0
LINE
  8
7
 10
91.96010
 20
343.95691
 11
92.91380
 21
343.49109
  0
LINE
  8
7
 10
90.92530
 20
344.24371
 11
91.96010
 21
343.95691
  0
LINE
  8
7
 10
89.84920
 20
344.34061
 11
90.92530
 21
344.24371
  0
LINE
  8
7
 10
86.97290
 20
344.34061
 11
89.84920
 21
344.34061
  0
LINE
  8
7
 10
97.46940
 20
339.30011
 11
97.31790
 21
340.70490
  0
LINE
  8
7
 10
97.31790
 20
340.70490
 11
96.86950
 21
342.05569
  0
LINE
  8
7
 10
96.86950
 20
342.05569
 11
96.14130
 21
343.30060
  0
LINE
  8
7
 10
96.14130
 20
343.30060
 11
95.16130
 21
344.39169
  0
LINE
  8
7
 10
95.16130
 20
344.39169
 11
93.96720
 21
345.28720
  0
LINE
  8
7
 10
93.96720
 20
345.28720
 11
92.60480
 21
345.95261
  0
LINE
  8
7
 10
92.60480
 20
345.95261
 11
91.12650
 21
346.36240
  0
LINE
  8
7
 10
91.12650
 20
346.36240
 11
89.58920
 21
346.50070
  0
LINE
  8
7
 10
89.58920
 20
328.49930
 11
91.12650
 21
328.63760
  0
LINE
  8
7
 10
91.12650
 20
328.63760
 11
92.60480
 21
329.04739
  0
LINE
  8
7
 10
92.60480
 20
329.04739
 11
93.96720
 21
329.71280
  0
LINE
  8
7
 10
93.96720
 20
329.71280
 11
95.16130
 21
330.60831
  0
LINE
  8
7
 10
95.16130
 20
330.60831
 11
96.14130
 21
331.69940
  0
LINE
  8
7
 10
96.14130
 20
331.69940
 11
96.86950
 21
332.94431
  0
LINE
  8
7
 10
96.86950
 20
332.94431
 11
97.31790
 21
334.29510
  0
LINE
  8
7
 10
97.31790
 20
334.29510
 11
97.46940
 21
335.69989
  0
LINE
  8
7
 10
84.34880
 20
346.50070
 11
84.34880
 21
332.74149
  0
LINE
  8
7
 10
89.58920
 20
346.50070
 11
84.34880
 21
346.50070
  0
LINE
  8
7
 10
89.84920
 20
330.65939
 11
84.34880
 21
330.65939
  0
LINE
  8
7
 10
84.34880
 20
330.65939
 11
84.34880
 21
328.49930
  0
LINE
  8
7
 10
84.34880
 20
328.49930
 11
89.58920
 21
328.49930
  0
LINE
  8
7
 10
86.97290
 20
192.74150
 11
86.97290
 21
204.34061
  0
LINE
  8
7
 10
97.46940
 20
195.69991
 11
97.46940
 21
199.30009
  0
LINE
  8
7
 10
84.34880
 20
192.74150
 11
86.97290
 21
192.74150
  0
LINE
  8
7
 10
90.92530
 20
190.75630
 11
89.84920
 21
190.65939
  0
LINE
  8
7
 10
91.96010
 20
191.04311
 11
90.92530
 21
190.75630
  0
LINE
  8
7
 10
92.91380
 20
191.50890
 11
91.96010
 21
191.04311
  0
LINE
  8
7
 10
93.74970
 20
192.13570
 11
92.91380
 21
191.50890
  0
LINE
  8
7
 10
94.43570
 20
192.89960
 11
93.74970
 21
192.13570
  0
LINE
  8
7
 10
94.94550
 20
193.77100
 11
94.43570
 21
192.89960
  0
LINE
  8
7
 10
95.25940
 20
194.71651
 11
94.94550
 21
193.77100
  0
LINE
  8
7
 10
95.36540
 20
195.69991
 11
95.25940
 21
194.71651
  0
LINE
  8
7
 10
95.36540
 20
199.30009
 11
95.36540
 21
195.69991
  0
LINE
  8
7
 10
95.25940
 20
200.28349
 11
95.36540
 21
199.30009
  0
LINE
  8
7
 10
94.94550
 20
201.22900
 11
95.25940
 21
200.28349
  0
LINE
  8
7
 10
94.43570
 20
202.10040
 11
94.94550
 21
201.22900
  0
LINE
  8
7
 10
93.74970
 20
202.86430
 11
94.43570
 21
202.10040
  0
LINE
  8
7
 10
92.91380
 20
203.49110
 11
93.74970
 21
202.86430
  0
LINE
  8
7
 10
91.96010
 20
203.95689
 11
92.91380
 21
203.49110
  0
LINE
  8
7
 10
90.92530
 20
204.24370
 11
91.96010
 21
203.95689
  0
LINE
  8
7
 10
89.84920
 20
204.34061
 11
90.92530
 21
204.24370
  0
LINE
  8
7
 10
86.97290
 20
204.34061
 11
89.84920
 21
204.34061
  0
LINE
  8
7
 10
97.46940
 20
199.30009
 11
97.31790
 21
200.70490
  0
LINE
  8
7
 10
97.31790
 20
200.70490
 11
96.86950
 21
202.05569
  0
LINE
  8
7
 10
96.86950
 20
202.05569
 11
96.14130
 21
203.30060
  0
LINE
  8
7
 10
96.14130
 20
203.30060
 11
95.16130
 21
204.39169
  0
LINE
  8
7
 10
95.16130
 20
204.39169
 11
93.96720
 21
205.28720
  0
LINE
  8
7
 10
93.96720
 20
205.28720
 11
92.60480
 21
205.95261
  0
LINE
  8
7
 10
92.60480
 20
205.95261
 11
91.12650
 21
206.36240
  0
LINE
  8
7
 10
91.12650
 20
206.36240
 11
89.58920
 21
206.50070
  0
LINE
  8
7
 10
89.58920
 20
188.49930
 11
91.12650
 21
188.63760
  0
LINE
  8
7
 10
91.12650
 20
188.63760
 11
92.60480
 21
189.04739
  0
LINE
  8
7
 10
92.60480
 20
189.04739
 11
93.96720
 21
189.71280
  0
LINE
  8
7
 10
93.96720
 20
189.71280
 11
95.16130
 21
190.60831
  0
LINE
  8
7
 10
95.16130
 20
190.60831
 11
96.14130
 21
191.69940
  0
LINE
  8
7
 10
96.14130
 20
191.69940
 11
96.86950
 21
192.94431
  0
LINE
  8
7
 10
96.86950
 20
192.94431
 11
97.31790
 21
194.29510
  0
LINE
  8
7
 10
97.31790
 20
194.29510
 11
97.46940
 21
195.69991
  0
LINE
  8
7
 10
84.34880
 20
206.50070
 11
84.34880
 21
192.74150
  0
LINE
  8
7
 10
89.58920
 20
206.50070
 11
84.34880
 21
206.50070
  0
LINE
  8
7
 10
89.84920
 20
190.65939
 11
84.34880
 21
190.65939
  0
LINE
  8
7
 10
84.34880
 20
190.65939
 11
84.34880
 21
188.49930
  0
LINE
  8
7
 10
84.34880
 20
188.49930
 11
89.58920
 21
188.49930
  0
LINE
  8
7
 10
123.66010
 20
344.34061
 11
116.86650
 21
344.34061
  0
LINE
  8
7
 10
116.86650
 20
338.58011
 11
123.66010
 21
338.58011
  0
LINE
  8
7
 10
118.97850
 20
328.49930
 11
116.86650
 21
328.49930
  0
LINE
  8
7
 10
116.86650
 20
328.49930
 11
116.86650
 21
338.58011
  0
LINE
  8
7
 10
116.86650
 20
346.50070
 11
123.66010
 21
346.50070
  0
LINE
  8
7
 10
123.66010
 20
336.41989
 11
128.58810
 21
328.49930
  0
LINE
  8
7
 10
128.58810
 20
328.49930
 11
126.08470
 21
328.49930
  0
LINE
  8
7
 10
126.08470
 20
328.49930
 11
121.15670
 21
336.41989
  0
LINE
  8
7
 10
121.15670
 20
336.41989
 11
118.97850
 21
336.41989
  0
LINE
  8
7
 10
118.97850
 20
336.41989
 11
118.97850
 21
328.49930
  0
LINE
  8
7
 10
116.86650
 20
344.34061
 11
116.86650
 21
346.50070
  0
LINE
  8
7
 10
123.66010
 20
338.58011
 11
124.20940
 21
338.63541
  0
LINE
  8
7
 10
124.20940
 20
338.63541
 11
124.73770
 21
338.79929
  0
LINE
  8
7
 10
124.73770
 20
338.79929
 11
125.22450
 21
339.06549
  0
LINE
  8
7
 10
125.22450
 20
339.06549
 11
125.65130
 21
339.42371
  0
LINE
  8
7
 10
125.65130
 20
339.42371
 11
126.00150
 21
339.86011
  0
LINE
  8
7
 10
126.00150
 20
339.86011
 11
126.26170
 21
340.35809
  0
LINE
  8
7
 10
126.26170
 20
340.35809
 11
126.42200
 21
340.89841
  0
LINE
  8
7
 10
126.42200
 20
340.89841
 11
126.47610
 21
341.46030
  0
LINE
  8
7
 10
126.47610
 20
341.46030
 11
126.42200
 21
342.02219
  0
LINE
  8
7
 10
126.42200
 20
342.02219
 11
126.26170
 21
342.56250
  0
LINE
  8
7
 10
126.26170
 20
342.56250
 11
126.00150
 21
343.06049
  0
LINE
  8
7
 10
126.00150
 20
343.06049
 11
125.65130
 21
343.49701
  0
LINE
  8
7
 10
125.65130
 20
343.49701
 11
125.22450
 21
343.85510
  0
LINE
  8
7
 10
125.22450
 20
343.85510
 11
124.73770
 21
344.12131
  0
LINE
  8
7
 10
124.73770
 20
344.12131
 11
124.20940
 21
344.28519
  0
LINE
  8
7
 10
124.20940
 20
344.28519
 11
123.66010
 21
344.34061
  0
LINE
  8
7
 10
124.62150
 20
336.51682
 11
123.66010
 21
336.41989
  0
LINE
  8
7
 10
125.54590
 20
336.80359
 11
124.62150
 21
336.51682
  0
LINE
  8
7
 10
126.39790
 20
337.26941
 11
125.54590
 21
336.80359
  0
LINE
  8
7
 10
127.14470
 20
337.89621
 11
126.39790
 21
337.26941
  0
LINE
  8
7
 10
127.75750
 20
338.66000
 11
127.14470
 21
337.89621
  0
LINE
  8
7
 10
128.21300
 20
339.53140
 11
127.75750
 21
338.66000
  0
LINE
  8
7
 10
128.49339
 20
340.47699
 11
128.21300
 21
339.53140
  0
LINE
  8
7
 10
128.58810
 20
341.46030
 11
128.49339
 21
340.47699
  0
LINE
  8
7
 10
128.49339
 20
342.44360
 11
128.58810
 21
341.46030
  0
LINE
  8
7
 10
128.21300
 20
343.38919
 11
128.49339
 21
342.44360
  0
LINE
  8
7
 10
127.75750
 20
344.26059
 11
128.21300
 21
343.38919
  0
LINE
  8
7
 10
127.14470
 20
345.02441
 11
127.75750
 21
344.26059
  0
LINE
  8
7
 10
126.39790
 20
345.65131
 11
127.14470
 21
345.02441
  0
LINE
  8
7
 10
125.54590
 20
346.11700
 11
126.39790
 21
345.65131
  0
LINE
  8
7
 10
124.62150
 20
346.40390
 11
125.54590
 21
346.11700
  0
LINE
  8
7
 10
123.66010
 20
346.50070
 11
124.62150
 21
346.40390
  0
LINE
  8
7
 10
314.56921
 20
344.34061
 11
307.77560
 21
344.34061
  0
LINE
  8
7
 10
307.77560
 20
338.58011
 11
314.56921
 21
338.58011
  0
LINE
  8
7
 10
309.88760
 20
328.49930
 11
307.77560
 21
328.49930
  0
LINE
  8
7
 10
307.77560
 20
328.49930
 11
307.77560
 21
338.58011
  0
LINE
  8
7
 10
307.77560
 20
346.50070
 11
314.56921
 21
346.50070
  0
LINE
  8
7
 10
314.56921
 20
336.41989
 11
319.49719
 21
328.49930
  0
LINE
  8
7
 10
319.49719
 20
328.49930
 11
316.99380
 21
328.49930
  0
LINE
  8
7
 10
316.99380
 20
328.49930
 11
312.06580
 21
336.41989
  0
LINE
  8
7
 10
312.06580
 20
336.41989
 11
309.88760
 21
336.41989
  0
LINE
  8
7
 10
309.88760
 20
336.41989
 11
309.88760
 21
328.49930
  0
LINE
  8
7
 10
307.77560
 20
344.34061
 11
307.77560
 21
346.50070
  0
LINE
  8
7
 10
314.56921
 20
338.58011
 11
315.11850
 21
338.63541
  0
LINE
  8
7
 10
315.11850
 20
338.63541
 11
315.64679
 21
338.79929
  0
LINE
  8
7
 10
315.64679
 20
338.79929
 11
316.13361
 21
339.06549
  0
LINE
  8
7
 10
316.13361
 20
339.06549
 11
316.56039
 21
339.42371
  0
LINE
  8
7
 10
316.56039
 20
339.42371
 11
316.91061
 21
339.86011
  0
LINE
  8
7
 10
316.91061
 20
339.86011
 11
317.17081
 21
340.35809
  0
LINE
  8
7
 10
317.17081
 20
340.35809
 11
317.33109
 21
340.89841
  0
LINE
  8
7
 10
317.33109
 20
340.89841
 11
317.38519
 21
341.46030
  0
LINE
  8
7
 10
317.38519
 20
341.46030
 11
317.33109
 21
342.02219
  0
LINE
  8
7
 10
317.33109
 20
342.02219
 11
317.17081
 21
342.56250
  0
LINE
  8
7
 10
317.17081
 20
342.56250
 11
316.91061
 21
343.06049
  0
LINE
  8
7
 10
316.91061
 20
343.06049
 11
316.56039
 21
343.49701
  0
LINE
  8
7
 10
316.56039
 20
343.49701
 11
316.13361
 21
343.85510
  0
LINE
  8
7
 10
316.13361
 20
343.85510
 11
315.64679
 21
344.12131
  0
LINE
  8
7
 10
315.64679
 20
344.12131
 11
315.11850
 21
344.28519
  0
LINE
  8
7
 10
315.11850
 20
344.28519
 11
314.56921
 21
344.34061
  0
LINE
  8
7
 10
315.53061
 20
336.51682
 11
314.56921
 21
336.41989
  0
LINE
  8
7
 10
316.45499
 20
336.80359
 11
315.53061
 21
336.51682
  0
LINE
  8
7
 10
317.30701
 20
337.26941
 11
316.45499
 21
336.80359
  0
LINE
  8
7
 10
318.05380
 20
337.89621
 11
317.30701
 21
337.26941
  0
LINE
  8
7
 10
318.66660
 20
338.66000
 11
318.05380
 21
337.89621
  0
LINE
  8
7
 10
319.12201
 20
339.53140
 11
318.66660
 21
338.66000
  0
LINE
  8
7
 10
319.40250
 20
340.47699
 11
319.12201
 21
339.53140
  0
LINE
  8
7
 10
319.49719
 20
341.46030
 11
319.40250
 21
340.47699
  0
LINE
  8
7
 10
319.40250
 20
342.44360
 11
319.49719
 21
341.46030
  0
LINE
  8
7
 10
319.12201
 20
343.38919
 11
319.40250
 21
342.44360
  0
LINE
  8
7
 10
318.66660
 20
344.26059
 11
319.12201
 21
343.38919
  0
LINE
  8
7
 10
318.05380
 20
345.02441
 11
318.66660
 21
344.26059
  0
LINE
  8
7
 10
317.30701
 20
345.65131
 11
318.05380
 21
345.02441
  0
LINE
  8
7
 10
316.45499
 20
346.11700
 11
317.30701
 21
345.65131
  0
LINE
  8
7
 10
315.53061
 20
346.40390
 11
316.45499
 21
346.11700
  0
LINE
  8
7
 10
314.56921
 20
346.50070
 11
315.53061
 21
346.40390
  0
LINE
  8
7
 10
155.47830
 20
309.34061
 11
148.68469
 21
309.34061
  0
LINE
  8
7
 10
148.68469
 20
303.58011
 11
155.47830
 21
303.58011
  0
LINE
  8
7
 10
150.79671
 20
293.49930
 11
148.68469
 21
293.49930
  0
LINE
  8
7
 10
148.68469
 20
293.49930
 11
148.68469
 21
303.58011
  0
LINE
  8
7
 10
148.68469
 20
311.50070
 11
155.47830
 21
311.50070
  0
LINE
  8
7
 10
155.47830
 20
301.41989
 11
160.40630
 21
293.49930
  0
LINE
  8
7
 10
160.40630
 20
293.49930
 11
157.90289
 21
293.49930
  0
LINE
  8
7
 10
157.90289
 20
293.49930
 11
152.97490
 21
301.41989
  0
LINE
  8
7
 10
152.97490
 20
301.41989
 11
150.79671
 21
301.41989
  0
LINE
  8
7
 10
150.79671
 20
301.41989
 11
150.79671
 21
293.49930
  0
LINE
  8
7
 10
148.68469
 20
309.34061
 11
148.68469
 21
311.50070
  0
LINE
  8
7
 10
155.47830
 20
303.58011
 11
156.02760
 21
303.63541
  0
LINE
  8
7
 10
156.02760
 20
303.63541
 11
156.55589
 21
303.79929
  0
LINE
  8
7
 10
156.55589
 20
303.79929
 11
157.04269
 21
304.06549
  0
LINE
  8
7
 10
157.04269
 20
304.06549
 11
157.46950
 21
304.42371
  0
LINE
  8
7
 10
157.46950
 20
304.42371
 11
157.81970
 21
304.86011
  0
LINE
  8
7
 10
157.81970
 20
304.86011
 11
158.07990
 21
305.35809
  0
LINE
  8
7
 10
158.07990
 20
305.35809
 11
158.24010
 21
305.89841
  0
LINE
  8
7
 10
158.24010
 20
305.89841
 11
158.29430
 21
306.46030
  0
LINE
  8
7
 10
158.29430
 20
306.46030
 11
158.24010
 21
307.02219
  0
LINE
  8
7
 10
158.24010
 20
307.02219
 11
158.07990
 21
307.56250
  0
LINE
  8
7
 10
158.07990
 20
307.56250
 11
157.81970
 21
308.06049
  0
LINE
  8
7
 10
157.81970
 20
308.06049
 11
157.46950
 21
308.49701
  0
LINE
  8
7
 10
157.46950
 20
308.49701
 11
157.04269
 21
308.85510
  0
LINE
  8
7
 10
157.04269
 20
308.85510
 11
156.55589
 21
309.12131
  0
LINE
  8
7
 10
156.55589
 20
309.12131
 11
156.02760
 21
309.28519
  0
LINE
  8
7
 10
156.02760
 20
309.28519
 11
155.47830
 21
309.34061
  0
LINE
  8
7
 10
156.43970
 20
301.51682
 11
155.47830
 21
301.41989
  0
LINE
  8
7
 10
157.36411
 20
301.80359
 11
156.43970
 21
301.51682
  0
LINE
  8
7
 10
158.21609
 20
302.26941
 11
157.36411
 21
301.80359
  0
LINE
  8
7
 10
158.96291
 20
302.89621
 11
158.21609
 21
302.26941
  0
LINE
  8
7
 10
159.57570
 20
303.66000
 11
158.96291
 21
302.89621
  0
LINE
  8
7
 10
160.03110
 20
304.53140
 11
159.57570
 21
303.66000
  0
LINE
  8
7
 10
160.31160
 20
305.47699
 11
160.03110
 21
304.53140
  0
LINE
  8
7
 10
160.40630
 20
306.46030
 11
160.31160
 21
305.47699
  0
LINE
  8
7
 10
160.31160
 20
307.44360
 11
160.40630
 21
306.46030
  0
LINE
  8
7
 10
160.03110
 20
308.38919
 11
160.31160
 21
307.44360
  0
LINE
  8
7
 10
159.57570
 20
309.26059
 11
160.03110
 21
308.38919
  0
LINE
  8
7
 10
158.96291
 20
310.02441
 11
159.57570
 21
309.26059
  0
LINE
  8
7
 10
158.21609
 20
310.65131
 11
158.96291
 21
310.02441
  0
LINE
  8
7
 10
157.36411
 20
311.11700
 11
158.21609
 21
310.65131
  0
LINE
  8
7
 10
156.43970
 20
311.40390
 11
157.36411
 21
311.11700
  0
LINE
  8
7
 10
155.47830
 20
311.50070
 11
156.43970
 21
311.40390
  0
LINE
  8
7
 10
123.66010
 20
204.34061
 11
116.86650
 21
204.34061
  0
LINE
  8
7
 10
116.86650
 20
198.58009
 11
123.66010
 21
198.58009
  0
LINE
  8
7
 10
118.97850
 20
188.49930
 11
116.86650
 21
188.49930
  0
LINE
  8
7
 10
116.86650
 20
188.49930
 11
116.86650
 21
198.58009
  0
LINE
  8
7
 10
116.86650
 20
206.50070
 11
123.66010
 21
206.50070
  0
LINE
  8
7
 10
123.66010
 20
196.41991
 11
128.58810
 21
188.49930
  0
LINE
  8
7
 10
128.58810
 20
188.49930
 11
126.08470
 21
188.49930
  0
LINE
  8
7
 10
126.08470
 20
188.49930
 11
121.15670
 21
196.41991
  0
LINE
  8
7
 10
121.15670
 20
196.41991
 11
118.97850
 21
196.41991
  0
LINE
  8
7
 10
118.97850
 20
196.41991
 11
118.97850
 21
188.49930
  0
LINE
  8
7
 10
116.86650
 20
204.34061
 11
116.86650
 21
206.50070
  0
LINE
  8
7
 10
123.66010
 20
198.58009
 11
124.20940
 21
198.63541
  0
LINE
  8
7
 10
124.20940
 20
198.63541
 11
124.73770
 21
198.79930
  0
LINE
  8
7
 10
124.73770
 20
198.79930
 11
125.22450
 21
199.06551
  0
LINE
  8
7
 10
125.22450
 20
199.06551
 11
125.65130
 21
199.42371
  0
LINE
  8
7
 10
125.65130
 20
199.42371
 11
126.00150
 21
199.86011
  0
LINE
  8
7
 10
126.00150
 20
199.86011
 11
126.26170
 21
200.35809
  0
LINE
  8
7
 10
126.26170
 20
200.35809
 11
126.42200
 21
200.89841
  0
LINE
  8
7
 10
126.42200
 20
200.89841
 11
126.47610
 21
201.46030
  0
LINE
  8
7
 10
126.47610
 20
201.46030
 11
126.42200
 21
202.02220
  0
LINE
  8
7
 10
126.42200
 20
202.02220
 11
126.26170
 21
202.56250
  0
LINE
  8
7
 10
126.26170
 20
202.56250
 11
126.00150
 21
203.06050
  0
LINE
  8
7
 10
126.00150
 20
203.06050
 11
125.65130
 21
203.49699
  0
LINE
  8
7
 10
125.65130
 20
203.49699
 11
125.22450
 21
203.85510
  0
LINE
  8
7
 10
125.22450
 20
203.85510
 11
124.73770
 21
204.12131
  0
LINE
  8
7
 10
124.73770
 20
204.12131
 11
124.20940
 21
204.28520
  0
LINE
  8
7
 10
124.20940
 20
204.28520
 11
123.66010
 21
204.34061
  0
LINE
  8
7
 10
124.62150
 20
196.51680
 11
123.66010
 21
196.41991
  0
LINE
  8
7
 10
125.54590
 20
196.80360
 11
124.62150
 21
196.51680
  0
LINE
  8
7
 10
126.39790
 20
197.26939
 11
125.54590
 21
196.80360
  0
LINE
  8
7
 10
127.14470
 20
197.89619
 11
126.39790
 21
197.26939
  0
LINE
  8
7
 10
127.75750
 20
198.66000
 11
127.14470
 21
197.89619
  0
LINE
  8
7
 10
128.21300
 20
199.53140
 11
127.75750
 21
198.66000
  0
LINE
  8
7
 10
128.49339
 20
200.47701
 11
128.21300
 21
199.53140
  0
LINE
  8
7
 10
128.58810
 20
201.46030
 11
128.49339
 21
200.47701
  0
LINE
  8
7
 10
128.49339
 20
202.44360
 11
128.58810
 21
201.46030
  0
LINE
  8
7
 10
128.21300
 20
203.38921
 11
128.49339
 21
202.44360
  0
LINE
  8
7
 10
127.75750
 20
204.26060
 11
128.21300
 21
203.38921
  0
LINE
  8
7
 10
127.14470
 20
205.02440
 11
127.75750
 21
204.26060
  0
LINE
  8
7
 10
126.39790
 20
205.65131
 11
127.14470
 21
205.02440
  0
LINE
  8
7
 10
125.54590
 20
206.11700
 11
126.39790
 21
205.65131
  0
LINE
  8
7
 10
124.62150
 20
206.40390
 11
125.54590
 21
206.11700
  0
LINE
  8
7
 10
123.66010
 20
206.50070
 11
124.62150
 21
206.40390
  0
LINE
  8
7
 10
410.02371
 20
204.34061
 11
403.23010
 21
204.34061
  0
LINE
  8
7
 10
403.23010
 20
198.58009
 11
410.02371
 21
198.58009
  0
LINE
  8
7
 10
405.34210
 20
188.49930
 11
403.23010
 21
188.49930
  0
LINE
  8
7
 10
403.23010
 20
188.49930
 11
403.23010
 21
198.58009
  0
LINE
  8
7
 10
403.23010
 20
206.50070
 11
410.02371
 21
206.50070
  0
LINE
  8
7
 10
410.02371
 20
196.41991
 11
414.95169
 21
188.49930
  0
LINE
  8
7
 10
414.95169
 20
188.49930
 11
412.44830
 21
188.49930
  0
LINE
  8
7
 10
412.44830
 20
188.49930
 11
407.52029
 21
196.41991
  0
LINE
  8
7
 10
407.52029
 20
196.41991
 11
405.34210
 21
196.41991
  0
LINE
  8
7
 10
405.34210
 20
196.41991
 11
405.34210
 21
188.49930
  0
LINE
  8
7
 10
403.23010
 20
204.34061
 11
403.23010
 21
206.50070
  0
LINE
  8
7
 10
410.02371
 20
198.58009
 11
410.57309
 21
198.63541
  0
LINE
  8
7
 10
410.57309
 20
198.63541
 11
411.10129
 21
198.79930
  0
LINE
  8
7
 10
411.10129
 20
198.79930
 11
411.58820
 21
199.06551
  0
LINE
  8
7
 10
411.58820
 20
199.06551
 11
412.01489
 21
199.42371
  0
LINE
  8
7
 10
412.01489
 20
199.42371
 11
412.36511
 21
199.86011
  0
LINE
  8
7
 10
412.36511
 20
199.86011
 11
412.62540
 21
200.35809
  0
LINE
  8
7
 10
412.62540
 20
200.35809
 11
412.78561
 21
200.89841
  0
LINE
  8
7
 10
412.78561
 20
200.89841
 11
412.83969
 21
201.46030
  0
LINE
  8
7
 10
412.83969
 20
201.46030
 11
412.78561
 21
202.02220
  0
LINE
  8
7
 10
412.78561
 20
202.02220
 11
412.62540
 21
202.56250
  0
LINE
  8
7
 10
412.62540
 20
202.56250
 11
412.36511
 21
203.06050
  0
LINE
  8
7
 10
412.36511
 20
203.06050
 11
412.01489
 21
203.49699
  0
LINE
  8
7
 10
412.01489
 20
203.49699
 11
411.58820
 21
203.85510
  0
LINE
  8
7
 10
411.58820
 20
203.85510
 11
411.10129
 21
204.12131
  0
LINE
  8
7
 10
411.10129
 20
204.12131
 11
410.57309
 21
204.28520
  0
LINE
  8
7
 10
410.57309
 20
204.28520
 11
410.02371
 21
204.34061
  0
LINE
  8
7
 10
410.98511
 20
196.51680
 11
410.02371
 21
196.41991
  0
LINE
  8
7
 10
411.90961
 20
196.80360
 11
410.98511
 21
196.51680
  0
LINE
  8
7
 10
412.76160
 20
197.26939
 11
411.90961
 21
196.80360
  0
LINE
  8
7
 10
413.50830
 20
197.89619
 11
412.76160
 21
197.26939
  0
LINE
  8
7
 10
414.12119
 20
198.66000
 11
413.50830
 21
197.89619
  0
LINE
  8
7
 10
414.57660
 20
199.53140
 11
414.12119
 21
198.66000
  0
LINE
  8
7
 10
414.85699
 20
200.47701
 11
414.57660
 21
199.53140
  0
LINE
  8
7
 10
414.95169
 20
201.46030
 11
414.85699
 21
200.47701
  0
LINE
  8
7
 10
414.85699
 20
202.44360
 11
414.95169
 21
201.46030
  0
LINE
  8
7
 10
414.57660
 20
203.38921
 11
414.85699
 21
202.44360
  0
LINE
  8
7
 10
414.12119
 20
204.26060
 11
414.57660
 21
203.38921
  0
LINE
  8
7
 10
413.50830
 20
205.02440
 11
414.12119
 21
204.26060
  0
LINE
  8
7
 10
412.76160
 20
205.65131
 11
413.50830
 21
205.02440
  0
LINE
  8
7
 10
411.90961
 20
206.11700
 11
412.76160
 21
205.65131
  0
LINE
  8
7
 10
410.98511
 20
206.40390
 11
411.90961
 21
206.11700
  0
LINE
  8
7
 10
410.02371
 20
206.50070
 11
410.98511
 21
206.40390
  0
LINE
  8
7
 10
410.02371
 20
99.34050
 11
403.23010
 21
99.34050
  0
LINE
  8
7
 10
403.23010
 20
93.58010
 11
410.02371
 21
93.58010
  0
LINE
  8
7
 10
405.34210
 20
83.49930
 11
403.23010
 21
83.49930
  0
LINE
  8
7
 10
403.23010
 20
83.49930
 11
403.23010
 21
93.58010
  0
LINE
  8
7
 10
403.23010
 20
101.50070
 11
410.02371
 21
101.50070
  0
LINE
  8
7
 10
410.02371
 20
91.41990
 11
414.95169
 21
83.49930
  0
LINE
  8
7
 10
414.95169
 20
83.49930
 11
412.44830
 21
83.49930
  0
LINE
  8
7
 10
412.44830
 20
83.49930
 11
407.52029
 21
91.41990
  0
LINE
  8
7
 10
407.52029
 20
91.41990
 11
405.34210
 21
91.41990
  0
LINE
  8
7
 10
405.34210
 20
91.41990
 11
405.34210
 21
83.49930
  0
LINE
  8
7
 10
403.23010
 20
99.34050
 11
403.23010
 21
101.50070
  0
LINE
  8
7
 10
410.02371
 20
93.58010
 11
410.57309
 21
93.63540
  0
LINE
  8
7
 10
410.57309
 20
93.63540
 11
411.10129
 21
93.79930
  0
LINE
  8
7
 10
411.10129
 20
93.79930
 11
411.58820
 21
94.06550
  0
LINE
  8
7
 10
411.58820
 20
94.06550
 11
412.01489
 21
94.42370
  0
LINE
  8
7
 10
412.01489
 20
94.42370
 11
412.36511
 21
94.86010
  0
LINE
  8
7
 10
412.36511
 20
94.86010
 11
412.62540
 21
95.35810
  0
LINE
  8
7
 10
412.62540
 20
95.35810
 11
412.78561
 21
95.89840
  0
LINE
  8
7
 10
412.78561
 20
95.89840
 11
412.83969
 21
96.46030
  0
LINE
  8
7
 10
412.83969
 20
96.46030
 11
412.78561
 21
97.02220
  0
LINE
  8
7
 10
412.78561
 20
97.02220
 11
412.62540
 21
97.56250
  0
LINE
  8
7
 10
412.62540
 20
97.56250
 11
412.36511
 21
98.06050
  0
LINE
  8
7
 10
412.36511
 20
98.06050
 11
412.01489
 21
98.49690
  0
LINE
  8
7
 10
412.01489
 20
98.49690
 11
411.58820
 21
98.85510
  0
LINE
  8
7
 10
411.58820
 20
98.85510
 11
411.10129
 21
99.12130
  0
LINE
  8
7
 10
411.10129
 20
99.12130
 11
410.57309
 21
99.28520
  0
LINE
  8
7
 10
410.57309
 20
99.28520
 11
410.02371
 21
99.34050
  0
LINE
  8
7
 10
410.98511
 20
91.51680
 11
410.02371
 21
91.41990
  0
LINE
  8
7
 10
411.90961
 20
91.80360
 11
410.98511
 21
91.51680
  0
LINE
  8
7
 10
412.76160
 20
92.26940
 11
411.90961
 21
91.80360
  0
LINE
  8
7
 10
413.50830
 20
92.89620
 11
412.76160
 21
92.26940
  0
LINE
  8
7
 10
414.12119
 20
93.66000
 11
413.50830
 21
92.89620
  0
LINE
  8
7
 10
414.57660
 20
94.53140
 11
414.12119
 21
93.66000
  0
LINE
  8
7
 10
414.85699
 20
95.47700
 11
414.57660
 21
94.53140
  0
LINE
  8
7
 10
414.95169
 20
96.46030
 11
414.85699
 21
95.47700
  0
LINE
  8
7
 10
414.85699
 20
97.44370
 11
414.95169
 21
96.46030
  0
LINE
  8
7
 10
414.57660
 20
98.38920
 11
414.85699
 21
97.44370
  0
LINE
  8
7
 10
414.12119
 20
99.26060
 11
414.57660
 21
98.38920
  0
LINE
  8
7
 10
413.50830
 20
100.02440
 11
414.12119
 21
99.26060
  0
LINE
  8
7
 10
412.76160
 20
100.65130
 11
413.50830
 21
100.02440
  0
LINE
  8
7
 10
411.90961
 20
101.11700
 11
412.76160
 21
100.65130
  0
LINE
  8
7
 10
410.98511
 20
101.40390
 11
411.90961
 21
101.11700
  0
LINE
  8
7
 10
410.02371
 20
101.50070
 11
410.98511
 21
101.40390
  0
LINE
  8
7
 10
219.48730
 20
328.49930
 11
216.87740
 21
328.49930
  0
LINE
  8
7
 10
213.64529
 20
346.50070
 11
218.18240
 21
332.74521
  0
LINE
  8
7
 10
225.42490
 20
346.50070
 11
219.48730
 21
328.49930
  0
LINE
  8
7
 10
216.87740
 20
328.49930
 11
210.93980
 21
346.50070
  0
LINE
  8
7
 10
210.93980
 20
346.50070
 11
213.64529
 21
346.50070
  0
LINE
  8
7
 10
218.18240
 20
332.74521
 11
222.71950
 21
346.50070
  0
LINE
  8
7
 10
222.71950
 20
346.50070
 11
225.42490
 21
346.50070
  0
LINE
  8
7
 10
92.21460
 20
293.49930
 11
89.60470
 21
293.49930
  0
LINE
  8
7
 10
86.37250
 20
311.50070
 11
90.90960
 21
297.74521
  0
LINE
  8
7
 10
98.15220
 20
311.50070
 11
92.21460
 21
293.49930
  0
LINE
  8
7
 10
89.60470
 20
293.49930
 11
83.66710
 21
311.50070
  0
LINE
  8
7
 10
83.66710
 20
311.50070
 11
86.37250
 21
311.50070
  0
LINE
  8
7
 10
90.90960
 20
297.74521
 11
95.44670
 21
311.50070
  0
LINE
  8
7
 10
95.44670
 20
311.50070
 11
98.15220
 21
311.50070
  0
LINE
  8
7
 10
314.94189
 20
188.49930
 11
312.33200
 21
188.49930
  0
LINE
  8
7
 10
309.09979
 20
206.50070
 11
313.63690
 21
192.74519
  0
LINE
  8
7
 10
320.87949
 20
206.50070
 11
314.94189
 21
188.49930
  0
LINE
  8
7
 10
312.33200
 20
188.49930
 11
306.39441
 21
206.50070
  0
LINE
  8
7
 10
306.39441
 20
206.50070
 11
309.09979
 21
206.50070
  0
LINE
  8
7
 10
313.63690
 20
192.74519
 11
318.17401
 21
206.50070
  0
LINE
  8
7
 10
318.17401
 20
206.50070
 11
320.87949
 21
206.50070
  0
LINE
  8
7
 10
403.23010
 20
346.50070
 11
405.34210
 21
346.50070
  0
LINE
  8
7
 10
405.34210
 20
346.50070
 11
405.34210
 21
330.65939
  0
LINE
  8
7
 10
405.34210
 20
330.65939
 11
414.95169
 21
330.65939
  0
LINE
  8
7
 10
414.95169
 20
330.65939
 11
414.95169
 21
328.49930
  0
LINE
  8
7
 10
414.95169
 20
328.49930
 11
403.23010
 21
328.49930
  0
LINE
  8
7
 10
403.23010
 20
328.49930
 11
403.23010
 21
346.50070
  0
LINE
  8
7
 10
275.95740
 20
276.50070
 11
278.06940
 21
276.50070
  0
LINE
  8
7
 10
278.06940
 20
276.50070
 11
278.06940
 21
260.65939
  0
LINE
  8
7
 10
278.06940
 20
260.65939
 11
287.67899
 21
260.65939
  0
LINE
  8
7
 10
287.67899
 20
260.65939
 11
287.67899
 21
258.49930
  0
LINE
  8
7
 10
287.67899
 20
258.49930
 11
275.95740
 21
258.49930
  0
LINE
  8
7
 10
275.95740
 20
258.49930
 11
275.95740
 21
276.50070
  0
LINE
  8
7
 10
277.54831
 20
171.50070
 11
279.66031
 21
171.50070
  0
LINE
  8
7
 10
279.66031
 20
171.50070
 11
279.66031
 21
155.65939
  0
LINE
  8
7
 10
279.66031
 20
155.65939
 11
289.26990
 21
155.65939
  0
LINE
  8
7
 10
289.26990
 20
155.65939
 11
289.26990
 21
153.49930
  0
LINE
  8
7
 10
289.26990
 20
153.49930
 11
277.54831
 21
153.49930
  0
LINE
  8
7
 10
277.54831
 20
153.49930
 11
277.54831
 21
171.50070
  0
LINE
  8
7
 10
371.41190
 20
136.50070
 11
373.52390
 21
136.50070
  0
LINE
  8
7
 10
373.52390
 20
136.50070
 11
373.52390
 21
120.65940
  0
LINE
  8
7
 10
373.52390
 20
120.65940
 11
383.13351
 21
120.65940
  0
LINE
  8
7
 10
383.13351
 20
120.65940
 11
383.13351
 21
118.49930
  0
LINE
  8
7
 10
383.13351
 20
118.49930
 11
371.41190
 21
118.49930
  0
LINE
  8
7
 10
371.41190
 20
118.49930
 11
371.41190
 21
136.50070
  0
LINE
  8
7
 10
116.31060
 20
299.49371
 11
116.31060
 21
305.50620
  0
LINE
  8
7
 10
128.94521
 20
299.49371
 11
128.94521
 21
305.50620
  0
LINE
  8
7
 10
126.50560
 20
310.23859
 11
125.39650
 21
308.29910
  0
LINE
  8
7
 10
127.36370
 20
309.47351
 11
126.16000
 21
307.36859
  0
LINE
  8
7
 10
119.20010
 20
297.46341
 11
118.01760
 21
295.39551
  0
LINE
  8
7
 10
119.99400
 20
296.58591
 11
118.89240
 21
294.65948
  0
LINE
  8
7
 10
126.61110
 20
306.15140
 11
126.66870
 21
305.50620
  0
LINE
  8
7
 10
126.43990
 20
306.77811
 11
126.61110
 21
306.15140
  0
LINE
  8
7
 10
126.16000
 20
307.36859
 11
126.43990
 21
306.77811
  0
LINE
  8
7
 10
125.39650
 20
308.29910
 11
124.77780
 21
308.75281
  0
LINE
  8
7
 10
124.77780
 20
308.75281
 11
124.07860
 21
309.08490
  0
LINE
  8
7
 10
124.07860
 20
309.08490
 11
123.32510
 21
309.28299
  0
LINE
  8
7
 10
123.32510
 20
309.28299
 11
122.54550
 21
309.33969
  0
LINE
  8
7
 10
122.54550
 20
309.33969
 11
121.76900
 21
309.25290
  0
LINE
  8
7
 10
121.76900
 20
309.25290
 11
121.02470
 21
309.02579
  0
LINE
  8
7
 10
121.02470
 20
309.02579
 11
120.34030
 21
308.66690
  0
LINE
  8
7
 10
120.34030
 20
308.66690
 11
119.74170
 21
308.18970
  0
LINE
  8
7
 10
119.74170
 20
308.18970
 11
119.25110
 21
307.61200
  0
LINE
  8
7
 10
119.25110
 20
307.61200
 11
118.88690
 21
306.95551
  0
LINE
  8
7
 10
118.88690
 20
306.95551
 11
118.66280
 21
306.24469
  0
LINE
  8
7
 10
118.66280
 20
306.24469
 11
118.58710
 21
305.50620
  0
LINE
  8
7
 10
118.58710
 20
305.50620
 11
118.58710
 21
299.49371
  0
LINE
  8
7
 10
118.58710
 20
299.49371
 11
118.65680
 21
298.78461
  0
LINE
  8
7
 10
118.65680
 20
298.78461
 11
118.86350
 21
298.09991
  0
LINE
  8
7
 10
118.86350
 20
298.09991
 11
119.20010
 21
297.46341
  0
LINE
  8
7
 10
120.62040
 20
296.16611
 11
119.99400
 21
296.58591
  0
LINE
  8
7
 10
121.31910
 20
295.86621
 11
120.62040
 21
296.16611
  0
LINE
  8
7
 10
122.06490
 20
295.69681
 11
121.31910
 21
295.86621
  0
LINE
  8
7
 10
122.83100
 20
295.66431
 11
122.06490
 21
295.69681
  0
LINE
  8
7
 10
123.58970
 20
295.76971
 11
122.83100
 21
295.66431
  0
LINE
  8
7
 10
124.31390
 20
296.00909
 11
123.58970
 21
295.76971
  0
LINE
  8
7
 10
124.97730
 20
296.37411
 11
124.31390
 21
296.00909
  0
LINE
  8
7
 10
125.55610
 20
296.85150
 11
124.97730
 21
296.37411
  0
LINE
  8
7
 10
126.02940
 20
297.42401
 11
125.55610
 21
296.85150
  0
LINE
  8
7
 10
126.38030
 20
298.07111
 11
126.02940
 21
297.42401
  0
LINE
  8
7
 10
126.59590
 20
298.76941
 11
126.38030
 21
298.07111
  0
LINE
  8
7
 10
126.66870
 20
299.49371
 11
126.59590
 21
298.76941
  0
LINE
  8
7
 10
126.66870
 20
305.50620
 11
126.66870
 21
299.49371
  0
LINE
  8
7
 10
116.42220
 20
298.37231
 11
116.31060
 21
299.49371
  0
LINE
  8
7
 10
116.75290
 20
297.29041
 11
116.42220
 21
298.37231
  0
LINE
  8
7
 10
117.29100
 20
296.28629
 11
116.75290
 21
297.29041
  0
LINE
  8
7
 10
118.01760
 20
295.39551
 11
117.29100
 21
296.28629
  0
LINE
  8
7
 10
118.89240
 20
294.65948
 11
119.98080
 21
294.05090
  0
LINE
  8
7
 10
119.98080
 20
294.05090
 11
121.17510
 21
293.65991
  0
LINE
  8
7
 10
121.17510
 20
293.65991
 11
122.42750
 21
293.50229
  0
LINE
  8
7
 10
122.42750
 20
293.50229
 11
123.68790
 21
293.58429
  0
LINE
  8
7
 10
123.68790
 20
293.58429
 11
124.90590
 21
293.90259
  0
LINE
  8
7
 10
124.90590
 20
293.90259
 11
126.03270
 21
294.44449
  0
LINE
  8
7
 10
126.03270
 20
294.44449
 11
127.02350
 21
295.18829
  0
LINE
  8
7
 10
127.02350
 20
295.18829
 11
127.83840
 21
296.10431
  0
LINE
  8
7
 10
127.83840
 20
296.10431
 11
128.44501
 21
297.15591
  0
LINE
  8
7
 10
128.44501
 20
297.15591
 11
128.81889
 21
298.30099
  0
LINE
  8
7
 10
128.81889
 20
298.30099
 11
128.94521
 21
299.49371
  0
LINE
  8
7
 10
128.94521
 20
305.50620
 11
128.84219
 21
306.58420
  0
LINE
  8
7
 10
128.84219
 20
306.58420
 11
128.53661
 21
307.62711
  0
LINE
  8
7
 10
128.53661
 20
307.62711
 11
128.03841
 21
308.60080
  0
LINE
  8
7
 10
128.03841
 20
308.60080
 11
127.36370
 21
309.47351
  0
LINE
  8
7
 10
125.42110
 20
310.88290
 11
126.50560
 21
310.23859
  0
LINE
  8
7
 10
124.22220
 20
311.30670
 11
125.42110
 21
310.88290
  0
LINE
  8
7
 10
122.95780
 20
311.49249
 11
124.22220
 21
311.30670
  0
LINE
  8
7
 10
121.67990
 20
311.43280
 11
122.95780
 21
311.49249
  0
LINE
  8
7
 10
120.44090
 20
311.13000
 11
121.67990
 21
311.43280
  0
LINE
  8
7
 10
119.29160
 20
310.59650
 11
120.44090
 21
311.13000
  0
LINE
  8
7
 10
118.27910
 20
309.85419
 11
119.29160
 21
310.59650
  0
LINE
  8
7
 10
117.44500
 20
308.93359
 11
118.27910
 21
309.85419
  0
LINE
  8
7
 10
116.82360
 20
307.87241
 11
117.44500
 21
308.93359
  0
LINE
  8
7
 10
116.44020
 20
306.71411
 11
116.82360
 21
307.87241
  0
LINE
  8
7
 10
116.31060
 20
305.50620
 11
116.44020
 21
306.71411
  0
LINE
  8
7
 10
212.05220
 20
311.50070
 11
212.05220
 21
299.49371
  0
LINE
  8
7
 10
214.26109
 20
311.50070
 11
212.05220
 21
311.50070
  0
LINE
  8
7
 10
224.31140
 20
311.50070
 11
222.10260
 21
311.50070
  0
LINE
  8
7
 10
224.31140
 20
299.49371
 11
224.31140
 21
311.50070
  0
LINE
  8
7
 10
214.26109
 20
299.49371
 11
214.26109
 21
311.50070
  0
LINE
  8
7
 10
214.33640
 20
298.74570
 11
214.26109
 21
299.49371
  0
LINE
  8
7
 10
214.55949
 20
298.02640
 11
214.33640
 21
298.74570
  0
LINE
  8
7
 10
214.92180
 20
297.36349
 11
214.55949
 21
298.02640
  0
LINE
  8
7
 10
215.40939
 20
296.78250
 11
214.92180
 21
297.36349
  0
LINE
  8
7
 10
216.00360
 20
296.30560
 11
215.40939
 21
296.78250
  0
LINE
  8
7
 10
216.68140
 20
295.95129
 11
216.00360
 21
296.30560
  0
LINE
  8
7
 10
217.41690
 20
295.73309
 11
216.68140
 21
295.95129
  0
LINE
  8
7
 10
218.18179
 20
295.65939
 11
217.41690
 21
295.73309
  0
LINE
  8
7
 10
218.94670
 20
295.73309
 11
218.18179
 21
295.65939
  0
LINE
  8
7
 10
219.68221
 20
295.95129
 11
218.94670
 21
295.73309
  0
LINE
  8
7
 10
220.36011
 20
296.30560
 11
219.68221
 21
295.95129
  0
LINE
  8
7
 10
220.95419
 20
296.78250
 11
220.36011
 21
296.30560
  0
LINE
  8
7
 10
221.44180
 20
297.36349
 11
220.95419
 21
296.78250
  0
LINE
  8
7
 10
221.80409
 20
298.02640
 11
221.44180
 21
297.36349
  0
LINE
  8
7
 10
222.02721
 20
298.74570
 11
221.80409
 21
298.02640
  0
LINE
  8
7
 10
222.10260
 20
299.49371
 11
222.02721
 21
298.74570
  0
LINE
  8
7
 10
222.10260
 20
311.50070
 11
222.10260
 21
299.49371
  0
LINE
  8
7
 10
212.05220
 20
299.49371
 11
212.17000
 21
298.32431
  0
LINE
  8
7
 10
212.17000
 20
298.32431
 11
212.51880
 21
297.19980
  0
LINE
  8
7
 10
212.51880
 20
297.19980
 11
213.08521
 21
296.16339
  0
LINE
  8
7
 10
213.08521
 20
296.16339
 11
213.84750
 21
295.25500
  0
LINE
  8
7
 10
213.84750
 20
295.25500
 11
214.77640
 21
294.50949
  0
LINE
  8
7
 10
214.77640
 20
294.50949
 11
215.83611
 21
293.95560
  0
LINE
  8
7
 10
215.83611
 20
293.95560
 11
216.98599
 21
293.61441
  0
LINE
  8
7
 10
216.98599
 20
293.61441
 11
218.18179
 21
293.49930
  0
LINE
  8
7
 10
218.18179
 20
293.49930
 11
219.37759
 21
293.61441
  0
LINE
  8
7
 10
219.37759
 20
293.61441
 11
220.52750
 21
293.95560
  0
LINE
  8
7
 10
220.52750
 20
293.95560
 11
221.58730
 21
294.50949
  0
LINE
  8
7
 10
221.58730
 20
294.50949
 11
222.51610
 21
295.25500
  0
LINE
  8
7
 10
222.51610
 20
295.25500
 11
223.27840
 21
296.16339
  0
LINE
  8
7
 10
223.27840
 20
296.16339
 11
223.84489
 21
297.19980
  0
LINE
  8
7
 10
223.84489
 20
297.19980
 11
224.19370
 21
298.32431
  0
LINE
  8
7
 10
224.19370
 20
298.32431
 11
224.31140
 21
299.49371
  0
LINE
  8
7
 10
339.32489
 20
101.50070
 11
339.32489
 21
89.49380
  0
LINE
  8
7
 10
341.53381
 20
101.50070
 11
339.32489
 21
101.50070
  0
LINE
  8
7
 10
351.58420
 20
101.50070
 11
349.37531
 21
101.50070
  0
LINE
  8
7
 10
351.58420
 20
89.49380
 11
351.58420
 21
101.50070
  0
LINE
  8
7
 10
341.53381
 20
89.49380
 11
341.53381
 21
101.50070
  0
LINE
  8
7
 10
341.60910
 20
88.74570
 11
341.53381
 21
89.49380
  0
LINE
  8
7
 10
341.83221
 20
88.02640
 11
341.60910
 21
88.74570
  0
LINE
  8
7
 10
342.19461
 20
87.36350
 11
341.83221
 21
88.02640
  0
LINE
  8
7
 10
342.68210
 20
86.78250
 11
342.19461
 21
87.36350
  0
LINE
  8
7
 10
343.27631
 20
86.30560
 11
342.68210
 21
86.78250
  0
LINE
  8
7
 10
343.95410
 20
85.95130
 11
343.27631
 21
86.30560
  0
LINE
  8
7
 10
344.68961
 20
85.73310
 11
343.95410
 21
85.95130
  0
LINE
  8
7
 10
345.45450
 20
85.65940
 11
344.68961
 21
85.73310
  0
LINE
  8
7
 10
346.21939
 20
85.73310
 11
345.45450
 21
85.65940
  0
LINE
  8
7
 10
346.95499
 20
85.95130
 11
346.21939
 21
85.73310
  0
LINE
  8
7
 10
347.63281
 20
86.30560
 11
346.95499
 21
85.95130
  0
LINE
  8
7
 10
348.22690
 20
86.78250
 11
347.63281
 21
86.30560
  0
LINE
  8
7
 10
348.71451
 20
87.36350
 11
348.22690
 21
86.78250
  0
LINE
  8
7
 10
349.07681
 20
88.02640
 11
348.71451
 21
87.36350
  0
LINE
  8
7
 10
349.29999
 20
88.74570
 11
349.07681
 21
88.02640
  0
LINE
  8
7
 10
349.37531
 20
89.49380
 11
349.29999
 21
88.74570
  0
LINE
  8
7
 10
349.37531
 20
101.50070
 11
349.37531
 21
89.49380
  0
LINE
  8
7
 10
339.32489
 20
89.49380
 11
339.44269
 21
88.32430
  0
LINE
  8
7
 10
339.44269
 20
88.32430
 11
339.79150
 21
87.19980
  0
LINE
  8
7
 10
339.79150
 20
87.19980
 11
340.35800
 21
86.16340
  0
LINE
  8
7
 10
340.35800
 20
86.16340
 11
341.12021
 21
85.25500
  0
LINE
  8
7
 10
341.12021
 20
85.25500
 11
342.04910
 21
84.50950
  0
LINE
  8
7
 10
342.04910
 20
84.50950
 11
343.10880
 21
83.95560
  0
LINE
  8
7
 10
343.10880
 20
83.95560
 11
344.25870
 21
83.61450
  0
LINE
  8
7
 10
344.25870
 20
83.61450
 11
345.45450
 21
83.49930
  0
LINE
  8
7
 10
345.45450
 20
83.49930
 11
346.65039
 21
83.61450
  0
LINE
  8
7
 10
346.65039
 20
83.61450
 11
347.80029
 21
83.95560
  0
LINE
  8
7
 10
347.80029
 20
83.95560
 11
348.85999
 21
84.50950
  0
LINE
  8
7
 10
348.85999
 20
84.50950
 11
349.78879
 21
85.25500
  0
LINE
  8
7
 10
349.78879
 20
85.25500
 11
350.55109
 21
86.16340
  0
LINE
  8
7
 10
350.55109
 20
86.16340
 11
351.11761
 21
87.19980
  0
LINE
  8
7
 10
351.11761
 20
87.19980
 11
351.46640
 21
88.32430
  0
LINE
  8
7
 10
351.46640
 20
88.32430
 11
351.58420
 21
89.49380
  0
LINE
  8
7
 10
243.87041
 20
101.50070
 11
243.87041
 21
89.49380
  0
LINE
  8
7
 10
246.07919
 20
101.50070
 11
243.87041
 21
101.50070
  0
LINE
  8
7
 10
256.12961
 20
101.50070
 11
253.92081
 21
101.50070
  0
LINE
  8
7
 10
256.12961
 20
89.49380
 11
256.12961
 21
101.50070
  0
LINE
  8
7
 10
246.07919
 20
89.49380
 11
246.07919
 21
101.50070
  0
LINE
  8
7
 10
246.15460
 20
88.74570
 11
246.07919
 21
89.49380
  0
LINE
  8
7
 10
246.37770
 20
88.02640
 11
246.15460
 21
88.74570
  0
LINE
  8
7
 10
246.74001
 20
87.36350
 11
246.37770
 21
88.02640
  0
LINE
  8
7
 10
247.22760
 20
86.78250
 11
246.74001
 21
87.36350
  0
LINE
  8
7
 10
247.82170
 20
86.30560
 11
247.22760
 21
86.78250
  0
LINE
  8
7
 10
248.49960
 20
85.95130
 11
247.82170
 21
86.30560
  0
LINE
  8
7
 10
249.23511
 20
85.73310
 11
248.49960
 21
85.95130
  0
LINE
  8
7
 10
250.00000
 20
85.65940
 11
249.23511
 21
85.73310
  0
LINE
  8
7
 10
250.76489
 20
85.73310
 11
250.00000
 21
85.65940
  0
LINE
  8
7
 10
251.50040
 20
85.95130
 11
250.76489
 21
85.73310
  0
LINE
  8
7
 10
252.17821
 20
86.30560
 11
251.50040
 21
85.95130
  0
LINE
  8
7
 10
252.77240
 20
86.78250
 11
252.17821
 21
86.30560
  0
LINE
  8
7
 10
253.25999
 20
87.36350
 11
252.77240
 21
86.78250
  0
LINE
  8
7
 10
253.62230
 20
88.02640
 11
253.25999
 21
87.36350
  0
LINE
  8
7
 10
253.84540
 20
88.74570
 11
253.62230
 21
88.02640
  0
LINE
  8
7
 10
253.92081
 20
89.49380
 11
253.84540
 21
88.74570
  0
LINE
  8
7
 10
253.92081
 20
101.50070
 11
253.92081
 21
89.49380
  0
LINE
  8
7
 10
243.87041
 20
89.49380
 11
243.98810
 21
88.32430
  0
LINE
  8
7
 10
243.98810
 20
88.32430
 11
244.33701
 21
87.19980
  0
LINE
  8
7
 10
244.33701
 20
87.19980
 11
244.90340
 21
86.16340
  0
LINE
  8
7
 10
244.90340
 20
86.16340
 11
245.66570
 21
85.25500
  0
LINE
  8
7
 10
245.66570
 20
85.25500
 11
246.59460
 21
84.50950
  0
LINE
  8
7
 10
246.59460
 20
84.50950
 11
247.65430
 21
83.95560
  0
LINE
  8
7
 10
247.65430
 20
83.95560
 11
248.80420
 21
83.61450
  0
LINE
  8
7
 10
248.80420
 20
83.61450
 11
250.00000
 21
83.49930
  0
LINE
  8
7
 10
250.00000
 20
83.49930
 11
251.19580
 21
83.61450
  0
LINE
  8
7
 10
251.19580
 20
83.61450
 11
252.34570
 21
83.95560
  0
LINE
  8
7
 10
252.34570
 20
83.95560
 11
253.40540
 21
84.50950
  0
LINE
  8
7
 10
253.40540
 20
84.50950
 11
254.33430
 21
85.25500
  0
LINE
  8
7
 10
254.33430
 20
85.25500
 11
255.09660
 21
86.16340
  0
LINE
  8
7
 10
255.09660
 20
86.16340
 11
255.66299
 21
87.19980
  0
LINE
  8
7
 10
255.66299
 20
87.19980
 11
256.01181
 21
88.32430
  0
LINE
  8
7
 10
256.01181
 20
88.32430
 11
256.12961
 21
89.49380
  0
LINE
  8
7
 10
370.86490
 20
101.50070
 11
373.17419
 21
101.50070
  0
LINE
  8
7
 10
381.37231
 20
101.50070
 11
383.68170
 21
101.50070
  0
LINE
  8
7
 10
383.68170
 20
101.50070
 11
383.68170
 21
83.49930
  0
LINE
  8
7
 10
383.68170
 20
83.49930
 11
381.37231
 21
83.49930
  0
LINE
  8
7
 10
381.37231
 20
83.49930
 11
381.37231
 21
91.41990
  0
LINE
  8
7
 10
381.37231
 20
91.41990
 11
373.17419
 21
91.41990
  0
LINE
  8
7
 10
373.17419
 20
91.41990
 11
373.17419
 21
83.49930
  0
LINE
  8
7
 10
373.17419
 20
83.49930
 11
370.86490
 21
83.49930
  0
LINE
  8
7
 10
370.86490
 20
83.49930
 11
370.86490
 21
101.50070
  0
LINE
  8
7
 10
373.17419
 20
101.50070
 11
373.17419
 21
93.58010
  0
LINE
  8
7
 10
373.17419
 20
93.58010
 11
381.37231
 21
93.58010
  0
LINE
  8
7
 10
381.37231
 20
93.58010
 11
381.37231
 21
101.50070
  0
LINE
  8
7
 10
384.05280
 20
299.49371
 11
381.60959
 21
299.49371
  0
LINE
  8
7
 10
370.49261
 20
305.50620
 11
370.49261
 21
299.49371
  0
LINE
  8
7
 10
381.60959
 20
305.50620
 11
384.05280
 21
305.50620
  0
LINE
  8
7
 10
372.93591
 20
299.49371
 11
372.93591
 21
305.50620
  0
LINE
  8
7
 10
370.49261
 20
299.49371
 11
370.62289
 21
298.32431
  0
LINE
  8
7
 10
370.62289
 20
298.32431
 11
371.00870
 21
297.19980
  0
LINE
  8
7
 10
371.00870
 20
297.19980
 11
371.63531
 21
296.16339
  0
LINE
  8
7
 10
371.63531
 20
296.16339
 11
372.47849
 21
295.25500
  0
LINE
  8
7
 10
372.47849
 20
295.25500
 11
373.50589
 21
294.50949
  0
LINE
  8
7
 10
373.50589
 20
294.50949
 11
374.67810
 21
293.95560
  0
LINE
  8
7
 10
374.67810
 20
293.95560
 11
375.95001
 21
293.61441
  0
LINE
  8
7
 10
375.95001
 20
293.61441
 11
377.27271
 21
293.49930
  0
LINE
  8
7
 10
377.27271
 20
293.49930
 11
378.59549
 21
293.61441
  0
LINE
  8
7
 10
378.59549
 20
293.61441
 11
379.86740
 21
293.95560
  0
LINE
  8
7
 10
379.86740
 20
293.95560
 11
381.03961
 21
294.50949
  0
LINE
  8
7
 10
381.03961
 20
294.50949
 11
382.06699
 21
295.25500
  0
LINE
  8
7
 10
382.06699
 20
295.25500
 11
382.91019
 21
296.16339
  0
LINE
  8
7
 10
382.91019
 20
296.16339
 11
383.53671
 21
297.19980
  0
LINE
  8
7
 10
383.53671
 20
297.19980
 11
383.92261
 21
298.32431
  0
LINE
  8
7
 10
383.92261
 20
298.32431
 11
384.05280
 21
299.49371
  0
LINE
  8
7
 10
384.05280
 20
305.50620
 11
383.92261
 21
306.67569
  0
LINE
  8
7
 10
383.92261
 20
306.67569
 11
383.53671
 21
307.80020
  0
LINE
  8
7
 10
383.53671
 20
307.80020
 11
382.91019
 21
308.83661
  0
LINE
  8
7
 10
382.91019
 20
308.83661
 11
382.06699
 21
309.74500
  0
LINE
  8
7
 10
382.06699
 20
309.74500
 11
381.03961
 21
310.49051
  0
LINE
  8
7
 10
381.03961
 20
310.49051
 11
379.86740
 21
311.04440
  0
LINE
  8
7
 10
379.86740
 20
311.04440
 11
378.59549
 21
311.38550
  0
LINE
  8
7
 10
378.59549
 20
311.38550
 11
377.27271
 21
311.50070
  0
LINE
  8
7
 10
377.27271
 20
311.50070
 11
375.95001
 21
311.38550
  0
LINE
  8
7
 10
375.95001
 20
311.38550
 11
374.67810
 21
311.04440
  0
LINE
  8
7
 10
374.67810
 20
311.04440
 11
373.50589
 21
310.49051
  0
LINE
  8
7
 10
373.50589
 20
310.49051
 11
372.47849
 21
309.74500
  0
LINE
  8
7
 10
372.47849
 20
309.74500
 11
371.63519
 21
308.83661
  0
LINE
  8
7
 10
371.63519
 20
308.83661
 11
371.00870
 21
307.80020
  0
LINE
  8
7
 10
371.00870
 20
307.80020
 11
370.62289
 21
306.67569
  0
LINE
  8
7
 10
370.62289
 20
306.67569
 11
370.49261
 21
305.50620
  0
LINE
  8
7
 10
381.52621
 20
306.25430
 11
381.60959
 21
305.50620
  0
LINE
  8
7
 10
381.27939
 20
306.97360
 11
381.52621
 21
306.25430
  0
LINE
  8
7
 10
380.87869
 20
307.63651
 11
381.27939
 21
306.97360
  0
LINE
  8
7
 10
380.33929
 20
308.21750
 11
380.87869
 21
307.63651
  0
LINE
  8
7
 10
379.68210
 20
308.69431
 11
380.33929
 21
308.21750
  0
LINE
  8
7
 10
378.93240
 20
309.04871
 11
379.68210
 21
308.69431
  0
LINE
  8
7
 10
378.11880
 20
309.26691
 11
378.93240
 21
309.04871
  0
LINE
  8
7
 10
377.27271
 20
309.34061
 11
378.11880
 21
309.26691
  0
LINE
  8
7
 10
376.42670
 20
309.26691
 11
377.27271
 21
309.34061
  0
LINE
  8
7
 10
375.61310
 20
309.04871
 11
376.42670
 21
309.26691
  0
LINE
  8
7
 10
374.86331
 20
308.69431
 11
375.61310
 21
309.04871
  0
LINE
  8
7
 10
374.20609
 20
308.21750
 11
374.86331
 21
308.69431
  0
LINE
  8
7
 10
373.66681
 20
307.63651
 11
374.20609
 21
308.21750
  0
LINE
  8
7
 10
373.26599
 20
306.97360
 11
373.66681
 21
307.63651
  0
LINE
  8
7
 10
373.01920
 20
306.25430
 11
373.26599
 21
306.97360
  0
LINE
  8
7
 10
372.93591
 20
305.50620
 11
373.01920
 21
306.25430
  0
LINE
  8
7
 10
373.01920
 20
298.74570
 11
372.93591
 21
299.49371
  0
LINE
  8
7
 10
373.26599
 20
298.02640
 11
373.01920
 21
298.74570
  0
LINE
  8
7
 10
373.66681
 20
297.36349
 11
373.26599
 21
298.02640
  0
LINE
  8
7
 10
374.20609
 20
296.78250
 11
373.66681
 21
297.36349
  0
LINE
  8
7
 10
374.86331
 20
296.30560
 11
374.20609
 21
296.78250
  0
LINE
  8
7
 10
375.61310
 20
295.95129
 11
374.86331
 21
296.30560
  0
LINE
  8
7
 10
376.42670
 20
295.73309
 11
375.61310
 21
295.95129
  0
LINE
  8
7
 10
377.27271
 20
295.65939
 11
376.42670
 21
295.73309
  0
LINE
  8
7
 10
378.11880
 20
295.73309
 11
377.27271
 21
295.65939
  0
LINE
  8
7
 10
378.93240
 20
295.95129
 11
378.11880
 21
295.73309
  0
LINE
  8
7
 10
379.68210
 20
296.30560
 11
378.93240
 21
295.95129
  0
LINE
  8
7
 10
380.33929
 20
296.78250
 11
379.68210
 21
296.30560
  0
LINE
  8
7
 10
380.87869
 20
297.36349
 11
380.33929
 21
296.78250
  0
LINE
  8
7
 10
381.27939
 20
298.02640
 11
380.87869
 21
297.36349
  0
LINE
  8
7
 10
381.52621
 20
298.74570
 11
381.27939
 21
298.02640
  0
LINE
  8
7
 10
381.60959
 20
299.49371
 11
381.52621
 21
298.74570
  0
LINE
  8
7
 10
161.32561
 20
159.49380
 11
158.88229
 21
159.49380
  0
LINE
  8
7
 10
147.76530
 20
165.50620
 11
147.76530
 21
159.49380
  0
LINE
  8
7
 10
158.88229
 20
165.50620
 11
161.32561
 21
165.50620
  0
LINE
  8
7
 10
150.20860
 20
159.49380
 11
150.20860
 21
165.50620
  0
LINE
  8
7
 10
147.76530
 20
159.49380
 11
147.89560
 21
158.32430
  0
LINE
  8
7
 10
147.89560
 20
158.32430
 11
148.28140
 21
157.19980
  0
LINE
  8
7
 10
148.28140
 20
157.19980
 11
148.90800
 21
156.16341
  0
LINE
  8
7
 10
148.90800
 20
156.16341
 11
149.75121
 21
155.25500
  0
LINE
  8
7
 10
149.75121
 20
155.25500
 11
150.77859
 21
154.50951
  0
LINE
  8
7
 10
150.77859
 20
154.50951
 11
151.95081
 21
153.95560
  0
LINE
  8
7
 10
151.95081
 20
153.95560
 11
153.22270
 21
153.61450
  0
LINE
  8
7
 10
153.22270
 20
153.61450
 11
154.54539
 21
153.49930
  0
LINE
  8
7
 10
154.54539
 20
153.49930
 11
155.86819
 21
153.61450
  0
LINE
  8
7
 10
155.86819
 20
153.61450
 11
157.14011
 21
153.95560
  0
LINE
  8
7
 10
157.14011
 20
153.95560
 11
158.31230
 21
154.50951
  0
LINE
  8
7
 10
158.31230
 20
154.50951
 11
159.33971
 21
155.25500
  0
LINE
  8
7
 10
159.33971
 20
155.25500
 11
160.18291
 21
156.16341
  0
LINE
  8
7
 10
160.18291
 20
156.16341
 11
160.80949
 21
157.19980
  0
LINE
  8
7
 10
160.80949
 20
157.19980
 11
161.19530
 21
158.32430
  0
LINE
  8
7
 10
161.19530
 20
158.32430
 11
161.32561
 21
159.49380
  0
LINE
  8
7
 10
161.32561
 20
165.50620
 11
161.19530
 21
166.67570
  0
LINE
  8
7
 10
161.19530
 20
166.67570
 11
160.80949
 21
167.80020
  0
LINE
  8
7
 10
160.80949
 20
167.80020
 11
160.18291
 21
168.83659
  0
LINE
  8
7
 10
160.18291
 20
168.83659
 11
159.33971
 21
169.74500
  0
LINE
  8
7
 10
159.33971
 20
169.74500
 11
158.31230
 21
170.49049
  0
LINE
  8
7
 10
158.31230
 20
170.49049
 11
157.14011
 21
171.04440
  0
LINE
  8
7
 10
157.14011
 20
171.04440
 11
155.86819
 21
171.38550
  0
LINE
  8
7
 10
155.86819
 20
171.38550
 11
154.54539
 21
171.50070
  0
LINE
  8
7
 10
154.54539
 20
171.50070
 11
153.22270
 21
171.38550
  0
LINE
  8
7
 10
153.22270
 20
171.38550
 11
151.95081
 21
171.04440
  0
LINE
  8
7
 10
151.95081
 20
171.04440
 11
150.77859
 21
170.49049
  0
LINE
  8
7
 10
150.77859
 20
170.49049
 11
149.75121
 21
169.74500
  0
LINE
  8
7
 10
149.75121
 20
169.74500
 11
148.90800
 21
168.83659
  0
LINE
  8
7
 10
148.90800
 20
168.83659
 11
148.28140
 21
167.80020
  0
LINE
  8
7
 10
148.28140
 20
167.80020
 11
147.89560
 21
166.67570
  0
LINE
  8
7
 10
147.89560
 20
166.67570
 11
147.76530
 21
165.50620
  0
LINE
  8
7
 10
158.79900
 20
166.25430
 11
158.88229
 21
165.50620
  0
LINE
  8
7
 10
158.55220
 20
166.97360
 11
158.79900
 21
166.25430
  0
LINE
  8
7
 10
158.15140
 20
167.63651
 11
158.55220
 21
166.97360
  0
LINE
  8
7
 10
157.61211
 20
168.21750
 11
158.15140
 21
167.63651
  0
LINE
  8
7
 10
156.95490
 20
168.69431
 11
157.61211
 21
168.21750
  0
LINE
  8
7
 10
156.20509
 20
169.04871
 11
156.95490
 21
168.69431
  0
LINE
  8
7
 10
155.39149
 20
169.26691
 11
156.20509
 21
169.04871
  0
LINE
  8
7
 10
154.54539
 20
169.34061
 11
155.39149
 21
169.26691
  0
LINE
  8
7
 10
153.69940
 20
169.26691
 11
154.54539
 21
169.34061
  0
LINE
  8
7
 10
152.88580
 20
169.04871
 11
153.69940
 21
169.26691
  0
LINE
  8
7
 10
152.13600
 20
168.69431
 11
152.88580
 21
169.04871
  0
LINE
  8
7
 10
151.47881
 20
168.21750
 11
152.13600
 21
168.69431
  0
LINE
  8
7
 10
150.93950
 20
167.63651
 11
151.47881
 21
168.21750
  0
LINE
  8
7
 10
150.53870
 20
166.97360
 11
150.93950
 21
167.63651
  0
LINE
  8
7
 10
150.29190
 20
166.25430
 11
150.53870
 21
166.97360
  0
LINE
  8
7
 10
150.20860
 20
165.50620
 11
150.29190
 21
166.25430
  0
LINE
  8
7
 10
150.29190
 20
158.74570
 11
150.20860
 21
159.49380
  0
LINE
  8
7
 10
150.53870
 20
158.02640
 11
150.29190
 21
158.74570
  0
LINE
  8
7
 10
150.93950
 20
157.36349
 11
150.53870
 21
158.02640
  0
LINE
  8
7
 10
151.47881
 20
156.78250
 11
150.93950
 21
157.36349
  0
LINE
  8
7
 10
152.13600
 20
156.30560
 11
151.47881
 21
156.78250
  0
LINE
  8
7
 10
152.88580
 20
155.95129
 11
152.13600
 21
156.30560
  0
LINE
  8
7
 10
153.69940
 20
155.73309
 11
152.88580
 21
155.95129
  0
LINE
  8
7
 10
154.54539
 20
155.65939
 11
153.69940
 21
155.73309
  0
LINE
  8
7
 10
155.39149
 20
155.73309
 11
154.54539
 21
155.65939
  0
LINE
  8
7
 10
156.20509
 20
155.95129
 11
155.39149
 21
155.73309
  0
LINE
  8
7
 10
156.95490
 20
156.30560
 11
156.20509
 21
155.95129
  0
LINE
  8
7
 10
157.61211
 20
156.78250
 11
156.95490
 21
156.30560
  0
LINE
  8
7
 10
158.15140
 20
157.36349
 11
157.61211
 21
156.78250
  0
LINE
  8
7
 10
158.55220
 20
158.02640
 11
158.15140
 21
157.36349
  0
LINE
  8
7
 10
158.79900
 20
158.74570
 11
158.55220
 21
158.02640
  0
LINE
  8
7
 10
158.88229
 20
159.49380
 11
158.79900
 21
158.74570
  0
LINE
  8
7
 10
352.23471
 20
159.49380
 11
349.79141
 21
159.49380
  0
LINE
  8
7
 10
338.67441
 20
165.50620
 11
338.67441
 21
159.49380
  0
LINE
  8
7
 10
349.79141
 20
165.50620
 11
352.23471
 21
165.50620
  0
LINE
  8
7
 10
341.11771
 20
159.49380
 11
341.11771
 21
165.50620
  0
LINE
  8
7
 10
338.67441
 20
159.49380
 11
338.80469
 21
158.32430
  0
LINE
  8
7
 10
338.80469
 20
158.32430
 11
339.19049
 21
157.19980
  0
LINE
  8
7
 10
339.19049
 20
157.19980
 11
339.81711
 21
156.16341
  0
LINE
  8
7
 10
339.81711
 20
156.16341
 11
340.66031
 21
155.25500
  0
LINE
  8
7
 10
340.66031
 20
155.25500
 11
341.68771
 21
154.50951
  0
LINE
  8
7
 10
341.68771
 20
154.50951
 11
342.85989
 21
153.95560
  0
LINE
  8
7
 10
342.85989
 20
153.95560
 11
344.13181
 21
153.61450
  0
LINE
  8
7
 10
344.13181
 20
153.61450
 11
345.45450
 21
153.49930
  0
LINE
  8
7
 10
345.45450
 20
153.49930
 11
346.77731
 21
153.61450
  0
LINE
  8
7
 10
346.77731
 20
153.61450
 11
348.04919
 21
153.95560
  0
LINE
  8
7
 10
348.04919
 20
153.95560
 11
349.22141
 21
154.50951
  0
LINE
  8
7
 10
349.22141
 20
154.50951
 11
350.24881
 21
155.25500
  0
LINE
  8
7
 10
350.24881
 20
155.25500
 11
351.09201
 21
156.16341
  0
LINE
  8
7
 10
351.09201
 20
156.16341
 11
351.71860
 21
157.19980
  0
LINE
  8
7
 10
351.71860
 20
157.19980
 11
352.10440
 21
158.32430
  0
LINE
  8
7
 10
352.10440
 20
158.32430
 11
352.23471
 21
159.49380
  0
LINE
  8
7
 10
352.23471
 20
165.50620
 11
352.10440
 21
166.67570
  0
LINE
  8
7
 10
352.10440
 20
166.67570
 11
351.71860
 21
167.80020
  0
LINE
  8
7
 10
351.71860
 20
167.80020
 11
351.09201
 21
168.83659
  0
LINE
  8
7
 10
351.09201
 20
168.83659
 11
350.24881
 21
169.74500
  0
LINE
  8
7
 10
350.24881
 20
169.74500
 11
349.22141
 21
170.49049
  0
LINE
  8
7
 10
349.22141
 20
170.49049
 11
348.04919
 21
171.04440
  0
LINE
  8
7
 10
348.04919
 20
171.04440
 11
346.77731
 21
171.38550
  0
LINE
  8
7
 10
346.77731
 20
171.38550
 11
345.45450
 21
171.50070
  0
LINE
  8
7
 10
345.45450
 20
171.50070
 11
344.13181
 21
171.38550
  0
LINE
  8
7
 10
344.13181
 20
171.38550
 11
342.85989
 21
171.04440
  0
LINE
  8
7
 10
342.85989
 20
171.04440
 11
341.68771
 21
170.49049
  0
LINE
  8
7
 10
341.68771
 20
170.49049
 11
340.66031
 21
169.74500
  0
LINE
  8
7
 10
340.66031
 20
169.74500
 11
339.81711
 21
168.83659
  0
LINE
  8
7
 10
339.81711
 20
168.83659
 11
339.19049
 21
167.80020
  0
LINE
  8
7
 10
339.19049
 20
167.80020
 11
338.80469
 21
166.67570
  0
LINE
  8
7
 10
338.80469
 20
166.67570
 11
338.67441
 21
165.50620
  0
LINE
  8
7
 10
349.70810
 20
166.25430
 11
349.79141
 21
165.50620
  0
LINE
  8
7
 10
349.46130
 20
166.97360
 11
349.70810
 21
166.25430
  0
LINE
  8
7
 10
349.06049
 20
167.63651
 11
349.46130
 21
166.97360
  0
LINE
  8
7
 10
348.52109
 20
168.21750
 11
349.06049
 21
167.63651
  0
LINE
  8
7
 10
347.86401
 20
168.69431
 11
348.52109
 21
168.21750
  0
LINE
  8
7
 10
347.11420
 20
169.04871
 11
347.86401
 21
168.69431
  0
LINE
  8
7
 10
346.30060
 20
169.26691
 11
347.11420
 21
169.04871
  0
LINE
  8
7
 10
345.45450
 20
169.34061
 11
346.30060
 21
169.26691
  0
LINE
  8
7
 10
344.60849
 20
169.26691
 11
345.45450
 21
169.34061
  0
LINE
  8
7
 10
343.79489
 20
169.04871
 11
344.60849
 21
169.26691
  0
LINE
  8
7
 10
343.04510
 20
168.69431
 11
343.79489
 21
169.04871
  0
LINE
  8
7
 10
342.38791
 20
168.21750
 11
343.04510
 21
168.69431
  0
LINE
  8
7
 10
341.84860
 20
167.63651
 11
342.38791
 21
168.21750
  0
LINE
  8
7
 10
341.44781
 20
166.97360
 11
341.84860
 21
167.63651
  0
LINE
  8
7
 10
341.20099
 20
166.25430
 11
341.44781
 21
166.97360
  0
LINE
  8
7
 10
341.11771
 20
165.50620
 11
341.20099
 21
166.25430
  0
LINE
  8
7
 10
341.20099
 20
158.74570
 11
341.11771
 21
159.49380
  0
LINE
  8
7
 10
341.44781
 20
158.02640
 11
341.20099
 21
158.74570
  0
LINE
  8
7
 10
341.84860
 20
157.36349
 11
341.44781
 21
158.02640
  0
LINE
  8
7
 10
342.38791
 20
156.78250
 11
341.84860
 21
157.36349
  0
LINE
  8
7
 10
343.04510
 20
156.30560
 11
342.38791
 21
156.78250
  0
LINE
  8
7
 10
343.79489
 20
155.95129
 11
343.04510
 21
156.30560
  0
LINE
  8
7
 10
344.60849
 20
155.73309
 11
343.79489
 21
155.95129
  0
LINE
  8
7
 10
345.45450
 20
155.65939
 11
344.60849
 21
155.73309
  0
LINE
  8
7
 10
346.30060
 20
155.73309
 11
345.45450
 21
155.65939
  0
LINE
  8
7
 10
347.11420
 20
155.95129
 11
346.30060
 21
155.73309
  0
LINE
  8
7
 10
347.86401
 20
156.30560
 11
347.11420
 21
155.95129
  0
LINE
  8
7
 10
348.52109
 20
156.78250
 11
347.86401
 21
156.30560
  0
LINE
  8
7
 10
349.06049
 20
157.36349
 11
348.52109
 21
156.78250
  0
LINE
  8
7
 10
349.46130
 20
158.02640
 11
349.06049
 21
157.36349
  0
LINE
  8
7
 10
349.70810
 20
158.74570
 11
349.46130
 21
158.02640
  0
LINE
  8
7
 10
349.79141
 20
159.49380
 11
349.70810
 21
158.74570
  0
LINE
  8
7
 10
148.68469
 20
276.50070
 11
150.79671
 21
276.50070
  0
LINE
  8
7
 10
150.79671
 20
276.50070
 11
150.79671
 21
260.65939
  0
LINE
  8
7
 10
150.79671
 20
260.65939
 11
160.40630
 21
260.65939
  0
LINE
  8
7
 10
160.40630
 20
260.65939
 11
160.40630
 21
258.49930
  0
LINE
  8
7
 10
160.40630
 20
258.49930
 11
148.68469
 21
258.49930
  0
LINE
  8
7
 10
148.68469
 20
258.49930
 11
148.68469
 21
276.50070
  0
LINE
  8
7
 10
187.29280
 20
274.34061
 11
184.23750
 21
274.34061
  0
LINE
  8
7
 10
184.23750
 20
268.58011
 11
187.29280
 21
268.58011
  0
LINE
  8
7
 10
187.29280
 20
258.49930
 11
184.23750
 21
258.49930
  0
LINE
  8
7
 10
180.52550
 20
276.50070
 11
180.52550
 21
258.49930
  0
LINE
  8
7
 10
184.23750
 20
276.50070
 11
187.29280
 21
276.50070
  0
LINE
  8
7
 10
187.29280
 20
266.41989
 11
184.23750
 21
266.41989
  0
LINE
  8
7
 10
184.23750
 20
260.65939
 11
187.29280
 21
260.65939
  0
LINE
  8
7
 10
182.62930
 20
258.49930
 11
182.62930
 21
276.50070
  0
LINE
  8
7
 10
182.62930
 20
276.50070
 11
180.52550
 21
276.50070
  0
LINE
  8
7
 10
180.52550
 20
258.49930
 11
182.62930
 21
258.49930
  0
LINE
  8
7
 10
184.23750
 20
274.34061
 11
184.23750
 21
276.50070
  0
LINE
  8
7
 10
184.23750
 20
266.41989
 11
184.23750
 21
268.58011
  0
LINE
  8
7
 10
184.23750
 20
258.49930
 11
184.23750
 21
260.65939
  0
LINE
  8
7
 10
187.29280
 20
268.58011
 11
187.84010
 21
268.63541
  0
LINE
  8
7
 10
187.84010
 20
268.63541
 11
188.36630
 21
268.79929
  0
LINE
  8
7
 10
188.36630
 20
268.79929
 11
188.85130
 21
269.06549
  0
LINE
  8
7
 10
188.85130
 20
269.06549
 11
189.27640
 21
269.42371
  0
LINE
  8
7
 10
189.27640
 20
269.42371
 11
189.62520
 21
269.86011
  0
LINE
  8
7
 10
189.62520
 20
269.86011
 11
189.88440
 21
270.35809
  0
LINE
  8
7
 10
189.88440
 20
270.35809
 11
190.04410
 21
270.89841
  0
LINE
  8
7
 10
190.04410
 20
270.89841
 11
190.09801
 21
271.46030
  0
LINE
  8
7
 10
190.09801
 20
271.46030
 11
190.04410
 21
272.02219
  0
LINE
  8
7
 10
190.04410
 20
272.02219
 11
189.88440
 21
272.56250
  0
LINE
  8
7
 10
189.88440
 20
272.56250
 11
189.62520
 21
273.06049
  0
LINE
  8
7
 10
189.62520
 20
273.06049
 11
189.27640
 21
273.49701
  0
LINE
  8
7
 10
189.27640
 20
273.49701
 11
188.85130
 21
273.85510
  0
LINE
  8
7
 10
188.85130
 20
273.85510
 11
188.36630
 21
274.12131
  0
LINE
  8
7
 10
188.36630
 20
274.12131
 11
187.84010
 21
274.28519
  0
LINE
  8
7
 10
187.84010
 20
274.28519
 11
187.29280
 21
274.34061
  0
LINE
  8
7
 10
191.00439
 20
268.16150
 11
190.32950
 21
267.50000
  0
LINE
  8
7
 10
191.54530
 20
268.94211
 11
191.00439
 21
268.16150
  0
LINE
  8
7
 10
191.93250
 20
269.81381
 11
191.54530
 21
268.94211
  0
LINE
  8
7
 10
192.15210
 20
270.74490
 11
191.93250
 21
269.81381
  0
LINE
  8
7
 10
192.19620
 20
271.70181
 11
192.15210
 21
270.74490
  0
LINE
  8
7
 10
192.06310
 20
272.65009
 11
192.19620
 21
271.70181
  0
LINE
  8
7
 10
191.75771
 20
273.55530
 11
192.06310
 21
272.65009
  0
LINE
  8
7
 10
191.29100
 20
274.38489
 11
191.75771
 21
273.55530
  0
LINE
  8
7
 10
190.67979
 20
275.10880
 11
191.29100
 21
274.38489
  0
LINE
  8
7
 10
189.94630
 20
275.70090
 11
190.67979
 21
275.10880
  0
LINE
  8
7
 10
189.11690
 20
276.13980
 11
189.94630
 21
275.70090
  0
LINE
  8
7
 10
188.22169
 20
276.40970
 11
189.11690
 21
276.13980
  0
LINE
  8
7
 10
187.29280
 20
276.50070
 11
188.22169
 21
276.40970
  0
LINE
  8
7
 10
188.22169
 20
258.59030
 11
187.29280
 21
258.49930
  0
LINE
  8
7
 10
189.11690
 20
258.86020
 11
188.22169
 21
258.59030
  0
LINE
  8
7
 10
189.94630
 20
259.29910
 11
189.11690
 21
258.86020
  0
LINE
  8
7
 10
190.67979
 20
259.89120
 11
189.94630
 21
259.29910
  0
LINE
  8
7
 10
191.29100
 20
260.61511
 11
190.67979
 21
259.89120
  0
LINE
  8
7
 10
191.75771
 20
261.44470
 11
191.29100
 21
260.61511
  0
LINE
  8
7
 10
192.06310
 20
262.34991
 11
191.75771
 21
261.44470
  0
LINE
  8
7
 10
192.19620
 20
263.29819
 11
192.06310
 21
262.34991
  0
LINE
  8
7
 10
192.15210
 20
264.25510
 11
192.19620
 21
263.29819
  0
LINE
  8
7
 10
191.93250
 20
265.18619
 11
192.15210
 21
264.25510
  0
LINE
  8
7
 10
191.54530
 20
266.05789
 11
191.93250
 21
265.18619
  0
LINE
  8
7
 10
191.00439
 20
266.83850
 11
191.54530
 21
266.05789
  0
LINE
  8
7
 10
190.32950
 20
267.50000
 11
191.00439
 21
266.83850
  0
LINE
  8
7
 10
187.29280
 20
260.65939
 11
187.84010
 21
260.71481
  0
LINE
  8
7
 10
187.84010
 20
260.71481
 11
188.36630
 21
260.87869
  0
LINE
  8
7
 10
188.36630
 20
260.87869
 11
188.85130
 21
261.14490
  0
LINE
  8
7
 10
188.85130
 20
261.14490
 11
189.27640
 21
261.50299
  0
LINE
  8
7
 10
189.27640
 20
261.50299
 11
189.62520
 21
261.93951
  0
LINE
  8
7
 10
189.62520
 20
261.93951
 11
189.88440
 21
262.43750
  0
LINE
  8
7
 10
189.88440
 20
262.43750
 11
190.04410
 21
262.97781
  0
LINE
  8
7
 10
190.04410
 20
262.97781
 11
190.09801
 21
263.53970
  0
LINE
  8
7
 10
190.09801
 20
263.53970
 11
190.04410
 21
264.10159
  0
LINE
  8
7
 10
190.04410
 20
264.10159
 11
189.88440
 21
264.64191
  0
LINE
  8
7
 10
189.88440
 20
264.64191
 11
189.62520
 21
265.13989
  0
LINE
  8
7
 10
189.62520
 20
265.13989
 11
189.27640
 21
265.57629
  0
LINE
  8
7
 10
189.27640
 20
265.57629
 11
188.85130
 21
265.93451
  0
LINE
  8
7
 10
188.85130
 20
265.93451
 11
188.36630
 21
266.20071
  0
LINE
  8
7
 10
188.36630
 20
266.20071
 11
187.84010
 21
266.36459
  0
LINE
  8
7
 10
187.84010
 20
266.36459
 11
187.29280
 21
266.41989
  0
LINE
  8
7
 10
187.29280
 20
134.34061
 11
184.23750
 21
134.34061
  0
LINE
  8
7
 10
184.23750
 20
128.58009
 11
187.29280
 21
128.58009
  0
LINE
  8
7
 10
187.29280
 20
118.49930
 11
184.23750
 21
118.49930
  0
LINE
  8
7
 10
180.52550
 20
136.50070
 11
180.52550
 21
118.49930
  0
LINE
  8
7
 10
184.23750
 20
136.50070
 11
187.29280
 21
136.50070
  0
LINE
  8
7
 10
187.29280
 20
126.41990
 11
184.23750
 21
126.41990
  0
LINE
  8
7
 10
184.23750
 20
120.65940
 11
187.29280
 21
120.65940
  0
LINE
  8
7
 10
182.62930
 20
118.49930
 11
182.62930
 21
136.50070
  0
LINE
  8
7
 10
182.62930
 20
136.50070
 11
180.52550
 21
136.50070
  0
LINE
  8
7
 10
180.52550
 20
118.49930
 11
182.62930
 21
118.49930
  0
LINE
  8
7
 10
184.23750
 20
134.34061
 11
184.23750
 21
136.50070
  0
LINE
  8
7
 10
184.23750
 20
126.41990
 11
184.23750
 21
128.58009
  0
LINE
  8
7
 10
184.23750
 20
118.49930
 11
184.23750
 21
120.65940
  0
LINE
  8
7
 10
187.29280
 20
128.58009
 11
187.84010
 21
128.63541
  0
LINE
  8
7
 10
187.84010
 20
128.63541
 11
188.36630
 21
128.79930
  0
LINE
  8
7
 10
188.36630
 20
128.79930
 11
188.85130
 21
129.06551
  0
LINE
  8
7
 10
188.85130
 20
129.06551
 11
189.27640
 21
129.42371
  0
LINE
  8
7
 10
189.27640
 20
129.42371
 11
189.62520
 21
129.86011
  0
LINE
  8
7
 10
189.62520
 20
129.86011
 11
189.88440
 21
130.35809
  0
LINE
  8
7
 10
189.88440
 20
130.35809
 11
190.04410
 21
130.89841
  0
LINE
  8
7
 10
190.04410
 20
130.89841
 11
190.09801
 21
131.46030
  0
LINE
  8
7
 10
190.09801
 20
131.46030
 11
190.04410
 21
132.02220
  0
LINE
  8
7
 10
190.04410
 20
132.02220
 11
189.88440
 21
132.56250
  0
LINE
  8
7
 10
189.88440
 20
132.56250
 11
189.62520
 21
133.06050
  0
LINE
  8
7
 10
189.62520
 20
133.06050
 11
189.27640
 21
133.49699
  0
LINE
  8
7
 10
189.27640
 20
133.49699
 11
188.85130
 21
133.85510
  0
LINE
  8
7
 10
188.85130
 20
133.85510
 11
188.36630
 21
134.12131
  0
LINE
  8
7
 10
188.36630
 20
134.12131
 11
187.84010
 21
134.28520
  0
LINE
  8
7
 10
187.84010
 20
134.28520
 11
187.29280
 21
134.34061
  0
LINE
  8
7
 10
191.00439
 20
128.16150
 11
190.32950
 21
127.50000
  0
LINE
  8
7
 10
191.54530
 20
128.94209
 11
191.00439
 21
128.16150
  0
LINE
  8
7
 10
191.93250
 20
129.81380
 11
191.54530
 21
128.94209
  0
LINE
  8
7
 10
192.15210
 20
130.74490
 11
191.93250
 21
129.81380
  0
LINE
  8
7
 10
192.19620
 20
131.70180
 11
192.15210
 21
130.74490
  0
LINE
  8
7
 10
192.06310
 20
132.65010
 11
192.19620
 21
131.70180
  0
LINE
  8
7
 10
191.75771
 20
133.55530
 11
192.06310
 21
132.65010
  0
LINE
  8
7
 10
191.29100
 20
134.38490
 11
191.75771
 21
133.55530
  0
LINE
  8
7
 10
190.67979
 20
135.10880
 11
191.29100
 21
134.38490
  0
LINE
  8
7
 10
189.94630
 20
135.70090
 11
190.67979
 21
135.10880
  0
LINE
  8
7
 10
189.11690
 20
136.13980
 11
189.94630
 21
135.70090
  0
LINE
  8
7
 10
188.22169
 20
136.40970
 11
189.11690
 21
136.13980
  0
LINE
  8
7
 10
187.29280
 20
136.50070
 11
188.22169
 21
136.40970
  0
LINE
  8
7
 10
188.22169
 20
118.59030
 11
187.29280
 21
118.49930
  0
LINE
  8
7
 10
189.11690
 20
118.86020
 11
188.22169
 21
118.59030
  0
LINE
  8
7
 10
189.94630
 20
119.29910
 11
189.11690
 21
118.86020
  0
LINE
  8
7
 10
190.67979
 20
119.89120
 11
189.94630
 21
119.29910
  0
LINE
  8
7
 10
191.29100
 20
120.61510
 11
190.67979
 21
119.89120
  0
LINE
  8
7
 10
191.75771
 20
121.44470
 11
191.29100
 21
120.61510
  0
LINE
  8
7
 10
192.06310
 20
122.34990
 11
191.75771
 21
121.44470
  0
LINE
  8
7
 10
192.19620
 20
123.29820
 11
192.06310
 21
122.34990
  0
LINE
  8
7
 10
192.15210
 20
124.25510
 11
192.19620
 21
123.29820
  0
LINE
  8
7
 10
191.93250
 20
125.18620
 11
192.15210
 21
124.25510
  0
LINE
  8
7
 10
191.54530
 20
126.05790
 11
191.93250
 21
125.18620
  0
LINE
  8
7
 10
191.00439
 20
126.83850
 11
191.54530
 21
126.05790
  0
LINE
  8
7
 10
190.32950
 20
127.50000
 11
191.00439
 21
126.83850
  0
LINE
  8
7
 10
187.29280
 20
120.65940
 11
187.84010
 21
120.71480
  0
LINE
  8
7
 10
187.84010
 20
120.71480
 11
188.36630
 21
120.87870
  0
LINE
  8
7
 10
188.36630
 20
120.87870
 11
188.85130
 21
121.14490
  0
LINE
  8
7
 10
188.85130
 20
121.14490
 11
189.27640
 21
121.50300
  0
LINE
  8
7
 10
189.27640
 20
121.50300
 11
189.62520
 21
121.93950
  0
LINE
  8
7
 10
189.62520
 20
121.93950
 11
189.88440
 21
122.43750
  0
LINE
  8
7
 10
189.88440
 20
122.43750
 11
190.04410
 21
122.97780
  0
LINE
  8
7
 10
190.04410
 20
122.97780
 11
190.09801
 21
123.53970
  0
LINE
  8
7
 10
190.09801
 20
123.53970
 11
190.04410
 21
124.10160
  0
LINE
  8
7
 10
190.04410
 20
124.10160
 11
189.88440
 21
124.64190
  0
LINE
  8
7
 10
189.88440
 20
124.64190
 11
189.62520
 21
125.13990
  0
LINE
  8
7
 10
189.62520
 20
125.13990
 11
189.27640
 21
125.57630
  0
LINE
  8
7
 10
189.27640
 20
125.57630
 11
188.85130
 21
125.93450
  0
LINE
  8
7
 10
188.85130
 20
125.93450
 11
188.36630
 21
126.20070
  0
LINE
  8
7
 10
188.36630
 20
126.20070
 11
187.84010
 21
126.36460
  0
LINE
  8
7
 10
187.84010
 20
126.36460
 11
187.29280
 21
126.41990
  0
LINE
  8
7
 10
214.32651
 20
223.49930
 11
211.65781
 21
223.49930
  0
LINE
  8
7
 10
211.65781
 20
223.49930
 11
216.91910
 21
232.50000
  0
LINE
  8
7
 10
216.91910
 20
232.50000
 11
211.65781
 21
241.50079
  0
LINE
  8
7
 10
211.65781
 20
241.50079
 11
214.32651
 21
241.50079
  0
LINE
  8
7
 10
214.32651
 20
241.50079
 11
218.18179
 21
234.90520
  0
LINE
  8
7
 10
218.18179
 20
234.90520
 11
222.03720
 21
241.50079
  0
LINE
  8
7
 10
222.03720
 20
241.50079
 11
224.70580
 21
241.50079
  0
LINE
  8
7
 10
224.70580
 20
241.50079
 11
219.44450
 21
232.50000
  0
LINE
  8
7
 10
219.44450
 20
232.50000
 11
224.70580
 21
223.49930
  0
LINE
  8
7
 10
224.70580
 20
223.49930
 11
222.03720
 21
223.49930
  0
LINE
  8
7
 10
222.03720
 20
223.49930
 11
218.18179
 21
230.09480
  0
LINE
  8
7
 10
218.18179
 20
230.09480
 11
214.32651
 21
223.49930
  0
LINE
  8
7
 10
316.16470
 20
118.49930
 11
313.63641
 21
124.49980
  0
LINE
  8
7
 10
313.63641
 20
124.49980
 11
311.10800
 21
118.49930
  0
LINE
  8
7
 10
311.10800
 20
118.49930
 11
306.04379
 21
136.50070
  0
LINE
  8
7
 10
306.04379
 20
136.50070
 11
307.96469
 21
136.50070
  0
LINE
  8
7
 10
307.96469
 20
136.50070
 11
311.44440
 21
124.13170
  0
LINE
  8
7
 10
319.30811
 20
136.50070
 11
321.22900
 21
136.50070
  0
LINE
  8
7
 10
321.22900
 20
136.50070
 11
316.16470
 21
118.49930
  0
LINE
  8
7
 10
311.44440
 20
124.13170
 11
313.63641
 21
129.33389
  0
LINE
  8
7
 10
313.63641
 20
129.33389
 11
315.82840
 21
124.13170
  0
LINE
  8
7
 10
315.82840
 20
124.13170
 11
319.30811
 21
136.50070
  0
CIRCLE
  8
7
 10
343.00049
 20
137.69720
 40
1.03500
  0
CIRCLE
  8
7
 10
347.90970
 20
137.69720
 40
1.03500
  0
LINE
  8
7
 10
339.03851
 20
130.50529
 11
339.03851
 21
124.49280
  0
LINE
  8
7
 10
351.67300
 20
124.49280
 11
351.67300
 21
130.50529
  0
LINE
  8
7
 10
348.12430
 20
133.29820
 11
349.23340
 21
135.23759
  0
LINE
  8
7
 10
350.09149
 20
134.47260
 11
348.88791
 21
132.36771
  0
LINE
  8
7
 10
340.74551
 20
120.39450
 11
341.92801
 21
122.46240
  0
LINE
  8
7
 10
342.72189
 20
121.58500
 11
341.62030
 21
119.65860
  0
LINE
  8
7
 10
349.33890
 20
131.15041
 11
349.39651
 21
130.50529
  0
LINE
  8
7
 10
349.16769
 20
131.77721
 11
349.33890
 21
131.15041
  0
LINE
  8
7
 10
348.88791
 20
132.36771
 11
349.16769
 21
131.77721
  0
LINE
  8
7
 10
347.50562
 20
133.75180
 11
348.12430
 21
133.29820
  0
LINE
  8
7
 10
346.80649
 20
134.08400
 11
347.50562
 21
133.75180
  0
LINE
  8
7
 10
346.05301
 20
134.28210
 11
346.80649
 21
134.08400
  0
LINE
  8
7
 10
345.27341
 20
134.33881
 11
346.05301
 21
134.28210
  0
LINE
  8
7
 10
344.49689
 20
134.25200
 11
345.27341
 21
134.33881
  0
LINE
  8
7
 10
343.75250
 20
134.02490
 11
344.49689
 21
134.25200
  0
LINE
  8
7
 10
343.06821
 20
133.66600
 11
343.75250
 21
134.02490
  0
LINE
  8
7
 10
342.46951
 20
133.18880
 11
343.06821
 21
133.66600
  0
LINE
  8
7
 10
341.97891
 20
132.61110
 11
342.46951
 21
133.18880
  0
LINE
  8
7
 10
341.61469
 20
131.95450
 11
341.97891
 21
132.61110
  0
LINE
  8
7
 10
341.39059
 20
131.24370
 11
341.61469
 21
131.95450
  0
LINE
  8
7
 10
341.31500
 20
130.50529
 11
341.39059
 21
131.24370
  0
LINE
  8
7
 10
341.31500
 20
124.49280
 11
341.31500
 21
130.50529
  0
LINE
  8
7
 10
341.38470
 20
123.78370
 11
341.31500
 21
124.49280
  0
LINE
  8
7
 10
341.59140
 20
123.09900
 11
341.38470
 21
123.78370
  0
LINE
  8
7
 10
341.92801
 20
122.46240
 11
341.59140
 21
123.09900
  0
LINE
  8
7
 10
343.34821
 20
121.16520
 11
342.72189
 21
121.58500
  0
LINE
  8
7
 10
344.04691
 20
120.86520
 11
343.34821
 21
121.16520
  0
LINE
  8
7
 10
344.79269
 20
120.69590
 11
344.04691
 21
120.86520
  0
LINE
  8
7
 10
345.55881
 20
120.66330
 11
344.79269
 21
120.69590
  0
LINE
  8
7
 10
346.31760
 20
120.76870
 11
345.55881
 21
120.66330
  0
LINE
  8
7
 10
347.04169
 20
121.00820
 11
346.31760
 21
120.76870
  0
LINE
  8
7
 10
347.70511
 20
121.37320
 11
347.04169
 21
121.00820
  0
LINE
  8
7
 10
348.28391
 20
121.85050
 11
347.70511
 21
121.37320
  0
LINE
  8
7
 10
348.75729
 20
122.42310
 11
348.28391
 21
121.85050
  0
LINE
  8
7
 10
349.10809
 20
123.07010
 11
348.75729
 21
122.42310
  0
LINE
  8
7
 10
349.32379
 20
123.76840
 11
349.10809
 21
123.07010
  0
LINE
  8
7
 10
349.39651
 20
124.49280
 11
349.32379
 21
123.76840
  0
LINE
  8
7
 10
349.39651
 20
130.50529
 11
349.39651
 21
124.49280
  0
LINE
  8
7
 10
339.03851
 20
124.49280
 11
339.14999
 21
123.37130
  0
LINE
  8
7
 10
339.14999
 20
123.37130
 11
339.48071
 21
122.28940
  0
LINE
  8
7
 10
339.48071
 20
122.28940
 11
340.01880
 21
121.28530
  0
LINE
  8
7
 10
340.01880
 20
121.28530
 11
340.74551
 21
120.39450
  0
LINE
  8
7
 10
341.62030
 20
119.65860
 11
342.70871
 21
119.05000
  0
LINE
  8
7
 10
342.70871
 20
119.05000
 11
343.90289
 21
118.65900
  0
LINE
  8
7
 10
343.90289
 20
118.65900
 11
345.15530
 21
118.50130
  0
LINE
  8
7
 10
345.15530
 20
118.50130
 11
346.41571
 21
118.58330
  0
LINE
  8
7
 10
346.41571
 20
118.58330
 11
347.63370
 21
118.90160
  0
LINE
  8
7
 10
347.63370
 20
118.90160
 11
348.76059
 21
119.44350
  0
LINE
  8
7
 10
348.76059
 20
119.44350
 11
349.75131
 21
120.18730
  0
LINE
  8
7
 10
349.75131
 20
120.18730
 11
350.56619
 21
121.10340
  0
LINE
  8
7
 10
350.56619
 20
121.10340
 11
351.17279
 21
122.15490
  0
LINE
  8
7
 10
351.17279
 20
122.15490
 11
351.54669
 21
123.30000
  0
LINE
  8
7
 10
351.54669
 20
123.30000
 11
351.67300
 21
124.49280
  0
LINE
  8
7
 10
351.67300
 20
130.50529
 11
351.57001
 21
131.58330
  0
LINE
  8
7
 10
351.57001
 20
131.58330
 11
351.26450
 21
132.62610
  0
LINE
  8
7
 10
351.26450
 20
132.62610
 11
350.76620
 21
133.59979
  0
LINE
  8
7
 10
350.76620
 20
133.59979
 11
350.09149
 21
134.47260
  0
LINE
  8
7
 10
349.23340
 20
135.23759
 11
348.14899
 21
135.88200
  0
LINE
  8
7
 10
348.14899
 20
135.88200
 11
346.95001
 21
136.30569
  0
LINE
  8
7
 10
346.95001
 20
136.30569
 11
345.68561
 21
136.49159
  0
LINE
  8
7
 10
345.68561
 20
136.49159
 11
344.40771
 21
136.43190
  0
LINE
  8
7
 10
344.40771
 20
136.43190
 11
343.16870
 21
136.12910
  0
LINE
  8
7
 10
343.16870
 20
136.12910
 11
342.01941
 21
135.59560
  0
LINE
  8
7
 10
342.01941
 20
135.59560
 11
341.00690
 21
134.85330
  0
LINE
  8
7
 10
341.00690
 20
134.85330
 11
340.17291
 21
133.93260
  0
LINE
  8
7
 10
340.17291
 20
133.93260
 11
339.55139
 21
132.87140
  0
LINE
  8
7
 10
339.55139
 20
132.87140
 11
339.16800
 21
131.71310
  0
LINE
  8
7
 10
339.16800
 20
131.71310
 11
339.03851
 21
130.50529
  0
LINE
  8
7
 10
276.85779
 20
241.50070
 11
281.81821
 21
234.16370
  0
LINE
  8
7
 10
286.77859
 20
223.49930
 11
286.77859
 21
236.83681
  0
LINE
  8
7
 10
286.77859
 20
236.83681
 11
281.81821
 21
229.49980
  0
LINE
  8
7
 10
281.81821
 20
229.49980
 11
276.85779
 21
236.83681
  0
LINE
  8
7
 10
276.85779
 20
236.83681
 11
276.85779
 21
223.49930
  0
LINE
  8
7
 10
276.85779
 20
223.49930
 11
274.06320
 21
223.49930
  0
LINE
  8
7
 10
281.81821
 20
234.16370
 11
286.77859
 21
241.50070
  0
LINE
  8
7
 10
286.77859
 20
241.50070
 11
289.57309
 21
241.50070
  0
LINE
  8
7
 10
289.57309
 20
241.50070
 11
289.57309
 21
223.49930
  0
LINE
  8
7
 10
289.57309
 20
223.49930
 11
286.77859
 21
223.49930
  0
LINE
  8
7
 10
274.06320
 20
223.49930
 11
274.06320
 21
241.50070
  0
LINE
  8
7
 10
274.06320
 20
241.50070
 11
276.85779
 21
241.50070
  0
LINE
  8
7
 10
287.67899
 20
206.50070
 11
285.56699
 21
206.50070
  0
LINE
  8
7
 10
287.67899
 20
194.49380
 11
287.67899
 21
206.50070
  0
LINE
  8
7
 10
278.06940
 20
194.49380
 11
275.95740
 21
194.49380
  0
LINE
  8
7
 10
278.14139
 20
193.74570
 11
278.06940
 21
194.49380
  0
LINE
  8
7
 10
278.35471
 20
193.02640
 11
278.14139
 21
193.74570
  0
LINE
  8
7
 10
278.70120
 20
192.36349
 11
278.35471
 21
193.02640
  0
LINE
  8
7
 10
279.16739
 20
191.78250
 11
278.70120
 21
192.36349
  0
LINE
  8
7
 10
279.73550
 20
191.30560
 11
279.16739
 21
191.78250
  0
LINE
  8
7
 10
280.38361
 20
190.95129
 11
279.73550
 21
191.30560
  0
LINE
  8
7
 10
281.08679
 20
190.73309
 11
280.38361
 21
190.95129
  0
LINE
  8
7
 10
281.81821
 20
190.65939
 11
281.08679
 21
190.73309
  0
LINE
  8
7
 10
282.54950
 20
190.73309
 11
281.81821
 21
190.65939
  0
LINE
  8
7
 10
283.25281
 20
190.95129
 11
282.54950
 21
190.73309
  0
LINE
  8
7
 10
283.90091
 20
191.30560
 11
283.25281
 21
190.95129
  0
LINE
  8
7
 10
284.46899
 20
191.78250
 11
283.90091
 21
191.30560
  0
LINE
  8
7
 10
284.93521
 20
192.36349
 11
284.46899
 21
191.78250
  0
LINE
  8
7
 10
285.28159
 20
193.02640
 11
284.93521
 21
192.36349
  0
LINE
  8
7
 10
285.49490
 20
193.74570
 11
285.28159
 21
193.02640
  0
LINE
  8
7
 10
285.56699
 20
194.49380
 11
285.49490
 21
193.74570
  0
LINE
  8
7
 10
285.56699
 20
206.50070
 11
285.56699
 21
194.49380
  0
LINE
  8
7
 10
275.95740
 20
194.49380
 11
276.07001
 21
193.32430
  0
LINE
  8
7
 10
276.07001
 20
193.32430
 11
276.40350
 21
192.19980
  0
LINE
  8
7
 10
276.40350
 20
192.19980
 11
276.94510
 21
191.16341
  0
LINE
  8
7
 10
276.94510
 20
191.16341
 11
277.67401
 21
190.25500
  0
LINE
  8
7
 10
277.67401
 20
190.25500
 11
278.56210
 21
189.50951
  0
LINE
  8
7
 10
278.56210
 20
189.50951
 11
279.57541
 21
188.95560
  0
LINE
  8
7
 10
279.57541
 20
188.95560
 11
280.67480
 21
188.61450
  0
LINE
  8
7
 10
280.67480
 20
188.61450
 11
281.81821
 21
188.49930
  0
LINE
  8
7
 10
281.81821
 20
188.49930
 11
282.96161
 21
188.61450
  0
LINE
  8
7
 10
282.96161
 20
188.61450
 11
284.06100
 21
188.95560
  0
LINE
  8
7
 10
284.06100
 20
188.95560
 11
285.07431
 21
189.50951
  0
LINE
  8
7
 10
285.07431
 20
189.50951
 11
285.96240
 21
190.25500
  0
LINE
  8
7
 10
285.96240
 20
190.25500
 11
286.69131
 21
191.16341
  0
LINE
  8
7
 10
286.69131
 20
191.16341
 11
287.23279
 21
192.19980
  0
LINE
  8
7
 10
287.23279
 20
192.19980
 11
287.56641
 21
193.32430
  0
LINE
  8
7
 10
287.56641
 20
193.32430
 11
287.67899
 21
194.49380
  0
LINE
  8
7
 10
219.11459
 20
204.34061
 11
212.32100
 21
204.34061
  0
LINE
  8
7
 10
212.32100
 20
198.58009
 11
219.11459
 21
198.58009
  0
LINE
  8
7
 10
214.43300
 20
188.49930
 11
212.32100
 21
188.49930
  0
LINE
  8
7
 10
212.32100
 20
188.49930
 11
212.32100
 21
198.58009
  0
LINE
  8
7
 10
212.32100
 20
206.50070
 11
219.11459
 21
206.50070
  0
LINE
  8
7
 10
219.11459
 20
196.41991
 11
214.43300
 21
196.41991
  0
LINE
  8
7
 10
214.43300
 20
196.41991
 11
214.43300
 21
188.49930
  0
LINE
  8
7
 10
212.32100
 20
204.34061
 11
212.32100
 21
206.50070
  0
LINE
  8
7
 10
219.11459
 20
198.58009
 11
219.66400
 21
198.63541
  0
LINE
  8
7
 10
219.66400
 20
198.63541
 11
220.19231
 21
198.79930
  0
LINE
  8
7
 10
220.19231
 20
198.79930
 11
220.67909
 21
199.06551
  0
LINE
  8
7
 10
220.67909
 20
199.06551
 11
221.10580
 21
199.42371
  0
LINE
  8
7
 10
221.10580
 20
199.42371
 11
221.45599
 21
199.86011
  0
LINE
  8
7
 10
221.45599
 20
199.86011
 11
221.71629
 21
200.35809
  0
LINE
  8
7
 10
221.71629
 20
200.35809
 11
221.87650
 21
200.89841
  0
LINE
  8
7
 10
221.87650
 20
200.89841
 11
221.93060
 21
201.46030
  0
LINE
  8
7
 10
221.93060
 20
201.46030
 11
221.87650
 21
202.02220
  0
LINE
  8
7
 10
221.87650
 20
202.02220
 11
221.71629
 21
202.56250
  0
LINE
  8
7
 10
221.71629
 20
202.56250
 11
221.45599
 21
203.06050
  0
LINE
  8
7
 10
221.45599
 20
203.06050
 11
221.10580
 21
203.49699
  0
LINE
  8
7
 10
221.10580
 20
203.49699
 11
220.67909
 21
203.85510
  0
LINE
  8
7
 10
220.67909
 20
203.85510
 11
220.19231
 21
204.12131
  0
LINE
  8
7
 10
220.19231
 20
204.12131
 11
219.66400
 21
204.28520
  0
LINE
  8
7
 10
219.66400
 20
204.28520
 11
219.11459
 21
204.34061
  0
LINE
  8
7
 10
220.07600
 20
196.51680
 11
219.11459
 21
196.41991
  0
LINE
  8
7
 10
221.00050
 20
196.80360
 11
220.07600
 21
196.51680
  0
LINE
  8
7
 10
221.85249
 20
197.26939
 11
221.00050
 21
196.80360
  0
LINE
  8
7
 10
222.59920
 20
197.89619
 11
221.85249
 21
197.26939
  0
LINE
  8
7
 10
223.21210
 20
198.66000
 11
222.59920
 21
197.89619
  0
LINE
  8
7
 10
223.66750
 20
199.53140
 11
223.21210
 21
198.66000
  0
LINE
  8
7
 10
223.94791
 20
200.47701
 11
223.66750
 21
199.53140
  0
LINE
  8
7
 10
224.04260
 20
201.46030
 11
223.94791
 21
200.47701
  0
LINE
  8
7
 10
223.94791
 20
202.44360
 11
224.04260
 21
201.46030
  0
LINE
  8
7
 10
223.66750
 20
203.38921
 11
223.94791
 21
202.44360
  0
LINE
  8
7
 10
223.21210
 20
204.26060
 11
223.66750
 21
203.38921
  0
LINE
  8
7
 10
222.59920
 20
205.02440
 11
223.21210
 21
204.26060
  0
LINE
  8
7
 10
221.85249
 20
205.65131
 11
222.59920
 21
205.02440
  0
LINE
  8
7
 10
221.00050
 20
206.11700
 11
221.85249
 21
205.65131
  0
LINE
  8
7
 10
220.07600
 20
206.40390
 11
221.00050
 21
206.11700
  0
LINE
  8
7
 10
219.11459
 20
206.50070
 11
220.07600
 21
206.40390
  0
LINE
  8
7
 10
243.87041
 20
206.50070
 11
243.87041
 21
194.49380
  0
LINE
  8
7
 10
246.07919
 20
206.50070
 11
243.87041
 21
206.50070
  0
LINE
  8
7
 10
256.12961
 20
206.50070
 11
253.92081
 21
206.50070
  0
LINE
  8
7
 10
256.12961
 20
194.49380
 11
256.12961
 21
206.50070
  0
LINE
  8
7
 10
246.07919
 20
194.49380
 11
246.07919
 21
206.50070
  0
LINE
  8
7
 10
246.15460
 20
193.74570
 11
246.07919
 21
194.49380
  0
LINE
  8
7
 10
246.37770
 20
193.02640
 11
246.15460
 21
193.74570
  0
LINE
  8
7
 10
246.74001
 20
192.36349
 11
246.37770
 21
193.02640
  0
LINE
  8
7
 10
247.22760
 20
191.78250
 11
246.74001
 21
192.36349
  0
LINE
  8
7
 10
247.82170
 20
191.30560
 11
247.22760
 21
191.78250
  0
LINE
  8
7
 10
248.49960
 20
190.95129
 11
247.82170
 21
191.30560
  0
LINE
  8
7
 10
249.23511
 20
190.73309
 11
248.49960
 21
190.95129
  0
LINE
  8
7
 10
250.00000
 20
190.65939
 11
249.23511
 21
190.73309
  0
LINE
  8
7
 10
250.76489
 20
190.73309
 11
250.00000
 21
190.65939
  0
LINE
  8
7
 10
251.50040
 20
190.95129
 11
250.76489
 21
190.73309
  0
LINE
  8
7
 10
252.17821
 20
191.30560
 11
251.50040
 21
190.95129
  0
LINE
  8
7
 10
252.77240
 20
191.78250
 11
252.17821
 21
191.30560
  0
LINE
  8
7
 10
253.25999
 20
192.36349
 11
252.77240
 21
191.78250
  0
LINE
  8
7
 10
253.62230
 20
193.02640
 11
253.25999
 21
192.36349
  0
LINE
  8
7
 10
253.84540
 20
193.74570
 11
253.62230
 21
193.02640
  0
LINE
  8
7
 10
253.92081
 20
194.49380
 11
253.84540
 21
193.74570
  0
LINE
  8
7
 10
253.92081
 20
206.50070
 11
253.92081
 21
194.49380
  0
LINE
  8
7
 10
243.87041
 20
194.49380
 11
243.98810
 21
193.32430
  0
LINE
  8
7
 10
243.98810
 20
193.32430
 11
244.33701
 21
192.19980
  0
LINE
  8
7
 10
244.33701
 20
192.19980
 11
244.90340
 21
191.16341
  0
LINE
  8
7
 10
244.90340
 20
191.16341
 11
245.66570
 21
190.25500
  0
LINE
  8
7
 10
245.66570
 20
190.25500
 11
246.59460
 21
189.50951
  0
LINE
  8
7
 10
246.59460
 20
189.50951
 11
247.65430
 21
188.95560
  0
LINE
  8
7
 10
247.65430
 20
188.95560
 11
248.80420
 21
188.61450
  0
LINE
  8
7
 10
248.80420
 20
188.61450
 11
250.00000
 21
188.49930
  0
LINE
  8
7
 10
250.00000
 20
188.49930
 11
251.19580
 21
188.61450
  0
LINE
  8
7
 10
251.19580
 20
188.61450
 11
252.34570
 21
188.95560
  0
LINE
  8
7
 10
252.34570
 20
188.95560
 11
253.40540
 21
189.50951
  0
LINE
  8
7
 10
253.40540
 20
189.50951
 11
254.33430
 21
190.25500
  0
LINE
  8
7
 10
254.33430
 20
190.25500
 11
255.09660
 21
191.16341
  0
LINE
  8
7
 10
255.09660
 20
191.16341
 11
255.66299
 21
192.19980
  0
LINE
  8
7
 10
255.66299
 20
192.19980
 11
256.01181
 21
193.32430
  0
LINE
  8
7
 10
256.01181
 20
193.32430
 11
256.12961
 21
194.49380
  0
LINE
  8
7
 10
245.03960
 20
171.50070
 11
250.00000
 21
164.16370
  0
LINE
  8
7
 10
254.96040
 20
153.49930
 11
254.96040
 21
166.83681
  0
LINE
  8
7
 10
254.96040
 20
166.83681
 11
250.00000
 21
159.49980
  0
LINE
  8
7
 10
250.00000
 20
159.49980
 11
245.03960
 21
166.83681
  0
LINE
  8
7
 10
245.03960
 20
166.83681
 11
245.03960
 21
153.49930
  0
LINE
  8
7
 10
245.03960
 20
153.49930
 11
242.24500
 21
153.49930
  0
LINE
  8
7
 10
250.00000
 20
164.16370
 11
254.96040
 21
171.50070
  0
LINE
  8
7
 10
254.96040
 20
171.50070
 11
257.75500
 21
171.50070
  0
LINE
  8
7
 10
257.75500
 20
171.50070
 11
257.75500
 21
153.49930
  0
LINE
  8
7
 10
257.75500
 20
153.49930
 11
254.96040
 21
153.49930
  0
LINE
  8
7
 10
242.24500
 20
153.49930
 11
242.24500
 21
171.50070
  0
LINE
  8
7
 10
242.24500
 20
171.50070
 11
245.03960
 21
171.50070
  0
LINE
  8
7
 10
.00000
 20
500.00000
 11
.00000
 21
.00000
  0
LINE
  8
7
 10
500.00000
 20
500.00000
 11
.00000
 21
500.00000
  0
LINE
  8
7
 10
500.00000
 20
.00000
 11
500.00000
 21
500.00000
  0
LINE
  8
7
 10
.00000
 20
.00000
 11
500.00000
 21
.00000
  0
ENDSEC
  0
EOF
